<svg width="52" height="60" viewBox="0 0 52 60" fill="none" xmlns="http://www.w3.org/2000/svg">
<g clip-path="url(#clip0_95_423)">
<path d="M25.5376 14.5166C28.8513 14.5166 31.7583 13.2226 34.2584 10.6346C36.7586 8.04657 38.0087 5.03716 38.0087 1.60636C38.0087 1.22956 37.9789 0.694105 37.9194 0C37.4829 0.0594947 37.1555 0.109074 36.9372 0.148737C33.8814 0.585032 31.1927 2.08232 28.8711 4.64053C26.5496 7.1988 25.3888 9.93556 25.3888 12.8508C25.3888 13.1879 25.4384 13.7432 25.5376 14.5166ZM37.4134 60C39.7747 60 42.384 58.3838 45.2414 55.1512C48.0988 51.9187 50.2814 48.1209 51.7895 43.7581C46.174 40.8627 43.3662 36.708 43.3662 31.294C43.3662 26.7724 45.6382 22.9053 50.1822 19.6926C47.0272 15.7461 42.8603 13.7729 37.6813 13.7729C35.4986 13.7729 33.5044 14.1001 31.6988 14.7546L30.5677 15.171L29.0497 15.766C28.0576 16.1428 27.1547 16.3312 26.3412 16.3312C25.7062 16.3312 24.8728 16.113 23.841 15.6767L22.6802 15.2008L21.579 14.7546C19.9717 14.0803 18.2454 13.7432 16.4 13.7432C11.4592 13.7432 7.49065 15.409 4.49438 18.7407C1.49811 22.0724 0 26.4651 0 31.9187C0 39.5934 2.40095 46.6832 7.20291 53.1879C10.5365 57.7293 13.5824 60 16.3405 60C17.5112 60 18.672 59.7719 19.8229 59.3158L21.2813 58.7209L22.4421 58.3044C24.0692 57.7293 25.5673 57.4417 26.9365 57.4417C28.385 57.4417 30.0518 57.8087 31.9369 58.5424L32.8595 58.8993C34.7842 59.6331 36.3023 60 37.4134 60Z" fill="#1D1F17"/>
</g>
<defs>
<clipPath id="clip0_95_423">
<rect width="51.7895" height="60" fill="white"/>
</clipPath>
</defs>
</svg>
