<svg width="36" height="35" viewBox="0 0 36 35" fill="none" xmlns="http://www.w3.org/2000/svg">
<path d="M26.262 7.29153C28.2032 8.82429 29.3105 10.976 29.5251 13.1576" stroke="#1D1F17" stroke-width="2.1875" stroke-linecap="round" stroke-linejoin="round"/>
<path d="M9.73802 7.29153C7.79682 8.82429 6.68949 10.976 6.47493 13.1576" stroke="#1D1F17" stroke-width="2.1875" stroke-linecap="round" stroke-linejoin="round"/>
<path fill-rule="evenodd" clip-rule="evenodd" d="M15.0819 6.2615V6.19792C15.0819 4.58709 16.3877 3.28125 17.9985 3.28125C19.6094 3.28125 20.9152 4.58709 20.9152 6.19792V6.26053C24.3027 7.41587 26.6431 10.771 26.3113 14.5524C26.1253 16.673 26.7902 18.7805 28.1593 20.4105L28.8755 21.263C30.7766 23.5263 29.1676 26.9792 26.2119 26.9792H21.2994H14.6985H9.78808C6.83233 26.9792 5.22333 23.5263 7.12444 21.263L7.8406 20.4105C9.20977 18.7805 9.87461 16.673 9.6886 14.5524C9.35699 10.7721 11.6959 7.41775 15.0819 6.2615Z" fill="#1D1F17" fill-opacity="0.2"/>
<path d="M20.9163 29.1665H15.083C15.083 30.7773 16.3888 32.0832 17.9997 32.0832C19.6105 32.0832 20.9163 30.7773 20.9163 29.1665Z" fill="#1D1F17"/>
</svg>
