<svg width="50" height="50" viewBox="0 0 50 50" fill="none" xmlns="http://www.w3.org/2000/svg">
<path d="M27.292 17.1875C27.292 14.0234 29.857 11.4583 33.0212 11.4583C36.1853 11.4583 38.7503 14.0234 38.7503 17.1875C38.7503 20.3516 36.1853 22.9167 33.0212 22.9167C29.857 22.9167 27.292 20.3516 27.292 17.1875Z" fill="#1D1F17"/>
<path d="M11.667 13.0208C11.667 9.8567 14.232 7.29166 17.3962 7.29166C20.5603 7.29166 23.1253 9.8567 23.1253 13.0208C23.1253 16.185 20.5603 18.75 17.3962 18.75C14.232 18.75 11.667 16.185 11.667 13.0208Z" fill="#1D1F17"/>
<path fill-rule="evenodd" clip-rule="evenodd" d="M29.0535 28.1897C29.1404 28.5652 29.2376 29.0246 29.3643 29.6238C29.6282 30.8715 29.7601 31.4954 29.7836 32.0026C29.9303 35.1715 27.6798 37.9476 24.5491 38.4597C24.0669 38.5386 23.4582 38.5416 22.2765 38.5417C22.4742 39.1318 23.028 39.5833 23.721 39.5833H37.5828C38.7954 39.5833 39.1987 39.5777 39.4616 39.534C41.4848 39.1977 42.8326 37.2594 42.4434 35.2457C42.3929 34.9843 42.258 34.6049 41.8371 33.4716L41.8355 33.4672L41.8354 33.4671C41.4925 32.5439 41.3591 32.1907 41.2117 31.8927C40.1814 29.8109 38.1559 28.4024 35.8455 28.1615C35.5149 28.127 35.1373 28.125 34.1524 28.125H30.4325C29.973 28.125 29.7987 28.1255 29.629 28.1345C29.4364 28.1447 29.2444 28.1632 29.0535 28.1897ZM27.8519 25.2332C26.3756 22.8751 23.8998 21.2591 21.0665 20.9055C20.4883 20.8333 19.8324 20.8333 18.5205 20.8333H16.1165C14.762 20.8333 14.0847 20.8333 13.4756 20.9135C10.3414 21.3261 7.62624 23.2904 6.25378 26.1381C5.98704 26.6916 5.77514 27.3349 5.35134 28.6214C4.84567 30.1565 4.59283 30.924 4.51824 31.5383C4.12453 34.7809 6.29406 37.7797 9.497 38.4203C10.1038 38.5417 10.9119 38.5417 12.5281 38.5417H19.0951C19.3311 40.8012 21.2322 42.7083 23.721 42.7083H37.5828L37.7492 42.7084C38.7289 42.7086 39.4197 42.7088 39.9741 42.6167C43.7314 41.9921 46.2344 38.3924 45.5116 34.6527C45.405 34.1009 45.1642 33.4534 44.8229 32.5351L44.8229 32.5351L44.7649 32.3792L44.7649 32.3791L44.7649 32.3791L44.7616 32.3702L44.7615 32.3701L44.7323 32.2913L44.7323 32.2912C44.4329 31.4851 44.2412 30.9689 44.0125 30.5067C42.5067 27.4639 39.5463 25.4055 36.1697 25.0534C35.6568 24.9999 35.106 24.9999 34.2461 25L34.1524 25H30.4325L30.3908 25C29.9866 25 29.7259 25 29.4635 25.0139C28.921 25.0427 28.382 25.116 27.8519 25.2332Z" fill="#1D1F17" fill-opacity="0.18"/>
</svg>
