<svg width="50" height="50" viewBox="0 0 50 50" fill="none" xmlns="http://www.w3.org/2000/svg">
<path fill-rule="evenodd" clip-rule="evenodd" d="M45.3125 32.8835V29.6875C45.3125 25.3728 41.8147 21.875 37.5 21.875L35.9679 18.3512C34.3877 14.7168 33.5977 12.8996 32.1808 11.7149C31.7166 11.3267 31.2087 10.9938 30.6676 10.7228C29.0163 9.89583 27.0347 9.89583 23.0716 9.89583H21.3542C16.9788 9.89583 14.791 9.89583 13.1199 10.7473C11.6498 11.4964 10.4547 12.6915 9.70568 14.1615C8.85417 15.8327 8.85417 18.0204 8.85417 22.3958H7.5H7.49999C6.3282 22.3958 5.74231 22.3958 5.33159 22.6942C5.19894 22.7906 5.08229 22.9073 4.98591 23.0399C4.6875 23.4506 4.6875 24.0365 4.6875 25.2083V31.4583C4.6875 34.1925 4.6875 35.5596 5.38379 36.518C5.60867 36.8275 5.88085 37.0997 6.19037 37.3245C6.8616 37.8122 7.73333 37.9583 9.13484 38.0021C8.9513 37.3475 8.85417 36.6546 8.85417 35.9375C8.85417 31.9104 11.9174 28.6458 16.1458 28.6458C20.3743 28.6458 23.4375 31.9104 23.4375 35.9375C23.4375 36.6614 23.3385 37.3607 23.1516 38.0208H25H26.8484C26.6615 37.3607 26.5625 36.6614 26.5625 35.9375C26.5625 31.9104 29.6257 28.6458 33.8542 28.6458C38.0826 28.6458 41.1458 31.9104 41.1458 35.9375C41.1458 36.661 41.047 37.3599 40.8602 38.0197C41.8088 38.0148 42.3583 37.9873 42.818 37.8343C43.9079 37.4715 44.7632 36.6163 45.1259 35.5263C45.3125 34.9658 45.3125 34.2717 45.3125 32.8835Z" fill="#1D1F17" fill-opacity="0.18"/>
<path d="M29.6873 35.9375C29.6873 33.6363 31.4378 31.7708 33.854 31.7708C36.2702 31.7708 38.0207 33.6363 38.0207 35.9375C38.0207 38.2387 36.2702 40.1042 33.854 40.1042C31.4378 40.1042 29.6873 38.2387 29.6873 35.9375Z" fill="#1D1F17"/>
<path d="M11.979 35.9375C11.979 33.6363 13.7294 31.7708 16.1457 31.7708C18.5619 31.7708 20.3123 33.6363 20.3123 35.9375C20.3123 38.2387 18.5619 40.1042 16.1457 40.1042C13.7294 40.1042 11.979 38.2387 11.979 35.9375Z" fill="#1D1F17"/>
<path d="M32.5567 25C33.6946 25 34.2635 25 34.5694 24.6897C34.6663 24.5915 34.7428 24.4749 34.7942 24.3469C34.9568 23.9426 34.7299 23.4209 34.2762 22.3774L32.1177 17.4128C31.59 16.199 31.3261 15.5921 30.9594 15.1034C30.2295 14.1305 29.182 13.4437 27.9987 13.1622C27.4043 13.0208 26.7426 13.0208 25.4191 13.0208V13.0208C25.0289 13.0208 24.8338 13.0208 24.676 13.0724C24.3605 13.1756 24.113 13.4231 24.0098 13.7387C23.9582 13.8965 23.9582 14.0916 23.9582 14.4817V23.125C23.9582 23.9062 23.9582 24.2968 24.1571 24.5706C24.2214 24.659 24.2991 24.7368 24.3876 24.8011C24.6614 25 25.052 25 25.8332 25H32.5567Z" fill="#1D1F17"/>
<path d="M19.5683 13.0208C18.324 13.0208 17.7018 13.0208 17.1821 13.1091C14.5635 13.554 12.5122 15.6054 12.0673 18.2239C11.979 18.7436 11.979 19.3658 11.979 20.6101V23.2887C11.979 23.9142 11.979 24.227 12.109 24.4622C12.2038 24.6338 12.3452 24.7752 12.5168 24.87C12.752 25 13.0648 25 13.6903 25H18.9582C19.7394 25 20.13 25 20.4038 24.8011C20.4922 24.7368 20.57 24.659 20.6342 24.5706C20.8332 24.2968 20.8332 23.9062 20.8332 23.125V14.2857C20.8332 14.0783 20.8332 13.9746 20.8185 13.888C20.7443 13.4516 20.4024 13.1097 19.966 13.0355C19.8794 13.0208 19.7757 13.0208 19.5683 13.0208V13.0208Z" fill="#1D1F17"/>
</svg>
