<svg width="50" height="50" viewBox="0 0 50 50" fill="none" xmlns="http://www.w3.org/2000/svg">
<path d="M14.0625 23.4375H9.375C8.89131 23.4375 8.64947 23.4375 8.44576 23.4576C6.46752 23.6524 4.9024 25.2175 4.70756 27.1958C4.6875 27.3995 4.6875 27.6413 4.6875 28.125V32.8125C4.6875 37.9902 8.88483 42.1875 14.0625 42.1875C19.2402 42.1875 23.4375 37.9902 23.4375 32.8125C23.4375 27.6348 19.2402 23.4375 14.0625 23.4375Z" fill="#1D1F17" fill-opacity="0.18"/>
<path d="M40.625 23.4375H35.9375C30.7598 23.4375 26.5625 27.6348 26.5625 32.8125C26.5625 37.9902 30.7598 42.1875 35.9375 42.1875C41.1152 42.1875 45.3125 37.9902 45.3125 32.8125V28.125C45.3125 27.6413 45.3125 27.3995 45.2924 27.1958C45.0976 25.2175 43.5325 23.6524 41.5542 23.4576C41.3505 23.4375 41.1087 23.4375 40.625 23.4375Z" fill="#1D1F17" fill-opacity="0.18"/>
<path fill-rule="evenodd" clip-rule="evenodd" d="M16.0745 9.84105C16.3319 9.01739 15.8728 8.14102 15.0492 7.88362C14.2255 7.62623 13.3491 8.08528 13.0918 8.90895L8.54785 23.4494C8.73348 23.4376 8.96905 23.4376 9.3748 23.4376H11.8256L16.0745 9.84105ZM23.4225 33.3441C23.4323 33.1682 23.4373 32.991 23.4373 32.8126C23.4373 31.847 23.2913 30.9156 23.0203 30.0391C23.6372 29.8118 24.3042 29.6875 24.9998 29.6875C25.6954 29.6875 26.3624 29.8118 26.9793 30.0391C26.7083 30.9156 26.5623 31.847 26.5623 32.8126C26.5623 32.991 26.5673 33.1682 26.5771 33.3441C26.1387 33.0096 25.5928 32.8125 24.9998 32.8125C24.4068 32.8125 23.8609 33.0096 23.4225 33.3441ZM41.4517 23.4494L36.9078 8.90894C36.6504 8.08528 35.7741 7.62623 34.9504 7.88362C34.1267 8.14102 33.6677 9.01739 33.9251 9.84105L38.174 23.4376H40.6248C41.0305 23.4376 41.2661 23.4376 41.4517 23.4494Z" fill="#1D1F17"/>
</svg>
