<svg width="46" height="46" viewBox="0 0 46 46" fill="none" xmlns="http://www.w3.org/2000/svg">
<path d="M6.23658 23.743C6.2311 24.1174 6.3154 24.4877 6.48244 24.8228C6.88369 25.6278 7.69055 25.8974 8.14281 26.0219C8.6393 26.1586 9.29286 26.2602 10.0072 26.3713L10.0072 26.3713L16.7415 27.4191L12.2555 35.3418C11.7217 36.2844 11.269 37.0839 10.9926 37.7061C10.8507 38.0255 10.7147 38.3849 10.6545 38.7508C10.5935 39.1217 10.5863 39.6504 10.8912 40.1598C11.104 40.5153 11.4072 40.8081 11.77 41.0083C12.2898 41.2951 12.818 41.2694 13.1864 41.1954C13.55 41.1224 13.9044 40.9739 14.2186 40.8209C14.8307 40.5229 15.6138 40.0424 16.5371 39.4759L37.1568 26.8252C37.754 26.459 38.3039 26.1216 38.7006 25.8102C39.0673 25.5223 39.6902 24.9727 39.7571 24.0915C39.766 23.9751 39.7661 23.8586 39.7576 23.743H6.23658Z" fill="#1D1F17" fill-opacity="0.2"/>
<path d="M33.9289 4.97313C33.3834 4.70253 32.8442 4.76243 32.4799 4.85729C32.1172 4.95174 31.7651 5.1223 31.4515 5.29646C30.8387 5.63677 30.0558 6.17484 29.1268 6.8133L29.1267 6.81335L8.74328 20.8212C8.14744 21.2306 7.60228 21.6052 7.21391 21.9433C6.86013 22.2514 6.2495 22.8437 6.23633 23.7431H39.7574C39.7389 23.4912 39.6799 23.2432 39.5818 23.0089C39.2404 22.1937 38.476 21.8685 38.0373 21.7109C37.5627 21.5404 36.9345 21.3936 36.2524 21.2343L36.2523 21.2343L28.99 19.537L33.59 10.7764C34.114 9.77834 34.5557 8.93722 34.8212 8.28848C34.957 7.95649 35.0847 7.5867 35.1356 7.21535C35.1867 6.84239 35.1824 6.29989 34.8491 5.7902C34.6206 5.44074 34.3029 5.15866 33.9289 4.97313Z" fill="#1D1F17"/>
</svg>
