<svg width="30" height="30" viewBox="0 0 30 30" fill="none" xmlns="http://www.w3.org/2000/svg">
<path d="M10 7.8125V7.8125C10 5.56884 11.8188 3.75 14.0625 3.75H15.9375C18.1812 3.75 20 5.56884 20 7.8125V7.8125" stroke="#1D1F17" stroke-width="1.875" stroke-linejoin="round"/>
<path d="M12.5 11.7236H17.5" stroke="#1D1F17" stroke-width="1.875" stroke-linecap="round" stroke-linejoin="round"/>
<path d="M2.8125 17.8571C2.8125 21.0225 2.8125 22.6052 3.4005 23.8262C3.98411 25.0381 4.96193 26.0159 6.17382 26.5995C7.3948 27.1875 8.97749 27.1875 12.1429 27.1875H17.8571C21.0225 27.1875 22.6052 27.1875 23.8262 26.5995C25.0381 26.0159 26.0159 25.0381 26.5995 23.8262C27.1875 22.6052 27.1875 21.0225 27.1875 17.8571V17.8571C27.1875 17.5239 27.1875 17.3573 27.1256 17.2288C27.0642 17.1013 26.9612 16.9983 26.8337 16.9369C26.7052 16.875 26.5386 16.875 26.2054 16.875H3.79464C3.46145 16.875 3.29485 16.875 3.16632 16.9369C3.03876 16.9983 2.93583 17.1013 2.87439 17.2288C2.8125 17.3573 2.8125 17.5239 2.8125 17.8571V17.8571Z" fill="#1D1F17" fill-opacity="0.18"/>
<path d="M27.1875 14.3155C27.1875 13.7904 27.1875 13.5278 27.1709 13.3063C26.9514 10.3771 24.6229 8.04862 21.6937 7.8291C21.4722 7.8125 21.2096 7.8125 20.6845 7.8125H9.31548C8.79038 7.8125 8.52783 7.8125 8.30629 7.8291C5.37706 8.04862 3.04862 10.3771 2.8291 13.3063C2.8125 13.5278 2.8125 13.7904 2.8125 14.3155V14.3155C2.8125 14.3707 2.8125 14.3984 2.81425 14.4217C2.83735 14.73 3.08245 14.9751 3.39079 14.9983C3.41411 15 3.44175 15 3.49703 15H26.503C26.5582 15 26.5859 15 26.6092 14.9983C26.9175 14.9751 27.1626 14.73 27.1858 14.4217C27.1875 14.3984 27.1875 14.3707 27.1875 14.3155V14.3155Z" fill="#1D1F17" fill-opacity="0.18"/>
</svg>
