<svg width="51" height="51" viewBox="0 0 51 51" fill="none" xmlns="http://www.w3.org/2000/svg">
<path d="M28.625 25.5C28.625 27.2259 27.2259 28.625 25.5 28.625C23.7741 28.625 22.375 27.2259 22.375 25.5C22.375 23.7741 23.7741 22.375 25.5 22.375C27.2259 22.375 28.625 23.7741 28.625 25.5Z" fill="#E9996B"/>
<path d="M35.9163 25.5C35.9163 31.253 31.2526 35.9167 25.4997 35.9167C19.7467 35.9167 15.083 31.253 15.083 25.5C15.083 19.7471 19.7467 15.0834 25.4997 15.0834C31.2526 15.0834 35.9163 19.7471 35.9163 25.5Z" stroke="#E9996B" stroke-width="3.125" stroke-linejoin="round"/>
<path d="M25.5 45.8125C36.7183 45.8125 45.8125 36.7183 45.8125 25.5C45.8125 14.2817 36.7183 5.1875 25.5 5.1875C14.2817 5.1875 5.1875 14.2817 5.1875 25.5C5.1875 36.7183 14.2817 45.8125 25.5 45.8125Z" fill="#E9996B" fill-opacity="0.2"/>
</svg>
