<svg width="24" height="25" viewBox="0 0 24 25" fill="none" xmlns="http://www.w3.org/2000/svg">
<path d="M9.88445 4.26211C11.0289 3.03763 12.9707 3.03763 14.1151 4.26211C14.6859 4.87283 15.4928 5.20705 16.3282 5.17881C18.0033 5.12221 19.3764 6.49528 19.3198 8.17034C19.2915 9.0058 19.6258 9.81268 20.2365 10.3835C21.4609 11.5279 21.4609 13.4697 20.2365 14.6141C19.6258 15.1849 19.2915 15.9918 19.3198 16.8273C19.3764 18.5023 18.0033 19.8754 16.3282 19.8188C15.4928 19.7906 14.6859 20.1248 14.1151 20.7355C12.9707 21.96 11.0289 21.96 9.88445 20.7355C9.31366 20.1248 8.50677 19.7906 7.67132 19.8188C5.99626 19.8754 4.62318 18.5023 4.67979 16.8273C4.70803 15.9918 4.3738 15.1849 3.76308 14.6141C2.53861 13.4697 2.53861 11.5279 3.76308 10.3835C4.3738 9.81268 4.70803 9.0058 4.67979 8.17034C4.62318 6.49528 5.99626 5.12221 7.67132 5.17881C8.50677 5.20705 9.31366 4.87283 9.88445 4.26211Z" stroke="#E9996B" stroke-width="1.5"/>
<path d="M8.5 12.5L9.96217 14.2407C10.2254 14.5541 10.3571 14.7108 10.5267 14.7461C10.5812 14.7574 10.6373 14.7596 10.6925 14.7524C10.8644 14.7302 11.0076 14.5841 11.2941 14.2917L15.5 10" stroke="#E9996B" stroke-width="1.5" stroke-linecap="round" stroke-linejoin="round"/>
</svg>
