<svg width="30" height="30" viewBox="0 0 30 30" fill="none" xmlns="http://www.w3.org/2000/svg">
<path fill-rule="evenodd" clip-rule="evenodd" d="M15 2.8125C8.26903 2.8125 2.8125 8.26903 2.8125 15C2.8125 21.731 8.26903 27.1875 15 27.1875C21.731 27.1875 27.1875 21.731 27.1875 15C27.1875 8.26903 21.731 2.8125 15 2.8125ZM9.96209 13.7879L14.3371 18.1629C14.7032 18.529 15.2968 18.529 15.6629 18.1629L20.0379 13.7879C20.404 13.4218 20.404 12.8282 20.0379 12.4621C19.6718 12.096 19.0782 12.096 18.7121 12.4621L15 16.1742L11.2879 12.4621C10.9218 12.096 10.3282 12.096 9.96209 12.4621C9.59597 12.8282 9.59597 13.4218 9.96209 13.7879Z" fill="#1D1F17"/>
</svg>
