<svg width="182" height="50" viewBox="0 0 182 50" fill="none" xmlns="http://www.w3.org/2000/svg">
<path d="M42.877 34.2558V14.8214H46.4723L55.7136 28.5088V14.8214H59.309V34.2558H55.7136L46.4723 20.5962V34.2558H42.877Z" fill="#1D1F17"/>
<path d="M68.4025 34.589C66.998 34.589 65.7528 34.2926 64.6667 33.7005C63.5807 33.1083 62.7286 32.2753 62.1105 31.2019C61.4925 30.1281 61.1836 28.8882 61.1836 27.4815C61.1836 26.0563 61.4832 24.7885 62.0826 23.6779C62.7004 22.5674 63.5431 21.7067 64.6105 21.0959C65.6966 20.4666 66.97 20.152 68.4305 20.152C69.7978 20.152 71.0054 20.4481 72.0541 21.0404C73.1029 21.6327 73.9174 22.4471 74.4979 23.4836C75.0973 24.5016 75.3968 25.6399 75.3968 26.8985C75.3968 27.1021 75.3875 27.3149 75.3686 27.537C75.3686 27.7591 75.3592 27.9904 75.3406 28.2312H64.751C64.8259 29.3047 65.2003 30.1468 65.8746 30.7575C66.5673 31.3683 67.4007 31.6737 68.3746 31.6737C69.1048 31.6737 69.7133 31.5164 70.2002 31.2019C70.7058 30.8686 71.0803 30.4429 71.3239 29.9248H74.9755C74.7132 30.7946 74.2732 31.5904 73.6551 32.3122C73.056 33.0156 72.3071 33.5709 71.4081 33.9781C70.5281 34.3854 69.5262 34.589 68.4025 34.589ZM68.4305 23.0394C67.5505 23.0394 66.7733 23.2892 66.0993 23.789C65.425 24.2702 64.9943 25.0106 64.8072 26.01H71.7452C71.689 25.1031 71.3519 24.3813 70.7341 23.8445C70.116 23.3077 69.3482 23.0394 68.4305 23.0394Z" fill="#1D1F17"/>
<path d="M74.7363 34.2559L79.7922 27.3705L74.7363 20.4852H78.5846L82.1237 25.3716L85.6348 20.4852H89.5111L84.427 27.3705L89.5111 34.2559H85.6348L82.1237 29.3696L78.5846 34.2559H74.7363Z" fill="#1D1F17"/>
<path d="M96.6037 34.2559C95.1429 34.2559 93.9726 33.9042 93.0923 33.2009C92.2123 32.4975 91.7722 31.2481 91.7722 29.4528V23.4559H89.3848V20.4852H91.7722L92.1936 16.7927H95.3676V20.4852H99.1317V23.4559H95.3676V29.4805C95.3676 30.1469 95.5081 30.6095 95.789 30.8687C96.0885 31.1092 96.5941 31.2296 97.3057 31.2296H99.0474V34.2559H96.6037Z" fill="#1D1F17"/>
<path d="M100.814 34.2558V20.4851H103.989L104.298 22.3453C104.747 21.679 105.337 21.1514 106.067 20.7628C106.816 20.3556 107.678 20.152 108.651 20.152C110.805 20.152 112.331 20.9756 113.23 22.6229C113.736 21.864 114.41 21.2625 115.252 20.8183C116.114 20.3741 117.05 20.152 118.061 20.152C119.878 20.152 121.273 20.6887 122.247 21.7623C123.22 22.8358 123.707 24.409 123.707 26.482V34.2558H120.112V26.8152C120.112 25.6306 119.878 24.7237 119.41 24.0944C118.96 23.4651 118.258 23.1504 117.303 23.1504C116.329 23.1504 115.543 23.5021 114.943 24.2054C114.363 24.9088 114.073 25.8897 114.073 27.1483V34.2558H110.477V26.8152C110.477 25.6306 110.243 24.7237 109.775 24.0944C109.307 23.4651 108.586 23.1504 107.612 23.1504C106.657 23.1504 105.88 23.5021 105.281 24.2054C104.7 24.9088 104.41 25.8897 104.41 27.1483V34.2558H100.814Z" fill="#1D1F17"/>
<path d="M132.402 34.589C131.054 34.589 129.837 34.2834 128.751 33.6728C127.683 33.0619 126.831 32.2197 126.195 31.1463C125.576 30.0541 125.268 28.7957 125.268 27.3704C125.268 25.9452 125.586 24.6959 126.223 23.6224C126.859 22.5304 127.711 21.679 128.779 21.0682C129.865 20.4574 131.082 20.152 132.43 20.152C133.76 20.152 134.958 20.4574 136.026 21.0682C137.112 21.679 137.964 22.5304 138.582 23.6224C139.219 24.6959 139.537 25.9452 139.537 27.3704C139.537 28.7957 139.219 30.0541 138.582 31.1463C137.964 32.2197 137.112 33.0619 136.026 33.6728C134.94 34.2834 133.732 34.589 132.402 34.589ZM132.402 31.5072C133.339 31.5072 134.153 31.1647 134.846 30.4798C135.539 29.7767 135.885 28.7401 135.885 27.3704C135.885 26.0008 135.539 24.9735 134.846 24.2887C134.153 23.5854 133.348 23.2337 132.43 23.2337C131.475 23.2337 130.651 23.5854 129.958 24.2887C129.284 24.9735 128.947 26.0008 128.947 27.3704C128.947 28.7401 129.284 29.7767 129.958 30.4798C130.651 31.1647 131.466 31.5072 132.402 31.5072Z" fill="#1D1F17"/>
<path d="M144.425 34.2559L139.312 20.4852H143.077L146.616 30.8964L150.155 20.4852H153.919L148.779 34.2559H144.425Z" fill="#1D1F17"/>
<path d="M160.865 34.589C159.461 34.589 158.216 34.2926 157.13 33.7005C156.044 33.1083 155.191 32.2753 154.573 31.2019C153.956 30.1281 153.646 28.8882 153.646 27.4815C153.646 26.0563 153.946 24.7885 154.545 23.6779C155.164 22.5674 156.006 21.7067 157.073 21.0959C158.159 20.4666 159.433 20.152 160.894 20.152C162.261 20.152 163.469 20.4481 164.517 21.0404C165.566 21.6327 166.38 22.4471 166.961 23.4836C167.56 24.5016 167.86 25.6399 167.86 26.8985C167.86 27.1021 167.85 27.3149 167.832 27.537C167.832 27.7591 167.822 27.9904 167.803 28.2312H157.214C157.289 29.3047 157.663 30.1468 158.338 30.7575C159.03 31.3683 159.864 31.6737 160.837 31.6737C161.568 31.6737 162.176 31.5164 162.663 31.2019C163.169 30.8686 163.543 30.4429 163.787 29.9248H167.438C167.176 30.7946 166.736 31.5904 166.118 32.3122C165.519 33.0156 164.77 33.5709 163.871 33.9781C162.991 34.3854 161.989 34.589 160.865 34.589ZM160.894 23.0394C160.013 23.0394 159.236 23.2892 158.562 23.789C157.888 24.2702 157.457 25.0106 157.27 26.01H164.208C164.152 25.1031 163.815 24.3813 163.197 23.8445C162.579 23.3077 161.811 23.0394 160.894 23.0394Z" fill="#1D1F17"/>
<path d="M25.1484 14.4437V23.2292C25.1484 24.2319 24.3259 25.0448 23.3114 25.0448H14.4227V21.4136H18.8716L14.1973 16.7934L16.7951 14.2257L21.4744 18.8507V14.4437H25.1484Z" fill="#1D1F17"/>
<path d="M35.9991 25.1693H27.1104C26.0959 25.1693 25.2734 25.9822 25.2734 26.985V35.7706H28.9474V31.3728L33.6221 35.9932L36.2198 33.4256L31.5407 28.8005H35.9991V25.1693Z" fill="#1D1F17"/>
</svg>
