<svg width="182" height="72" viewBox="0 0 182 72" fill="none" xmlns="http://www.w3.org/2000/svg">
<path d="M25.7362 25.6275C27.6031 23.8338 30.1382 22.7868 32.7076 22.6566C33.587 22.6566 34.4689 22.6619 35.3483 22.6539C35.3034 23.6026 35.3483 24.554 35.3219 25.5026C35.1978 27.6232 34.4187 29.6959 33.1063 31.3595C31.4004 33.597 28.7915 35.0984 26.0214 35.4864C24.812 35.683 23.584 35.5581 22.3667 35.5926C22.3878 34.5483 22.3218 33.5013 22.4037 32.4596C22.6413 29.8767 23.8534 27.4026 25.7362 25.6275Z" fill="#1D1F17"/>
<path d="M36.1621 22.6539C37.1048 22.6646 38.0476 22.6486 38.9929 22.6592C41.3458 22.8266 43.6669 23.7355 45.4387 25.3113C47.3928 26.9987 48.7317 29.4116 49.0751 31.9893C49.2254 33.1851 49.1306 34.3942 49.1887 35.5953C48.3646 35.5926 47.5435 35.59 46.7194 35.5953C44.6941 35.5395 42.7031 34.8805 41.0078 33.7697C40.2261 33.2063 39.4233 32.635 38.8371 31.8537C37.5511 30.4081 36.6771 28.5932 36.347 26.6799C36.0987 25.3511 36.1991 23.9959 36.1621 22.6539Z" fill="#1D1F17"/>
<path d="M22.3691 36.3552C23.2062 36.4031 24.046 36.3154 24.8804 36.4084C28.4533 36.4854 31.9205 38.505 33.7716 41.5796C34.8332 43.3016 35.4035 45.3426 35.3296 47.3698C35.3269 48.0345 35.3375 48.696 35.319 49.3579C33.9934 49.3179 32.6546 49.4268 31.3422 49.1689C28.4269 48.6748 25.7466 46.9288 24.1331 44.4363C22.9105 42.6239 22.3005 40.4104 22.3639 38.2234C22.3639 37.5988 22.3639 36.977 22.3691 36.3552Z" fill="#1D1F17"/>
<path d="M44.727 36.6367C46.1637 36.3151 47.6448 36.3683 49.1052 36.3683L49.1687 36.4321C49.137 37.8219 49.2452 39.2276 48.968 40.6015C48.3844 43.684 46.3565 46.4369 43.6285 47.9489C41.9306 48.9006 39.9817 49.3682 38.0408 49.347C37.4203 49.3497 36.797 49.3362 36.1765 49.3547C36.1765 48.204 36.129 47.0484 36.2584 45.9027C36.5594 43.1313 38.0487 40.551 40.1903 38.8078C41.5159 37.7554 43.0739 36.9928 44.727 36.6367Z" fill="#1D1F17"/>
<path d="M60.0093 44.2108C60.0093 44.6786 59.8483 45.0743 59.5268 45.3983C59.2227 45.7043 58.8382 45.8573 58.3736 45.8573C57.9264 45.8573 57.5508 45.7043 57.2471 45.3983C56.9431 45.0743 56.791 44.6786 56.791 44.2108V27.5309C56.791 27.0631 56.9431 26.6762 57.2471 26.3703C57.5687 26.0465 57.9622 25.8845 58.4272 25.8845C58.8918 25.8845 59.2675 26.0465 59.5537 26.3703C59.8573 26.6762 60.0093 27.0631 60.0093 27.5309V44.2108Z" fill="#1D1F17"/>
<path d="M72.9274 31.4176C73.392 31.4176 73.7766 31.5795 74.0807 31.9034C74.3843 32.2093 74.5363 32.5962 74.5363 33.064V39.9195C74.5363 41.8267 74.0091 43.3382 72.9542 44.4538C71.8989 45.5694 70.3794 46.127 68.3944 46.127C66.4098 46.127 64.8899 45.5694 63.835 44.4538C62.798 43.3382 62.2793 41.8267 62.2793 39.9195V33.064C62.2793 32.5962 62.4313 32.2093 62.7354 31.9034C63.0395 31.5795 63.4236 31.4176 63.8887 31.4176C64.3537 31.4176 64.7379 31.5795 65.0419 31.9034C65.346 32.2093 65.4981 32.5962 65.4981 33.064V39.9195C65.4981 41.017 65.7395 41.8357 66.222 42.3756C66.705 42.8974 67.429 43.1582 68.3944 43.1582C69.3782 43.1582 70.1111 42.8974 70.5941 42.3756C71.0766 41.8357 71.318 41.017 71.318 39.9195V33.064C71.318 32.5962 71.4701 32.2093 71.7742 31.9034C72.0778 31.5795 72.4624 31.4176 72.9274 31.4176Z" fill="#1D1F17"/>
<path d="M84.2164 31.1476C85.6469 31.1476 86.7018 31.4984 87.3815 32.2002C88.0607 32.884 88.5079 33.7746 88.7221 34.8722L88.2664 34.6293L88.4811 34.1975C88.6953 33.7836 89.0262 33.3428 89.4733 32.875C89.9201 32.3891 90.4567 31.9843 91.0823 31.6604C91.7262 31.3185 92.4412 31.1476 93.2283 31.1476C94.5157 31.1476 95.4901 31.4265 96.1514 31.9843C96.8312 32.542 97.2958 33.2888 97.5462 34.2245C97.7966 35.1421 97.9218 36.1677 97.9218 37.3013V44.2108C97.9218 44.6786 97.7698 45.0743 97.4657 45.3983C97.1616 45.7043 96.7775 45.8573 96.3124 45.8573C95.8478 45.8573 95.4632 45.7043 95.1592 45.3983C94.8551 45.0743 94.7031 44.6786 94.7031 44.2108V37.3013C94.7031 36.7075 94.6319 36.1767 94.4889 35.7089C94.3458 35.2231 94.0864 34.8362 93.7108 34.5483C93.3356 34.2604 92.799 34.1165 92.1018 34.1165C91.4221 34.1165 90.8413 34.2604 90.3583 34.5483C89.8754 34.8362 89.5091 35.2231 89.2587 35.7089C89.0262 36.1767 88.9099 36.7075 88.9099 37.3013V44.2108C88.9099 44.6786 88.7579 45.0743 88.4542 45.3983C88.1502 45.7043 87.7656 45.8573 87.301 45.8573C86.8359 45.8573 86.4513 45.7043 86.1477 45.3983C85.8436 45.0743 85.6916 44.6786 85.6916 44.2108V37.3013C85.6916 36.7075 85.62 36.1767 85.4769 35.7089C85.3338 35.2231 85.0745 34.8362 84.6993 34.5483C84.3237 34.2604 83.7871 34.1165 83.0899 34.1165C82.4107 34.1165 81.8293 34.2604 81.3464 34.5483C80.8639 34.8362 80.4972 35.2231 80.2468 35.7089C80.0147 36.1767 79.8984 36.7075 79.8984 37.3013V44.2108C79.8984 44.6786 79.7464 45.0743 79.4423 45.3983C79.1382 45.7043 78.7541 45.8573 78.2891 45.8573C77.824 45.8573 77.4399 45.7043 77.1358 45.3983C76.8317 45.0743 76.6797 44.6786 76.6797 44.2108V33.0639C76.6797 32.596 76.8317 32.2092 77.1358 31.9033C77.4399 31.5794 77.824 31.4175 78.2891 31.4175C78.7541 31.4175 79.1382 31.5794 79.4423 31.9033C79.7464 32.2092 79.8984 32.596 79.8984 33.0639V34.2245L79.496 34.1435C79.657 33.8376 79.8806 33.5137 80.1663 33.1718C80.4525 32.812 80.8013 32.4791 81.2127 32.1732C81.6236 31.8673 82.0798 31.6244 82.5802 31.4445C83.081 31.2465 83.6265 31.1476 84.2164 31.1476Z" fill="#1D1F17"/>
<path d="M103.096 44.2108C103.096 44.6786 102.944 45.0743 102.64 45.3983C102.336 45.7043 101.951 45.8573 101.486 45.8573C101.022 45.8573 100.637 45.7043 100.333 45.3983C100.029 45.0743 99.8774 44.6786 99.8774 44.2108V33.0639C99.8774 32.596 100.029 32.2092 100.333 31.9033C100.637 31.5794 101.022 31.4175 101.486 31.4175C101.951 31.4175 102.336 31.5794 102.64 31.9033C102.944 32.2092 103.096 32.596 103.096 33.0639V44.2108ZM101.459 29.6631C100.852 29.6631 100.422 29.5642 100.172 29.3662C99.9221 29.1683 99.7969 28.8174 99.7969 28.3136V27.8008C99.7969 27.279 99.931 26.9281 100.199 26.7482C100.485 26.5502 100.914 26.4513 101.486 26.4513C102.112 26.4513 102.551 26.5502 102.801 26.7482C103.051 26.9461 103.176 27.297 103.176 27.8008V28.3136C103.176 28.8354 103.042 29.1953 102.774 29.3932C102.506 29.5732 102.068 29.6631 101.459 29.6631Z" fill="#1D1F17"/>
<path d="M112.731 31.1476C114.055 31.1476 115.056 31.4265 115.735 31.9843C116.433 32.542 116.906 33.2888 117.157 34.2245C117.425 35.1421 117.559 36.1677 117.559 37.3013V44.2108C117.559 44.6786 117.407 45.0743 117.103 45.3983C116.799 45.7043 116.415 45.8573 115.95 45.8573C115.485 45.8573 115.101 45.7043 114.796 45.3983C114.492 45.0743 114.34 44.6786 114.34 44.2108V37.3013C114.34 36.7075 114.26 36.1767 114.099 35.7089C113.956 35.2231 113.688 34.8362 113.294 34.5483C112.901 34.2604 112.338 34.1165 111.605 34.1165C110.889 34.1165 110.282 34.2604 109.781 34.5483C109.298 34.8362 108.923 35.2231 108.654 35.7089C108.404 36.1767 108.279 36.7075 108.279 37.3013V44.2108C108.279 44.6786 108.127 45.0743 107.823 45.3983C107.519 45.7043 107.135 45.8573 106.67 45.8573C106.205 45.8573 105.82 45.7043 105.517 45.3983C105.213 45.0743 105.061 44.6786 105.061 44.2108V33.0639C105.061 32.596 105.213 32.2092 105.517 31.9033C105.82 31.5794 106.205 31.4175 106.67 31.4175C107.135 31.4175 107.519 31.5794 107.823 31.9033C108.127 32.2092 108.279 32.596 108.279 33.0639V34.2245L107.877 34.1435C108.038 33.8376 108.27 33.5137 108.574 33.1718C108.878 32.812 109.236 32.4791 109.647 32.1732C110.058 31.8673 110.523 31.6244 111.042 31.4445C111.56 31.2465 112.123 31.1476 112.731 31.1476Z" fill="#1D1F17"/>
<path d="M133.483 38.6508C133.483 40.1263 133.152 41.4308 132.491 42.5644C131.847 43.68 130.971 44.5526 129.862 45.1823C128.772 45.8123 127.547 46.1269 126.188 46.1269C124.829 46.1269 123.595 45.8123 122.487 45.1823C121.396 44.5526 120.52 43.68 119.858 42.5644C119.215 41.4308 118.893 40.1263 118.893 38.6508C118.893 37.1753 119.215 35.8798 119.858 34.7642C120.52 33.6306 121.396 32.749 122.487 32.1192C123.595 31.4714 124.829 31.1476 126.188 31.1476C127.547 31.1476 128.772 31.4714 129.862 32.1192C130.971 32.749 131.847 33.6306 132.491 34.7642C133.152 35.8798 133.483 37.1753 133.483 38.6508ZM130.265 38.6508C130.265 37.7332 130.077 36.9414 129.701 36.2757C129.343 35.5919 128.852 35.0611 128.226 34.6833C127.618 34.3054 126.939 34.1165 126.188 34.1165C125.437 34.1165 124.748 34.3054 124.123 34.6833C123.515 35.0611 123.023 35.5919 122.647 36.2757C122.29 36.9414 122.111 37.7332 122.111 38.6508C122.111 39.5505 122.29 40.3422 122.647 41.0259C123.023 41.6917 123.515 42.2135 124.123 42.5914C124.748 42.9692 125.437 43.1581 126.188 43.1581C126.939 43.1581 127.618 42.9692 128.226 42.5914C128.852 42.2135 129.343 41.6917 129.701 41.0259C130.077 40.3422 130.265 39.5505 130.265 38.6508Z" fill="#1D1F17"/>
<path d="M145.48 31.4176C145.945 31.4176 146.329 31.5795 146.633 31.9034C146.937 32.2093 147.089 32.5962 147.089 33.064V39.9195C147.089 41.8267 146.562 43.3382 145.507 44.4538C144.452 45.5694 142.932 46.127 140.947 46.127C138.963 46.127 137.443 45.5694 136.388 44.4538C135.351 43.3382 134.832 41.8267 134.832 39.9195V33.064C134.832 32.5962 134.984 32.2093 135.288 31.9034C135.592 31.5795 135.976 31.4176 136.441 31.4176C136.906 31.4176 137.291 31.5795 137.595 31.9034C137.899 32.2093 138.051 32.5962 138.051 33.064V39.9195C138.051 41.017 138.292 41.8357 138.775 42.3756C139.258 42.8974 139.982 43.1582 140.947 43.1582C141.93 43.1582 142.664 42.8974 143.146 42.3756C143.629 41.8357 143.871 41.017 143.871 39.9195V33.064C143.871 32.5962 144.023 32.2093 144.326 31.9034C144.631 31.5795 145.015 31.4176 145.48 31.4176Z" fill="#1D1F17"/>
<path d="M148.4 43.617C148.221 43.3651 148.141 43.0412 148.159 42.6454C148.177 42.2495 148.409 41.9076 148.856 41.6197C149.142 41.4398 149.446 41.3678 149.768 41.4038C150.09 41.4218 150.403 41.5837 150.707 41.8896C151.225 42.4114 151.771 42.8163 152.343 43.1042C152.915 43.392 153.63 43.536 154.488 43.536C154.757 43.518 155.051 43.482 155.373 43.428C155.695 43.3561 155.973 43.2121 156.205 42.9962C156.455 42.7623 156.58 42.4114 156.58 41.9436C156.58 41.5478 156.446 41.2328 156.178 40.9989C155.91 40.765 155.552 40.5671 155.105 40.4052C154.676 40.2432 154.193 40.0903 153.657 39.9463C153.103 39.7844 152.53 39.6045 151.94 39.4065C151.368 39.2086 150.841 38.9567 150.358 38.6508C149.875 38.3269 149.482 37.9041 149.178 37.3823C148.874 36.8605 148.722 36.2037 148.722 35.412C148.722 34.5123 148.972 33.7476 149.473 33.1179C149.974 32.4881 150.617 32.0023 151.404 31.6604C152.209 31.3185 153.049 31.1476 153.925 31.1476C154.479 31.1476 155.06 31.2195 155.669 31.3635C156.276 31.4895 156.858 31.7054 157.412 32.0113C157.966 32.2991 158.431 32.686 158.806 33.1718C159.003 33.4417 159.119 33.7656 159.155 34.1435C159.191 34.5213 159.021 34.8632 158.645 35.1691C158.378 35.385 158.064 35.484 157.707 35.466C157.349 35.43 157.054 35.3041 156.822 35.0881C156.518 34.6923 156.107 34.3774 155.588 34.1435C155.087 33.9095 154.506 33.7926 153.845 33.7926C153.577 33.7926 153.282 33.8286 152.96 33.9005C152.655 33.9545 152.388 34.0895 152.155 34.3054C151.923 34.5033 151.806 34.8272 151.806 35.2771C151.806 35.6909 151.94 36.0238 152.209 36.2757C152.477 36.5096 152.834 36.7075 153.282 36.8695C153.746 37.0134 154.238 37.1574 154.757 37.3013C155.293 37.4452 155.838 37.6162 156.393 37.8141C156.947 38.0121 157.456 38.2729 157.921 38.5968C158.386 38.9207 158.762 39.3436 159.048 39.8653C159.334 40.3692 159.477 41.0169 159.477 41.8086C159.477 42.7263 159.209 43.509 158.672 44.1568C158.136 44.8045 157.465 45.2993 156.661 45.6413C155.856 45.9653 155.034 46.1269 154.193 46.1269C153.138 46.1269 152.084 45.9473 151.029 45.5873C149.974 45.2093 149.097 44.5526 148.4 43.617Z" fill="#1D1F17"/>
</svg>
