<svg width="182" height="70" viewBox="0 0 182 70" fill="none" xmlns="http://www.w3.org/2000/svg">
<path d="M63.3213 39.1234H57.8739L56.9724 41.6846H54.0918L59.0102 28.2241H62.2044L67.1232 41.6846H64.2228L63.3213 39.1234ZM62.577 36.9668L60.5978 31.3437L58.6183 36.9668H62.577Z" fill="#1D1F17"/>
<path d="M78.4245 31.0164V41.6846H75.6615V40.3368C75.3087 40.799 74.8452 41.1647 74.2702 41.4344C73.7085 41.6913 73.0944 41.8195 72.4284 41.8195C71.5791 41.8195 70.8279 41.646 70.1749 41.2994C69.5215 40.94 69.0055 40.4202 68.6265 39.7396C68.2608 39.0463 68.0781 38.2247 68.0781 37.2749V31.0164H70.8214V36.8897C70.8214 37.7371 71.0368 38.3919 71.468 38.8541C71.8991 39.3032 72.487 39.528 73.2317 39.528C73.9894 39.528 74.5838 39.3032 75.0149 38.8541C75.4461 38.3919 75.6615 37.7371 75.6615 36.8897V31.0164H78.4245Z" fill="#1D1F17"/>
<path d="M83.5425 33.2308V38.3918C83.5425 38.7511 83.6273 39.0144 83.7974 39.1812C83.9801 39.3353 84.2807 39.4123 84.6985 39.4123H85.9726V41.6844H84.248C81.9358 41.6844 80.7794 40.5805 80.7794 38.3723V33.2308H79.4863V31.0162H80.7794V28.3781H83.5425V31.0162H85.9726V33.2308H83.5425Z" fill="#1D1F17"/>
<path d="M91.9829 41.858C90.938 41.858 89.9973 41.6333 89.1612 41.1838C88.3252 40.7219 87.6654 40.0735 87.1821 39.2389C86.7117 38.4046 86.4766 37.4416 86.4766 36.3504C86.4766 35.2592 86.7182 34.2963 87.2015 33.462C87.6981 32.6275 88.3709 31.9856 89.2199 31.5363C90.0692 31.0741 91.0163 30.843 92.0613 30.843C93.1066 30.843 94.0538 31.0741 94.9028 31.5363C95.7521 31.9856 96.4181 32.6275 96.9017 33.462C97.3979 34.2963 97.646 35.2592 97.646 36.3504C97.646 37.4416 97.3914 38.4046 96.8819 39.2389C96.3857 40.0735 95.7061 40.7219 94.8441 41.1838C93.9948 41.6333 93.0412 41.858 91.9829 41.858ZM91.9829 39.5085C92.4795 39.5085 92.9434 39.3929 93.3742 39.1618C93.8186 38.918 94.1714 38.5586 94.4324 38.0837C94.6938 37.6084 94.8244 37.031 94.8244 36.3504C94.8244 35.3363 94.55 34.5596 94.0013 34.0203C93.4658 33.4684 92.806 33.1923 92.0221 33.1923C91.2382 33.1923 90.5787 33.4684 90.0429 34.0203C89.5205 34.5596 89.259 35.3363 89.259 36.3504C89.259 37.3646 89.514 38.1477 90.0235 38.7C90.546 39.2389 91.199 39.5085 91.9829 39.5085Z" fill="#1D1F17"/>
<path d="M112.357 30.8622C113.69 30.8622 114.761 31.2666 115.571 32.0754C116.394 32.8713 116.805 33.9881 116.805 35.426V41.6844H114.062V35.792C114.062 34.9574 113.846 34.322 113.415 33.8856C112.984 33.4362 112.396 33.2115 111.651 33.2115C110.907 33.2115 110.312 33.4362 109.868 33.8856C109.437 34.322 109.222 34.9574 109.222 35.792V41.6844H106.478V35.792C106.478 34.9574 106.263 34.322 105.832 33.8856C105.4 33.4362 104.812 33.2115 104.068 33.2115C103.31 33.2115 102.709 33.4362 102.265 33.8856C101.834 34.322 101.619 34.9574 101.619 35.792V41.6844H98.875V31.0162H101.619V32.3064C101.971 31.8571 102.422 31.5041 102.971 31.2473C103.532 30.9906 104.146 30.8622 104.812 30.8622C105.662 30.8622 106.419 31.0419 107.086 31.4014C107.752 31.748 108.268 32.2487 108.634 32.9034C108.987 32.2872 109.496 31.7929 110.162 31.4206C110.842 31.0483 111.573 30.8622 112.357 30.8622Z" fill="#1D1F17"/>
<path d="M117.918 36.312C117.918 35.2336 118.134 34.2774 118.565 33.4428C119.009 32.6083 119.603 31.9665 120.348 31.5171C121.106 31.0678 121.948 30.8431 122.876 30.8431C123.686 30.8431 124.391 31.0036 124.992 31.3245C125.606 31.6455 126.096 32.0499 126.462 32.5377V31.0164H129.225V41.6846H126.462V40.1249C126.109 40.6256 125.619 41.0429 124.992 41.3765C124.378 41.6977 123.666 41.8581 122.856 41.8581C121.942 41.8581 121.106 41.627 120.348 41.1648C119.603 40.7026 119.009 40.0542 118.565 39.2199C118.134 38.3725 117.918 37.4032 117.918 36.312ZM126.462 36.3506C126.462 35.6958 126.331 35.1375 126.07 34.6753C125.809 34.2003 125.456 33.8409 125.012 33.5968C124.568 33.3401 124.091 33.2117 123.581 33.2117C123.072 33.2117 122.602 33.3337 122.17 33.5777C121.739 33.8215 121.387 34.1809 121.112 34.6558C120.851 35.118 120.72 35.6703 120.72 36.312C120.72 36.9541 120.851 37.5188 121.112 38.0068C121.387 38.4817 121.739 38.8475 122.17 39.1043C122.615 39.3612 123.085 39.4895 123.581 39.4895C124.091 39.4895 124.568 39.3676 125.012 39.1234C125.456 38.8669 125.809 38.5075 126.07 38.0453C126.331 37.57 126.462 37.0053 126.462 36.3506Z" fill="#1D1F17"/>
<path d="M134.316 33.2308V38.3918C134.316 38.7511 134.401 39.0144 134.571 39.1812C134.754 39.3353 135.054 39.4123 135.472 39.4123H136.746V41.6844H135.022C132.709 41.6844 131.553 40.5805 131.553 38.3723V33.2308H130.26V31.0162H131.553V28.3781H134.316V31.0162H136.746V33.2308H134.316Z" fill="#1D1F17"/>
<path d="M139.326 29.7453C138.842 29.7453 138.437 29.5977 138.111 29.3024C137.797 28.9943 137.641 28.6156 137.641 28.1662C137.641 27.7169 137.797 27.3446 138.111 27.0493C138.437 26.7412 138.842 26.5872 139.326 26.5872C139.809 26.5872 140.208 26.7412 140.521 27.0493C140.848 27.3446 141.011 27.7169 141.011 28.1662C141.011 28.6156 140.848 28.9943 140.521 29.3024C140.208 29.5977 139.809 29.7453 139.326 29.7453ZM140.678 31.0162V41.6845H137.934V31.0162H140.678Z" fill="#1D1F17"/>
<path d="M147.426 41.858C146.381 41.858 145.441 41.6333 144.605 41.1838C143.769 40.7219 143.109 40.0735 142.625 39.2389C142.155 38.4046 141.92 37.4416 141.92 36.3504C141.92 35.2592 142.162 34.2963 142.645 33.462C143.141 32.6275 143.814 31.9856 144.663 31.5363C145.513 31.0741 146.46 30.843 147.505 30.843C148.55 30.843 149.497 31.0741 150.346 31.5363C151.195 31.9856 151.862 32.6275 152.345 33.462C152.841 34.2963 153.09 35.2592 153.09 36.3504C153.09 37.4416 152.835 38.4046 152.325 39.2389C151.829 40.0735 151.15 40.7219 150.287 41.1838C149.438 41.6333 148.485 41.858 147.426 41.858ZM147.426 39.5085C147.923 39.5085 148.387 39.3929 148.818 39.1618C149.262 38.918 149.615 38.5586 149.876 38.0837C150.137 37.6084 150.268 37.031 150.268 36.3504C150.268 35.3363 149.993 34.5596 149.445 34.0203C148.909 33.4684 148.249 33.1923 147.465 33.1923C146.682 33.1923 146.022 33.4684 145.486 34.0203C144.964 34.5596 144.702 35.3363 144.702 36.3504C144.702 37.3646 144.957 38.1477 145.467 38.7C145.989 39.2389 146.643 39.5085 147.426 39.5085Z" fill="#1D1F17"/>
<path d="M160.332 30.8622C161.626 30.8622 162.671 31.2666 163.468 32.0754C164.265 32.8713 164.663 33.9881 164.663 35.426V41.6844H161.92V35.792C161.92 34.9447 161.704 34.2962 161.273 33.8471C160.842 33.3848 160.254 33.1537 159.51 33.1537C158.752 33.1537 158.151 33.3848 157.707 33.8471C157.275 34.2962 157.06 34.9447 157.06 35.792V41.6844H154.316V31.0162H157.06V32.3449C157.426 31.8828 157.89 31.5233 158.451 31.2666C159.026 30.997 159.653 30.8622 160.332 30.8622Z" fill="#1D1F17"/>
<path d="M31.6114 30.7367V27.4932C27.5863 27.6294 24.3658 30.8788 24.3658 34.8673V35.3838H17.3145V34.8673C17.3145 27.0516 23.6915 20.6995 31.6114 20.5617V17.0535L43.6965 24.0242L31.6114 30.7367Z" fill="#1D1F17"/>
<path d="M37.8067 34.8673V35.3838C37.8067 39.3724 34.5866 42.6216 30.5616 42.7579V39.5148L18.4766 46.2271L30.5616 53.1979V49.6896C38.4812 49.5516 44.8583 43.1997 44.8583 35.3838V34.8673H37.8067Z" fill="#1D1F17"/>
</svg>
