<svg width="182" height="70" viewBox="0 0 182 70" fill="none" xmlns="http://www.w3.org/2000/svg">
<path d="M19.9277 40.1143L30.0327 35.6226L35.8489 38.9912L37.0239 50.0428L29.8565 49.9839L30.9139 42.3006L29.6802 41.5915L23.6289 46.3197L19.9277 40.1143Z" fill="#1D1F17"/>
<path d="M36.4961 38.5181L45.4262 45.078L48.9511 38.7545L41.7834 35.8586V34.4403L48.9511 31.4853L45.4262 25.2207L36.4961 31.7808V38.5181Z" fill="#1D1F17"/>
<path d="M35.8489 31.249L37.0239 20.1974L29.8565 20.3156L30.9139 27.9985L29.6802 28.7077L23.5702 23.9798L19.9277 30.1261L30.0327 34.6177L35.8489 31.249Z" fill="#1D1F17"/>
<path d="M72.8618 33.7956V44.1496H76.7193V30.9545H71.1016V33.7956H72.8618Z" fill="#1D1F17"/>
<path d="M72.7425 29.1006C73.0961 29.4697 73.6346 29.6542 74.3578 29.6542C75.0814 29.6542 75.6115 29.4697 75.9488 29.1006C76.3028 28.7151 76.4793 28.2336 76.4793 27.6558C76.4793 27.0618 76.3028 26.5802 75.9488 26.2111C75.6115 25.8259 75.0814 25.6332 74.3578 25.6332C73.6346 25.6332 73.0961 25.8259 72.7425 26.2111C72.4052 26.5802 72.2363 27.0618 72.2363 27.6558C72.2363 28.2336 72.4052 28.7151 72.7425 29.1006Z" fill="#1D1F17"/>
<path d="M59.4328 43.8605C60.5256 44.358 61.8677 44.607 63.4587 44.607C64.9538 44.607 66.2393 44.3739 67.3166 43.9086C68.3935 43.4432 69.221 42.793 69.7997 41.9581C70.3947 41.1074 70.6918 40.1202 70.6918 38.9965C70.6918 37.9051 70.411 36.982 69.8483 36.2275C69.3015 35.4571 68.5384 34.8551 67.5575 34.4218C66.577 33.9722 65.444 33.6913 64.1581 33.5791L62.808 33.4587C62.0043 33.3943 61.4257 33.1777 61.072 32.8084C60.7184 32.4393 60.5416 32.0058 60.5416 31.5083C60.5416 31.1229 60.6383 30.7699 60.8307 30.4488C61.0239 30.1117 61.313 29.8469 61.6989 29.6542C62.1007 29.4617 62.591 29.3653 63.1696 29.3653C63.7801 29.3653 64.2867 29.4775 64.6885 29.7024C64.777 29.7499 64.861 29.8007 64.9398 29.8546L64.959 29.868C64.9884 29.8883 65.0175 29.9095 65.0458 29.9308C65.2899 30.1171 65.4842 30.3379 65.6288 30.5933C65.8375 30.9465 65.9426 31.3396 65.9426 31.7732H69.7997C69.7997 30.6173 69.5344 29.614 69.0044 28.7633C68.4739 27.8965 67.7105 27.2304 66.714 26.7647C65.7331 26.2831 64.5519 26.0424 63.1696 26.0424C61.8514 26.0424 60.7104 26.2672 59.7459 26.7166C58.7817 27.1501 58.0262 27.7761 57.4798 28.5947C56.949 29.4134 56.6837 30.3847 56.6837 31.5083C56.6837 33.0653 57.2066 34.3173 58.2512 35.2645C59.2958 36.2116 60.6945 36.7574 62.4464 36.9018L63.7726 37.0222C64.849 37.1185 65.6288 37.3353 66.1111 37.6722C66.593 37.9933 66.8343 38.4347 66.8343 38.9965C66.8343 39.2548 66.7921 39.4969 66.7073 39.7232C66.6443 39.8911 66.5583 40.0502 66.4488 40.2006C66.1911 40.5374 65.8136 40.8023 65.3154 40.9952C64.8172 41.1877 64.1983 41.284 63.4587 41.284C62.6392 41.284 61.9721 41.1718 61.4579 40.9467C60.9434 40.7061 60.5579 40.3931 60.3002 40.0081C60.0593 39.6226 59.939 39.2053 59.939 38.7558H56.1055C56.1055 39.8955 56.3866 40.9069 56.949 41.7895C57.5117 42.6565 58.3397 43.347 59.4328 43.8605Z" fill="#1D1F17"/>
<path d="M85.327 44.3179C83.9929 44.3179 82.916 44.1576 82.0964 43.8363C81.2764 43.4994 80.6739 42.9454 80.288 42.175C79.9184 41.3883 79.7336 40.3291 79.7336 38.9966V33.7716H77.7324V30.9545H79.7336V27.391H83.3258V30.9545H87.1837V33.7716H83.3258V39.1412C83.3258 39.7672 83.4867 40.2488 83.8081 40.5856C84.1454 40.907 84.6197 41.0673 85.2307 41.0673H87.1837V44.3179H85.327Z" fill="#1D1F17"/>
<path fill-rule="evenodd" clip-rule="evenodd" d="M91.829 44.0291C92.6968 44.4141 93.6936 44.607 94.8187 44.607C95.9274 44.607 96.9083 44.4141 97.7601 44.0291C98.612 43.6437 99.3193 43.106 99.8816 42.416C100.444 41.7255 100.822 40.9388 101.015 40.0562H97.4706C97.3101 40.4576 97.0047 40.7944 96.5546 41.0673C96.1046 41.3401 95.5256 41.4769 94.8187 41.4769C94.3806 41.4769 93.9891 41.4248 93.6442 41.3214C93.3818 41.2427 93.1464 41.1341 92.9381 40.9953C92.4559 40.6743 92.1022 40.2245 91.8772 39.6468C91.8147 39.4822 91.7613 39.3101 91.7163 39.1308C91.6705 38.9491 91.6335 38.7601 91.6056 38.5633H101.256V37.263C101.256 36.0591 100.999 34.9515 100.485 33.9403C99.97 32.9128 99.2225 32.0861 98.2424 31.4601C97.2779 30.818 96.0883 30.4969 94.6737 30.4969C93.5968 30.4969 92.6323 30.6896 91.7804 31.0749C90.9453 31.444 90.246 31.9496 89.6832 32.5917C89.1209 33.2338 88.6868 33.9643 88.381 34.783C88.0918 35.5855 87.9473 36.4282 87.9473 37.3111V37.7927C87.9473 38.6436 88.0918 39.4782 88.381 40.2969C88.6868 41.0995 89.1209 41.8297 89.6832 42.488C90.2619 43.1303 90.9768 43.6437 91.829 44.0291ZM91.6721 36.1824C91.6829 36.1314 91.694 36.0812 91.7063 36.0318C91.7398 35.8957 91.7784 35.7652 91.8222 35.6405C91.8469 35.5696 91.8732 35.5004 91.9015 35.4331C92.1424 34.8391 92.4961 34.3897 92.962 34.0847C93.1365 33.9707 93.3252 33.878 93.5279 33.8067C93.8688 33.6871 94.2512 33.6272 94.6737 33.6272C95.3332 33.6272 95.8792 33.7797 96.3133 34.0847C96.7633 34.3736 97.101 34.7989 97.326 35.3608C97.3444 35.4061 97.3615 35.4523 97.3782 35.499C97.4049 35.5734 97.4296 35.6498 97.4527 35.7281C97.4865 35.8447 97.5164 35.9653 97.5427 36.0899C97.5618 36.1818 97.5781 36.2758 97.5929 36.3722H91.6351C91.6462 36.3078 91.6586 36.2446 91.6721 36.1824Z" fill="#1D1F17"/>
<path d="M102.846 44.1496V30.9544H105.908V34.2778C105.949 34.0802 105.997 33.8906 106.05 33.7087C106.095 33.5556 106.144 33.4079 106.197 33.2659C106.535 32.367 107.041 31.6929 107.716 31.2433C108.391 30.7778 109.219 30.5452 110.199 30.5452H110.368C111.365 30.5452 112.192 30.7778 112.851 31.2433C113.526 31.6929 114.033 32.367 114.37 33.2659L114.397 33.3338L114.42 33.3958C114.435 33.352 114.451 33.3088 114.467 33.2659C114.82 32.367 115.335 31.6929 116.01 31.2433C116.685 30.7778 117.513 30.5452 118.493 30.5452H118.662C119.658 30.5452 120.494 30.7778 121.169 31.2433C121.861 31.6929 122.383 32.367 122.736 33.2659C123.09 34.1649 123.267 35.2886 123.267 36.637V44.1496H119.409V36.4202C119.409 35.6978 119.217 35.112 118.831 34.6626C118.461 34.213 117.931 33.9883 117.24 33.9883C116.548 33.9883 116.002 34.2211 115.6 34.6866C115.198 35.136 114.997 35.738 114.997 36.4925V44.1496H111.115V36.4202C111.115 35.6978 110.923 35.112 110.537 34.6626C110.167 34.213 109.645 33.9883 108.97 33.9883C108.262 33.9883 107.708 34.2211 107.306 34.6866C106.904 35.136 106.703 35.738 106.703 36.4925V44.1496H102.846Z" fill="#1D1F17"/>
<path fill-rule="evenodd" clip-rule="evenodd" d="M133.573 41.607V44.1497H136.635V36.0591C136.635 34.8391 136.394 33.844 135.911 33.0734C135.429 32.2868 134.722 31.7009 133.79 31.3157C132.874 30.9305 131.741 30.7378 130.391 30.7378C130.098 30.7378 129.792 30.7409 129.474 30.7473C129.286 30.7512 129.093 30.756 128.896 30.7619C128.365 30.7779 127.851 30.802 127.353 30.8342L126.972 30.8597C126.776 30.8733 126.593 30.8867 126.42 30.9003C126.29 30.9103 126.167 30.9204 126.051 30.9305V34.1811C126.549 34.1489 127.103 34.1168 127.714 34.0848C127.885 34.0758 128.054 34.0675 128.222 34.0598C128.465 34.0485 128.705 34.0388 128.942 34.0303C129.129 34.0235 129.314 34.0175 129.498 34.0124C130.077 33.9964 130.543 33.9884 130.897 33.9884C131.604 33.9884 132.118 34.1569 132.44 34.494C132.761 34.8312 132.922 35.3368 132.922 36.0111V36.0591H130.535C129.362 36.0591 128.325 36.2117 127.425 36.5167C126.525 36.8056 125.825 37.2631 125.328 37.8891C124.829 38.4992 124.58 39.2857 124.58 40.2488C124.58 41.1318 124.781 41.8942 125.183 42.5365C125.584 43.1622 126.139 43.6438 126.846 43.9807C127.57 44.318 128.406 44.4866 129.353 44.4866C130.27 44.4866 131.041 44.318 131.669 43.9807C132.311 43.6438 132.81 43.1622 133.163 42.5365C133.225 42.4307 133.283 42.3214 133.338 42.2076C133.414 42.0469 133.482 41.8779 133.542 41.7005L133.573 41.607ZM132.922 39.2617V38.2022H130.511C129.836 38.2022 129.314 38.3707 128.944 38.7078C128.59 39.0289 128.413 39.4703 128.413 40.032C128.413 40.2965 128.457 40.5368 128.545 40.7535C128.634 40.9707 128.767 41.1636 128.944 41.3322C129.314 41.6536 129.836 41.8139 130.511 41.8139C130.639 41.8139 130.764 41.8075 130.884 41.7952C130.982 41.7848 131.077 41.7701 131.169 41.7514C131.346 41.7156 131.512 41.6639 131.669 41.5971C132.022 41.4368 132.311 41.1719 132.536 40.8024C132.761 40.4333 132.89 39.9195 132.922 39.2617Z" fill="#1D1F17"/>
<path d="M138.943 44.1496V30.9545H142.005V35.3098C142.152 34.0665 142.522 33.064 143.115 32.3029C143.918 31.2916 145.075 30.786 146.587 30.786H147.093V34.1087H146.128C145.068 34.1087 144.248 34.3976 143.669 34.9756C143.09 35.5374 142.801 36.3561 142.801 37.4315V44.1496H138.943Z" fill="#1D1F17"/>
<path d="M151.984 37.9854H153.262L157.433 44.1497H161.773L156.484 36.5792L160.833 30.9545H156.782L151.984 37.2285V26.5723H148.127V44.1497H151.984V37.9854Z" fill="#1D1F17"/>
</svg>
