<svg width="140" height="50" viewBox="0 0 140 50" fill="none" xmlns="http://www.w3.org/2000/svg">
<path d="M105.107 14.4385V35.2941H108.16V14.4385H105.107Z" fill="black"/>
<path fill-rule="evenodd" clip-rule="evenodd" d="M77.5072 35.6307C76.3026 35.6307 75.2965 35.3503 74.4884 34.789C74.3999 34.7278 74.3141 34.6639 74.2304 34.5976V35.2941H71.5371V14.7751H74.612V23.5654C75.3663 23.0804 76.2788 22.8379 77.3499 22.8379C78.5096 22.8379 79.5195 23.1147 80.3799 23.6683C81.2403 24.2219 81.9061 24.9813 82.3772 25.9464C82.8561 26.904 83.0954 28 83.0954 29.2342C83.0954 30.4462 82.8598 31.5347 82.3884 32.5C81.9248 33.465 81.2737 34.2281 80.436 34.789C79.5981 35.3503 78.6219 35.6307 77.5072 35.6307ZM74.4997 27.3043C74.32 27.8577 74.2304 28.5011 74.2304 29.2342C74.2304 29.9674 74.32 30.6109 74.4997 31.1644C74.6791 31.7182 74.9711 32.1481 75.3748 32.4551C75.7863 32.7618 76.3326 32.915 77.0133 32.915C77.6716 32.915 78.2104 32.7505 78.6294 32.4214C79.0483 32.0922 79.3588 31.6508 79.5606 31.097C79.7628 30.5361 79.8636 29.9152 79.8636 29.2342C79.8636 28.5609 79.759 27.9476 79.5494 27.3941C79.3401 26.8329 79.0146 26.3877 78.5732 26.0586C78.1392 25.7219 77.5818 25.5536 76.901 25.5536C76.2652 25.5536 75.7489 25.707 75.3526 26.0137C74.9636 26.3204 74.6791 26.7505 74.4997 27.3043Z" fill="black"/>
<path d="M66.7103 28.1345V35.2941H69.7624V27.3267C69.7624 26.0025 69.4071 24.9327 68.6964 24.1172C67.9932 23.2943 66.9496 22.8828 65.5657 22.8828C64.7576 22.8828 64.0207 23.0624 63.355 23.4214C62.7453 23.747 62.248 24.1945 61.863 24.7638C61.5758 24.2471 61.179 23.8221 60.6729 23.4888C60.067 23.0848 59.2889 22.8828 58.3389 22.8828C57.5084 22.8828 56.7566 23.0661 56.0833 23.4327C55.5745 23.7128 55.1443 24.0694 54.7927 24.5024V23.1746H52.0996V35.2941H55.1742V27.9551C55.1742 27.2593 55.3651 26.6945 55.7467 26.2606C56.1357 25.8192 56.648 25.5985 57.2838 25.5985C57.9499 25.5985 58.4697 25.8229 58.8437 26.2718C59.2253 26.7132 59.4162 27.3342 59.4162 28.1345V35.2941H62.4683V27.9551C62.4683 27.4912 62.5544 27.0834 62.7266 26.7319C62.906 26.3728 63.1528 26.096 63.4673 25.9015C63.7814 25.6995 64.1518 25.5985 64.5782 25.5985C65.244 25.5985 65.7638 25.8229 66.1378 26.2718C66.5194 26.7132 66.7103 27.3342 66.7103 28.1345Z" fill="black"/>
<path d="M41.1645 35.1705C41.7629 35.4922 42.5372 35.6532 43.4875 35.6532C44.6768 35.6532 45.6608 35.3952 46.4389 34.8788C46.8081 34.6363 47.1335 34.358 47.4151 34.0443V35.2941H50.1084V23.1746H47.0335V29.324C47.0335 30.0722 46.9474 30.678 46.7755 31.1419C46.6108 31.5984 46.3977 31.9462 46.1356 32.1855C45.8739 32.4176 45.5934 32.5746 45.2942 32.6569C44.995 32.7393 44.7143 32.7804 44.4525 32.7804C43.8017 32.7804 43.2966 32.6345 42.9375 32.3427C42.5859 32.051 42.3316 31.6882 42.1744 31.2542C42.0175 30.8203 41.9239 30.3901 41.8939 29.9636C41.864 29.5299 41.849 29.1746 41.849 28.8976V23.1746H38.752V29.9748C38.752 30.177 38.7667 30.4986 38.7966 30.9401C38.8266 31.3815 38.9127 31.8714 39.0549 32.4101C39.1969 32.9411 39.4327 33.4537 39.7618 33.9476C40.0985 34.4411 40.5661 34.8489 41.1645 35.1705Z" fill="black"/>
<path d="M84.4434 23.1746V35.2941H87.518V29.0997C87.518 28.6358 87.5816 28.2205 87.7089 27.854C87.8361 27.4799 88.023 27.1582 88.2698 26.889C88.5169 26.6122 88.8198 26.3915 89.1789 26.2269C89.538 26.0548 89.9383 25.9538 90.3797 25.9239C90.8284 25.8865 91.2212 25.9201 91.5578 26.0249V23.1746C91.1912 23.1297 90.8246 23.1222 90.4581 23.1521C90.0915 23.1746 89.7361 23.2381 89.392 23.3429C89.0479 23.4401 88.73 23.5785 88.4383 23.7581C88.0567 23.9825 87.7351 24.2668 87.4733 24.6109C87.3492 24.7739 87.2369 24.9451 87.1364 25.1248V23.1746H84.4434Z" fill="black"/>
<path fill-rule="evenodd" clip-rule="evenodd" d="M97.9844 35.6307C96.7424 35.6307 95.6465 35.3652 94.6965 34.8339C93.7537 34.2954 93.013 33.5585 92.4745 32.6232C91.9432 31.6807 91.6777 30.6034 91.6777 29.3914C91.6777 28.0673 91.9395 26.9152 92.4633 25.9351C92.9868 24.9551 93.7087 24.1957 94.6291 23.6571C95.5491 23.111 96.608 22.8379 97.8047 22.8379C99.0767 22.8379 100.158 23.1371 101.048 23.7356C101.938 24.3341 102.596 25.1758 103.023 26.2605C103.449 27.3454 103.599 28.6208 103.472 30.0871H94.962C95.0571 30.8147 95.2831 31.4056 95.639 31.8601C96.1328 32.4737 96.8547 32.7804 97.8047 32.7804C98.4034 32.7804 98.9157 32.6494 99.3422 32.3876C99.7686 32.1259 100.094 31.7481 100.318 31.2542L103.371 32.1296C102.914 33.2368 102.192 34.097 101.205 34.7104C100.225 35.324 99.1515 35.6307 97.9844 35.6307ZM99.8585 26.3054C100.119 26.6598 100.294 27.1649 100.384 27.8203H95.0422C95.1612 27.2606 95.3601 26.8005 95.639 26.4401C96.1328 25.8042 96.8997 25.4862 97.9395 25.4862C98.8299 25.4862 99.4694 25.7593 99.8585 26.3054Z" fill="black"/>
<path d="M110.625 35.2941V14.4385H113.677V35.2941H110.625Z" fill="black"/>
<path fill-rule="evenodd" clip-rule="evenodd" d="M117.075 35.1368C117.681 35.466 118.418 35.6307 119.286 35.6307C120.333 35.6307 121.197 35.451 121.878 35.0919C122.421 34.8029 122.933 34.3745 123.416 33.8064V35.2941H126.086V27.8877C126.086 27.3342 126.064 26.8328 126.019 26.384C125.974 25.9351 125.832 25.4862 125.593 25.0374C125.166 24.2294 124.538 23.6608 123.707 23.3317C122.877 23.0025 121.927 22.8379 120.857 22.8379C119.398 22.8379 118.246 23.1521 117.401 23.7805C116.555 24.4089 115.979 25.2244 115.673 26.2269L118.433 27.1021C118.628 26.5486 118.968 26.1633 119.454 25.9463C119.94 25.7294 120.408 25.6209 120.857 25.6209C121.665 25.6209 122.241 25.7892 122.585 26.1259C122.855 26.3902 123.02 26.7721 123.078 27.2719C122.561 27.3502 122.071 27.4245 121.609 27.4949C120.823 27.6072 120.12 27.727 119.499 27.854C118.878 27.9812 118.343 28.1272 117.894 28.2917C117.244 28.531 116.724 28.8304 116.335 29.1895C115.953 29.5411 115.676 29.9486 115.504 30.4125C115.332 30.8764 115.246 31.389 115.246 31.9499C115.246 32.6232 115.4 33.2403 115.706 33.8016C116.02 34.355 116.477 34.8002 117.075 35.1368ZM121.351 32.9374C120.969 33.132 120.498 33.2294 119.937 33.2294C119.585 33.2294 119.282 33.177 119.028 33.0721C118.774 32.9673 118.575 32.8179 118.433 32.6232C118.298 32.4213 118.231 32.1818 118.231 31.905C118.231 31.7032 118.272 31.5197 118.355 31.3553C118.444 31.1906 118.579 31.0411 118.759 30.9064C118.946 30.7641 119.189 30.6334 119.488 30.5136C119.75 30.4163 120.053 30.3264 120.397 30.2443C120.741 30.162 121.194 30.0721 121.755 29.9748C122.115 29.9077 122.547 29.831 123.05 29.7451C123.043 29.9585 123.03 30.1997 123.012 30.4687C122.989 30.9026 122.899 31.2842 122.742 31.6133C122.66 31.7852 122.503 31.9986 122.271 32.2529C122.047 32.5072 121.74 32.7355 121.351 32.9374Z" fill="black"/>
<path fill-rule="evenodd" clip-rule="evenodd" d="M21.9079 23.2621H13.6191V26.8717C13.6191 32.2615 17.9886 36.631 23.3785 36.631C28.7685 36.631 33.138 32.2615 33.138 26.8717V23.2621H24.5817V17.5134C24.5817 15.2245 22.7262 13.369 20.4373 13.369C18.1484 13.369 16.2929 15.2245 16.2929 17.5134H18.9667C18.9667 16.7012 19.6252 16.0428 20.4373 16.0428C21.2495 16.0428 21.9079 16.7012 21.9079 17.5134V23.2621ZM21.9079 25.9359V31.0161H24.5817V25.9359H30.4642V26.8717C30.4642 30.7851 27.2917 33.9573 23.3785 33.9573C19.4653 33.9573 16.2929 30.7851 16.2929 26.8717V25.9359H21.9079Z" fill="black"/>
</svg>
