<svg width="182" height="66" viewBox="0 0 182 66" fill="none" xmlns="http://www.w3.org/2000/svg">
<path d="M65.612 43.2172C63.5696 43.2172 61.7642 42.8192 60.1956 42.024C58.627 41.2104 57.4143 40.0624 56.5572 38.5803C55.7001 37.0979 55.2715 35.3535 55.2715 33.3469C55.2715 31.3403 55.7001 29.5959 56.5572 28.1135C57.4143 26.6131 58.627 25.4652 60.1956 24.6698C61.7642 23.8563 63.5696 23.4496 65.612 23.4496C66.9982 23.4496 68.2201 23.5942 69.2778 23.8835C70.3541 24.1546 71.3387 24.5885 72.2322 25.185V29.1168C71.4299 28.466 70.509 27.996 69.4695 27.7068C68.4481 27.3995 67.2811 27.2458 65.9679 27.2458C64.746 27.2458 63.6423 27.4989 62.6576 28.0051C61.6911 28.4931 60.9252 29.1981 60.3598 30.1201C59.7944 31.042 59.5116 32.1176 59.5116 33.3469C59.5116 34.5942 59.767 35.6879 60.2775 36.6279C60.8065 37.5499 61.545 38.2639 62.4934 38.7701C63.4417 39.2762 64.5361 39.5293 65.7762 39.5293C66.907 39.5293 67.8916 39.3305 68.7306 38.9327V35.2721H65.6394V32.2351H72.752V41.3732C70.9465 42.6024 68.5668 43.2172 65.612 43.2172Z" fill="#1D1F17"/>
<path d="M73.7129 29.7947H77.7068V31.6657C78.2359 31.033 78.9743 30.5539 79.9227 30.2286C80.871 29.8851 81.9473 29.7134 83.1507 29.7134V32.8317C81.8924 32.8317 80.7798 33.0215 79.8133 33.4011C78.865 33.7807 78.2084 34.3592 77.8436 35.1365V42.8104H73.7129V29.7947Z" fill="#1D1F17"/>
<path d="M91.0898 43.2172C88.5728 43.2172 86.5938 42.6204 85.1532 41.4272C83.7125 40.2164 82.9922 38.526 82.9922 36.3567C82.9922 34.2055 83.6306 32.5063 84.907 31.2589C86.202 30.0116 88.0438 29.3879 90.4332 29.3879C92.0014 29.3879 93.3327 29.6772 94.4271 30.2556C95.5211 30.8341 96.3512 31.6385 96.9166 32.6689C97.482 33.6813 97.7645 34.8292 97.7645 36.1127V37.7667H86.9316C87.2234 39.4299 88.7916 40.2616 91.6366 40.2616C92.4756 40.2616 93.342 40.1892 94.2354 40.0444C95.1293 39.8999 95.9045 39.701 96.5611 39.4479V42.3224C95.9227 42.5932 95.1018 42.8104 94.0986 42.9732C93.0958 43.1356 92.0926 43.2172 91.0898 43.2172ZM93.8525 35.1094C93.798 34.2417 93.4695 33.5728 92.8678 33.1028C92.2661 32.6147 91.436 32.3707 90.3783 32.3707C89.3388 32.3707 88.518 32.6147 87.9163 33.1028C87.3146 33.5909 86.9861 34.2597 86.9316 35.1094H93.8525Z" fill="#1D1F17"/>
<path d="M106.232 43.2172C103.716 43.2172 101.737 42.6204 100.296 41.4272C98.8555 40.2164 98.1348 38.526 98.1348 36.3567C98.1348 34.2055 98.7732 32.5063 100.05 31.2589C101.345 30.0116 103.187 29.3879 105.576 29.3879C107.144 29.3879 108.476 29.6772 109.57 30.2556C110.664 30.8341 111.494 31.6385 112.059 32.6689C112.625 33.6813 112.907 34.8292 112.907 36.1127V37.7667H102.074C102.366 39.4299 103.935 40.2616 106.78 40.2616C107.619 40.2616 108.485 40.1892 109.378 40.0444C110.272 39.8999 111.047 39.701 111.704 39.4479V42.3224C111.065 42.5932 110.245 42.8104 109.242 42.9732C108.238 43.1356 107.236 43.2172 106.232 43.2172ZM108.995 35.1094C108.941 34.2417 108.612 33.5728 108.011 33.1028C107.409 32.6147 106.579 32.3707 105.521 32.3707C104.482 32.3707 103.661 32.6147 103.059 33.1028C102.457 33.5909 102.129 34.2597 102.074 35.1094H108.995Z" fill="#1D1F17"/>
<path d="M113.822 29.7947H117.816V31.3945C118.418 30.7257 119.129 30.2285 119.95 29.9031C120.789 29.5597 121.664 29.3879 122.576 29.3879C124.364 29.3879 125.695 29.867 126.57 30.8251C127.464 31.7651 127.911 33.0395 127.911 34.6484V42.8104H123.78V35.1094C123.78 33.4282 122.996 32.5876 121.427 32.5876C120.734 32.5876 120.087 32.7593 119.485 33.1028C118.883 33.4282 118.373 33.9163 117.953 34.5671V42.8104H113.822V29.7947Z" fill="#1D1F17"/>
<path d="M131.556 27.7881C130.918 27.7881 130.38 27.5803 129.942 27.1645C129.504 26.7487 129.285 26.2245 129.285 25.5917C129.285 24.9771 129.504 24.4619 129.942 24.0461C130.38 23.6123 130.918 23.3954 131.556 23.3954C132.194 23.3954 132.732 23.6123 133.17 24.0461C133.608 24.4619 133.826 24.9771 133.826 25.5917C133.826 26.2245 133.608 26.7487 133.17 27.1645C132.732 27.5803 132.194 27.7881 131.556 27.7881ZM129.476 29.7947H133.635V42.8104H129.476V29.7947Z" fill="#1D1F17"/>
<path d="M140.68 43.2172C139.696 43.2172 138.638 43.1084 137.507 42.8916C136.395 42.6928 135.519 42.4036 134.881 42.024V38.8243C135.611 39.2581 136.486 39.6106 137.507 39.8818C138.529 40.1528 139.477 40.2884 140.352 40.2884C141.1 40.2884 141.647 40.2252 141.993 40.0988C142.34 39.9721 142.513 39.7371 142.513 39.3937C142.513 39.1225 142.413 38.9056 142.213 38.7429C142.012 38.5621 141.702 38.4085 141.282 38.2819C140.881 38.1373 140.206 37.9294 139.258 37.6583C138.146 37.3329 137.27 37.0075 136.632 36.6821C136.012 36.3386 135.538 35.9138 135.209 35.4077C134.899 34.9015 134.744 34.2507 134.744 33.4553C134.744 32.0995 135.282 31.0872 136.358 30.4183C137.452 29.7314 138.93 29.3879 140.79 29.3879C141.702 29.3879 142.641 29.4873 143.608 29.6862C144.592 29.867 145.349 30.111 145.878 30.4183V33.5367C145.349 33.1932 144.656 32.913 143.799 32.6961C142.96 32.4791 142.14 32.3707 141.337 32.3707C140.589 32.3707 140.006 32.443 139.586 32.5876C139.185 32.7322 138.984 33.0034 138.984 33.4011C138.984 33.7445 139.176 34.0067 139.559 34.1875C139.96 34.3682 140.699 34.5942 141.775 34.8653L142.322 35.0009C143.471 35.3082 144.364 35.6517 145.003 36.0313C145.641 36.3929 146.088 36.8357 146.343 37.36C146.617 37.8661 146.754 38.5079 146.754 39.2852C146.754 40.4784 146.234 41.4364 145.194 42.1596C144.155 42.8644 142.65 43.2172 140.68 43.2172Z" fill="#1D1F17"/>
<path d="M147.709 22.7717H151.84V31.2861C152.46 30.6534 153.162 30.1834 153.946 29.8761C154.73 29.5507 155.569 29.388 156.463 29.388C158.25 29.388 159.582 29.867 160.457 30.8251C161.351 31.7652 161.798 33.0396 161.798 34.6485V42.8104H157.667V35.1094C157.667 33.4282 156.882 32.5877 155.314 32.5877C154.621 32.5877 153.974 32.7594 153.372 33.1029C152.77 33.4283 152.259 33.9164 151.84 34.5671V42.8104H147.709V22.7717Z" fill="#1D1F17"/>
<path fill-rule="evenodd" clip-rule="evenodd" d="M41.1645 26.6083C41.1645 30.0527 38.3477 32.845 34.8728 32.845C31.3978 32.845 28.5808 30.0527 28.5808 26.6083C28.5808 23.1639 31.3978 20.3717 34.8728 20.3717C38.3477 20.3717 41.1645 23.1639 41.1645 26.6083ZM20.2371 32.3917C27.0921 31.9337 33.0664 37.0209 33.6228 43.83C33.6805 44.5356 33.6777 45.232 33.6189 45.9148C26.7639 46.3728 20.7896 41.2856 20.2331 34.4766C20.1755 33.771 20.1783 33.0744 20.2371 32.3917ZM38.0541 45.6764C44.9236 45.1248 50.0559 39.2031 49.5938 32.4084C48.905 32.3501 48.2024 32.3473 47.4905 32.4045C40.6209 32.9561 35.4887 38.8778 35.9508 45.6724C36.6395 45.7308 37.3423 45.7336 38.0541 45.6764Z" fill="#1D1F17"/>
</svg>
