<svg width="400" height="400" viewBox="0 0 400 400" fill="none" xmlns="http://www.w3.org/2000/svg">
<g clip-path="url(#clip0_393_1575)">
<path d="M6.42445 235.386L43.3163 238.94C47.2625 254.622 53.5733 269.612 62.0313 283.395L38.5436 311.758C37.4147 313.121 36.8349 314.856 36.9177 316.624C37.0005 318.392 37.74 320.065 38.9914 321.317L78.9361 361.26C80.1879 362.512 81.861 363.251 83.6285 363.335C85.396 363.418 87.1311 362.838 88.4946 361.709L116.905 338.181C130.695 346.599 145.661 352.92 161.311 356.935L164.864 393.702C165.04 395.446 165.864 397.061 167.175 398.227C168.484 399.392 170.184 400.024 171.937 399.996H228.567C230.321 400.024 232.02 399.392 233.33 398.227C234.641 397.061 235.465 395.446 235.641 393.702L239.194 356.874C254.875 352.94 269.865 346.641 283.649 338.193L312.011 361.697C313.374 362.827 315.108 363.408 316.875 363.326C318.644 363.244 320.317 362.506 321.57 361.256L361.514 321.317C362.765 320.065 363.504 318.392 363.587 316.625C363.67 314.858 363.09 313.123 361.962 311.76L338.439 283.349C346.858 269.557 353.179 254.59 357.193 238.938L393.589 235.384C395.345 235.213 396.976 234.394 398.162 233.086C399.348 231.779 400.005 230.077 400.005 228.312V171.682C400.005 169.915 399.347 168.212 398.159 166.903C396.972 165.596 395.339 164.777 393.581 164.608L356.689 161.054C352.743 145.372 346.432 130.382 337.974 116.599L361.462 88.236C362.585 86.8786 363.165 85.1527 363.088 83.3922C363.011 81.6328 362.283 79.9638 361.045 78.7099L321.606 38.7649C320.357 37.5 318.68 36.7492 316.905 36.6602C315.129 36.5714 313.385 37.1509 312.016 38.2847L283.606 61.8132C269.816 53.3938 254.85 47.0739 239.2 43.0596L235.647 6.29235C235.471 4.54766 234.647 2.9327 233.336 1.767C232.026 0.601297 230.327 -0.0300831 228.574 -0.00216385H171.943C170.19 -0.0300831 168.491 0.601297 167.181 1.767C165.87 2.9327 165.046 4.54766 164.87 6.29235L161.317 43.1205C145.636 47.0536 130.646 53.3532 116.863 61.801L88.4946 38.301C87.1321 37.1709 85.3981 36.5898 83.6305 36.6711C81.862 36.7523 80.1889 37.4903 78.9361 38.7406L38.9914 78.6815C37.7405 79.9323 37.0015 81.6054 36.9187 83.3729C36.8358 85.1405 37.4153 86.8745 38.5436 88.238L62.0719 116.646C53.6535 130.435 47.3326 145.4 43.3183 161.05L6.42445 164.604C4.66514 164.773 3.03222 165.592 1.84439 166.901C0.656457 168.21 -0.00111535 169.914 1.42014e-06 171.682V228.312C-0.000100104 230.079 0.65798 231.782 1.84571 233.09C3.03344 234.398 4.66585 235.217 6.42445 235.386ZM14.2134 178.137L49.756 174.711C51.2565 174.566 52.6717 173.949 53.7977 172.947C54.9236 171.945 55.7012 170.612 56.02 169.139C59.9165 151.613 66.9521 134.936 76.7868 119.916C77.6061 118.647 77.999 117.149 77.9096 115.641C77.8203 114.133 77.2528 112.693 76.2893 111.53L53.6169 84.1577L84.4123 53.3623L111.788 76.0358C112.966 77.0104 114.426 77.58 115.953 77.6591C117.48 77.7383 118.991 77.3231 120.263 76.4754C135.215 66.5808 151.878 59.5573 169.401 55.7644C170.865 55.473 172.197 54.7197 173.2 53.6141C174.203 52.5095 174.826 51.1115 174.974 49.6262L178.395 14.2072H222.116L225.541 49.6232C225.687 51.1156 226.308 52.5227 227.31 53.6374C228.313 54.7532 229.646 55.5197 231.114 55.8243C248.638 59.7096 265.314 66.7341 280.337 76.5596C281.608 77.3759 283.105 77.7668 284.614 77.6744C286.121 77.582 287.561 77.0114 288.723 76.0459L316.067 53.3958L346.415 84.1283L323.716 111.54C322.741 112.718 322.172 114.177 322.092 115.704C322.014 117.23 322.43 118.742 323.277 120.014C333.171 134.966 340.194 151.629 343.988 169.152C344.307 170.625 345.086 171.958 346.212 172.959C347.338 173.961 348.753 174.578 350.252 174.724L385.792 178.137V221.865L350.747 225.284C349.248 225.43 347.835 226.048 346.71 227.049C345.586 228.051 344.809 229.383 344.491 230.855C340.593 248.381 333.559 265.057 323.724 280.079C322.905 281.348 322.512 282.845 322.601 284.353C322.69 285.86 323.258 287.301 324.221 288.464L346.894 315.836L316.1 346.632L288.723 323.959C287.545 322.984 286.085 322.414 284.558 322.335C283.031 322.256 281.519 322.671 280.247 323.52C265.296 333.413 248.633 340.437 231.11 344.231C229.646 344.521 228.314 345.275 227.311 346.38C226.308 347.486 225.685 348.884 225.537 350.369L222.116 385.787H178.395L174.97 350.371C174.824 348.879 174.203 347.471 173.201 346.356C172.198 345.24 170.865 344.474 169.397 344.17C151.873 340.285 135.197 333.259 120.174 323.434C118.903 322.617 117.406 322.226 115.897 322.319C114.389 322.411 112.95 322.982 111.788 323.948L84.4123 346.628L53.6169 315.836L76.2893 288.461C77.2639 287.284 77.8335 285.824 77.9127 284.297C77.9909 282.77 77.5756 281.259 76.7279 279.987C66.8344 265.035 59.8109 248.371 56.017 230.849C55.6982 229.376 54.9195 228.043 53.7936 227.041C52.6677 226.04 51.2524 225.422 49.7529 225.278L14.2134 221.857V178.137Z" fill="#E9996B"/>
<path d="M200.254 317.356C223.466 317.356 246.157 310.473 265.456 297.577C284.756 284.681 299.799 266.351 308.681 244.906C317.565 223.461 319.889 199.864 315.36 177.097C310.832 154.331 299.654 133.419 283.24 117.007C266.827 100.594 245.915 89.4157 223.149 84.8877C200.383 80.3587 176.785 82.6836 155.34 91.566C133.895 100.449 115.566 115.491 102.67 134.792C89.774 154.092 82.8906 176.783 82.8906 199.994C82.9262 231.11 95.303 260.941 117.305 282.944C139.308 304.945 169.138 317.322 200.254 317.356ZM200.254 96.8453C220.655 96.8463 240.597 102.896 257.56 114.23C274.523 125.565 287.743 141.674 295.55 160.522C303.357 179.37 305.399 200.11 301.419 220.118C297.44 240.128 287.615 258.507 273.19 272.932C258.764 287.358 240.385 297.181 220.376 301.161C200.367 305.142 179.627 303.098 160.78 295.292C141.932 287.485 125.822 274.263 114.488 257.301C103.154 240.338 97.104 220.395 97.104 199.994C97.1355 172.647 108.014 146.429 127.351 127.091C146.688 107.754 172.907 96.8768 200.254 96.8453Z" fill="#E9996B"/>
<path d="M181.962 233.765C183.29 235.061 185.072 235.786 186.927 235.786C188.783 235.786 190.565 235.061 191.891 233.765L250.65 176.399C251.326 175.748 251.867 174.971 252.24 174.111C252.615 173.252 252.815 172.326 252.829 171.388C252.845 170.45 252.674 169.518 252.327 168.647C251.98 167.776 251.464 166.982 250.809 166.311C250.154 165.64 249.372 165.105 248.509 164.738C247.646 164.37 246.72 164.177 245.781 164.169C244.844 164.162 243.914 164.34 243.045 164.693C242.176 165.046 241.386 165.568 240.72 166.229L186.927 218.749L159.278 191.753C158.61 191.101 157.821 190.587 156.954 190.241C156.088 189.893 155.161 189.721 154.228 189.732C153.295 189.743 152.373 189.938 151.515 190.306C150.657 190.673 149.88 191.206 149.228 191.874C148.576 192.541 148.062 193.331 147.715 194.198C147.369 195.064 147.195 195.991 147.208 196.924C147.219 197.857 147.414 198.779 147.781 199.637C148.148 200.495 148.681 201.271 149.349 201.924L181.962 233.765Z" fill="#E9996B"/>
</g>
<defs>
<clipPath id="clip0_393_1575">
<rect width="400" height="400" fill="white"/>
</clipPath>
</defs>
</svg>
