<svg width="50" height="50" viewBox="0 0 50 50" fill="none" xmlns="http://www.w3.org/2000/svg">
<path d="M39.61 31.8419L39.1216 30.5054H10.8893L10.4008 31.8419L10.4008 31.8419C9.34986 34.7178 8.82437 36.1558 8.73213 36.9476C8.15266 41.922 12.9871 45.7823 17.71 44.1162C18.4618 43.851 19.7477 43.0203 22.3197 41.3589C22.7288 41.0946 22.9334 40.9625 23.1342 40.8616C24.3115 40.2698 25.6994 40.2698 26.8767 40.8616C27.0775 40.9625 27.282 41.0946 27.6911 41.3589L27.6911 41.3589C30.2631 43.0203 31.5491 43.851 32.3009 44.1162C37.0237 45.7823 41.8582 41.9221 41.2787 36.9476C41.1865 36.1558 40.661 34.7179 39.61 31.842L39.61 31.8419Z" fill="#1D1F17"/>
<path d="M32.6423 12.7763L32.5439 12.5072C31.5817 9.87405 31.1005 8.55748 30.681 7.91247C28.0107 3.80705 21.9997 3.80705 19.3293 7.91247C18.9098 8.55748 18.4287 9.87403 17.4664 12.5071L17.4664 12.5072L17.3658 12.7826C17.2846 13.0048 17.244 13.1159 17.2018 13.2151C16.5783 14.681 15.1737 15.6631 13.5829 15.7455C13.4753 15.7511 13.357 15.7511 13.1204 15.7511C11.668 15.7511 10.9418 15.7511 10.5806 15.79C4.71735 16.421 2.40728 23.7252 6.84137 27.613C7.11453 27.8525 7.70857 28.27 8.89661 29.105L8.89695 29.1053L10.889 30.5054H39.1213L41.0472 29.1904C42.3051 28.3315 42.934 27.9021 43.2186 27.6575C47.7074 23.8007 45.4362 16.4465 39.5543 15.7926C39.1814 15.7511 38.4198 15.7511 36.8967 15.7511C36.6537 15.7511 36.5322 15.7511 36.4216 15.7452C34.8351 15.6608 33.4347 14.6816 32.8109 13.2205C32.7674 13.1186 32.7257 13.0045 32.6423 12.7763Z" fill="#1D1F17" fill-opacity="0.18"/>
</svg>
