<svg width="50" height="50" viewBox="0 0 50 50" fill="none" xmlns="http://www.w3.org/2000/svg">
<path d="M24.0625 4.6875H16.5625C12.2659 4.6875 10.1176 4.6875 8.61165 5.78167C8.12527 6.13505 7.69755 6.56277 7.34417 7.04915C6.25 8.55515 6.25 10.7034 6.25 15V35.2864C6.25 39.3097 6.25 41.3213 7.21554 42.7663C7.63353 43.3918 8.17064 43.929 8.79621 44.347C10.2412 45.3125 12.2528 45.3125 16.276 45.3125C18.1048 45.3125 19.0191 45.3125 19.676 44.8736C19.9603 44.6836 20.2045 44.4395 20.3945 44.1551C20.8333 43.4983 20.8333 42.5839 20.8333 40.7552V39.0625C20.8333 37.604 20.8333 36.8748 21.1172 36.3177C21.3668 35.8277 21.7652 35.4293 22.2552 35.1797C22.8123 34.8958 23.5415 34.8958 25 34.8958C26.4585 34.8958 27.1877 34.8958 27.7448 35.1797C28.2348 35.4293 28.6332 35.8277 28.8828 36.3177C29.1667 36.8748 29.1667 37.604 29.1667 39.0625V40.7552C29.1667 42.5839 29.1667 43.4983 29.6055 44.1551C29.7955 44.4395 30.0397 44.6836 30.324 44.8736C30.9809 45.3125 31.8952 45.3125 33.724 45.3125C37.7472 45.3125 39.7588 45.3125 41.2038 44.347C41.8294 43.929 42.3665 43.3919 42.7845 42.7663C43.75 41.3213 43.75 39.3097 43.75 35.2864V24.4792C43.75 21.0738 43.75 19.371 43.0492 18.0876C42.5228 17.1237 41.7305 16.3313 40.7665 15.805C39.4831 15.1042 37.7804 15.1042 34.375 15.1042C34.375 10.7382 34.375 8.55515 33.2808 7.04915C32.9275 6.56277 32.4997 6.13505 32.0134 5.78167C30.5074 4.6875 28.3591 4.6875 24.0625 4.6875Z" fill="#1D1F17" fill-opacity="0.18"/>
<path d="M18.2288 15.1042C18.2288 16.0777 18.2288 16.5645 18.0195 16.9271C17.8824 17.1646 17.6851 17.3619 17.4476 17.499C17.085 17.7083 16.5982 17.7083 15.6247 17.7083V17.7083C14.6511 17.7083 14.1643 17.7083 13.8018 17.499C13.5642 17.3619 13.367 17.1646 13.2298 16.9271C13.0205 16.5645 13.0205 16.0777 13.0205 15.1042V15.1042C13.0205 14.1306 13.0205 13.6438 13.2298 13.2813C13.367 13.0437 13.5642 12.8465 13.8018 12.7093C14.1643 12.5 14.6511 12.5 15.6247 12.5V12.5C16.5982 12.5 17.085 12.5 17.4476 12.7093C17.6851 12.8465 17.8824 13.0437 18.0195 13.2813C18.2288 13.6438 18.2288 14.1306 18.2288 15.1042V15.1042Z" fill="#1D1F17"/>
<path d="M27.6038 15.1042C27.6038 16.0777 27.6038 16.5645 27.3945 16.9271C27.2574 17.1646 27.0601 17.3619 26.8226 17.499C26.46 17.7083 25.9732 17.7083 24.9997 17.7083V17.7083C24.0261 17.7083 23.5393 17.7083 23.1768 17.499C22.9392 17.3619 22.742 17.1646 22.6048 16.9271C22.3955 16.5645 22.3955 16.0777 22.3955 15.1042V15.1042C22.3955 14.1306 22.3955 13.6438 22.6048 13.2813C22.742 13.0437 22.9392 12.8465 23.1768 12.7093C23.5393 12.5 24.0261 12.5 24.9997 12.5V12.5C25.9732 12.5 26.46 12.5 26.8226 12.7093C27.0601 12.8465 27.2574 13.0437 27.3945 13.2813C27.6038 13.6438 27.6038 14.1306 27.6038 15.1042V15.1042Z" fill="#1D1F17"/>
<path d="M18.2288 25C18.2288 25.9736 18.2288 26.4603 18.0195 26.8229C17.8824 27.0604 17.6851 27.2577 17.4476 27.3948C17.085 27.6042 16.5982 27.6042 15.6247 27.6042V27.6042C14.6511 27.6042 14.1643 27.6042 13.8018 27.3948C13.5642 27.2577 13.367 27.0604 13.2298 26.8229C13.0205 26.4603 13.0205 25.9736 13.0205 25V25C13.0205 24.0264 13.0205 23.5397 13.2298 23.1771C13.367 22.9396 13.5642 22.7423 13.8018 22.6052C14.1643 22.3958 14.6511 22.3958 15.6247 22.3958V22.3958C16.5982 22.3958 17.085 22.3958 17.4476 22.6052C17.6851 22.7423 17.8824 22.9396 18.0195 23.1771C18.2288 23.5397 18.2288 24.0264 18.2288 25V25Z" fill="#1D1F17"/>
<path d="M27.6038 25C27.6038 25.9736 27.6038 26.4603 27.3945 26.8229C27.2574 27.0604 27.0601 27.2577 26.8226 27.3948C26.46 27.6042 25.9732 27.6042 24.9997 27.6042V27.6042C24.0261 27.6042 23.5393 27.6042 23.1768 27.3948C22.9392 27.2577 22.742 27.0604 22.6048 26.8229C22.3955 26.4603 22.3955 25.9736 22.3955 25V25C22.3955 24.0264 22.3955 23.5397 22.6048 23.1771C22.742 22.9396 22.9392 22.7423 23.1768 22.6052C23.5393 22.3958 24.0261 22.3958 24.9997 22.3958V22.3958C25.9732 22.3958 26.46 22.3958 26.8226 22.6052C27.0601 22.7423 27.2574 22.9396 27.3945 23.1771C27.6038 23.5397 27.6038 24.0264 27.6038 25V25Z" fill="#1D1F17"/>
<path d="M36.9788 25C36.9788 25.9736 36.9788 26.4603 36.7695 26.8229C36.6324 27.0604 36.4351 27.2577 36.1976 27.3948C35.835 27.6042 35.3482 27.6042 34.3747 27.6042V27.6042C33.4011 27.6042 32.9143 27.6042 32.5518 27.3948C32.3142 27.2577 32.117 27.0604 31.9798 26.8229C31.7705 26.4603 31.7705 25.9736 31.7705 25V25C31.7705 24.0264 31.7705 23.5397 31.9798 23.1771C32.117 22.9396 32.3142 22.7423 32.5518 22.6052C32.9143 22.3958 33.4011 22.3958 34.3747 22.3958V22.3958C35.3482 22.3958 35.835 22.3958 36.1976 22.6052C36.4351 22.7423 36.6324 22.9396 36.7695 23.1771C36.9788 23.5397 36.9788 24.0264 36.9788 25V25Z" fill="#1D1F17"/>
</svg>
