<svg width="50" height="50" viewBox="0 0 50 50" fill="none" xmlns="http://www.w3.org/2000/svg">
<path fill-rule="evenodd" clip-rule="evenodd" d="M38.1037 25.9404C36.9317 24.6865 34.9433 24.6865 33.7713 25.9404C33.1868 26.5658 32.3606 26.9081 31.5051 26.8792C29.7897 26.8212 28.3837 28.2272 28.4417 29.9426C28.4706 30.7981 28.1283 31.6243 27.5029 32.2088C26.249 33.3808 26.249 35.3692 27.5029 36.5412C28.1283 37.1257 28.4706 37.9519 28.4417 38.8074C28.3837 40.5228 29.7897 41.9288 31.5051 41.8708C32.3606 41.8419 33.1868 42.1842 33.7713 42.8096C34.9433 44.0635 36.9317 44.0635 38.1037 42.8096C38.6882 42.1842 39.5144 41.8419 40.3699 41.8708C42.0853 41.9288 43.4913 40.5228 43.4333 38.8074C43.4044 37.9519 43.7467 37.1257 44.3721 36.5412C45.626 35.3692 45.626 33.3808 44.3721 32.2088C43.7467 31.6243 43.4044 30.7981 43.4333 29.9426C43.4913 28.2272 42.0853 26.8212 40.3699 26.8792C39.5144 26.9081 38.6882 26.5658 38.1037 25.9404ZM40.3343 33.1249C40.9383 32.5086 40.9283 31.5193 40.312 30.9153C39.6957 30.3113 38.7064 30.3213 38.1024 30.9376L34.7137 34.3955L33.8523 33.37C33.2972 32.7092 32.3116 32.6235 31.6509 33.1786C30.9901 33.7336 30.9044 34.7192 31.4594 35.38L33.4282 37.7237C33.7116 38.0612 34.1244 38.2632 34.5647 38.2801C35.0051 38.297 35.4321 38.1271 35.7405 37.8124L40.3343 33.1249Z" fill="#1D1F17"/>
<path fill-rule="evenodd" clip-rule="evenodd" d="M23.006 4.6875C18.6913 4.6875 15.1935 8.18528 15.1935 12.5C15.1935 16.8147 18.6913 20.3125 23.006 20.3125C27.3207 20.3125 30.8185 16.8147 30.8185 12.5C30.8185 8.18528 27.3207 4.6875 23.006 4.6875ZM19.9513 23.4375C13.5656 23.4375 7.80855 27.284 5.36447 33.1835C2.9717 38.9591 7.2166 45.3125 13.4683 45.3125H29.8811C26.0382 43.1801 23.4373 39.0813 23.4373 34.375C23.4373 29.908 25.7804 25.9883 29.3046 23.7779C28.2451 23.5541 27.1522 23.4375 26.0403 23.4375H19.9513Z" fill="#1D1F17" fill-opacity="0.18"/>
</svg>
