<svg width="22" height="6" viewBox="0 0 22 6" fill="none" xmlns="http://www.w3.org/2000/svg">
<path d="M2.84969 5.92114C4.2984 5.92114 5.47282 4.74183 5.47282 3.28707C5.47282 1.83231 4.2984 0.653 2.84969 0.653C1.40098 0.653 0.226562 1.83231 0.226562 3.28707C0.226562 4.74183 1.40098 5.92114 2.84969 5.92114Z" fill="#1D1F17"/>
<path d="M10.7188 5.92114C12.1675 5.92114 13.342 4.74183 13.342 3.28707C13.342 1.83231 12.1675 0.653 10.7188 0.653C9.27012 0.653 8.0957 1.83231 8.0957 3.28707C8.0957 4.74183 9.27012 5.92114 10.7188 5.92114Z" fill="#1D1F17"/>
<path d="M18.588 5.92114C20.0367 5.92114 21.2111 4.74183 21.2111 3.28707C21.2111 1.83231 20.0367 0.653 18.588 0.653C17.1393 0.653 15.9648 1.83231 15.9648 3.28707C15.9648 4.74183 17.1393 5.92114 18.588 5.92114Z" fill="#1D1F17"/>
</svg>
