<svg width="238" height="233" viewBox="0 0 238 233" fill="none" xmlns="http://www.w3.org/2000/svg">
<rect width="238" height="233" fill="white"/>
<path d="M30.3167 37.105C29.5867 37.105 28.9267 36.98 28.3367 36.73C27.7567 36.48 27.2967 36.12 26.9567 35.65C26.6167 35.18 26.4417 34.625 26.4317 33.985H28.6817C28.7117 34.415 28.8617 34.755 29.1317 35.005C29.4117 35.255 29.7917 35.38 30.2717 35.38C30.7617 35.38 31.1467 35.265 31.4267 35.035C31.7067 34.795 31.8467 34.485 31.8467 34.105C31.8467 33.795 31.7517 33.54 31.5617 33.34C31.3717 33.14 31.1317 32.985 30.8417 32.875C30.5617 32.755 30.1717 32.625 29.6717 32.485C28.9917 32.285 28.4367 32.09 28.0067 31.9C27.5867 31.7 27.2217 31.405 26.9117 31.015C26.6117 30.615 26.4617 30.085 26.4617 29.425C26.4617 28.805 26.6167 28.265 26.9267 27.805C27.2367 27.345 27.6717 26.995 28.2317 26.755C28.7917 26.505 29.4317 26.38 30.1517 26.38C31.2317 26.38 32.1067 26.645 32.7767 27.175C33.4567 27.695 33.8317 28.425 33.9017 29.365H31.5917C31.5717 29.005 31.4167 28.71 31.1267 28.48C30.8467 28.24 30.4717 28.12 30.0017 28.12C29.5917 28.12 29.2617 28.225 29.0117 28.435C28.7717 28.645 28.6517 28.95 28.6517 29.35C28.6517 29.63 28.7417 29.865 28.9217 30.055C29.1117 30.235 29.3417 30.385 29.6117 30.505C29.8917 30.615 30.2817 30.745 30.7817 30.895C31.4617 31.095 32.0167 31.295 32.4467 31.495C32.8767 31.695 33.2467 31.995 33.5567 32.395C33.8667 32.795 34.0217 33.32 34.0217 33.97C34.0217 34.53 33.8767 35.05 33.5867 35.53C33.2967 36.01 32.8717 36.395 32.3117 36.685C31.7517 36.965 31.0867 37.105 30.3167 37.105ZM38.2873 30.415V34.435C38.2873 34.715 38.3523 34.92 38.4823 35.05C38.6223 35.17 38.8523 35.23 39.1723 35.23H40.1473V37H38.8273C37.0573 37 36.1723 36.14 36.1723 34.42V30.415H35.1823V28.69H36.1723V26.635H38.2873V28.69H40.1473V30.415H38.2873ZM41.1177 32.815C41.1177 31.975 41.2827 31.23 41.6127 30.58C41.9527 29.93 42.4077 29.43 42.9777 29.08C43.5577 28.73 44.2027 28.555 44.9127 28.555C45.5327 28.555 46.0727 28.68 46.5327 28.93C47.0027 29.18 47.3777 29.495 47.6577 29.875V28.69H49.7727V37H47.6577V35.785C47.3877 36.175 47.0127 36.5 46.5327 36.76C46.0627 37.01 45.5177 37.135 44.8977 37.135C44.1977 37.135 43.5577 36.955 42.9777 36.595C42.4077 36.235 41.9527 35.73 41.6127 35.08C41.2827 34.42 41.1177 33.665 41.1177 32.815ZM47.6577 32.845C47.6577 32.335 47.5577 31.9 47.3577 31.54C47.1577 31.17 46.8877 30.89 46.5477 30.7C46.2077 30.5 45.8427 30.4 45.4527 30.4C45.0627 30.4 44.7027 30.495 44.3727 30.685C44.0427 30.875 43.7727 31.155 43.5627 31.525C43.3627 31.885 43.2627 32.315 43.2627 32.815C43.2627 33.315 43.3627 33.755 43.5627 34.135C43.7727 34.505 44.0427 34.79 44.3727 34.99C44.7127 35.19 45.0727 35.29 45.4527 35.29C45.8427 35.29 46.2077 35.195 46.5477 35.005C46.8877 34.805 47.1577 34.525 47.3577 34.165C47.5577 33.795 47.6577 33.355 47.6577 32.845ZM54.2688 30.415V34.435C54.2688 34.715 54.3338 34.92 54.4638 35.05C54.6038 35.17 54.8338 35.23 55.1538 35.23H56.1288V37H54.8088C53.0388 37 52.1538 36.14 52.1538 34.42V30.415H51.1638V28.69H52.1538V26.635H54.2688V28.69H56.1288V30.415H54.2688ZM58.7042 27.7C58.3342 27.7 58.0242 27.585 57.7742 27.355C57.5342 27.115 57.4142 26.82 57.4142 26.47C57.4142 26.12 57.5342 25.83 57.7742 25.6C58.0242 25.36 58.3342 25.24 58.7042 25.24C59.0742 25.24 59.3792 25.36 59.6192 25.6C59.8692 25.83 59.9942 26.12 59.9942 26.47C59.9942 26.82 59.8692 27.115 59.6192 27.355C59.3792 27.585 59.0742 27.7 58.7042 27.7ZM59.7392 28.69V37H57.6392V28.69H59.7392ZM64.994 37.135C64.314 37.135 63.704 37.015 63.164 36.775C62.624 36.525 62.194 36.19 61.874 35.77C61.564 35.35 61.394 34.885 61.364 34.375H63.479C63.519 34.695 63.674 34.96 63.944 35.17C64.224 35.38 64.569 35.485 64.979 35.485C65.379 35.485 65.689 35.405 65.909 35.245C66.139 35.085 66.254 34.88 66.254 34.63C66.254 34.36 66.114 34.16 65.834 34.03C65.564 33.89 65.129 33.74 64.529 33.58C63.909 33.43 63.399 33.275 62.999 33.115C62.609 32.955 62.269 32.71 61.979 32.38C61.699 32.05 61.559 31.605 61.559 31.045C61.559 30.585 61.689 30.165 61.949 29.785C62.219 29.405 62.599 29.105 63.089 28.885C63.589 28.665 64.174 28.555 64.844 28.555C65.834 28.555 66.624 28.805 67.214 29.305C67.804 29.795 68.129 30.46 68.189 31.3H66.179C66.149 30.97 66.009 30.71 65.759 30.52C65.519 30.32 65.194 30.22 64.784 30.22C64.404 30.22 64.109 30.29 63.899 30.43C63.699 30.57 63.599 30.765 63.599 31.015C63.599 31.295 63.739 31.51 64.019 31.66C64.299 31.8 64.734 31.945 65.324 32.095C65.924 32.245 66.419 32.4 66.809 32.56C67.199 32.72 67.534 32.97 67.814 33.31C68.104 33.64 68.254 34.08 68.264 34.63C68.264 35.11 68.129 35.54 67.859 35.92C67.599 36.3 67.219 36.6 66.719 36.82C66.229 37.03 65.654 37.135 64.994 37.135ZM72.4328 30.415V34.435C72.4328 34.715 72.4978 34.92 72.6278 35.05C72.7678 35.17 72.9978 35.23 73.3178 35.23H74.2928V37H72.9728C71.2028 37 70.3178 36.14 70.3178 34.42V30.415H69.3278V28.69H70.3178V26.635H72.4328V28.69H74.2928V30.415H72.4328ZM76.8682 27.7C76.4982 27.7 76.1882 27.585 75.9382 27.355C75.6982 27.115 75.5782 26.82 75.5782 26.47C75.5782 26.12 75.6982 25.83 75.9382 25.6C76.1882 25.36 76.4982 25.24 76.8682 25.24C77.2382 25.24 77.5432 25.36 77.7832 25.6C78.0332 25.83 78.1582 26.12 78.1582 26.47C78.1582 26.82 78.0332 27.115 77.7832 27.355C77.5432 27.585 77.2382 27.7 76.8682 27.7ZM77.9032 28.69V37H75.8032V28.69H77.9032ZM79.4381 32.845C79.4381 31.985 79.6131 31.235 79.9631 30.595C80.3131 29.945 80.7981 29.445 81.4181 29.095C82.0381 28.735 82.7481 28.555 83.5481 28.555C84.5781 28.555 85.4281 28.815 86.0981 29.335C86.7781 29.845 87.2331 30.565 87.4631 31.495H85.1981C85.0781 31.135 84.8731 30.855 84.5831 30.655C84.3031 30.445 83.9531 30.34 83.5331 30.34C82.9331 30.34 82.4581 30.56 82.1081 31C81.7581 31.43 81.5831 32.045 81.5831 32.845C81.5831 33.635 81.7581 34.25 82.1081 34.69C82.4581 35.12 82.9331 35.335 83.5331 35.335C84.3831 35.335 84.9381 34.955 85.1981 34.195H87.4631C87.2331 35.095 86.7781 35.81 86.0981 36.34C85.4181 36.87 84.5681 37.135 83.5481 37.135C82.7481 37.135 82.0381 36.96 81.4181 36.61C80.7981 36.25 80.3131 35.75 79.9631 35.11C79.6131 34.46 79.4381 33.705 79.4381 32.845ZM92.1815 37.135C91.5015 37.135 90.8915 37.015 90.3515 36.775C89.8115 36.525 89.3815 36.19 89.0615 35.77C88.7515 35.35 88.5815 34.885 88.5515 34.375H90.6665C90.7065 34.695 90.8615 34.96 91.1315 35.17C91.4115 35.38 91.7565 35.485 92.1665 35.485C92.5665 35.485 92.8765 35.405 93.0965 35.245C93.3265 35.085 93.4415 34.88 93.4415 34.63C93.4415 34.36 93.3015 34.16 93.0215 34.03C92.7515 33.89 92.3165 33.74 91.7165 33.58C91.0965 33.43 90.5865 33.275 90.1865 33.115C89.7965 32.955 89.4565 32.71 89.1665 32.38C88.8865 32.05 88.7465 31.605 88.7465 31.045C88.7465 30.585 88.8765 30.165 89.1365 29.785C89.4065 29.405 89.7865 29.105 90.2765 28.885C90.7765 28.665 91.3615 28.555 92.0315 28.555C93.0215 28.555 93.8115 28.805 94.4015 29.305C94.9915 29.795 95.3165 30.46 95.3765 31.3H93.3665C93.3365 30.97 93.1965 30.71 92.9465 30.52C92.7065 30.32 92.3815 30.22 91.9715 30.22C91.5915 30.22 91.2965 30.29 91.0865 30.43C90.8865 30.57 90.7865 30.765 90.7865 31.015C90.7865 31.295 90.9265 31.51 91.2065 31.66C91.4865 31.8 91.9215 31.945 92.5115 32.095C93.1115 32.245 93.6065 32.4 93.9965 32.56C94.3865 32.72 94.7215 32.97 95.0015 33.31C95.2915 33.64 95.4415 34.08 95.4515 34.63C95.4515 35.11 95.3165 35.54 95.0465 35.92C94.7865 36.3 94.4065 36.6 93.9065 36.82C93.4165 37.03 92.8415 37.135 92.1815 37.135Z" fill="#1D1F17"/>
<circle cx="191.5" cy="31" r="2.5" fill="#1D1F17"/>
<circle cx="200.667" cy="31" r="2.5" fill="#1D1F17"/>
<circle cx="209.833" cy="31" r="2.5" fill="#1D1F17"/>
<path fill-rule="evenodd" clip-rule="evenodd" d="M59.3192 114.792C60.5868 115.424 61.0969 116.962 60.5176 118.255C57.3544 125.315 55.4605 133.072 55.1316 141.247C55.0747 142.663 53.9315 143.812 52.5147 143.812H41.3948C39.9779 143.812 38.825 142.663 38.8704 141.247C39.2148 130.49 41.7175 120.263 45.9642 110.997C46.5547 109.709 48.0995 109.195 49.3676 109.828L59.3192 114.792Z" fill="white"/>
<path fill-rule="evenodd" clip-rule="evenodd" d="M118.367 79.2559C94.7665 79.2559 74.205 92.3312 63.552 111.668C62.8681 112.909 61.3319 113.428 60.0637 112.796L50.1122 107.832C48.8445 107.199 48.3256 105.657 48.9987 104.41C62.3048 79.7679 88.3714 63 118.367 63C124.266 63 130.023 63.6499 135.565 64.8848C136.948 65.1929 137.773 66.5957 137.42 67.9677L134.648 78.7414C134.295 80.1137 132.897 80.9344 131.511 80.6381C127.279 79.7333 122.883 79.2559 118.367 79.2559Z" fill="#FFEDE1"/>
<path fill-rule="evenodd" clip-rule="evenodd" d="M185.485 142.663C184.068 142.663 182.925 141.513 182.868 140.097C181.774 112.981 163.421 90.2946 138.49 82.7636C137.134 82.3539 136.306 80.9606 136.659 79.5886L139.431 68.8149C139.784 67.4426 141.186 66.6127 142.546 67.0109C174.481 76.3607 198.019 105.386 199.13 140.095C199.175 141.511 198.022 142.663 196.605 142.663H185.485Z" fill="#E9996B"/>
<path d="M86.8736 104.191C87.0814 103.829 87.3892 103.529 87.7971 103.29C88.2127 103.044 88.6938 102.921 89.2402 102.921C89.802 102.921 90.31 103.055 90.7641 103.325C91.2259 103.594 91.5876 103.975 91.8493 104.468C92.111 104.952 92.2418 105.518 92.2418 106.165C92.2418 106.803 92.111 107.373 91.8493 107.873C91.5876 108.374 91.2259 108.762 90.7641 109.039C90.31 109.316 89.802 109.455 89.2402 109.455C88.7015 109.455 88.2243 109.336 87.8087 109.097C87.4008 108.851 87.0891 108.547 86.8736 108.185V112.353H85.823V103.025H86.8736V104.191ZM91.1682 106.165C91.1682 105.687 91.0719 105.272 90.8795 104.918C90.6871 104.564 90.4255 104.294 90.0945 104.11C89.7713 103.925 89.4134 103.833 89.0209 103.833C88.636 103.833 88.2782 103.929 87.9472 104.121C87.624 104.306 87.3623 104.579 87.1622 104.941C86.9698 105.295 86.8736 105.707 86.8736 106.176C86.8736 106.653 86.9698 107.073 87.1622 107.435C87.3623 107.789 87.624 108.062 87.9472 108.254C88.2782 108.439 88.636 108.531 89.0209 108.531C89.4134 108.531 89.7713 108.439 90.0945 108.254C90.4255 108.062 90.6871 107.789 90.8795 107.435C91.0719 107.073 91.1682 106.65 91.1682 106.165ZM99.3969 105.945C99.3969 106.145 99.3854 106.357 99.3623 106.58H94.3058C94.3442 107.204 94.5559 107.692 94.9407 108.046C95.3332 108.393 95.8065 108.566 96.3607 108.566C96.8148 108.566 97.1919 108.462 97.4921 108.254C97.7999 108.039 98.0154 107.754 98.1385 107.4H99.2699C99.1006 108.008 98.762 108.504 98.254 108.889C97.746 109.266 97.1149 109.455 96.3607 109.455C95.7604 109.455 95.2216 109.32 94.7444 109.051C94.275 108.781 93.9055 108.4 93.6362 107.908C93.3668 107.408 93.2321 106.83 93.2321 106.176C93.2321 105.522 93.3629 104.949 93.6246 104.456C93.8863 103.964 94.2519 103.586 94.7214 103.325C95.1985 103.055 95.745 102.921 96.3607 102.921C96.961 102.921 97.4921 103.051 97.9538 103.313C98.4156 103.575 98.7697 103.937 99.0159 104.398C99.2699 104.852 99.3969 105.368 99.3969 105.945ZM98.3117 105.726C98.3117 105.326 98.2232 104.983 98.0462 104.699C97.8692 104.406 97.6267 104.187 97.3189 104.04C97.0187 103.887 96.6839 103.81 96.3145 103.81C95.7835 103.81 95.3294 103.979 94.9522 104.318C94.5828 104.656 94.3712 105.126 94.3173 105.726H98.3117ZM101.834 104.052C102.019 103.69 102.281 103.409 102.619 103.209C102.966 103.009 103.385 102.909 103.878 102.909V103.994H103.6C102.423 103.994 101.834 104.633 101.834 105.911V109.351H100.784V103.025H101.834V104.052ZM104.698 106.176C104.698 105.522 104.829 104.952 105.09 104.468C105.352 103.975 105.714 103.594 106.175 103.325C106.645 103.055 107.18 102.921 107.78 102.921C108.557 102.921 109.196 103.109 109.697 103.486C110.205 103.863 110.539 104.387 110.701 105.056H109.57C109.462 104.672 109.25 104.368 108.935 104.144C108.627 103.921 108.242 103.81 107.78 103.81C107.18 103.81 106.695 104.017 106.326 104.433C105.956 104.841 105.771 105.422 105.771 106.176C105.771 106.938 105.956 107.527 106.326 107.943C106.695 108.358 107.18 108.566 107.78 108.566C108.242 108.566 108.627 108.458 108.935 108.243C109.242 108.027 109.454 107.719 109.57 107.319H110.701C110.532 107.966 110.193 108.485 109.685 108.878C109.177 109.262 108.542 109.455 107.78 109.455C107.18 109.455 106.645 109.32 106.175 109.051C105.714 108.781 105.352 108.4 105.09 107.908C104.829 107.415 104.698 106.838 104.698 106.176ZM117.875 105.945C117.875 106.145 117.863 106.357 117.84 106.58H112.784C112.822 107.204 113.034 107.692 113.419 108.046C113.811 108.393 114.285 108.566 114.839 108.566C115.293 108.566 115.67 108.462 115.97 108.254C116.278 108.039 116.493 107.754 116.617 107.4H117.748C117.579 108.008 117.24 108.504 116.732 108.889C116.224 109.266 115.593 109.455 114.839 109.455C114.238 109.455 113.7 109.32 113.223 109.051C112.753 108.781 112.384 108.4 112.114 107.908C111.845 107.408 111.71 106.83 111.71 106.176C111.71 105.522 111.841 104.949 112.103 104.456C112.364 103.964 112.73 103.586 113.199 103.325C113.677 103.055 114.223 102.921 114.839 102.921C115.439 102.921 115.97 103.051 116.432 103.313C116.894 103.575 117.248 103.937 117.494 104.398C117.748 104.852 117.875 105.368 117.875 105.945ZM116.79 105.726C116.79 105.326 116.701 104.983 116.524 104.699C116.347 104.406 116.105 104.187 115.797 104.04C115.497 103.887 115.162 103.81 114.793 103.81C114.262 103.81 113.807 103.979 113.43 104.318C113.061 104.656 112.849 105.126 112.795 105.726H116.79ZM122.344 102.909C123.114 102.909 123.737 103.144 124.214 103.613C124.691 104.075 124.93 104.745 124.93 105.622V109.351H123.891V105.772C123.891 105.141 123.733 104.66 123.418 104.329C123.102 103.99 122.671 103.821 122.125 103.821C121.571 103.821 121.128 103.994 120.797 104.341C120.474 104.687 120.312 105.191 120.312 105.853V109.351H119.262V103.025H120.312V103.925C120.52 103.602 120.801 103.352 121.155 103.175C121.517 102.998 121.913 102.909 122.344 102.909ZM127.928 103.89V107.619C127.928 107.927 127.993 108.146 128.124 108.277C128.255 108.4 128.482 108.462 128.805 108.462H129.578V109.351H128.632C128.047 109.351 127.608 109.216 127.316 108.947C127.023 108.678 126.877 108.235 126.877 107.619V103.89H126.057V103.025H126.877V101.431H127.928V103.025H129.578V103.89H127.928ZM130.459 106.165C130.459 105.518 130.59 104.952 130.851 104.468C131.113 103.975 131.471 103.594 131.925 103.325C132.387 103.055 132.899 102.921 133.46 102.921C134.015 102.921 134.496 103.04 134.903 103.279C135.311 103.517 135.615 103.817 135.816 104.179V103.025H136.878V109.351H135.816V108.173C135.608 108.543 135.296 108.851 134.88 109.097C134.472 109.336 133.995 109.455 133.449 109.455C132.887 109.455 132.379 109.316 131.925 109.039C131.471 108.762 131.113 108.374 130.851 107.873C130.59 107.373 130.459 106.803 130.459 106.165ZM135.816 106.176C135.816 105.699 135.719 105.283 135.527 104.929C135.334 104.575 135.073 104.306 134.742 104.121C134.419 103.929 134.061 103.833 133.668 103.833C133.276 103.833 132.918 103.925 132.595 104.11C132.271 104.294 132.013 104.564 131.821 104.918C131.629 105.272 131.532 105.687 131.532 106.165C131.532 106.65 131.629 107.073 131.821 107.435C132.013 107.789 132.271 108.062 132.595 108.254C132.918 108.439 133.276 108.531 133.668 108.531C134.061 108.531 134.419 108.439 134.742 108.254C135.073 108.062 135.334 107.789 135.527 107.435C135.719 107.073 135.816 106.653 135.816 106.176ZM141.262 102.921C141.808 102.921 142.286 103.04 142.694 103.279C143.109 103.517 143.417 103.817 143.617 104.179V103.025H144.679V109.49C144.679 110.067 144.556 110.579 144.31 111.025C144.064 111.479 143.709 111.833 143.248 112.087C142.794 112.341 142.263 112.468 141.655 112.468C140.823 112.468 140.131 112.272 139.577 111.879C139.022 111.487 138.695 110.952 138.595 110.275H139.634C139.75 110.659 139.988 110.967 140.35 111.198C140.712 111.437 141.147 111.556 141.655 111.556C142.232 111.556 142.701 111.375 143.063 111.013C143.432 110.652 143.617 110.144 143.617 109.49V108.162C143.409 108.531 143.101 108.839 142.694 109.085C142.286 109.332 141.808 109.455 141.262 109.455C140.7 109.455 140.188 109.316 139.727 109.039C139.273 108.762 138.915 108.374 138.653 107.873C138.391 107.373 138.26 106.803 138.26 106.165C138.26 105.518 138.391 104.952 138.653 104.468C138.915 103.975 139.273 103.594 139.727 103.325C140.188 103.055 140.7 102.921 141.262 102.921ZM143.617 106.176C143.617 105.699 143.521 105.283 143.329 104.929C143.136 104.575 142.874 104.306 142.543 104.121C142.22 103.929 141.862 103.833 141.47 103.833C141.077 103.833 140.719 103.925 140.396 104.11C140.073 104.294 139.815 104.564 139.623 104.918C139.43 105.272 139.334 105.687 139.334 106.165C139.334 106.65 139.43 107.073 139.623 107.435C139.815 107.789 140.073 108.062 140.396 108.254C140.719 108.439 141.077 108.531 141.47 108.531C141.862 108.531 142.22 108.439 142.543 108.254C142.874 108.062 143.136 107.789 143.329 107.435C143.521 107.073 143.617 106.653 143.617 106.176ZM152.227 105.945C152.227 106.145 152.215 106.357 152.192 106.58H147.136C147.174 107.204 147.386 107.692 147.771 108.046C148.163 108.393 148.636 108.566 149.191 108.566C149.645 108.566 150.022 108.462 150.322 108.254C150.63 108.039 150.845 107.754 150.968 107.4H152.1C151.931 108.008 151.592 108.504 151.084 108.889C150.576 109.266 149.945 109.455 149.191 109.455C148.59 109.455 148.052 109.32 147.574 109.051C147.105 108.781 146.735 108.4 146.466 107.908C146.197 107.408 146.062 106.83 146.062 106.176C146.062 105.522 146.193 104.949 146.455 104.456C146.716 103.964 147.082 103.586 147.551 103.325C148.028 103.055 148.575 102.921 149.191 102.921C149.791 102.921 150.322 103.051 150.784 103.313C151.246 103.575 151.6 103.937 151.846 104.398C152.1 104.852 152.227 105.368 152.227 105.945ZM151.142 105.726C151.142 105.326 151.053 104.983 150.876 104.699C150.699 104.406 150.457 104.187 150.149 104.04C149.849 103.887 149.514 103.81 149.144 103.81C148.613 103.81 148.159 103.979 147.782 104.318C147.413 104.656 147.201 105.126 147.147 105.726H151.142Z" fill="#484848"/>
<path d="M109.588 122.432H103.769V125.503C104.021 125.192 104.38 124.941 104.847 124.749C105.314 124.545 105.811 124.444 106.337 124.444C107.295 124.444 108.079 124.653 108.69 125.072C109.3 125.491 109.743 126.03 110.019 126.688C110.294 127.335 110.432 128.029 110.432 128.772C110.432 130.148 110.037 131.256 109.247 132.094C108.468 132.932 107.355 133.351 105.906 133.351C104.541 133.351 103.452 133.01 102.638 132.327C101.824 131.645 101.363 130.753 101.255 129.652H103.697C103.805 130.13 104.045 130.514 104.416 130.801C104.799 131.088 105.284 131.232 105.87 131.232C106.577 131.232 107.11 131.01 107.469 130.567C107.828 130.124 108.007 129.538 108.007 128.808C108.007 128.065 107.822 127.503 107.451 127.119C107.092 126.724 106.559 126.527 105.852 126.527C105.35 126.527 104.931 126.653 104.595 126.904C104.26 127.155 104.021 127.491 103.877 127.91H101.471V120.224H109.588V122.432ZM114.536 126.419C113.339 125.797 112.74 124.833 112.74 123.528C112.74 122.881 112.902 122.295 113.225 121.768C113.56 121.229 114.057 120.804 114.716 120.493C115.386 120.17 116.2 120.008 117.158 120.008C118.116 120.008 118.924 120.17 119.582 120.493C120.253 120.804 120.75 121.229 121.073 121.768C121.408 122.295 121.576 122.881 121.576 123.528C121.576 124.186 121.414 124.767 121.091 125.27C120.768 125.761 120.337 126.144 119.798 126.419C120.456 126.706 120.971 127.125 121.342 127.676C121.714 128.227 121.899 128.879 121.899 129.634C121.899 130.448 121.69 131.16 121.271 131.771C120.863 132.369 120.301 132.83 119.582 133.153C118.864 133.477 118.056 133.638 117.158 133.638C116.26 133.638 115.452 133.477 114.734 133.153C114.027 132.83 113.465 132.369 113.046 131.771C112.639 131.16 112.435 130.448 112.435 129.634C112.435 128.879 112.621 128.227 112.992 127.676C113.363 127.113 113.878 126.694 114.536 126.419ZM119.134 123.887C119.134 123.3 118.954 122.845 118.595 122.522C118.248 122.199 117.769 122.037 117.158 122.037C116.56 122.037 116.081 122.199 115.721 122.522C115.374 122.845 115.201 123.306 115.201 123.905C115.201 124.444 115.38 124.875 115.739 125.198C116.111 125.521 116.583 125.683 117.158 125.683C117.733 125.683 118.206 125.521 118.577 125.198C118.948 124.863 119.134 124.426 119.134 123.887ZM117.158 127.515C116.476 127.515 115.919 127.688 115.488 128.035C115.069 128.383 114.859 128.879 114.859 129.526C114.859 130.124 115.063 130.615 115.47 130.998C115.889 131.37 116.452 131.555 117.158 131.555C117.864 131.555 118.421 131.364 118.828 130.98C119.235 130.597 119.439 130.113 119.439 129.526C119.439 128.891 119.229 128.4 118.81 128.053C118.391 127.694 117.841 127.515 117.158 127.515ZM123.598 123.474C123.598 122.564 123.861 121.852 124.388 121.337C124.926 120.822 125.615 120.565 126.453 120.565C127.291 120.565 127.973 120.822 128.5 121.337C129.039 121.852 129.308 122.564 129.308 123.474C129.308 124.396 129.039 125.114 128.5 125.629C127.973 126.144 127.291 126.401 126.453 126.401C125.615 126.401 124.926 126.144 124.388 125.629C123.861 125.114 123.598 124.396 123.598 123.474ZM135.127 120.78L128.069 133.351H125.627L132.666 120.78H135.127ZM126.435 122.073C125.776 122.073 125.447 122.54 125.447 123.474C125.447 124.42 125.776 124.893 126.435 124.893C126.758 124.893 127.01 124.779 127.189 124.551C127.369 124.312 127.459 123.953 127.459 123.474C127.459 122.54 127.117 122.073 126.435 122.073ZM131.481 130.639C131.481 129.717 131.745 129.005 132.271 128.502C132.81 127.987 133.498 127.73 134.337 127.73C135.175 127.73 135.851 127.987 136.366 128.502C136.893 129.005 137.156 129.717 137.156 130.639C137.156 131.561 136.893 132.279 136.366 132.794C135.851 133.309 135.175 133.566 134.337 133.566C133.487 133.566 132.798 133.309 132.271 132.794C131.745 132.279 131.481 131.561 131.481 130.639ZM134.319 129.239C133.636 129.239 133.295 129.705 133.295 130.639C133.295 131.585 133.636 132.058 134.319 132.058C134.989 132.058 135.324 131.585 135.324 130.639C135.324 129.705 134.989 129.239 134.319 129.239Z" fill="#1C1C1C"/>
<path d="M41.5507 169.871C41.5507 169.297 41.6799 168.783 41.9384 168.328C42.1968 167.867 42.548 167.508 42.9919 167.249C43.4414 166.991 43.9386 166.862 44.4837 166.862C45.1242 166.862 45.6833 167.016 46.1609 167.325C46.6384 167.634 46.9868 168.073 47.2059 168.64H46.2873C46.1243 168.286 45.8883 168.014 45.5793 167.823C45.2759 167.632 44.9107 167.536 44.4837 167.536C44.0735 167.536 43.7055 167.632 43.3796 167.823C43.0537 168.014 42.798 168.286 42.6126 168.64C42.4272 168.988 42.3345 169.399 42.3345 169.871C42.3345 170.337 42.4272 170.747 42.6126 171.101C42.798 171.449 43.0537 171.719 43.3796 171.91C43.7055 172.101 44.0735 172.197 44.4837 172.197C44.9107 172.197 45.2759 172.104 45.5793 171.919C45.8883 171.728 46.1243 171.455 46.2873 171.101H47.2059C46.9868 171.663 46.6384 172.098 46.1609 172.407C45.6833 172.711 45.1242 172.863 44.4837 172.863C43.9386 172.863 43.4414 172.736 42.9919 172.483C42.548 172.225 42.1968 171.868 41.9384 171.413C41.6799 170.958 41.5507 170.444 41.5507 169.871ZM50.3619 172.888C49.9293 172.888 49.536 172.79 49.182 172.593C48.8336 172.396 48.5583 172.118 48.356 171.758C48.1594 171.393 48.0611 170.972 48.0611 170.494C48.0611 170.022 48.1622 169.606 48.3645 169.247C48.5724 168.882 48.8533 168.604 49.2073 168.413C49.5613 168.216 49.9574 168.118 50.3956 168.118C50.8339 168.118 51.23 168.216 51.584 168.413C51.938 168.604 52.2161 168.879 52.4184 169.238C52.6263 169.598 52.7302 170.017 52.7302 170.494C52.7302 170.972 52.6235 171.393 52.41 171.758C52.2021 172.118 51.9183 172.396 51.5587 172.593C51.1991 172.79 50.8002 172.888 50.3619 172.888ZM50.3619 172.214C50.6372 172.214 50.8957 172.149 51.1373 172.02C51.3789 171.891 51.5728 171.697 51.7189 171.438C51.8706 171.18 51.9464 170.865 51.9464 170.494C51.9464 170.123 51.8734 169.809 51.7273 169.55C51.5812 169.292 51.3902 169.101 51.1542 168.977C50.9182 168.848 50.6625 168.783 50.3872 168.783C50.1063 168.783 49.8478 168.848 49.6118 168.977C49.3815 169.101 49.196 169.292 49.0556 169.55C48.9151 169.809 48.8449 170.123 48.8449 170.494C48.8449 170.871 48.9123 171.188 49.0471 171.447C49.1876 171.705 49.373 171.899 49.6034 172.028C49.8338 172.152 50.0866 172.214 50.3619 172.214ZM55.9889 168.109C56.5508 168.109 57.0059 168.28 57.3543 168.623C57.7026 168.96 57.8768 169.449 57.8768 170.09V172.812H57.1183V170.199C57.1183 169.739 57.0031 169.387 56.7727 169.146C56.5424 168.899 56.2277 168.775 55.8288 168.775C55.4243 168.775 55.1012 168.901 54.8596 169.154C54.6236 169.407 54.5056 169.775 54.5056 170.258V172.812H53.7386V168.193H54.5056V168.851C54.6573 168.615 54.8624 168.432 55.1208 168.303C55.3849 168.174 55.6743 168.109 55.9889 168.109ZM61.38 168.109C61.9418 168.109 62.3969 168.28 62.7453 168.623C63.0937 168.96 63.2678 169.449 63.2678 170.09V172.812H62.5093V170.199C62.5093 169.739 62.3941 169.387 62.1638 169.146C61.9334 168.899 61.6187 168.775 61.2198 168.775C60.8153 168.775 60.4922 168.901 60.2506 169.154C60.0146 169.407 59.8966 169.775 59.8966 170.258V172.812H59.1296V168.193H59.8966V168.851C60.0483 168.615 60.2534 168.432 60.5119 168.303C60.7759 168.174 61.0653 168.109 61.38 168.109ZM68.7347 170.326C68.7347 170.472 68.7263 170.626 68.7094 170.789H65.0179C65.046 171.244 65.2005 171.601 65.4815 171.86C65.768 172.112 66.1136 172.239 66.5181 172.239C66.8496 172.239 67.1249 172.163 67.3441 172.011C67.5688 171.854 67.7262 171.646 67.8161 171.388H68.642C68.5184 171.832 68.2712 172.194 67.9003 172.475C67.5295 172.75 67.0688 172.888 66.5181 172.888C66.0799 172.888 65.6866 172.79 65.3382 172.593C64.9955 172.396 64.7258 172.118 64.5291 171.758C64.3324 171.393 64.2341 170.972 64.2341 170.494C64.2341 170.017 64.3296 169.598 64.5207 169.238C64.7117 168.879 64.9786 168.604 65.3213 168.413C65.6697 168.216 66.0686 168.118 66.5181 168.118C66.9564 168.118 67.3441 168.213 67.6812 168.404C68.0183 168.595 68.2768 168.859 68.4566 169.196C68.642 169.528 68.7347 169.904 68.7347 170.326ZM67.9425 170.166C67.9425 169.873 67.8779 169.623 67.7486 169.415C67.6194 169.202 67.4424 169.042 67.2177 168.935C66.9985 168.823 66.7541 168.766 66.4844 168.766C66.0967 168.766 65.7652 168.89 65.4899 169.137C65.2202 169.385 65.0657 169.727 65.0264 170.166H67.9425ZM69.4605 170.494C69.4605 170.017 69.556 169.601 69.7471 169.247C69.9381 168.887 70.2022 168.609 70.5393 168.413C70.8821 168.216 71.2726 168.118 71.7108 168.118C72.2783 168.118 72.7447 168.255 73.1099 168.531C73.4807 168.806 73.7251 169.188 73.8431 169.677H73.0172C72.9385 169.396 72.784 169.174 72.5536 169.011C72.3289 168.848 72.0479 168.766 71.7108 168.766C71.2726 168.766 70.9186 168.918 70.6489 169.222C70.3792 169.519 70.2443 169.944 70.2443 170.494C70.2443 171.051 70.3792 171.48 70.6489 171.784C70.9186 172.087 71.2726 172.239 71.7108 172.239C72.0479 172.239 72.3289 172.16 72.5536 172.003C72.7784 171.846 72.9329 171.621 73.0172 171.329H73.8431C73.7195 171.801 73.4723 172.18 73.1015 172.466C72.7306 172.747 72.2671 172.888 71.7108 172.888C71.2726 172.888 70.8821 172.79 70.5393 172.593C70.2022 172.396 69.9381 172.118 69.7471 171.758C69.556 171.399 69.4605 170.977 69.4605 170.494ZM75.802 168.825V171.548C75.802 171.773 75.8498 171.933 75.9453 172.028C76.0408 172.118 76.2065 172.163 76.4425 172.163H77.0072V172.812H76.3161C75.8891 172.812 75.5688 172.714 75.3553 172.517C75.1418 172.32 75.035 171.997 75.035 171.548V168.825H74.4366V168.193H75.035V167.03H75.802V168.193H77.0072V168.825H75.802ZM81.8185 172.888C81.4645 172.888 81.147 172.829 80.8661 172.711C80.5852 172.587 80.3632 172.419 80.2003 172.205C80.0373 171.986 79.9474 171.736 79.9306 171.455H80.7228C80.7453 171.685 80.8521 171.874 81.0431 172.02C81.2397 172.166 81.4954 172.239 81.81 172.239C82.1022 172.239 82.3326 172.174 82.5011 172.045C82.6697 171.916 82.754 171.753 82.754 171.556C82.754 171.354 82.6641 171.205 82.4843 171.11C82.3045 171.008 82.0264 170.91 81.6499 170.815C81.3072 170.725 81.0262 170.635 80.8071 170.545C80.5936 170.449 80.4082 170.312 80.2508 170.132C80.0991 169.946 80.0233 169.705 80.0233 169.407C80.0233 169.171 80.0935 168.955 80.234 168.758C80.3745 168.561 80.5739 168.407 80.8324 168.295C81.0908 168.177 81.3858 168.118 81.7173 168.118C82.2286 168.118 82.6416 168.247 82.9563 168.505C83.2709 168.764 83.4395 169.118 83.462 169.567H82.695C82.6781 169.326 82.5798 169.132 82.4 168.986C82.2258 168.84 81.9898 168.766 81.6921 168.766C81.4167 168.766 81.1976 168.825 81.0347 168.943C80.8717 169.061 80.7902 169.216 80.7902 169.407C80.7902 169.559 80.838 169.685 80.9335 169.786C81.0347 169.882 81.1583 169.96 81.3044 170.022C81.4561 170.078 81.664 170.143 81.928 170.216C82.2595 170.306 82.5292 170.396 82.7371 170.486C82.945 170.57 83.122 170.699 83.2681 170.874C83.4198 171.048 83.4985 171.275 83.5041 171.556C83.5041 171.809 83.4339 172.037 83.2934 172.239C83.1529 172.441 82.9535 172.601 82.695 172.719C82.4422 172.832 82.15 172.888 81.8185 172.888ZM88.8008 170.326C88.8008 170.472 88.7924 170.626 88.7755 170.789H85.084C85.1121 171.244 85.2666 171.601 85.5476 171.86C85.8341 172.112 86.1797 172.239 86.5842 172.239C86.9157 172.239 87.1911 172.163 87.4102 172.011C87.6349 171.854 87.7923 171.646 87.8822 171.388H88.7081C88.5845 171.832 88.3373 172.194 87.9664 172.475C87.5956 172.75 87.1349 172.888 86.5842 172.888C86.146 172.888 85.7527 172.79 85.4043 172.593C85.0616 172.396 84.7919 172.118 84.5952 171.758C84.3985 171.393 84.3002 170.972 84.3002 170.494C84.3002 170.017 84.3957 169.598 84.5868 169.238C84.7778 168.879 85.0447 168.604 85.3874 168.413C85.7358 168.216 86.1347 168.118 86.5842 168.118C87.0225 168.118 87.4102 168.213 87.7473 168.404C88.0844 168.595 88.3429 168.859 88.5227 169.196C88.7081 169.528 88.8008 169.904 88.8008 170.326ZM88.0086 170.166C88.0086 169.873 87.944 169.623 87.8147 169.415C87.6855 169.202 87.5085 169.042 87.2838 168.935C87.0646 168.823 86.8202 168.766 86.5505 168.766C86.1628 168.766 85.8313 168.89 85.556 169.137C85.2863 169.385 85.1318 169.727 85.0925 170.166H88.0086ZM89.5266 170.486C89.5266 170.014 89.6221 169.601 89.8132 169.247C90.0042 168.887 90.2655 168.609 90.597 168.413C90.9341 168.216 91.3078 168.118 91.7179 168.118C92.1225 168.118 92.4736 168.205 92.7714 168.379C93.0692 168.553 93.2912 168.772 93.4373 169.036V168.193H94.2126V172.812H93.4373V171.952C93.2856 172.222 93.058 172.447 92.7546 172.627C92.4568 172.801 92.1084 172.888 91.7095 172.888C91.2993 172.888 90.9285 172.787 90.597 172.584C90.2655 172.382 90.0042 172.098 89.8132 171.733C89.6221 171.368 89.5266 170.952 89.5266 170.486ZM93.4373 170.494C93.4373 170.146 93.367 169.842 93.2266 169.584C93.0861 169.326 92.8951 169.129 92.6534 168.994C92.4175 168.854 92.1562 168.783 91.8696 168.783C91.5831 168.783 91.3218 168.851 91.0858 168.986C90.8498 169.12 90.6616 169.317 90.5211 169.576C90.3807 169.834 90.3104 170.137 90.3104 170.486C90.3104 170.84 90.3807 171.149 90.5211 171.413C90.6616 171.671 90.8498 171.871 91.0858 172.011C91.3218 172.146 91.5831 172.214 91.8696 172.214C92.1562 172.214 92.4175 172.146 92.6534 172.011C92.8951 171.871 93.0861 171.671 93.2266 171.413C93.367 171.149 93.4373 170.843 93.4373 170.494ZM101.063 168.109C101.422 168.109 101.743 168.185 102.024 168.337C102.305 168.483 102.527 168.705 102.689 169.002C102.852 169.3 102.934 169.663 102.934 170.09V172.812H102.175V170.199C102.175 169.739 102.06 169.387 101.83 169.146C101.605 168.899 101.299 168.775 100.911 168.775C100.512 168.775 100.195 168.904 99.9588 169.163C99.7228 169.415 99.6048 169.783 99.6048 170.267V172.812H98.8463V170.199C98.8463 169.739 98.7311 169.387 98.5007 169.146C98.276 168.899 97.9697 168.775 97.582 168.775C97.1831 168.775 96.8657 168.904 96.6297 169.163C96.3937 169.415 96.2757 169.783 96.2757 170.267V172.812H95.5087V168.193H96.2757V168.859C96.4274 168.618 96.6297 168.432 96.8825 168.303C97.141 168.174 97.4247 168.109 97.7337 168.109C98.1214 168.109 98.4642 168.196 98.762 168.37C99.0598 168.545 99.2817 168.8 99.4278 169.137C99.557 168.811 99.7705 168.559 100.068 168.379C100.366 168.199 100.698 168.109 101.063 168.109ZM104.959 166.575V172.812H104.192V166.575H104.959ZM110.48 170.326C110.48 170.472 110.472 170.626 110.455 170.789H106.763C106.791 171.244 106.946 171.601 107.227 171.86C107.513 172.112 107.859 172.239 108.264 172.239C108.595 172.239 108.87 172.163 109.089 172.011C109.314 171.854 109.472 171.646 109.561 171.388H110.387C110.264 171.832 110.017 172.194 109.646 172.475C109.275 172.75 108.814 172.888 108.264 172.888C107.825 172.888 107.432 172.79 107.084 172.593C106.741 172.396 106.471 172.118 106.274 171.758C106.078 171.393 105.98 170.972 105.98 170.494C105.98 170.017 106.075 169.598 106.266 169.238C106.457 168.879 106.724 168.604 107.067 168.413C107.415 168.216 107.814 168.118 108.264 168.118C108.702 168.118 109.089 168.213 109.427 168.404C109.764 168.595 110.022 168.859 110.202 169.196C110.387 169.528 110.48 169.904 110.48 170.326ZM109.688 170.166C109.688 169.873 109.623 169.623 109.494 169.415C109.365 169.202 109.188 169.042 108.963 168.935C108.744 168.823 108.5 168.766 108.23 168.766C107.842 168.766 107.511 168.89 107.235 169.137C106.966 169.385 106.811 169.727 106.772 170.166H109.688ZM113.128 172.888C112.774 172.888 112.456 172.829 112.175 172.711C111.894 172.587 111.672 172.419 111.509 172.205C111.346 171.986 111.256 171.736 111.24 171.455H112.032C112.054 171.685 112.161 171.874 112.352 172.02C112.549 172.166 112.804 172.239 113.119 172.239C113.411 172.239 113.642 172.174 113.81 172.045C113.979 171.916 114.063 171.753 114.063 171.556C114.063 171.354 113.973 171.205 113.793 171.11C113.614 171.008 113.335 170.91 112.959 170.815C112.616 170.725 112.335 170.635 112.116 170.545C111.903 170.449 111.717 170.312 111.56 170.132C111.408 169.946 111.332 169.705 111.332 169.407C111.332 169.171 111.403 168.955 111.543 168.758C111.684 168.561 111.883 168.407 112.141 168.295C112.4 168.177 112.695 168.118 113.026 168.118C113.538 168.118 113.951 168.247 114.265 168.505C114.58 168.764 114.749 169.118 114.771 169.567H114.004C113.987 169.326 113.889 169.132 113.709 168.986C113.535 168.84 113.299 168.766 113.001 168.766C112.726 168.766 112.507 168.825 112.344 168.943C112.181 169.061 112.099 169.216 112.099 169.407C112.099 169.559 112.147 169.685 112.243 169.786C112.344 169.882 112.467 169.96 112.613 170.022C112.765 170.078 112.973 170.143 113.237 170.216C113.569 170.306 113.838 170.396 114.046 170.486C114.254 170.57 114.431 170.699 114.577 170.874C114.729 171.048 114.808 171.275 114.813 171.556C114.813 171.809 114.743 172.037 114.602 172.239C114.462 172.441 114.263 172.601 114.004 172.719C113.751 172.832 113.459 172.888 113.128 172.888ZM117.531 172.888C117.177 172.888 116.859 172.829 116.579 172.711C116.298 172.587 116.076 172.419 115.913 172.205C115.75 171.986 115.66 171.736 115.643 171.455H116.435C116.458 171.685 116.564 171.874 116.755 172.02C116.952 172.166 117.208 172.239 117.522 172.239C117.815 172.239 118.045 172.174 118.214 172.045C118.382 171.916 118.466 171.753 118.466 171.556C118.466 171.354 118.376 171.205 118.197 171.11C118.017 171.008 117.739 170.91 117.362 170.815C117.02 170.725 116.739 170.635 116.52 170.545C116.306 170.449 116.121 170.312 115.963 170.132C115.812 169.946 115.736 169.705 115.736 169.407C115.736 169.171 115.806 168.955 115.946 168.758C116.087 168.561 116.286 168.407 116.545 168.295C116.803 168.177 117.098 168.118 117.43 168.118C117.941 168.118 118.354 168.247 118.669 168.505C118.983 168.764 119.152 169.118 119.174 169.567H118.407C118.391 169.326 118.292 169.132 118.112 168.986C117.938 168.84 117.702 168.766 117.404 168.766C117.129 168.766 116.91 168.825 116.747 168.943C116.584 169.061 116.503 169.216 116.503 169.407C116.503 169.559 116.55 169.685 116.646 169.786C116.747 169.882 116.871 169.96 117.017 170.022C117.168 170.078 117.376 170.143 117.64 170.216C117.972 170.306 118.242 170.396 118.45 170.486C118.657 170.57 118.834 170.699 118.981 170.874C119.132 171.048 119.211 171.275 119.216 171.556C119.216 171.809 119.146 172.037 119.006 172.239C118.865 172.441 118.666 172.601 118.407 172.719C118.155 172.832 117.862 172.888 117.531 172.888ZM121.066 166.575V172.812H120.299V166.575H121.066ZM126.351 168.193L123.57 174.986H122.778L123.688 172.761L121.825 168.193H122.677L124.126 171.935L125.559 168.193H126.351ZM135.522 168.193L134.081 172.812H133.288L132.176 169.146L131.063 172.812H130.271L128.821 168.193H129.605L130.667 172.07L131.813 168.193H132.597L133.718 172.079L134.763 168.193H135.522ZM136.679 167.443C136.533 167.443 136.409 167.393 136.308 167.292C136.207 167.19 136.156 167.067 136.156 166.921C136.156 166.775 136.207 166.651 136.308 166.55C136.409 166.449 136.533 166.398 136.679 166.398C136.82 166.398 136.938 166.449 137.033 166.55C137.134 166.651 137.185 166.775 137.185 166.921C137.185 167.067 137.134 167.19 137.033 167.292C136.938 167.393 136.82 167.443 136.679 167.443ZM137.05 168.193V172.812H136.283V168.193H137.05ZM139.293 168.825V171.548C139.293 171.773 139.34 171.933 139.436 172.028C139.531 172.118 139.697 172.163 139.933 172.163H140.498V172.812H139.807C139.38 172.812 139.059 172.714 138.846 172.517C138.632 172.32 138.526 171.997 138.526 171.548V168.825H137.927V168.193H138.526V167.03H139.293V168.193H140.498V168.825H139.293ZM143.719 168.109C144.068 168.109 144.382 168.185 144.663 168.337C144.944 168.483 145.163 168.705 145.321 169.002C145.484 169.3 145.565 169.663 145.565 170.09V172.812H144.807V170.199C144.807 169.739 144.692 169.387 144.461 169.146C144.231 168.899 143.916 168.775 143.517 168.775C143.113 168.775 142.79 168.901 142.548 169.154C142.312 169.407 142.194 169.775 142.194 170.258V172.812H141.427V166.575H142.194V168.851C142.346 168.615 142.554 168.432 142.818 168.303C143.087 168.174 143.388 168.109 143.719 168.109ZM148.778 170.486C148.778 170.014 148.874 169.601 149.065 169.247C149.256 168.887 149.517 168.609 149.849 168.413C150.186 168.216 150.56 168.118 150.97 168.118C151.374 168.118 151.725 168.205 152.023 168.379C152.321 168.553 152.543 168.772 152.689 169.036V168.193H153.464V172.812H152.689V171.952C152.537 172.222 152.31 172.447 152.006 172.627C151.709 172.801 151.36 172.888 150.961 172.888C150.551 172.888 150.18 172.787 149.849 172.584C149.517 172.382 149.256 172.098 149.065 171.733C148.874 171.368 148.778 170.952 148.778 170.486ZM152.689 170.494C152.689 170.146 152.619 169.842 152.478 169.584C152.338 169.326 152.147 169.129 151.905 168.994C151.669 168.854 151.408 168.783 151.121 168.783C150.835 168.783 150.574 168.851 150.338 168.986C150.102 169.12 149.913 169.317 149.773 169.576C149.632 169.834 149.562 170.137 149.562 170.486C149.562 170.84 149.632 171.149 149.773 171.413C149.913 171.671 150.102 171.871 150.338 172.011C150.574 172.146 150.835 172.214 151.121 172.214C151.408 172.214 151.669 172.146 151.905 172.011C152.147 171.871 152.338 171.671 152.478 171.413C152.619 171.149 152.689 170.843 152.689 170.494ZM162.562 168.109C162.921 168.109 163.241 168.185 163.522 168.337C163.803 168.483 164.025 168.705 164.188 169.002C164.351 169.3 164.433 169.663 164.433 170.09V172.812H163.674V170.199C163.674 169.739 163.559 169.387 163.329 169.146C163.104 168.899 162.798 168.775 162.41 168.775C162.011 168.775 161.693 168.904 161.458 169.163C161.222 169.415 161.104 169.783 161.104 170.267V172.812H160.345V170.199C160.345 169.739 160.23 169.387 159.999 169.146C159.775 168.899 159.468 168.775 159.081 168.775C158.682 168.775 158.364 168.904 158.128 169.163C157.892 169.415 157.774 169.783 157.774 170.267V172.812H157.007V168.193H157.774V168.859C157.926 168.618 158.128 168.432 158.381 168.303C158.64 168.174 158.923 168.109 159.232 168.109C159.62 168.109 159.963 168.196 160.261 168.37C160.559 168.545 160.78 168.8 160.927 169.137C161.056 168.811 161.269 168.559 161.567 168.379C161.865 168.199 162.196 168.109 162.562 168.109ZM169.669 168.193L166.888 174.986H166.095L167.005 172.761L165.143 168.193H165.994L167.444 171.935L168.877 168.193H169.669ZM171.207 168.943C171.342 168.679 171.533 168.474 171.78 168.328C172.033 168.182 172.339 168.109 172.698 168.109V168.901H172.496C171.637 168.901 171.207 169.368 171.207 170.3V172.812H170.44V168.193H171.207V168.943ZM173.98 167.443C173.834 167.443 173.71 167.393 173.609 167.292C173.508 167.19 173.457 167.067 173.457 166.921C173.457 166.775 173.508 166.651 173.609 166.55C173.71 166.449 173.834 166.398 173.98 166.398C174.12 166.398 174.238 166.449 174.334 166.55C174.435 166.651 174.486 166.775 174.486 166.921C174.486 167.067 174.435 167.19 174.334 167.292C174.238 167.393 174.12 167.443 173.98 167.443ZM174.351 168.193V172.812H173.584V168.193H174.351ZM175.371 170.486C175.371 170.014 175.467 169.601 175.658 169.247C175.849 168.887 176.11 168.609 176.442 168.413C176.779 168.216 177.153 168.118 177.563 168.118C177.967 168.118 178.318 168.205 178.616 168.379C178.914 168.553 179.136 168.772 179.282 169.036V168.193H180.057V172.812H179.282V171.952C179.13 172.222 178.903 172.447 178.599 172.627C178.302 172.801 177.953 172.888 177.554 172.888C177.144 172.888 176.773 172.787 176.442 172.584C176.11 172.382 175.849 172.098 175.658 171.733C175.467 171.368 175.371 170.952 175.371 170.486ZM179.282 170.494C179.282 170.146 179.212 169.842 179.071 169.584C178.931 169.326 178.74 169.129 178.498 168.994C178.262 168.854 178.001 168.783 177.714 168.783C177.428 168.783 177.167 168.851 176.931 168.986C176.695 169.12 176.506 169.317 176.366 169.576C176.225 169.834 176.155 170.137 176.155 170.486C176.155 170.84 176.225 171.149 176.366 171.413C176.506 171.671 176.695 171.871 176.931 172.011C177.167 172.146 177.428 172.214 177.714 172.214C178.001 172.214 178.262 172.146 178.498 172.011C178.74 171.871 178.931 171.671 179.071 171.413C179.212 171.149 179.282 170.843 179.282 170.494ZM181.067 170.486C181.067 170.014 181.162 169.601 181.353 169.247C181.545 168.887 181.806 168.609 182.137 168.413C182.474 168.216 182.851 168.118 183.267 168.118C183.626 168.118 183.961 168.202 184.27 168.37C184.579 168.533 184.815 168.75 184.978 169.019V166.575H185.753V172.812H184.978V171.944C184.826 172.219 184.601 172.447 184.303 172.627C184.006 172.801 183.657 172.888 183.258 172.888C182.848 172.888 182.474 172.787 182.137 172.584C181.806 172.382 181.545 172.098 181.353 171.733C181.162 171.368 181.067 170.952 181.067 170.486ZM184.978 170.494C184.978 170.146 184.907 169.842 184.767 169.584C184.626 169.326 184.435 169.129 184.194 168.994C183.958 168.854 183.696 168.783 183.41 168.783C183.123 168.783 182.862 168.851 182.626 168.986C182.39 169.12 182.202 169.317 182.061 169.576C181.921 169.834 181.851 170.137 181.851 170.486C181.851 170.84 181.921 171.149 182.061 171.413C182.202 171.671 182.39 171.871 182.626 172.011C182.862 172.146 183.123 172.214 183.41 172.214C183.696 172.214 183.958 172.146 184.194 172.011C184.435 171.871 184.626 171.671 184.767 171.413C184.907 171.149 184.978 170.843 184.978 170.494ZM191.31 172.888C190.878 172.888 190.484 172.79 190.13 172.593C189.782 172.396 189.507 172.118 189.304 171.758C189.108 171.393 189.009 170.972 189.009 170.494C189.009 170.022 189.111 169.606 189.313 169.247C189.521 168.882 189.802 168.604 190.156 168.413C190.51 168.216 190.906 168.118 191.344 168.118C191.782 168.118 192.178 168.216 192.532 168.413C192.886 168.604 193.164 168.879 193.367 169.238C193.575 169.598 193.679 170.017 193.679 170.494C193.679 170.972 193.572 171.393 193.358 171.758C193.15 172.118 192.867 172.396 192.507 172.593C192.147 172.79 191.749 172.888 191.31 172.888ZM191.31 172.214C191.586 172.214 191.844 172.149 192.086 172.02C192.327 171.891 192.521 171.697 192.667 171.438C192.819 171.18 192.895 170.865 192.895 170.494C192.895 170.123 192.822 169.809 192.676 169.55C192.53 169.292 192.339 169.101 192.103 168.977C191.867 168.848 191.611 168.783 191.336 168.783C191.055 168.783 190.796 168.848 190.56 168.977C190.33 169.101 190.144 169.292 190.004 169.55C189.863 169.809 189.793 170.123 189.793 170.494C189.793 170.871 189.861 171.188 189.995 171.447C190.136 171.705 190.321 171.899 190.552 172.028C190.782 172.152 191.035 172.214 191.31 172.214ZM196.566 168.825H195.597V172.812H194.83V168.825H194.232V168.193H194.83V167.865C194.83 167.348 194.962 166.971 195.226 166.735C195.496 166.494 195.926 166.373 196.516 166.373V167.013C196.179 167.013 195.94 167.081 195.799 167.216C195.665 167.345 195.597 167.561 195.597 167.865V168.193H196.566V168.825ZM90.8229 182.045C90.9746 181.781 91.1994 181.561 91.4972 181.387C91.8006 181.207 92.1518 181.118 92.5507 181.118C92.9609 181.118 93.3317 181.216 93.6632 181.413C94.0003 181.609 94.2644 181.887 94.4554 182.247C94.6465 182.601 94.742 183.014 94.742 183.486C94.742 183.952 94.6465 184.368 94.4554 184.733C94.2644 185.098 94.0003 185.382 93.6632 185.584C93.3317 185.787 92.9609 185.888 92.5507 185.888C92.1574 185.888 91.809 185.801 91.5056 185.627C91.2078 185.447 90.9803 185.225 90.8229 184.961V188.003H90.056V181.193H90.8229V182.045ZM93.9582 183.486C93.9582 183.137 93.888 182.834 93.7475 182.576C93.607 182.317 93.416 182.12 93.1744 181.986C92.9384 181.851 92.6771 181.783 92.3906 181.783C92.1096 181.783 91.8484 181.854 91.6068 181.994C91.3708 182.129 91.1797 182.328 91.0336 182.592C90.8932 182.851 90.8229 183.152 90.8229 183.494C90.8229 183.843 90.8932 184.149 91.0336 184.413C91.1797 184.671 91.3708 184.871 91.6068 185.011C91.8484 185.146 92.1096 185.214 92.3906 185.214C92.6771 185.214 92.9384 185.146 93.1744 185.011C93.416 184.871 93.607 184.671 93.7475 184.413C93.888 184.149 93.9582 183.84 93.9582 183.486ZM97.7658 185.888C97.3332 185.888 96.9399 185.79 96.5859 185.593C96.2376 185.396 95.9622 185.118 95.76 184.758C95.5633 184.393 95.465 183.972 95.465 183.494C95.465 183.022 95.5661 182.606 95.7684 182.247C95.9763 181.882 96.2572 181.604 96.6112 181.413C96.9652 181.216 97.3613 181.118 97.7996 181.118C98.2378 181.118 98.6339 181.216 98.9879 181.413C99.3419 181.604 99.62 181.879 99.8223 182.238C100.03 182.598 100.134 183.017 100.134 183.494C100.134 183.972 100.027 184.393 99.8139 184.758C99.606 185.118 99.3222 185.396 98.9626 185.593C98.603 185.79 98.2041 185.888 97.7658 185.888ZM97.7658 185.214C98.0412 185.214 98.2996 185.149 98.5412 185.02C98.7828 184.891 98.9767 184.697 99.1228 184.438C99.2745 184.18 99.3503 183.865 99.3503 183.494C99.3503 183.123 99.2773 182.809 99.1312 182.55C98.9851 182.292 98.7941 182.101 98.5581 181.977C98.3221 181.848 98.0664 181.783 97.7911 181.783C97.5102 181.783 97.2517 181.848 97.0157 181.977C96.7854 182.101 96.6 182.292 96.4595 182.55C96.319 182.809 96.2488 183.123 96.2488 183.494C96.2488 183.871 96.3162 184.188 96.4511 184.447C96.5915 184.705 96.777 184.899 97.0073 185.028C97.2377 185.152 97.4905 185.214 97.7658 185.214ZM107.295 181.193L105.854 185.812H105.062L103.949 182.146L102.837 185.812H102.044L100.595 181.193H101.379L102.44 185.07L103.587 181.193H104.371L105.491 185.079L106.537 181.193H107.295ZM112.27 183.326C112.27 183.472 112.262 183.626 112.245 183.789H108.553C108.582 184.244 108.736 184.601 109.017 184.86C109.304 185.112 109.649 185.239 110.054 185.239C110.385 185.239 110.661 185.163 110.88 185.011C111.104 184.854 111.262 184.646 111.352 184.388H112.178C112.054 184.832 111.807 185.194 111.436 185.475C111.065 185.75 110.604 185.888 110.054 185.888C109.615 185.888 109.222 185.79 108.874 185.593C108.531 185.396 108.261 185.118 108.065 184.758C107.868 184.393 107.77 183.972 107.77 183.494C107.77 183.017 107.865 182.598 108.056 182.238C108.247 181.879 108.514 181.604 108.857 181.413C109.205 181.216 109.604 181.118 110.054 181.118C110.492 181.118 110.88 181.213 111.217 181.404C111.554 181.595 111.812 181.859 111.992 182.196C112.178 182.528 112.27 182.904 112.27 183.326ZM111.478 183.166C111.478 182.873 111.413 182.623 111.284 182.415C111.155 182.202 110.978 182.042 110.753 181.935C110.534 181.823 110.29 181.766 110.02 181.766C109.632 181.766 109.301 181.89 109.025 182.137C108.756 182.385 108.601 182.727 108.562 183.166H111.478ZM114.05 181.943C114.184 181.679 114.375 181.474 114.623 181.328C114.876 181.182 115.182 181.109 115.541 181.109V181.901H115.339C114.479 181.901 114.05 182.368 114.05 183.3V185.812H113.283V181.193H114.05V181.943ZM118.306 181.825H117.337V185.812H116.57V181.825H115.972V181.193H116.57V180.865C116.57 180.348 116.702 179.971 116.966 179.735C117.236 179.494 117.666 179.373 118.256 179.373V180.013C117.918 180.013 117.68 180.081 117.539 180.216C117.404 180.345 117.337 180.561 117.337 180.865V181.193H118.306V181.825ZM123.296 181.193V185.812H122.529V185.129C122.383 185.365 122.178 185.551 121.914 185.686C121.656 185.815 121.369 185.879 121.055 185.879C120.695 185.879 120.372 185.806 120.085 185.66C119.799 185.509 119.571 185.284 119.403 184.986C119.24 184.688 119.158 184.326 119.158 183.899V181.193H119.917V183.798C119.917 184.253 120.032 184.604 120.262 184.851C120.493 185.093 120.807 185.214 121.206 185.214C121.616 185.214 121.94 185.087 122.176 184.834C122.412 184.581 122.529 184.213 122.529 183.73V181.193H123.296ZM125.358 179.575V185.812H124.591V179.575H125.358ZM129.848 181.825V184.548C129.848 184.773 129.896 184.933 129.991 185.028C130.087 185.118 130.253 185.163 130.489 185.163H131.053V185.812H130.362C129.935 185.812 129.615 185.714 129.401 185.517C129.188 185.32 129.081 184.997 129.081 184.548V181.825H128.483V181.193H129.081V180.03H129.848V181.193H131.053V181.825H129.848ZM133.997 185.888C133.564 185.888 133.171 185.79 132.817 185.593C132.468 185.396 132.193 185.118 131.991 184.758C131.794 184.393 131.696 183.972 131.696 183.494C131.696 183.022 131.797 182.606 131.999 182.247C132.207 181.882 132.488 181.604 132.842 181.413C133.196 181.216 133.592 181.118 134.03 181.118C134.469 181.118 134.865 181.216 135.219 181.413C135.573 181.604 135.851 181.879 136.053 182.238C136.261 182.598 136.365 183.017 136.365 183.494C136.365 183.972 136.258 184.393 136.045 184.758C135.837 185.118 135.553 185.396 135.194 185.593C134.834 185.79 134.435 185.888 133.997 185.888ZM133.997 185.214C134.272 185.214 134.531 185.149 134.772 185.02C135.014 184.891 135.208 184.697 135.354 184.438C135.505 184.18 135.581 183.865 135.581 183.494C135.581 183.123 135.508 182.809 135.362 182.55C135.216 182.292 135.025 182.101 134.789 181.977C134.553 181.848 134.297 181.783 134.022 181.783C133.741 181.783 133.483 181.848 133.247 181.977C133.016 182.101 132.831 182.292 132.69 182.55C132.55 182.809 132.48 183.123 132.48 183.494C132.48 183.871 132.547 184.188 132.682 184.447C132.822 184.705 133.008 184.899 133.238 185.028C133.469 185.152 133.721 185.214 133.997 185.214ZM139.388 185.888C138.955 185.888 138.562 185.79 138.208 185.593C137.86 185.396 137.584 185.118 137.382 184.758C137.185 184.393 137.087 183.972 137.087 183.494C137.087 183.022 137.188 182.606 137.39 182.247C137.598 181.882 137.879 181.604 138.233 181.413C138.587 181.216 138.983 181.118 139.422 181.118C139.86 181.118 140.256 181.216 140.61 181.413C140.964 181.604 141.242 181.879 141.444 182.238C141.652 182.598 141.756 183.017 141.756 183.494C141.756 183.972 141.649 184.393 141.436 184.758C141.228 185.118 140.944 185.396 140.585 185.593C140.225 185.79 139.826 185.888 139.388 185.888ZM139.388 185.214C139.663 185.214 139.922 185.149 140.163 185.02C140.405 184.891 140.599 184.697 140.745 184.438C140.896 184.18 140.972 183.865 140.972 183.494C140.972 183.123 140.899 182.809 140.753 182.55C140.607 182.292 140.416 182.101 140.18 181.977C139.944 181.848 139.688 181.783 139.413 181.783C139.132 181.783 138.874 181.848 138.638 181.977C138.407 182.101 138.222 182.292 138.081 182.55C137.941 182.809 137.871 183.123 137.871 183.494C137.871 183.871 137.938 184.188 138.073 184.447C138.213 184.705 138.399 184.899 138.629 185.028C138.86 185.152 139.112 185.214 139.388 185.214ZM143.531 179.575V185.812H142.764V179.575H143.531ZM146.474 185.888C146.12 185.888 145.802 185.829 145.521 185.711C145.24 185.587 145.018 185.419 144.855 185.205C144.693 184.986 144.603 184.736 144.586 184.455H145.378C145.4 184.685 145.507 184.874 145.698 185.02C145.895 185.166 146.151 185.239 146.465 185.239C146.757 185.239 146.988 185.174 147.156 185.045C147.325 184.916 147.409 184.753 147.409 184.556C147.409 184.354 147.319 184.205 147.139 184.11C146.96 184.008 146.682 183.91 146.305 183.815C145.962 183.725 145.681 183.635 145.462 183.545C145.249 183.449 145.063 183.312 144.906 183.132C144.754 182.946 144.678 182.705 144.678 182.407C144.678 182.171 144.749 181.955 144.889 181.758C145.03 181.561 145.229 181.407 145.488 181.295C145.746 181.177 146.041 181.118 146.373 181.118C146.884 181.118 147.297 181.247 147.611 181.505C147.926 181.764 148.095 182.118 148.117 182.567H147.35C147.333 182.326 147.235 182.132 147.055 181.986C146.881 181.84 146.645 181.766 146.347 181.766C146.072 181.766 145.853 181.825 145.69 181.943C145.527 182.061 145.445 182.216 145.445 182.407C145.445 182.559 145.493 182.685 145.589 182.786C145.69 182.882 145.813 182.96 145.96 183.022C146.111 183.078 146.319 183.143 146.583 183.216C146.915 183.306 147.184 183.396 147.392 183.486C147.6 183.57 147.777 183.699 147.923 183.874C148.075 184.048 148.154 184.275 148.159 184.556C148.159 184.809 148.089 185.037 147.949 185.239C147.808 185.441 147.609 185.601 147.35 185.719C147.097 185.832 146.805 185.888 146.474 185.888Z" fill="#484848"/>
</svg>
