<svg width="419" height="600" viewBox="0 0 419 600" fill="none" xmlns="http://www.w3.org/2000/svg">
<rect width="418.386" height="600" fill="#FFEDE1"/>
<path d="M51.9843 77.5548C50.5027 77.5548 49.1692 77.3008 47.9839 76.7928C46.7986 76.2636 45.8673 75.5228 45.19 74.5703C44.5126 73.6178 44.174 72.5066 44.174 71.2366H48.0474C48.1321 72.1891 48.5025 72.9723 49.1586 73.5861C49.836 74.1999 50.7779 74.5068 51.9843 74.5068C53.2331 74.5068 54.2068 74.2105 54.9053 73.6178C55.6038 73.004 55.953 72.2209 55.953 71.2684C55.953 70.5276 55.7308 69.9243 55.2863 69.4587C54.8629 68.993 54.3232 68.6332 53.6671 68.3792C53.0321 68.1252 52.1431 67.85 51.0001 67.5537C49.5608 67.1727 48.3861 66.7917 47.4759 66.4107C46.5869 66.0086 45.825 65.3947 45.19 64.5693C44.555 63.7438 44.2375 62.6431 44.2375 61.2673C44.2375 59.9973 44.555 58.8861 45.19 57.9336C45.825 56.9812 46.7139 56.2509 47.8569 55.7429C48.9999 55.2349 50.3228 54.9809 51.8256 54.9809C53.9634 54.9809 55.7096 55.5207 57.0642 56.6002C58.44 57.6585 59.202 59.1189 59.3502 60.9816H55.3498C55.2863 60.1773 54.9053 59.4894 54.2068 58.9179C53.5083 58.3464 52.5876 58.0606 51.4446 58.0606C50.4074 58.0606 49.5608 58.3252 48.9046 58.8544C48.2485 59.3835 47.9204 60.1455 47.9204 61.1403C47.9204 61.8176 48.1215 62.3786 48.5237 62.823C48.947 63.2464 49.4761 63.585 50.1111 63.839C50.7461 64.093 51.6139 64.3682 52.7146 64.6645C54.175 65.0667 55.3604 65.4688 56.2705 65.871C57.2018 66.2731 57.985 66.8976 58.62 67.7442C59.2761 68.5697 59.6042 69.6809 59.6042 71.0779C59.6042 72.1997 59.2973 73.258 58.6835 74.2528C58.0908 75.2476 57.2124 76.052 56.0483 76.6658C54.9053 77.2584 53.5506 77.5548 51.9843 77.5548ZM62.6685 68.5062C62.6685 66.7494 63.0283 65.1937 63.748 63.839C64.4888 62.4844 65.4836 61.4367 66.7324 60.6958C68.0024 59.9338 69.3994 59.5529 70.9233 59.5529C72.2992 59.5529 73.495 59.828 74.511 60.3783C75.5482 60.9075 76.3737 61.5742 76.9875 62.3786V59.8386H80.6387V77.3325H76.9875V74.7291C76.3737 75.5546 75.5376 76.2425 74.4793 76.7928C73.421 77.3431 72.2145 77.6183 70.8598 77.6183C69.357 77.6183 67.9812 77.2373 66.7324 76.4753C65.4836 75.6921 64.4888 74.6127 63.748 73.2368C63.0283 71.8399 62.6685 70.263 62.6685 68.5062ZM76.9875 68.5697C76.9875 67.3632 76.7335 66.3155 76.2255 65.4265C75.7387 64.5375 75.0931 63.8602 74.2888 63.3945C73.4845 62.9289 72.6166 62.696 71.6853 62.696C70.754 62.696 69.8862 62.9289 69.0819 63.3945C68.2776 63.839 67.6214 64.5058 67.1134 65.3947C66.6266 66.2626 66.3832 67.2997 66.3832 68.5062C66.3832 69.7127 66.6266 70.771 67.1134 71.6811C67.6214 72.5913 68.2776 73.2898 69.0819 73.7766C69.9074 74.2422 70.7752 74.4751 71.6853 74.4751C72.6166 74.4751 73.4845 74.2422 74.2888 73.7766C75.0931 73.3109 75.7387 72.6336 76.2255 71.7446C76.7335 70.8345 76.9875 69.7762 76.9875 68.5697ZM89.0121 53.838V77.3325H85.3926V53.838H89.0121ZM109.798 68.1569C109.798 68.8131 109.755 69.4058 109.671 69.9349H96.304C96.4098 71.3319 96.9284 72.4537 97.8597 73.3003C98.7911 74.147 99.934 74.5703 101.289 74.5703C103.236 74.5703 104.612 73.7554 105.416 72.1256H109.321C108.792 73.7343 107.829 75.0571 106.432 76.0943C105.056 77.1103 103.342 77.6183 101.289 77.6183C99.6165 77.6183 98.1137 77.2479 96.7803 76.507C95.4679 75.745 94.4308 74.6867 93.6688 73.3321C92.928 71.9563 92.5576 70.3688 92.5576 68.5697C92.5576 66.7706 92.9174 65.1937 93.6371 63.839C94.3779 62.4632 95.4044 61.4049 96.7168 60.6641C98.0502 59.9233 99.5742 59.5529 101.289 59.5529C102.94 59.5529 104.411 59.9127 105.702 60.6323C106.993 61.352 107.998 62.368 108.718 63.6803C109.438 64.9714 109.798 66.4636 109.798 68.1569ZM106.019 67.014C105.998 65.6805 105.522 64.6116 104.591 63.8073C103.659 63.003 102.506 62.6008 101.13 62.6008C99.8811 62.6008 98.8122 63.003 97.9232 63.8073C97.0343 64.5904 96.5051 65.6593 96.3358 67.014H106.019ZM119.709 77.6183C118.333 77.6183 117.095 77.3749 115.995 76.888C114.915 76.38 114.058 75.7027 113.423 74.8561C112.788 73.9882 112.449 73.0252 112.407 71.9669H116.153C116.217 72.7077 116.566 73.3321 117.201 73.8401C117.857 74.3269 118.672 74.5703 119.646 74.5703C120.662 74.5703 121.445 74.3798 121.995 73.9988C122.567 73.5967 122.852 73.0887 122.852 72.4749C122.852 71.8187 122.535 71.3319 121.9 71.0144C121.286 70.6969 120.302 70.3477 118.947 69.9667C117.635 69.6068 116.566 69.2576 115.741 68.9189C114.915 68.5803 114.195 68.0617 113.582 67.3632C112.989 66.6647 112.693 65.744 112.693 64.601C112.693 63.6697 112.968 62.823 113.518 62.0611C114.068 61.2779 114.852 60.6641 115.868 60.2196C116.905 59.7751 118.09 59.5529 119.424 59.5529C121.413 59.5529 123.011 60.0608 124.218 61.0768C125.445 62.0716 126.101 63.4369 126.186 65.1725H122.567C122.503 64.3893 122.186 63.7649 121.614 63.2993C121.043 62.8336 120.27 62.6008 119.297 62.6008C118.344 62.6008 117.614 62.7807 117.106 63.1405C116.598 63.5004 116.344 63.9766 116.344 64.5693C116.344 65.0349 116.513 65.4265 116.852 65.744C117.19 66.0615 117.603 66.3155 118.09 66.506C118.577 66.6753 119.297 66.8976 120.249 67.1727C121.519 67.5114 122.556 67.8606 123.36 68.2204C124.186 68.5591 124.895 69.0671 125.488 69.7444C126.08 70.4217 126.387 71.3213 126.408 72.4431C126.408 73.4379 126.133 74.3269 125.583 75.1101C125.033 75.8932 124.249 76.507 123.233 76.9515C122.239 77.396 121.064 77.6183 119.709 77.6183ZM142.186 62.3786C142.715 61.4896 143.414 60.8017 144.282 60.3148C145.171 59.8069 146.218 59.5529 147.425 59.5529V63.2993H146.504C145.086 63.2993 144.006 63.6591 143.266 64.3788C142.546 65.0984 142.186 66.3472 142.186 68.1252V77.3325H138.567V59.8386H142.186V62.3786ZM166.785 68.1569C166.785 68.8131 166.743 69.4058 166.658 69.9349H153.292C153.398 71.3319 153.916 72.4537 154.847 73.3003C155.779 74.147 156.922 74.5703 158.276 74.5703C160.224 74.5703 161.599 73.7554 162.404 72.1256H166.309C165.78 73.7343 164.817 75.0571 163.42 76.0943C162.044 77.1103 160.329 77.6183 158.276 77.6183C156.604 77.6183 155.101 77.2479 153.768 76.507C152.456 75.745 151.418 74.6867 150.657 73.3321C149.916 71.9563 149.545 70.3688 149.545 68.5697C149.545 66.7706 149.905 65.1937 150.625 63.839C151.366 62.4632 152.392 61.4049 153.704 60.6641C155.038 59.9233 156.562 59.5529 158.276 59.5529C159.927 59.5529 161.398 59.9127 162.69 60.6323C163.981 61.352 164.986 62.368 165.706 63.6803C166.425 64.9714 166.785 66.4636 166.785 68.1569ZM163.007 67.014C162.986 65.6805 162.51 64.6116 161.578 63.8073C160.647 63.003 159.493 62.6008 158.118 62.6008C156.869 62.6008 155.8 63.003 154.911 63.8073C154.022 64.5904 153.493 65.6593 153.323 67.014H163.007ZM173.967 62.4103C174.58 61.606 175.416 60.9287 176.475 60.3783C177.533 59.828 178.729 59.5529 180.062 59.5529C181.586 59.5529 182.973 59.9338 184.222 60.6958C185.492 61.4367 186.486 62.4844 187.206 63.839C187.926 65.1937 188.285 66.7494 188.285 68.5062C188.285 70.263 187.926 71.8399 187.206 73.2368C186.486 74.6127 185.492 75.6921 184.222 76.4753C182.973 77.2373 181.586 77.6183 180.062 77.6183C178.729 77.6183 177.544 77.3537 176.506 76.8245C175.469 76.2742 174.623 75.5969 173.967 74.7926V85.6509H170.347V59.8386H173.967V62.4103ZM184.603 68.5062C184.603 67.2997 184.349 66.2626 183.841 65.3947C183.354 64.5058 182.698 63.839 181.872 63.3945C181.068 62.9289 180.2 62.696 179.269 62.696C178.359 62.696 177.491 62.9289 176.665 63.3945C175.861 63.8602 175.205 64.5375 174.697 65.4265C174.21 66.3155 173.967 67.3632 173.967 68.5697C173.967 69.7762 174.21 70.8345 174.697 71.7446C175.205 72.6336 175.861 73.3109 176.665 73.7766C177.491 74.2422 178.359 74.4751 179.269 74.4751C180.2 74.4751 181.068 74.2422 181.872 73.7766C182.698 73.2898 183.354 72.5913 183.841 71.6811C184.349 70.771 184.603 69.7127 184.603 68.5062ZM199.453 77.6183C197.802 77.6183 196.31 77.2479 194.976 76.507C193.643 75.745 192.595 74.6867 191.833 73.3321C191.071 71.9563 190.69 70.3688 190.69 68.5697C190.69 66.7917 191.082 65.2148 191.865 63.839C192.648 62.4632 193.717 61.4049 195.071 60.6641C196.426 59.9233 197.939 59.5529 199.612 59.5529C201.284 59.5529 202.797 59.9233 204.152 60.6641C205.506 61.4049 206.575 62.4632 207.358 63.839C208.142 65.2148 208.533 66.7917 208.533 68.5697C208.533 70.3477 208.131 71.9245 207.327 73.3003C206.522 74.6762 205.422 75.745 204.025 76.507C202.649 77.2479 201.125 77.6183 199.453 77.6183ZM199.453 74.4751C200.384 74.4751 201.252 74.2528 202.056 73.8083C202.882 73.3638 203.549 72.6971 204.057 71.8081C204.564 70.9191 204.818 69.8397 204.818 68.5697C204.818 67.2997 204.575 66.2308 204.088 65.363C203.601 64.474 202.956 63.8073 202.152 63.3628C201.347 62.9183 200.479 62.696 199.548 62.696C198.617 62.696 197.749 62.9183 196.945 63.3628C196.161 63.8073 195.537 64.474 195.071 65.363C194.606 66.2308 194.373 67.2997 194.373 68.5697C194.373 70.4535 194.849 71.914 195.802 72.9511C196.775 73.9671 197.992 74.4751 199.453 74.4751ZM215.731 62.3786C216.26 61.4896 216.958 60.8017 217.826 60.3148C218.715 59.8069 219.763 59.5529 220.969 59.5529V63.2993H220.049C218.63 63.2993 217.551 63.6591 216.81 64.3788C216.09 65.0984 215.731 66.3472 215.731 68.1252V77.3325H212.111V59.8386H215.731V62.3786ZM228.519 62.7913V72.4749C228.519 73.131 228.667 73.6073 228.963 73.9036C229.281 74.1787 229.81 74.3163 230.551 74.3163H232.773V77.3325H229.916C228.286 77.3325 227.037 76.9515 226.169 76.1895C225.302 75.4276 224.868 74.1893 224.868 72.4749V62.7913H222.804V59.8386H224.868V55.4889H228.519V59.8386H232.773V62.7913H228.519Z" fill="black"/>
<path d="M306.476 58.5796L302.2 73.3325H300.041L296.612 61.4582L293.056 73.3325L290.919 73.3537L286.791 58.5796H288.844L292.062 71.0889L295.618 58.5796H297.777L301.163 71.0466L304.402 58.5796H306.476ZM319.167 67.0885C319.167 67.4554 319.146 67.8434 319.103 68.2526H309.833C309.903 69.3956 310.291 70.2916 310.997 70.9407C311.716 71.5757 312.584 71.8932 313.6 71.8932C314.433 71.8932 315.124 71.7027 315.674 71.3217C316.239 70.9266 316.634 70.4045 316.86 69.7554H318.934C318.624 70.8702 318.003 71.7803 317.071 72.4859C316.14 73.1773 314.983 73.523 313.6 73.523C312.5 73.523 311.512 73.2761 310.637 72.7822C309.776 72.2883 309.099 71.5898 308.605 70.6867C308.111 69.7695 307.864 68.7112 307.864 67.5118C307.864 66.3124 308.104 65.2611 308.584 64.358C309.064 63.4549 309.734 62.7635 310.595 62.2837C311.469 61.7898 312.471 61.5429 313.6 61.5429C314.701 61.5429 315.674 61.7828 316.521 62.2626C317.368 62.7423 318.017 63.4055 318.468 64.2522C318.934 65.0847 319.167 66.0302 319.167 67.0885ZM317.177 66.6863C317.177 65.9525 317.015 65.3246 316.69 64.8025C316.366 64.2663 315.921 63.8641 315.357 63.596C314.807 63.3138 314.193 63.1727 313.515 63.1727C312.542 63.1727 311.709 63.4832 311.018 64.104C310.341 64.7249 309.953 65.5857 309.854 66.6863H317.177ZM332.292 67.0885C332.292 67.4554 332.271 67.8434 332.229 68.2526H322.958C323.029 69.3956 323.417 70.2916 324.122 70.9407C324.842 71.5757 325.71 71.8932 326.726 71.8932C327.558 71.8932 328.25 71.7027 328.8 71.3217C329.364 70.9266 329.76 70.4045 329.985 69.7554H332.06C331.749 70.8702 331.128 71.7803 330.197 72.4859C329.266 73.1773 328.109 73.523 326.726 73.523C325.625 73.523 324.637 73.2761 323.762 72.7822C322.902 72.2883 322.224 71.5898 321.73 70.6867C321.237 69.7695 320.99 68.7112 320.99 67.5118C320.99 66.3124 321.23 65.2611 321.709 64.358C322.189 63.4549 322.859 62.7635 323.72 62.2837C324.595 61.7898 325.597 61.5429 326.726 61.5429C327.826 61.5429 328.8 61.7828 329.647 62.2626C330.493 62.7423 331.142 63.4055 331.594 64.2522C332.06 65.0847 332.292 66.0302 332.292 67.0885ZM330.303 66.6863C330.303 65.9525 330.141 65.3246 329.816 64.8025C329.491 64.2663 329.047 63.8641 328.483 63.596C327.932 63.3138 327.318 63.1727 326.641 63.1727C325.667 63.1727 324.835 63.4832 324.143 64.104C323.466 64.7249 323.078 65.5857 322.979 66.6863H330.303ZM341.312 73.3325L336.761 68.2103V73.3325H334.835V57.6695H336.761V66.8768L341.227 61.7334H343.915L338.454 67.5118L343.936 73.3325H341.312Z" fill="black"/>
<circle cx="364.412" cy="66.3325" r="10.8653" stroke="black" stroke-opacity="0.5" stroke-width="1.55219"/>
<path d="M364.412 68.5543L368.31 64.6565L367.757 64.103L366.424 65.4439L364.412 67.4551L362.401 65.4439L361.068 64.1108L360.515 64.6643L364.412 68.5543Z" fill="black"/>
<path d="M45.8885 106.496V111.428H51.2647V113.015H45.8885V118.095H51.8997V119.682H43.9623V104.908H51.8997V106.496H45.8885ZM54.0945 113.84C54.0945 112.655 54.3344 111.618 54.8142 110.729C55.2939 109.826 55.9501 109.127 56.7826 108.634C57.6293 108.14 58.5676 107.893 59.5977 107.893C60.6137 107.893 61.4957 108.111 62.2435 108.549C62.9914 108.986 63.5488 109.537 63.9157 110.2V108.083H65.863V119.682H63.9157V117.523C63.5347 118.201 62.9632 118.765 62.2012 119.217C61.4533 119.654 60.5784 119.873 59.5766 119.873C58.5465 119.873 57.6152 119.619 56.7826 119.111C55.9501 118.603 55.2939 117.89 54.8142 116.973C54.3344 116.056 54.0945 115.012 54.0945 113.84ZM63.9157 113.862C63.9157 112.987 63.7393 112.225 63.3865 111.576C63.0337 110.927 62.554 110.433 61.9472 110.094C61.3545 109.741 60.6984 109.565 59.9787 109.565C59.2591 109.565 58.6029 109.734 58.0103 110.073C57.4176 110.412 56.9449 110.905 56.5921 111.555C56.2394 112.204 56.063 112.966 56.063 113.84C56.063 114.729 56.2394 115.506 56.5921 116.169C56.9449 116.818 57.4176 117.319 58.0103 117.672C58.6029 118.01 59.2591 118.18 59.9787 118.18C60.6984 118.18 61.3545 118.01 61.9472 117.672C62.554 117.319 63.0337 116.818 63.3865 116.169C63.7393 115.506 63.9157 114.737 63.9157 113.862ZM71.0441 109.967C71.3827 109.304 71.8625 108.789 72.4834 108.422C73.1184 108.055 73.8874 107.872 74.7905 107.872V109.861H74.2825C72.1235 109.861 71.0441 111.032 71.0441 113.375V119.682H69.1179V108.083H71.0441V109.967ZM82.6653 107.872C84.0764 107.872 85.2194 108.302 86.0943 109.163C86.9691 110.009 87.4066 111.237 87.4066 112.846V119.682H85.5016V113.121C85.5016 111.964 85.2123 111.082 84.6338 110.475C84.0552 109.854 83.265 109.544 82.2632 109.544C81.2472 109.544 80.4358 109.861 79.8291 110.496C79.2364 111.131 78.9401 112.055 78.9401 113.269V119.682H77.0139V108.083H78.9401V109.734C79.3211 109.142 79.8361 108.683 80.4852 108.358C81.1484 108.034 81.8751 107.872 82.6653 107.872ZM91.5477 106.199C91.1808 106.199 90.8704 106.072 90.6164 105.818C90.3624 105.564 90.2354 105.254 90.2354 104.887C90.2354 104.52 90.3624 104.21 90.6164 103.956C90.8704 103.702 91.1808 103.575 91.5477 103.575C91.9005 103.575 92.1968 103.702 92.4367 103.956C92.6907 104.21 92.8177 104.52 92.8177 104.887C92.8177 105.254 92.6907 105.564 92.4367 105.818C92.1968 106.072 91.9005 106.199 91.5477 106.199ZM92.479 108.083V119.682H90.5529V108.083H92.479ZM101.413 107.872C102.824 107.872 103.967 108.302 104.842 109.163C105.717 110.009 106.154 111.237 106.154 112.846V119.682H104.249V113.121C104.249 111.964 103.96 111.082 103.382 110.475C102.803 109.854 102.013 109.544 101.011 109.544C99.995 109.544 99.1837 109.861 98.5769 110.496C97.9842 111.131 97.6879 112.055 97.6879 113.269V119.682H95.7618V108.083H97.6879V109.734C98.0689 109.142 98.584 108.683 99.2331 108.358C99.8963 108.034 100.623 107.872 101.413 107.872ZM114.084 107.893C115.086 107.893 115.961 108.111 116.709 108.549C117.471 108.986 118.035 109.537 118.402 110.2V108.083H120.35V119.936C120.35 120.995 120.124 121.933 119.672 122.751C119.221 123.584 118.572 124.233 117.725 124.699C116.892 125.164 115.919 125.397 114.804 125.397C113.28 125.397 112.01 125.037 110.994 124.318C109.978 123.598 109.378 122.617 109.195 121.376H111.1C111.312 122.081 111.749 122.646 112.412 123.069C113.075 123.506 113.873 123.725 114.804 123.725C115.862 123.725 116.723 123.394 117.386 122.73C118.064 122.067 118.402 121.136 118.402 119.936V117.502C118.021 118.18 117.457 118.744 116.709 119.196C115.961 119.647 115.086 119.873 114.084 119.873C113.054 119.873 112.116 119.619 111.269 119.111C110.437 118.603 109.781 117.89 109.301 116.973C108.821 116.056 108.581 115.012 108.581 113.84C108.581 112.655 108.821 111.618 109.301 110.729C109.781 109.826 110.437 109.127 111.269 108.634C112.116 108.14 113.054 107.893 114.084 107.893ZM118.402 113.862C118.402 112.987 118.226 112.225 117.873 111.576C117.52 110.927 117.041 110.433 116.434 110.094C115.841 109.741 115.185 109.565 114.465 109.565C113.746 109.565 113.09 109.734 112.497 110.073C111.904 110.412 111.431 110.905 111.079 111.555C110.726 112.204 110.55 112.966 110.55 113.84C110.55 114.729 110.726 115.506 111.079 116.169C111.431 116.818 111.904 117.319 112.497 117.672C113.09 118.01 113.746 118.18 114.465 118.18C115.185 118.18 115.841 118.01 116.434 117.672C117.041 117.319 117.52 116.818 117.873 116.169C118.226 115.506 118.402 114.737 118.402 113.862ZM127.711 119.873C126.822 119.873 126.025 119.725 125.319 119.428C124.613 119.118 124.056 118.695 123.647 118.158C123.238 117.608 123.012 116.98 122.97 116.275H124.959C125.016 116.853 125.284 117.326 125.763 117.693C126.257 118.06 126.899 118.243 127.69 118.243C128.423 118.243 129.002 118.081 129.425 117.756C129.849 117.432 130.06 117.022 130.06 116.529C130.06 116.021 129.834 115.647 129.383 115.407C128.931 115.153 128.233 114.906 127.287 114.666C126.427 114.44 125.721 114.214 125.171 113.989C124.635 113.749 124.169 113.403 123.774 112.952C123.393 112.486 123.202 111.879 123.202 111.131C123.202 110.539 123.379 109.995 123.732 109.501C124.084 109.008 124.585 108.619 125.234 108.337C125.883 108.041 126.624 107.893 127.457 107.893C128.741 107.893 129.778 108.217 130.568 108.866C131.358 109.516 131.782 110.404 131.838 111.533H129.912C129.87 110.927 129.623 110.44 129.171 110.073C128.734 109.706 128.141 109.523 127.393 109.523C126.702 109.523 126.152 109.671 125.742 109.967C125.333 110.263 125.128 110.651 125.128 111.131C125.128 111.512 125.248 111.83 125.488 112.084C125.742 112.324 126.053 112.521 126.42 112.676C126.801 112.817 127.323 112.98 127.986 113.163C128.818 113.389 129.496 113.615 130.018 113.84C130.54 114.052 130.984 114.377 131.351 114.814C131.732 115.252 131.93 115.823 131.944 116.529C131.944 117.164 131.768 117.735 131.415 118.243C131.062 118.751 130.561 119.153 129.912 119.45C129.277 119.732 128.543 119.873 127.711 119.873Z" fill="black"/>
<path d="M161.759 109.247C161.759 110.475 161.335 111.498 160.489 112.317C159.656 113.121 158.379 113.523 156.658 113.523H153.821V119.682H151.895V104.929H156.658C158.323 104.929 159.586 105.332 160.446 106.136C161.321 106.94 161.759 107.977 161.759 109.247ZM156.658 111.936C157.73 111.936 158.52 111.703 159.028 111.237C159.536 110.771 159.79 110.108 159.79 109.247C159.79 107.427 158.746 106.517 156.658 106.517H153.821V111.936H156.658ZM163.433 113.84C163.433 112.655 163.673 111.618 164.153 110.729C164.632 109.826 165.289 109.127 166.121 108.634C166.968 108.14 167.906 107.893 168.936 107.893C169.952 107.893 170.834 108.111 171.582 108.549C172.33 108.986 172.887 109.537 173.254 110.2V108.083H175.202V119.682H173.254V117.523C172.873 118.201 172.302 118.765 171.54 119.217C170.792 119.654 169.917 119.873 168.915 119.873C167.885 119.873 166.954 119.619 166.121 119.111C165.289 118.603 164.632 117.89 164.153 116.973C163.673 116.056 163.433 115.012 163.433 113.84ZM173.254 113.862C173.254 112.987 173.078 112.225 172.725 111.576C172.372 110.927 171.893 110.433 171.286 110.094C170.693 109.741 170.037 109.565 169.317 109.565C168.598 109.565 167.941 109.734 167.349 110.073C166.756 110.412 166.283 110.905 165.931 111.555C165.578 112.204 165.402 112.966 165.402 113.84C165.402 114.729 165.578 115.506 165.931 116.169C166.283 116.818 166.756 117.319 167.349 117.672C167.941 118.01 168.598 118.18 169.317 118.18C170.037 118.18 170.693 118.01 171.286 117.672C171.893 117.319 172.372 116.818 172.725 116.169C173.078 115.506 173.254 114.737 173.254 113.862ZM188.447 108.083L181.462 125.143H179.472L181.758 119.555L177.081 108.083H179.218L182.859 117.481L186.457 108.083H188.447ZM204.332 107.872C205.235 107.872 206.039 108.062 206.745 108.443C207.45 108.81 208.008 109.367 208.417 110.115C208.826 110.863 209.031 111.773 209.031 112.846V119.682H207.126V113.121C207.126 111.964 206.836 111.082 206.258 110.475C205.693 109.854 204.924 109.544 203.951 109.544C202.949 109.544 202.152 109.868 201.559 110.517C200.966 111.152 200.67 112.077 200.67 113.29V119.682H198.765V113.121C198.765 111.964 198.476 111.082 197.897 110.475C197.333 109.854 196.564 109.544 195.59 109.544C194.588 109.544 193.791 109.868 193.198 110.517C192.606 111.152 192.309 112.077 192.309 113.29V119.682H190.383V108.083H192.309V109.755C192.69 109.149 193.198 108.683 193.833 108.358C194.482 108.034 195.195 107.872 195.971 107.872C196.945 107.872 197.805 108.09 198.553 108.528C199.301 108.965 199.859 109.607 200.225 110.454C200.55 109.635 201.086 109 201.834 108.549C202.582 108.097 203.415 107.872 204.332 107.872ZM222.773 113.438C222.773 113.805 222.752 114.193 222.71 114.602H213.439C213.51 115.745 213.898 116.641 214.603 117.291C215.323 117.926 216.191 118.243 217.207 118.243C218.039 118.243 218.731 118.053 219.281 117.672C219.845 117.276 220.24 116.754 220.466 116.105H222.541C222.23 117.22 221.609 118.13 220.678 118.836C219.747 119.527 218.589 119.873 217.207 119.873C216.106 119.873 215.118 119.626 214.243 119.132C213.383 118.638 212.705 117.94 212.211 117.037C211.718 116.119 211.471 115.061 211.471 113.862C211.471 112.662 211.71 111.611 212.19 110.708C212.67 109.805 213.34 109.113 214.201 108.634C215.076 108.14 216.078 107.893 217.207 107.893C218.307 107.893 219.281 108.133 220.128 108.612C220.974 109.092 221.623 109.755 222.075 110.602C222.541 111.435 222.773 112.38 222.773 113.438ZM220.784 113.036C220.784 112.302 220.621 111.674 220.297 111.152C219.972 110.616 219.528 110.214 218.963 109.946C218.413 109.664 217.799 109.523 217.122 109.523C216.148 109.523 215.316 109.833 214.624 110.454C213.947 111.075 213.559 111.936 213.46 113.036H220.784ZM230.967 107.872C232.378 107.872 233.521 108.302 234.396 109.163C235.271 110.009 235.708 111.237 235.708 112.846V119.682H233.803V113.121C233.803 111.964 233.514 111.082 232.936 110.475C232.357 109.854 231.567 109.544 230.565 109.544C229.549 109.544 228.738 109.861 228.131 110.496C227.538 111.131 227.242 112.055 227.242 113.269V119.682H225.316V108.083H227.242V109.734C227.623 109.142 228.138 108.683 228.787 108.358C229.45 108.034 230.177 107.872 230.967 107.872ZM241.204 109.671V116.507C241.204 117.072 241.324 117.474 241.564 117.714C241.804 117.94 242.22 118.053 242.813 118.053H244.231V119.682H242.495C241.423 119.682 240.619 119.435 240.082 118.942C239.546 118.448 239.278 117.636 239.278 116.507V109.671H237.775V108.083H239.278V105.162H241.204V108.083H244.231V109.671H241.204ZM250.671 119.873C249.782 119.873 248.985 119.725 248.279 119.428C247.574 119.118 247.016 118.695 246.607 118.158C246.198 117.608 245.972 116.98 245.93 116.275H247.919C247.976 116.853 248.244 117.326 248.724 117.693C249.218 118.06 249.86 118.243 250.65 118.243C251.384 118.243 251.962 118.081 252.385 117.756C252.809 117.432 253.02 117.022 253.02 116.529C253.02 116.021 252.795 115.647 252.343 115.407C251.892 115.153 251.193 114.906 250.248 114.666C249.387 114.44 248.681 114.214 248.131 113.989C247.595 113.749 247.129 113.403 246.734 112.952C246.353 112.486 246.163 111.879 246.163 111.131C246.163 110.539 246.339 109.995 246.692 109.501C247.044 109.008 247.545 108.619 248.195 108.337C248.844 108.041 249.584 107.893 250.417 107.893C251.701 107.893 252.738 108.217 253.528 108.866C254.319 109.516 254.742 110.404 254.798 111.533H252.872C252.83 110.927 252.583 110.44 252.131 110.073C251.694 109.706 251.101 109.523 250.353 109.523C249.662 109.523 249.112 109.671 248.703 109.967C248.293 110.263 248.089 110.651 248.089 111.131C248.089 111.512 248.209 111.83 248.449 112.084C248.703 112.324 249.013 112.521 249.38 112.676C249.761 112.817 250.283 112.98 250.946 113.163C251.779 113.389 252.456 113.615 252.978 113.84C253.5 114.052 253.945 114.377 254.312 114.814C254.693 115.252 254.89 115.823 254.904 116.529C254.904 117.164 254.728 117.735 254.375 118.243C254.022 118.751 253.521 119.153 252.872 119.45C252.237 119.732 251.504 119.873 250.671 119.873Z" fill="black" fill-opacity="0.5"/>
<path d="M46.1424 262.097V251.294L46.498 251.378C46.3626 251.683 46.1029 251.988 45.7191 252.293C45.3353 252.597 44.8894 252.863 44.3814 253.088C43.8847 253.314 43.3711 253.467 42.8405 253.546V252.242C43.3711 252.151 43.8791 251.993 44.3645 251.768C44.8499 251.542 45.2789 251.271 45.6514 250.955C46.0352 250.628 46.3174 250.278 46.498 249.905H47.4971V262.097H46.1424ZM53.7095 262.266C52.5016 262.266 51.5364 261.944 50.814 261.301C50.0915 260.646 49.6512 259.8 49.4932 258.761H50.9833C51.1301 259.495 51.4405 260.059 51.9146 260.454C52.4 260.849 52.987 261.047 53.6757 261.047C54.3981 261.047 55.0077 260.821 55.5044 260.37C56.0124 259.918 56.2664 259.201 56.2664 258.219C56.2664 257.237 56.0124 256.503 55.5044 256.018C55.0077 255.521 54.3755 255.273 53.6079 255.273C53.0548 255.273 52.575 255.386 52.1686 255.611C51.7622 255.837 51.4913 256.103 51.3558 256.407H50.1028L50.6616 249.905H57.0961V251.124H51.4913L51.9654 250.616L51.576 255.527L51.2542 255.408C51.4574 255.07 51.7848 254.776 52.2363 254.528C52.6879 254.279 53.241 254.155 53.8958 254.155C54.6521 254.155 55.3182 254.319 55.8939 254.646C56.4809 254.974 56.9381 255.442 57.2655 256.052C57.6041 256.65 57.7734 257.372 57.7734 258.219C57.7734 259.066 57.6041 259.794 57.2655 260.404C56.9381 261.002 56.4696 261.465 55.86 261.792C55.2617 262.108 54.5449 262.266 53.7095 262.266ZM59.843 262.097V249.566H61.1976V262.097H59.843ZM65.4817 262.097L60.8928 257.61L65.3123 253.461H67.175L62.2136 257.999L62.2983 257.203L67.3443 262.097H65.4817Z" fill="black" fill-opacity="0.5"/>
<path d="M46.1424 350.829V340.026L46.498 340.11C46.3626 340.415 46.1029 340.72 45.7191 341.025C45.3353 341.329 44.8894 341.595 44.3814 341.82C43.8847 342.046 43.3711 342.199 42.8405 342.278V340.974C43.3711 340.884 43.8791 340.725 44.3645 340.5C44.8499 340.274 45.2789 340.003 45.6514 339.687C46.0352 339.36 46.3174 339.01 46.498 338.637H47.4971V350.829H46.1424ZM54.5857 350.998C53.6261 350.998 52.7851 350.733 52.0627 350.202C51.3515 349.66 50.7927 348.915 50.3863 347.967C49.9912 347.008 49.7936 345.913 49.7936 344.682C49.7936 343.452 49.9912 342.374 50.3863 341.448C50.7814 340.511 51.3402 339.783 52.0627 339.264C52.7851 338.733 53.6261 338.468 54.5857 338.468C55.5452 338.468 56.3806 338.733 57.0918 339.264C57.8142 339.783 58.373 340.511 58.7681 341.448C59.1745 342.374 59.3777 343.452 59.3777 344.682C59.3777 345.924 59.1745 347.019 58.7681 347.967C58.373 348.915 57.8142 349.66 57.0918 350.202C56.3806 350.733 55.5452 350.998 54.5857 350.998ZM54.5857 349.779C55.2743 349.779 55.8613 349.576 56.3467 349.169C56.8321 348.752 57.2046 348.165 57.4643 347.408C57.7239 346.641 57.8537 345.726 57.8537 344.665C57.8537 343.615 57.7239 342.718 57.4643 341.973C57.2159 341.228 56.849 340.663 56.3636 340.28C55.8782 339.884 55.2856 339.687 54.5857 339.687C53.8858 339.687 53.2931 339.884 52.8077 340.28C52.3223 340.675 51.9498 341.245 51.6901 341.99C51.4418 342.724 51.3176 343.615 51.3176 344.665C51.3176 345.726 51.4474 346.641 51.7071 347.408C51.9667 348.176 52.3392 348.763 52.8246 349.169C53.31 349.576 53.8971 349.779 54.5857 349.779ZM61.5793 350.829V338.298H62.9339V350.829H61.5793ZM67.218 350.829L62.6291 346.342L67.0486 342.193H68.9113L63.9499 346.731L64.0346 345.935L69.0806 350.829H67.218Z" fill="black" fill-opacity="0.5"/>
<path d="M47.277 439.73C46.0691 439.73 45.1039 439.409 44.3814 438.765C43.6589 438.11 43.2187 437.264 43.0606 436.225H44.5507C44.6975 436.959 45.0079 437.523 45.4821 437.918C45.9675 438.314 46.5545 438.511 47.2431 438.511C47.9656 438.511 48.5752 438.285 49.0719 437.834C49.5798 437.382 49.8338 436.665 49.8338 435.683C49.8338 434.701 49.5798 433.967 49.0719 433.482C48.5752 432.985 47.943 432.737 47.1754 432.737C46.6222 432.737 46.1424 432.85 45.7361 433.076C45.3297 433.301 45.0587 433.567 44.9233 433.871H43.6702L44.229 427.369H50.6636V428.588H45.0587L45.5329 428.08L45.1434 432.991L44.8217 432.872C45.0249 432.534 45.3522 432.24 45.8038 431.992C46.2553 431.744 46.8085 431.619 47.4632 431.619C48.2196 431.619 48.8856 431.783 49.4613 432.11C50.0483 432.438 50.5055 432.906 50.8329 433.516C51.1716 434.114 51.3409 434.837 51.3409 435.683C51.3409 436.53 51.1716 437.258 50.8329 437.868C50.5055 438.466 50.037 438.929 49.4275 439.256C48.8292 439.572 48.1123 439.73 47.277 439.73ZM53.4104 439.561V427.03H54.7651V439.561H53.4104ZM59.0491 439.561L54.4603 435.074L58.8798 430.925H60.7424L55.781 435.463L55.8657 434.667L60.9117 439.561H59.0491Z" fill="black" fill-opacity="0.5"/>
<path d="M47.9712 528.462C47.0117 528.462 46.1707 528.197 45.4482 527.666C44.737 527.125 44.1782 526.379 43.7718 525.431C43.3767 524.472 43.1792 523.377 43.1792 522.146C43.1792 520.916 43.3767 519.838 43.7718 518.912C44.1669 517.975 44.7257 517.247 45.4482 516.728C46.1707 516.197 47.0117 515.932 47.9712 515.932C48.9307 515.932 49.7661 516.197 50.4773 516.728C51.1998 517.247 51.7586 517.975 52.1537 518.912C52.5601 519.838 52.7633 520.916 52.7633 522.146C52.7633 523.388 52.5601 524.483 52.1537 525.431C51.7586 526.379 51.1998 527.125 50.4773 527.666C49.7661 528.197 48.9307 528.462 47.9712 528.462ZM47.9712 527.243C48.6598 527.243 49.2468 527.04 49.7322 526.633C50.2177 526.216 50.5902 525.629 50.8498 524.872C51.1095 524.105 51.2393 523.19 51.2393 522.129C51.2393 521.079 51.1095 520.182 50.8498 519.437C50.6015 518.692 50.2346 518.127 49.7492 517.744C49.2638 517.349 48.6711 517.151 47.9712 517.151C47.2713 517.151 46.6787 517.349 46.1932 517.744C45.7078 518.139 45.3353 518.709 45.0757 519.454C44.8273 520.188 44.7031 521.079 44.7031 522.129C44.7031 523.19 44.833 524.105 45.0926 524.872C45.3522 525.64 45.7248 526.227 46.2102 526.633C46.6956 527.04 47.2826 527.243 47.9712 527.243Z" fill="black" fill-opacity="0.5"/>
<line x1="76.3872" y1="244.038" x2="374.832" y2="244.038" stroke="black" stroke-opacity="0.2" stroke-width="2.11663" stroke-dasharray="4.23 4.23"/>
<line x1="76.3872" y1="337.876" x2="374.832" y2="337.876" stroke="black" stroke-opacity="0.2" stroke-width="2.11663" stroke-dasharray="4.23 4.23"/>
<line x1="76.3872" y1="431.713" x2="374.832" y2="431.713" stroke="black" stroke-opacity="0.2" stroke-width="2.11663" stroke-dasharray="4.23 4.23"/>
<line x1="76.3872" y1="525.55" x2="374.832" y2="525.55" stroke="black" stroke-opacity="0.2" stroke-width="2.11663" stroke-dasharray="4.23 4.23"/>
<rect x="90.4988" y="315.112" width="14.8164" height="211.663" rx="7.40819" fill="#313131"/>
<path d="M97.9949 560.86C96.5725 560.86 95.438 560.51 94.5913 559.81C93.756 559.11 93.2649 558.111 93.1182 556.813H94.4728C94.597 557.75 94.9526 558.455 95.5396 558.929C96.1266 559.403 96.9394 559.641 97.9779 559.641C98.8585 559.641 99.5188 559.477 99.9591 559.149C100.411 558.811 100.636 558.32 100.636 557.676C100.636 557.123 100.484 556.683 100.179 556.356C99.8744 556.028 99.4003 555.757 98.7569 555.543L96.708 554.832C95.6694 554.47 94.9018 554.036 94.4051 553.528C93.9084 553.008 93.66 552.354 93.66 551.564C93.66 550.909 93.8237 550.344 94.1511 549.87C94.4785 549.385 94.9413 549.007 95.5396 548.736C96.1379 548.465 96.8321 548.329 97.6224 548.329C98.8415 548.329 99.818 548.651 100.552 549.294C101.286 549.927 101.709 550.83 101.822 552.004H100.467C100.32 551.157 100.016 550.536 99.5527 550.141C99.1012 549.746 98.4464 549.548 97.5885 549.548C96.7757 549.548 96.1435 549.712 95.692 550.04C95.2404 550.367 95.0147 550.83 95.0147 551.428C95.0147 551.936 95.1727 552.342 95.4888 552.647C95.8049 552.952 96.2959 553.217 96.962 553.443L99.1463 554.205C100.095 554.532 100.806 554.978 101.28 555.543C101.754 556.096 101.991 556.801 101.991 557.659C101.991 558.675 101.641 559.466 100.941 560.03C100.253 560.583 99.2705 560.86 97.9949 560.86Z" fill="black" fill-opacity="0.5"/>
<rect x="133.423" y="414.593" width="14.8164" height="112.181" rx="7.40819" fill="#313131"/>
<path d="M134.288 560.707V548.516H136.421L140.824 560.267H140.18L144.549 548.516H146.716V560.707H145.345V549.244H145.531L141.281 560.707H139.621L135.371 549.345H135.558V560.707H134.288Z" fill="black" fill-opacity="0.5"/>
<rect x="176.347" y="291.829" width="14.8164" height="234.946" rx="7.40819" fill="#313131"/>
<path d="M183.048 560.707V549.735H178.865V548.516H188.619V549.735H184.436V560.707H183.048Z" fill="black" fill-opacity="0.5"/>
<rect x="220.772" y="346.861" width="14.8164" height="179.913" rx="7.40819" fill="#313131"/>
<path d="M223.133 560.707L219.527 548.516H220.949L224.183 559.776H223.929L227.096 548.516H228.789L231.972 559.776H231.718L234.936 548.516H236.273L232.667 560.707H230.973L227.807 549.786H228.01L224.827 560.707H223.133Z" fill="black" fill-opacity="0.5"/>
<rect x="265.196" y="245.097" width="14.8164" height="281.678" rx="7.40819" fill="#FFD500"/>
<path d="M271.896 560.707V549.735H267.714V548.516H277.467V549.735H273.285V560.707H271.896Z" fill="black"/>
<rect x="307.529" y="454.809" width="14.8164" height="71.9653" rx="7.40819" fill="#313131"/>
<path d="M310.893 560.707V548.516H312.282V560.707H310.893ZM311.604 555.475V554.256H318.174V555.475H311.604ZM311.604 549.735V548.516H318.648V549.735H311.604Z" fill="black" fill-opacity="0.5"/>
<rect x="349.861" y="359.561" width="14.8164" height="167.213" rx="7.40819" fill="#313131"/>
<path d="M357.357 560.86C355.935 560.86 354.8 560.51 353.954 559.81C353.118 559.11 352.627 558.111 352.481 556.813H353.835C353.959 557.75 354.315 558.455 354.902 558.929C355.489 559.403 356.302 559.641 357.34 559.641C358.221 559.641 358.881 559.477 359.322 559.149C359.773 558.811 359.999 558.32 359.999 557.676C359.999 557.123 359.846 556.683 359.542 556.356C359.237 556.028 358.763 555.757 358.119 555.543L356.07 554.832C355.032 554.47 354.264 554.036 353.768 553.528C353.271 553.008 353.022 552.354 353.022 551.564C353.022 550.909 353.186 550.344 353.514 549.87C353.841 549.385 354.304 549.007 354.902 548.736C355.5 548.465 356.195 548.329 356.985 548.329C358.204 548.329 359.18 548.651 359.914 549.294C360.648 549.927 361.071 550.83 361.184 552.004H359.83C359.683 551.157 359.378 550.536 358.915 550.141C358.464 549.746 357.809 549.548 356.951 549.548C356.138 549.548 355.506 549.712 355.054 550.04C354.603 550.367 354.377 550.83 354.377 551.428C354.377 551.936 354.535 552.342 354.851 552.647C355.167 552.952 355.658 553.217 356.324 553.443L358.509 554.205C359.457 554.532 360.168 554.978 360.642 555.543C361.116 556.096 361.353 556.801 361.353 557.659C361.353 558.675 361.004 559.466 360.304 560.03C359.615 560.583 358.633 560.86 357.357 560.86Z" fill="black" fill-opacity="0.5"/>
</svg>
