<svg width="444" height="210" viewBox="0 0 444 210" fill="none" xmlns="http://www.w3.org/2000/svg">
<rect width="444" height="210" fill="white"/>
<path d="M86.3 104.16C85.0467 103.493 84.42 102.447 84.42 101.02C84.42 100.3 84.6067 99.6467 84.98 99.06C85.3533 98.46 85.92 97.9867 86.68 97.64C87.44 97.28 88.3733 97.1 89.48 97.1C90.5867 97.1 91.5133 97.28 92.26 97.64C93.02 97.9867 93.5867 98.46 93.96 99.06C94.3333 99.6467 94.52 100.3 94.52 101.02C94.52 101.74 94.3467 102.367 94 102.9C93.6667 103.433 93.2133 103.853 92.64 104.16C93.36 104.507 93.9133 104.987 94.3 105.6C94.6867 106.2 94.88 106.907 94.88 107.72C94.88 108.667 94.64 109.487 94.16 110.18C93.68 110.86 93.0267 111.38 92.2 111.74C91.3867 112.1 90.48 112.28 89.48 112.28C88.48 112.28 87.5667 112.1 86.74 111.74C85.9267 111.38 85.28 110.86 84.8 110.18C84.32 109.487 84.08 108.667 84.08 107.72C84.08 106.893 84.2733 106.18 84.66 105.58C85.0467 104.967 85.5933 104.493 86.3 104.16ZM91.2 101.54C91.2 100.993 91.04 100.573 90.72 100.28C90.4133 99.9733 90 99.82 89.48 99.82C88.96 99.82 88.54 99.9733 88.22 100.28C87.9133 100.587 87.76 101.013 87.76 101.56C87.76 102.08 87.92 102.493 88.24 102.8C88.56 103.093 88.9733 103.24 89.48 103.24C89.9867 103.24 90.4 103.087 90.72 102.78C91.04 102.473 91.2 102.06 91.2 101.54ZM89.48 105.64C88.8533 105.64 88.3467 105.813 87.96 106.16C87.5733 106.493 87.38 106.96 87.38 107.56C87.38 108.12 87.5667 108.58 87.94 108.94C88.3267 109.3 88.84 109.48 89.48 109.48C90.12 109.48 90.62 109.3 90.98 108.94C91.3533 108.58 91.54 108.12 91.54 107.56C91.54 106.973 91.3467 106.507 90.96 106.16C90.5867 105.813 90.0933 105.64 89.48 105.64ZM96.8688 104.5C96.8688 102.207 97.3088 100.4 98.1888 99.08C99.0821 97.76 100.515 97.1 102.489 97.1C104.462 97.1 105.889 97.76 106.769 99.08C107.662 100.4 108.109 102.207 108.109 104.5C108.109 106.82 107.662 108.64 106.769 109.96C105.889 111.28 104.462 111.94 102.489 111.94C100.515 111.94 99.0821 111.28 98.1888 109.96C97.3088 108.64 96.8688 106.82 96.8688 104.5ZM104.749 104.5C104.749 103.153 104.602 102.12 104.309 101.4C104.015 100.667 103.409 100.3 102.489 100.3C101.569 100.3 100.962 100.667 100.669 101.4C100.375 102.12 100.229 103.153 100.229 104.5C100.229 105.407 100.282 106.16 100.389 106.76C100.495 107.347 100.709 107.827 101.029 108.2C101.362 108.56 101.849 108.74 102.489 108.74C103.129 108.74 103.609 108.56 103.929 108.2C104.262 107.827 104.482 107.347 104.589 106.76C104.695 106.16 104.749 105.407 104.749 104.5ZM109.636 101.08C109.636 100 109.942 99.1667 110.556 98.58C111.182 97.9933 111.989 97.7 112.976 97.7C113.962 97.7 114.762 97.9933 115.376 98.58C115.989 99.1667 116.296 100 116.296 101.08C116.296 102.16 115.989 102.993 115.376 103.58C114.762 104.167 113.962 104.46 112.976 104.46C111.989 104.46 111.182 104.167 110.556 103.58C109.942 102.993 109.636 102.16 109.636 101.08ZM123.216 97.92L115.516 112H112.216L119.916 97.92H123.216ZM112.956 99.7C112.316 99.7 111.996 100.16 111.996 101.08C111.996 101.987 112.316 102.44 112.956 102.44C113.262 102.44 113.502 102.327 113.676 102.1C113.849 101.873 113.936 101.533 113.936 101.08C113.936 100.16 113.609 99.7 112.956 99.7ZM119.156 108.84C119.156 107.76 119.462 106.927 120.076 106.34C120.689 105.753 121.489 105.46 122.476 105.46C123.462 105.46 124.262 105.753 124.876 106.34C125.489 106.927 125.796 107.76 125.796 108.84C125.796 109.92 125.489 110.753 124.876 111.34C124.262 111.927 123.462 112.22 122.476 112.22C121.489 112.22 120.689 111.927 120.076 111.34C119.462 110.753 119.156 109.92 119.156 108.84ZM122.456 107.46C122.149 107.46 121.909 107.573 121.736 107.8C121.576 108.027 121.496 108.373 121.496 108.84C121.496 109.747 121.816 110.2 122.456 110.2C122.762 110.2 123.002 110.087 123.176 109.86C123.349 109.633 123.436 109.293 123.436 108.84C123.436 108.387 123.349 108.047 123.176 107.82C123.002 107.58 122.762 107.46 122.456 107.46Z" fill="#1D1F17"/>
<path d="M51.967 158.033C43.8475 149.913 37.7007 140.038 34.0006 129.168C30.3004 118.298 29.1456 106.723 30.6253 95.3358C32.1049 83.9488 36.1794 73.0535 42.5347 63.4899C48.89 53.9263 57.3565 45.9496 67.2814 40.1748L78.9569 60.2409C72.1042 64.2282 66.2585 69.7358 61.8704 76.339C57.4823 82.9423 54.669 90.465 53.6474 98.3273C52.6258 106.19 53.4231 114.181 55.9779 121.687C58.5327 129.192 62.7768 136.011 68.383 141.617L51.967 158.033Z" fill="#7CE993"/>
<path d="M180 105C180 119.834 175.601 134.334 167.36 146.668C159.119 159.001 147.406 168.614 133.701 174.291C119.997 179.968 104.917 181.453 90.3682 178.559C75.8197 175.665 62.4559 168.522 51.967 158.033L68.383 141.617C75.6251 148.859 84.8522 153.791 94.8974 155.789C104.943 157.787 115.355 156.762 124.817 152.842C134.279 148.923 142.367 142.286 148.057 133.77C153.747 125.254 156.784 115.242 156.784 105H180Z" fill="#6A65FF"/>
<path d="M64.8622 41.6442C76.475 34.2871 89.8865 30.2633 103.631 30.0125C117.376 29.7616 130.926 33.2934 142.799 40.2218C154.673 47.1502 164.414 57.2088 170.958 69.2985C177.502 81.3883 180.597 95.044 179.905 108.774L156.719 107.606C157.196 98.1258 155.059 88.6971 150.541 80.3497C146.023 72.0022 139.297 65.0572 131.099 60.2734C122.901 55.4896 113.545 53.0511 104.055 53.2243C94.5648 53.3975 85.3047 56.1758 77.2865 61.2555L64.8622 41.6442Z" fill="#FBD718"/>
<path d="M221.34 46.96V49.7H217.62V61H214.2V49.7H210.48V46.96H221.34ZM228.136 61.16C227.043 61.16 226.056 60.9267 225.176 60.46C224.31 59.9933 223.623 59.3267 223.116 58.46C222.623 57.5933 222.376 56.58 222.376 55.42C222.376 54.2733 222.63 53.2667 223.136 52.4C223.643 51.52 224.336 50.8467 225.216 50.38C226.096 49.9133 227.083 49.68 228.176 49.68C229.27 49.68 230.256 49.9133 231.136 50.38C232.016 50.8467 232.71 51.52 233.216 52.4C233.723 53.2667 233.976 54.2733 233.976 55.42C233.976 56.5667 233.716 57.58 233.196 58.46C232.69 59.3267 231.99 59.9933 231.096 60.46C230.216 60.9267 229.23 61.16 228.136 61.16ZM228.136 58.2C228.79 58.2 229.343 57.96 229.796 57.48C230.263 57 230.496 56.3133 230.496 55.42C230.496 54.5267 230.27 53.84 229.816 53.36C229.376 52.88 228.83 52.64 228.176 52.64C227.51 52.64 226.956 52.88 226.516 53.36C226.076 53.8267 225.856 54.5133 225.856 55.42C225.856 56.3133 226.07 57 226.496 57.48C226.936 57.96 227.483 58.2 228.136 58.2ZM242.011 58.1V61H240.271C239.031 61 238.064 60.7 237.371 60.1C236.677 59.4867 236.331 58.4933 236.331 57.12V52.68H234.971V49.84H236.331V47.12H239.751V49.84H241.991V52.68H239.751V57.16C239.751 57.4933 239.831 57.7333 239.991 57.88C240.151 58.0267 240.417 58.1 240.791 58.1H242.011ZM243.236 55.4C243.236 54.2533 243.449 53.2467 243.876 52.38C244.316 51.5133 244.909 50.8467 245.656 50.38C246.402 49.9133 247.236 49.68 248.156 49.68C248.942 49.68 249.629 49.84 250.216 50.16C250.816 50.48 251.276 50.9 251.596 51.42V49.84H255.016V61H251.596V59.42C251.262 59.94 250.796 60.36 250.196 60.68C249.609 61 248.922 61.16 248.136 61.16C247.229 61.16 246.402 60.9267 245.656 60.46C244.909 59.98 244.316 59.3067 243.876 58.44C243.449 57.56 243.236 56.5467 243.236 55.4ZM251.596 55.42C251.596 54.5667 251.356 53.8933 250.876 53.4C250.409 52.9067 249.836 52.66 249.156 52.66C248.476 52.66 247.896 52.9067 247.416 53.4C246.949 53.88 246.716 54.5467 246.716 55.4C246.716 56.2533 246.949 56.9333 247.416 57.44C247.896 57.9333 248.476 58.18 249.156 58.18C249.836 58.18 250.409 57.9333 250.876 57.44C251.356 56.9467 251.596 56.2733 251.596 55.42ZM260.91 46.2V61H257.49V46.2H260.91ZM281.867 49.72C283.253 49.72 284.353 50.14 285.167 50.98C285.993 51.82 286.407 52.9867 286.407 54.48V61H283.007V54.94C283.007 54.22 282.813 53.6667 282.427 53.28C282.053 52.88 281.533 52.68 280.867 52.68C280.2 52.68 279.673 52.88 279.287 53.28C278.913 53.6667 278.727 54.22 278.727 54.94V61H275.327V54.94C275.327 54.22 275.133 53.6667 274.747 53.28C274.373 52.88 273.853 52.68 273.187 52.68C272.52 52.68 271.993 52.88 271.607 53.28C271.233 53.6667 271.047 54.22 271.047 54.94V61H267.627V49.84H271.047V51.24C271.393 50.7733 271.847 50.4067 272.407 50.14C272.967 49.86 273.6 49.72 274.307 49.72C275.147 49.72 275.893 49.9 276.547 50.26C277.213 50.62 277.733 51.1333 278.107 51.8C278.493 51.1867 279.02 50.6867 279.687 50.3C280.353 49.9133 281.08 49.72 281.867 49.72ZM293.879 61.16C292.785 61.16 291.799 60.9267 290.919 60.46C290.052 59.9933 289.365 59.3267 288.859 58.46C288.365 57.5933 288.119 56.58 288.119 55.42C288.119 54.2733 288.372 53.2667 288.879 52.4C289.385 51.52 290.079 50.8467 290.959 50.38C291.839 49.9133 292.825 49.68 293.919 49.68C295.012 49.68 295.999 49.9133 296.879 50.38C297.759 50.8467 298.452 51.52 298.959 52.4C299.465 53.2667 299.719 54.2733 299.719 55.42C299.719 56.5667 299.459 57.58 298.939 58.46C298.432 59.3267 297.732 59.9933 296.839 60.46C295.959 60.9267 294.972 61.16 293.879 61.16ZM293.879 58.2C294.532 58.2 295.085 57.96 295.539 57.48C296.005 57 296.239 56.3133 296.239 55.42C296.239 54.5267 296.012 53.84 295.559 53.36C295.119 52.88 294.572 52.64 293.919 52.64C293.252 52.64 292.699 52.88 292.259 53.36C291.819 53.8267 291.599 54.5133 291.599 55.42C291.599 56.3133 291.812 57 292.239 57.48C292.679 57.96 293.225 58.2 293.879 58.2ZM308.333 49.72C309.64 49.72 310.68 50.1467 311.453 51C312.24 51.84 312.633 53 312.633 54.48V61H309.233V54.94C309.233 54.1933 309.04 53.6133 308.653 53.2C308.266 52.7867 307.746 52.58 307.093 52.58C306.44 52.58 305.92 52.7867 305.533 53.2C305.146 53.6133 304.953 54.1933 304.953 54.94V61H301.533V49.84H304.953V51.32C305.3 50.8267 305.766 50.44 306.353 50.16C306.94 49.8667 307.6 49.72 308.333 49.72ZM321.23 58.1V61H319.49C318.25 61 317.283 60.7 316.59 60.1C315.896 59.4867 315.55 58.4933 315.55 57.12V52.68H314.19V49.84H315.55V47.12H318.97V49.84H321.21V52.68H318.97V57.16C318.97 57.4933 319.05 57.7333 319.21 57.88C319.37 58.0267 319.636 58.1 320.01 58.1H321.23ZM329.995 49.72C331.275 49.72 332.301 50.1467 333.075 51C333.848 51.84 334.235 53 334.235 54.48V61H330.835V54.94C330.835 54.1933 330.641 53.6133 330.255 53.2C329.868 52.7867 329.348 52.58 328.695 52.58C328.041 52.58 327.521 52.7867 327.135 53.2C326.748 53.6133 326.555 54.1933 326.555 54.94V61H323.135V46.2H326.555V51.34C326.901 50.8467 327.375 50.4533 327.975 50.16C328.575 49.8667 329.248 49.72 329.995 49.72ZM340.031 46.2V61H336.611V46.2H340.031ZM353.91 49.84L346.91 66.3H343.23L345.79 60.62L341.25 49.84H345.07L347.65 56.82L350.21 49.84H353.91ZM364.465 61.14C363.438 61.14 362.518 60.9733 361.705 60.64C360.891 60.3067 360.238 59.8133 359.745 59.16C359.265 58.5067 359.011 57.72 358.985 56.8H362.625C362.678 57.32 362.858 57.72 363.165 58C363.471 58.2667 363.871 58.4 364.365 58.4C364.871 58.4 365.271 58.2867 365.565 58.06C365.858 57.82 366.005 57.4933 366.005 57.08C366.005 56.7333 365.885 56.4467 365.645 56.22C365.418 55.9933 365.131 55.8067 364.785 55.66C364.451 55.5133 363.971 55.3467 363.345 55.16C362.438 54.88 361.698 54.6 361.125 54.32C360.551 54.04 360.058 53.6267 359.645 53.08C359.231 52.5333 359.025 51.82 359.025 50.94C359.025 49.6333 359.498 48.6133 360.445 47.88C361.391 47.1333 362.625 46.76 364.145 46.76C365.691 46.76 366.938 47.1333 367.885 47.88C368.831 48.6133 369.338 49.64 369.405 50.96H365.705C365.678 50.5067 365.511 50.1533 365.205 49.9C364.898 49.6333 364.505 49.5 364.025 49.5C363.611 49.5 363.278 49.6133 363.025 49.84C362.771 50.0533 362.645 50.3667 362.645 50.78C362.645 51.2333 362.858 51.5867 363.285 51.84C363.711 52.0933 364.378 52.3667 365.285 52.66C366.191 52.9667 366.925 53.26 367.485 53.54C368.058 53.82 368.551 54.2267 368.965 54.76C369.378 55.2933 369.585 55.98 369.585 56.82C369.585 57.62 369.378 58.3467 368.965 59C368.565 59.6533 367.978 60.1733 367.205 60.56C366.431 60.9467 365.518 61.14 364.465 61.14ZM371.009 55.4C371.009 54.2533 371.223 53.2467 371.649 52.38C372.089 51.5133 372.683 50.8467 373.429 50.38C374.176 49.9133 375.009 49.68 375.929 49.68C376.716 49.68 377.403 49.84 377.989 50.16C378.589 50.48 379.049 50.9 379.369 51.42V49.84H382.789V61H379.369V59.42C379.036 59.94 378.569 60.36 377.969 60.68C377.383 61 376.696 61.16 375.909 61.16C375.003 61.16 374.176 60.9267 373.429 60.46C372.683 59.98 372.089 59.3067 371.649 58.44C371.223 57.56 371.009 56.5467 371.009 55.4ZM379.369 55.42C379.369 54.5667 379.129 53.8933 378.649 53.4C378.183 52.9067 377.609 52.66 376.929 52.66C376.249 52.66 375.669 52.9067 375.189 53.4C374.723 53.88 374.489 54.5467 374.489 55.4C374.489 56.2533 374.723 56.9333 375.189 57.44C375.669 57.9333 376.249 58.18 376.929 58.18C377.609 58.18 378.183 57.9333 378.649 57.44C379.129 56.9467 379.369 56.2733 379.369 55.42ZM388.683 46.2V61H385.263V46.2H388.683ZM401.682 55.24C401.682 55.56 401.662 55.8933 401.622 56.24H393.882C393.935 56.9333 394.155 57.4667 394.542 57.84C394.942 58.2 395.429 58.38 396.002 58.38C396.855 58.38 397.449 58.02 397.782 57.3H401.422C401.235 58.0333 400.895 58.6933 400.402 59.28C399.922 59.8667 399.315 60.3267 398.582 60.66C397.849 60.9933 397.029 61.16 396.122 61.16C395.029 61.16 394.055 60.9267 393.202 60.46C392.349 59.9933 391.682 59.3267 391.202 58.46C390.722 57.5933 390.482 56.58 390.482 55.42C390.482 54.26 390.715 53.2467 391.182 52.38C391.662 51.5133 392.329 50.8467 393.182 50.38C394.035 49.9133 395.015 49.68 396.122 49.68C397.202 49.68 398.162 49.9067 399.002 50.36C399.842 50.8133 400.495 51.46 400.962 52.3C401.442 53.14 401.682 54.12 401.682 55.24ZM398.182 54.34C398.182 53.7533 397.982 53.2867 397.582 52.94C397.182 52.5933 396.682 52.42 396.082 52.42C395.509 52.42 395.022 52.5867 394.622 52.92C394.235 53.2533 393.995 53.7267 393.902 54.34H398.182ZM408.026 61.16C407.053 61.16 406.186 60.9933 405.426 60.66C404.666 60.3267 404.066 59.8733 403.626 59.3C403.186 58.7133 402.939 58.06 402.886 57.34H406.266C406.306 57.7267 406.486 58.04 406.806 58.28C407.126 58.52 407.519 58.64 407.986 58.64C408.413 58.64 408.739 58.56 408.966 58.4C409.206 58.2267 409.326 58.0067 409.326 57.74C409.326 57.42 409.159 57.1867 408.826 57.04C408.493 56.88 407.953 56.7067 407.206 56.52C406.406 56.3333 405.739 56.14 405.206 55.94C404.673 55.7267 404.213 55.4 403.826 54.96C403.439 54.5067 403.246 53.9 403.246 53.14C403.246 52.5 403.419 51.92 403.766 51.4C404.126 50.8667 404.646 50.4467 405.326 50.14C406.019 49.8333 406.839 49.68 407.786 49.68C409.186 49.68 410.286 50.0267 411.086 50.72C411.899 51.4133 412.366 52.3333 412.486 53.48H409.326C409.273 53.0933 409.099 52.7867 408.806 52.56C408.526 52.3333 408.153 52.22 407.686 52.22C407.286 52.22 406.979 52.3 406.766 52.46C406.553 52.6067 406.446 52.8133 406.446 53.08C406.446 53.4 406.613 53.64 406.946 53.8C407.293 53.96 407.826 54.12 408.546 54.28C409.373 54.4933 410.046 54.7067 410.566 54.92C411.086 55.12 411.539 55.4533 411.926 55.92C412.326 56.3733 412.533 56.9867 412.546 57.76C412.546 58.4133 412.359 59 411.986 59.52C411.626 60.0267 411.099 60.4267 410.406 60.72C409.726 61.0133 408.933 61.16 408.026 61.16Z" fill="#1D1F17"/>
<circle cx="215" cy="91" r="5" fill="#6A65FF"/>
<path d="M232.688 95.816H236.592V97H231.232V85.848H232.688V95.816ZM237.594 92.584C237.594 91.688 237.776 90.904 238.138 90.232C238.501 89.5493 238.997 89.0213 239.626 88.648C240.266 88.2747 240.976 88.088 241.754 88.088C242.522 88.088 243.189 88.2533 243.754 88.584C244.32 88.9147 244.741 89.3307 245.018 89.832V88.232H246.49V97H245.018V95.368C244.73 95.88 244.298 96.3067 243.722 96.648C243.157 96.9787 242.496 97.144 241.738 97.144C240.96 97.144 240.256 96.952 239.626 96.568C238.997 96.184 238.501 95.6453 238.138 94.952C237.776 94.2587 237.594 93.4693 237.594 92.584ZM245.018 92.6C245.018 91.9387 244.885 91.3627 244.618 90.872C244.352 90.3813 243.989 90.008 243.53 89.752C243.082 89.4853 242.586 89.352 242.042 89.352C241.498 89.352 241.002 89.48 240.554 89.736C240.106 89.992 239.749 90.3653 239.482 90.856C239.216 91.3467 239.082 91.9227 239.082 92.584C239.082 93.256 239.216 93.8427 239.482 94.344C239.749 94.8347 240.106 95.2133 240.554 95.48C241.002 95.736 241.498 95.864 242.042 95.864C242.586 95.864 243.082 95.736 243.53 95.48C243.989 95.2133 244.352 94.8347 244.618 94.344C244.885 93.8427 245.018 93.2613 245.018 92.6ZM252.055 97.144C251.383 97.144 250.78 97.032 250.247 96.808C249.713 96.5733 249.292 96.2533 248.983 95.848C248.673 95.432 248.503 94.9573 248.471 94.424H249.975C250.017 94.8613 250.22 95.2187 250.583 95.496C250.956 95.7733 251.441 95.912 252.039 95.912C252.593 95.912 253.031 95.7893 253.351 95.544C253.671 95.2987 253.831 94.9893 253.831 94.616C253.831 94.232 253.66 93.9493 253.319 93.768C252.977 93.576 252.449 93.3893 251.735 93.208C251.084 93.0373 250.551 92.8667 250.135 92.696C249.729 92.5147 249.377 92.2533 249.079 91.912C248.791 91.56 248.647 91.1013 248.647 90.536C248.647 90.088 248.78 89.6773 249.047 89.304C249.313 88.9307 249.692 88.6373 250.183 88.424C250.673 88.2 251.233 88.088 251.863 88.088C252.833 88.088 253.617 88.3333 254.215 88.824C254.812 89.3147 255.132 89.9867 255.175 90.84H253.719C253.687 90.3813 253.5 90.0133 253.159 89.736C252.828 89.4587 252.38 89.32 251.815 89.32C251.292 89.32 250.876 89.432 250.567 89.656C250.257 89.88 250.103 90.1733 250.103 90.536C250.103 90.824 250.193 91.064 250.375 91.256C250.567 91.4373 250.801 91.5867 251.079 91.704C251.367 91.8107 251.761 91.9333 252.263 92.072C252.892 92.2427 253.404 92.4133 253.799 92.584C254.193 92.744 254.529 92.9893 254.807 93.32C255.095 93.6507 255.244 94.0827 255.255 94.616C255.255 95.096 255.121 95.528 254.855 95.912C254.588 96.296 254.209 96.6 253.719 96.824C253.239 97.0373 252.684 97.144 252.055 97.144ZM259.086 89.432V94.6C259.086 95.0267 259.177 95.3307 259.358 95.512C259.539 95.6827 259.854 95.768 260.302 95.768H261.374V97H260.062C259.251 97 258.643 96.8133 258.238 96.44C257.833 96.0667 257.63 95.4533 257.63 94.6V89.432H256.494V88.232H257.63V86.024H259.086V88.232H261.374V89.432H259.086ZM278.716 85.928V97H277.26V88.744L273.58 97H272.556L268.86 88.728V97H267.404V85.928H268.972L273.068 95.08L277.164 85.928H278.716ZM285.009 97.144C284.188 97.144 283.441 96.9573 282.769 96.584C282.108 96.2107 281.585 95.6827 281.201 95C280.828 94.3067 280.641 93.5067 280.641 92.6C280.641 91.704 280.833 90.9147 281.217 90.232C281.612 89.5387 282.145 89.0107 282.817 88.648C283.489 88.2747 284.241 88.088 285.073 88.088C285.905 88.088 286.657 88.2747 287.329 88.648C288.001 89.0107 288.529 89.5333 288.913 90.216C289.308 90.8987 289.505 91.6933 289.505 92.6C289.505 93.5067 289.302 94.3067 288.897 95C288.502 95.6827 287.964 96.2107 287.281 96.584C286.598 96.9573 285.841 97.144 285.009 97.144ZM285.009 95.864C285.532 95.864 286.022 95.7413 286.481 95.496C286.94 95.2507 287.308 94.8827 287.585 94.392C287.873 93.9013 288.017 93.304 288.017 92.6C288.017 91.896 287.878 91.2987 287.601 90.808C287.324 90.3173 286.961 89.9547 286.513 89.72C286.065 89.4747 285.58 89.352 285.057 89.352C284.524 89.352 284.033 89.4747 283.585 89.72C283.148 89.9547 282.796 90.3173 282.529 90.808C282.262 91.2987 282.129 91.896 282.129 92.6C282.129 93.3147 282.257 93.9173 282.513 94.408C282.78 94.8987 283.132 95.2667 283.569 95.512C284.006 95.7467 284.486 95.864 285.009 95.864ZM295.692 88.072C296.758 88.072 297.622 88.3973 298.284 89.048C298.945 89.688 299.276 90.616 299.276 91.832V97H297.836V92.04C297.836 91.1653 297.617 90.4987 297.18 90.04C296.742 89.5707 296.145 89.336 295.388 89.336C294.62 89.336 294.006 89.576 293.548 90.056C293.1 90.536 292.876 91.2347 292.876 92.152V97H291.42V88.232H292.876V89.48C293.164 89.032 293.553 88.6853 294.044 88.44C294.545 88.1947 295.094 88.072 295.692 88.072ZM303.43 89.432V94.6C303.43 95.0267 303.521 95.3307 303.702 95.512C303.883 95.6827 304.198 95.768 304.646 95.768H305.718V97H304.406C303.595 97 302.987 96.8133 302.582 96.44C302.177 96.0667 301.974 95.4533 301.974 94.6V89.432H300.838V88.232H301.974V86.024H303.43V88.232H305.718V89.432H303.43ZM311.834 88.072C312.495 88.072 313.093 88.216 313.626 88.504C314.159 88.7813 314.575 89.2027 314.874 89.768C315.183 90.3333 315.338 91.0213 315.338 91.832V97H313.898V92.04C313.898 91.1653 313.679 90.4987 313.242 90.04C312.805 89.5707 312.207 89.336 311.45 89.336C310.682 89.336 310.069 89.576 309.61 90.056C309.162 90.536 308.938 91.2347 308.938 92.152V97H307.482V85.16H308.938V89.48C309.226 89.032 309.621 88.6853 310.122 88.44C310.634 88.1947 311.205 88.072 311.834 88.072ZM325.518 97.112C324.782 97.112 324.121 96.984 323.534 96.728C322.958 96.4613 322.505 96.0987 322.174 95.64C321.843 95.1707 321.673 94.632 321.662 94.024H323.214C323.267 94.5467 323.481 94.9893 323.854 95.352C324.238 95.704 324.793 95.88 325.518 95.88C326.211 95.88 326.755 95.7093 327.15 95.368C327.555 95.016 327.758 94.568 327.758 94.024C327.758 93.5973 327.641 93.2507 327.406 92.984C327.171 92.7173 326.878 92.5147 326.526 92.376C326.174 92.2373 325.699 92.088 325.102 91.928C324.366 91.736 323.774 91.544 323.326 91.352C322.889 91.16 322.51 90.8613 322.19 90.456C321.881 90.04 321.726 89.4853 321.726 88.792C321.726 88.184 321.881 87.6453 322.19 87.176C322.499 86.7067 322.931 86.344 323.486 86.088C324.051 85.832 324.697 85.704 325.422 85.704C326.467 85.704 327.321 85.9653 327.982 86.488C328.654 87.0107 329.033 87.704 329.118 88.568H327.518C327.465 88.1413 327.241 87.768 326.846 87.448C326.451 87.1173 325.929 86.952 325.278 86.952C324.67 86.952 324.174 87.112 323.79 87.432C323.406 87.7413 323.214 88.1787 323.214 88.744C323.214 89.1493 323.326 89.48 323.55 89.736C323.785 89.992 324.067 90.1893 324.398 90.328C324.739 90.456 325.214 90.6053 325.822 90.776C326.558 90.9787 327.15 91.1813 327.598 91.384C328.046 91.576 328.43 91.88 328.75 92.296C329.07 92.7013 329.23 93.256 329.23 93.96C329.23 94.504 329.086 95.016 328.798 95.496C328.51 95.976 328.083 96.3653 327.518 96.664C326.953 96.9627 326.286 97.112 325.518 97.112ZM330.829 92.584C330.829 91.688 331.01 90.904 331.373 90.232C331.735 89.5493 332.231 89.0213 332.861 88.648C333.501 88.2747 334.21 88.088 334.989 88.088C335.757 88.088 336.423 88.2533 336.989 88.584C337.554 88.9147 337.975 89.3307 338.253 89.832V88.232H339.725V97H338.253V95.368C337.965 95.88 337.533 96.3067 336.957 96.648C336.391 96.9787 335.73 97.144 334.973 97.144C334.194 97.144 333.49 96.952 332.861 96.568C332.231 96.184 331.735 95.6453 331.373 94.952C331.01 94.2587 330.829 93.4693 330.829 92.584ZM338.253 92.6C338.253 91.9387 338.119 91.3627 337.853 90.872C337.586 90.3813 337.223 90.008 336.765 89.752C336.317 89.4853 335.821 89.352 335.277 89.352C334.733 89.352 334.237 89.48 333.789 89.736C333.341 89.992 332.983 90.3653 332.717 90.856C332.45 91.3467 332.317 91.9227 332.317 92.584C332.317 93.256 332.45 93.8427 332.717 94.344C332.983 94.8347 333.341 95.2133 333.789 95.48C334.237 95.736 334.733 95.864 335.277 95.864C335.821 95.864 336.317 95.736 336.765 95.48C337.223 95.2133 337.586 94.8347 337.853 94.344C338.119 93.8427 338.253 93.2613 338.253 92.6ZM343.641 85.16V97H342.185V85.16H343.641ZM354.123 92.28C354.123 92.5573 354.107 92.8507 354.075 93.16H347.067C347.12 94.024 347.413 94.7013 347.947 95.192C348.491 95.672 349.147 95.912 349.915 95.912C350.544 95.912 351.067 95.768 351.483 95.48C351.909 95.1813 352.208 94.7867 352.379 94.296H353.947C353.712 95.1387 353.243 95.8267 352.539 96.36C351.835 96.8827 350.96 97.144 349.915 97.144C349.083 97.144 348.336 96.9573 347.675 96.584C347.024 96.2107 346.512 95.6827 346.139 95C345.765 94.3067 345.579 93.5067 345.579 92.6C345.579 91.6933 345.76 90.8987 346.123 90.216C346.485 89.5333 346.992 89.0107 347.643 88.648C348.304 88.2747 349.061 88.088 349.915 88.088C350.747 88.088 351.483 88.2693 352.123 88.632C352.763 88.9947 353.253 89.496 353.595 90.136C353.947 90.7653 354.123 91.48 354.123 92.28ZM352.619 91.976C352.619 91.4213 352.496 90.9467 352.251 90.552C352.005 90.1467 351.669 89.8427 351.243 89.64C350.827 89.4267 350.363 89.32 349.851 89.32C349.115 89.32 348.485 89.5547 347.963 90.024C347.451 90.4933 347.157 91.144 347.083 91.976H352.619ZM359.149 97.144C358.477 97.144 357.874 97.032 357.341 96.808C356.807 96.5733 356.386 96.2533 356.077 95.848C355.767 95.432 355.597 94.9573 355.565 94.424H357.069C357.111 94.8613 357.314 95.2187 357.677 95.496C358.05 95.7733 358.535 95.912 359.133 95.912C359.687 95.912 360.125 95.7893 360.445 95.544C360.765 95.2987 360.925 94.9893 360.925 94.616C360.925 94.232 360.754 93.9493 360.413 93.768C360.071 93.576 359.543 93.3893 358.829 93.208C358.178 93.0373 357.645 92.8667 357.229 92.696C356.823 92.5147 356.471 92.2533 356.173 91.912C355.885 91.56 355.741 91.1013 355.741 90.536C355.741 90.088 355.874 89.6773 356.141 89.304C356.407 88.9307 356.786 88.6373 357.277 88.424C357.767 88.2 358.327 88.088 358.957 88.088C359.927 88.088 360.711 88.3333 361.309 88.824C361.906 89.3147 362.226 89.9867 362.269 90.84H360.813C360.781 90.3813 360.594 90.0133 360.253 89.736C359.922 89.4587 359.474 89.32 358.909 89.32C358.386 89.32 357.97 89.432 357.661 89.656C357.351 89.88 357.197 90.1733 357.197 90.536C357.197 90.824 357.287 91.064 357.469 91.256C357.661 91.4373 357.895 91.5867 358.173 91.704C358.461 91.8107 358.855 91.9333 359.357 92.072C359.986 92.2427 360.498 92.4133 360.893 92.584C361.287 92.744 361.623 92.9893 361.901 93.32C362.189 93.6507 362.338 94.0827 362.349 94.616C362.349 95.096 362.215 95.528 361.949 95.912C361.682 96.296 361.303 96.6 360.813 96.824C360.333 97.0373 359.778 97.144 359.149 97.144Z" fill="#484848"/>
<circle cx="215" cy="125" r="5" fill="#FBD718"/>
<path d="M232.688 129.816H236.592V131H231.232V119.848H232.688V129.816ZM237.594 126.584C237.594 125.688 237.776 124.904 238.138 124.232C238.501 123.549 238.997 123.021 239.626 122.648C240.266 122.275 240.976 122.088 241.754 122.088C242.522 122.088 243.189 122.253 243.754 122.584C244.32 122.915 244.741 123.331 245.018 123.832V122.232H246.49V131H245.018V129.368C244.73 129.88 244.298 130.307 243.722 130.648C243.157 130.979 242.496 131.144 241.738 131.144C240.96 131.144 240.256 130.952 239.626 130.568C238.997 130.184 238.501 129.645 238.138 128.952C237.776 128.259 237.594 127.469 237.594 126.584ZM245.018 126.6C245.018 125.939 244.885 125.363 244.618 124.872C244.352 124.381 243.989 124.008 243.53 123.752C243.082 123.485 242.586 123.352 242.042 123.352C241.498 123.352 241.002 123.48 240.554 123.736C240.106 123.992 239.749 124.365 239.482 124.856C239.216 125.347 239.082 125.923 239.082 126.584C239.082 127.256 239.216 127.843 239.482 128.344C239.749 128.835 240.106 129.213 240.554 129.48C241.002 129.736 241.498 129.864 242.042 129.864C242.586 129.864 243.082 129.736 243.53 129.48C243.989 129.213 244.352 128.835 244.618 128.344C244.885 127.843 245.018 127.261 245.018 126.6ZM252.055 131.144C251.383 131.144 250.78 131.032 250.247 130.808C249.713 130.573 249.292 130.253 248.983 129.848C248.673 129.432 248.503 128.957 248.471 128.424H249.975C250.017 128.861 250.22 129.219 250.583 129.496C250.956 129.773 251.441 129.912 252.039 129.912C252.593 129.912 253.031 129.789 253.351 129.544C253.671 129.299 253.831 128.989 253.831 128.616C253.831 128.232 253.66 127.949 253.319 127.768C252.977 127.576 252.449 127.389 251.735 127.208C251.084 127.037 250.551 126.867 250.135 126.696C249.729 126.515 249.377 126.253 249.079 125.912C248.791 125.56 248.647 125.101 248.647 124.536C248.647 124.088 248.78 123.677 249.047 123.304C249.313 122.931 249.692 122.637 250.183 122.424C250.673 122.2 251.233 122.088 251.863 122.088C252.833 122.088 253.617 122.333 254.215 122.824C254.812 123.315 255.132 123.987 255.175 124.84H253.719C253.687 124.381 253.5 124.013 253.159 123.736C252.828 123.459 252.38 123.32 251.815 123.32C251.292 123.32 250.876 123.432 250.567 123.656C250.257 123.88 250.103 124.173 250.103 124.536C250.103 124.824 250.193 125.064 250.375 125.256C250.567 125.437 250.801 125.587 251.079 125.704C251.367 125.811 251.761 125.933 252.263 126.072C252.892 126.243 253.404 126.413 253.799 126.584C254.193 126.744 254.529 126.989 254.807 127.32C255.095 127.651 255.244 128.083 255.255 128.616C255.255 129.096 255.121 129.528 254.855 129.912C254.588 130.296 254.209 130.6 253.719 130.824C253.239 131.037 252.684 131.144 252.055 131.144ZM259.086 123.432V128.6C259.086 129.027 259.177 129.331 259.358 129.512C259.539 129.683 259.854 129.768 260.302 129.768H261.374V131H260.062C259.251 131 258.643 130.813 258.238 130.44C257.833 130.067 257.63 129.453 257.63 128.6V123.432H256.494V122.232H257.63V120.024H259.086V122.232H261.374V123.432H259.086ZM266.78 120.76V119.432H269.788V131H268.316V120.76H266.78ZM279.665 120.696H274.049V124.344C274.294 124.003 274.657 123.725 275.137 123.512C275.617 123.288 276.134 123.176 276.689 123.176C277.574 123.176 278.294 123.363 278.849 123.736C279.404 124.099 279.798 124.573 280.033 125.16C280.278 125.736 280.401 126.349 280.401 127C280.401 127.768 280.257 128.456 279.969 129.064C279.681 129.672 279.238 130.152 278.641 130.504C278.054 130.856 277.324 131.032 276.449 131.032C275.329 131.032 274.422 130.744 273.729 130.168C273.036 129.592 272.614 128.824 272.465 127.864H273.889C274.028 128.472 274.321 128.947 274.769 129.288C275.217 129.629 275.782 129.8 276.465 129.8C277.308 129.8 277.942 129.549 278.369 129.048C278.796 128.536 279.009 127.864 279.009 127.032C279.009 126.2 278.796 125.56 278.369 125.112C277.942 124.653 277.313 124.424 276.481 124.424C275.916 124.424 275.42 124.563 274.993 124.84C274.577 125.107 274.273 125.475 274.081 125.944H272.705V119.416H279.665V120.696ZM286.297 126.584C286.297 125.688 286.479 124.904 286.841 124.232C287.204 123.549 287.7 123.021 288.329 122.648C288.969 122.275 289.684 122.088 290.473 122.088C291.156 122.088 291.791 122.248 292.377 122.568C292.964 122.877 293.412 123.288 293.721 123.8V119.16H295.193V131H293.721V129.352C293.433 129.875 293.007 130.307 292.441 130.648C291.876 130.979 291.215 131.144 290.457 131.144C289.679 131.144 288.969 130.952 288.329 130.568C287.7 130.184 287.204 129.645 286.841 128.952C286.479 128.259 286.297 127.469 286.297 126.584ZM293.721 126.6C293.721 125.939 293.588 125.363 293.321 124.872C293.055 124.381 292.692 124.008 292.233 123.752C291.785 123.485 291.289 123.352 290.745 123.352C290.201 123.352 289.705 123.48 289.257 123.736C288.809 123.992 288.452 124.365 288.185 124.856C287.919 125.347 287.785 125.923 287.785 126.584C287.785 127.256 287.919 127.843 288.185 128.344C288.452 128.835 288.809 129.213 289.257 129.48C289.705 129.736 290.201 129.864 290.745 129.864C291.289 129.864 291.785 129.736 292.233 129.48C292.692 129.213 293.055 128.835 293.321 128.344C293.588 127.843 293.721 127.261 293.721 126.6ZM297.11 126.584C297.11 125.688 297.291 124.904 297.654 124.232C298.017 123.549 298.513 123.021 299.142 122.648C299.782 122.275 300.491 122.088 301.27 122.088C302.038 122.088 302.705 122.253 303.27 122.584C303.835 122.915 304.257 123.331 304.534 123.832V122.232H306.006V131H304.534V129.368C304.246 129.88 303.814 130.307 303.238 130.648C302.673 130.979 302.011 131.144 301.254 131.144C300.475 131.144 299.771 130.952 299.142 130.568C298.513 130.184 298.017 129.645 297.654 128.952C297.291 128.259 297.11 127.469 297.11 126.584ZM304.534 126.6C304.534 125.939 304.401 125.363 304.134 124.872C303.867 124.381 303.505 124.008 303.046 123.752C302.598 123.485 302.102 123.352 301.558 123.352C301.014 123.352 300.518 123.48 300.07 123.736C299.622 123.992 299.265 124.365 298.998 124.856C298.731 125.347 298.598 125.923 298.598 126.584C298.598 127.256 298.731 127.843 298.998 128.344C299.265 128.835 299.622 129.213 300.07 129.48C300.518 129.736 301.014 129.864 301.558 129.864C302.102 129.864 302.598 129.736 303.046 129.48C303.505 129.213 303.867 128.835 304.134 128.344C304.401 127.843 304.534 127.261 304.534 126.6ZM316.018 122.232L310.738 135.128H309.234L310.962 130.904L307.426 122.232H309.042L311.794 129.336L314.514 122.232H316.018ZM320.586 131.144C319.914 131.144 319.311 131.032 318.778 130.808C318.245 130.573 317.823 130.253 317.514 129.848C317.205 129.432 317.034 128.957 317.002 128.424H318.506C318.549 128.861 318.751 129.219 319.114 129.496C319.487 129.773 319.973 129.912 320.57 129.912C321.125 129.912 321.562 129.789 321.882 129.544C322.202 129.299 322.362 128.989 322.362 128.616C322.362 128.232 322.191 127.949 321.85 127.768C321.509 127.576 320.981 127.389 320.266 127.208C319.615 127.037 319.082 126.867 318.666 126.696C318.261 126.515 317.909 126.253 317.61 125.912C317.322 125.56 317.178 125.101 317.178 124.536C317.178 124.088 317.311 123.677 317.578 123.304C317.845 122.931 318.223 122.637 318.714 122.424C319.205 122.2 319.765 122.088 320.394 122.088C321.365 122.088 322.149 122.333 322.746 122.824C323.343 123.315 323.663 123.987 323.706 124.84H322.25C322.218 124.381 322.031 124.013 321.69 123.736C321.359 123.459 320.911 123.32 320.346 123.32C319.823 123.32 319.407 123.432 319.098 123.656C318.789 123.88 318.634 124.173 318.634 124.536C318.634 124.824 318.725 125.064 318.906 125.256C319.098 125.437 319.333 125.587 319.61 125.704C319.898 125.811 320.293 125.933 320.794 126.072C321.423 126.243 321.935 126.413 322.33 126.584C322.725 126.744 323.061 126.989 323.338 127.32C323.626 127.651 323.775 128.083 323.786 128.616C323.786 129.096 323.653 129.528 323.386 129.912C323.119 130.296 322.741 130.6 322.25 130.824C321.77 131.037 321.215 131.144 320.586 131.144ZM333.643 131.112C332.907 131.112 332.246 130.984 331.659 130.728C331.083 130.461 330.63 130.099 330.299 129.64C329.968 129.171 329.798 128.632 329.787 128.024H331.339C331.392 128.547 331.606 128.989 331.979 129.352C332.363 129.704 332.918 129.88 333.643 129.88C334.336 129.88 334.88 129.709 335.275 129.368C335.68 129.016 335.883 128.568 335.883 128.024C335.883 127.597 335.766 127.251 335.531 126.984C335.296 126.717 335.003 126.515 334.651 126.376C334.299 126.237 333.824 126.088 333.227 125.928C332.491 125.736 331.899 125.544 331.451 125.352C331.014 125.16 330.635 124.861 330.315 124.456C330.006 124.04 329.851 123.485 329.851 122.792C329.851 122.184 330.006 121.645 330.315 121.176C330.624 120.707 331.056 120.344 331.611 120.088C332.176 119.832 332.822 119.704 333.547 119.704C334.592 119.704 335.446 119.965 336.107 120.488C336.779 121.011 337.158 121.704 337.243 122.568H335.643C335.59 122.141 335.366 121.768 334.971 121.448C334.576 121.117 334.054 120.952 333.403 120.952C332.795 120.952 332.299 121.112 331.915 121.432C331.531 121.741 331.339 122.179 331.339 122.744C331.339 123.149 331.451 123.48 331.675 123.736C331.91 123.992 332.192 124.189 332.523 124.328C332.864 124.456 333.339 124.605 333.947 124.776C334.683 124.979 335.275 125.181 335.723 125.384C336.171 125.576 336.555 125.88 336.875 126.296C337.195 126.701 337.355 127.256 337.355 127.96C337.355 128.504 337.211 129.016 336.923 129.496C336.635 129.976 336.208 130.365 335.643 130.664C335.078 130.963 334.411 131.112 333.643 131.112ZM338.954 126.584C338.954 125.688 339.135 124.904 339.498 124.232C339.86 123.549 340.356 123.021 340.986 122.648C341.626 122.275 342.335 122.088 343.114 122.088C343.882 122.088 344.548 122.253 345.114 122.584C345.679 122.915 346.1 123.331 346.378 123.832V122.232H347.85V131H346.378V129.368C346.09 129.88 345.658 130.307 345.082 130.648C344.516 130.979 343.855 131.144 343.098 131.144C342.319 131.144 341.615 130.952 340.986 130.568C340.356 130.184 339.86 129.645 339.498 128.952C339.135 128.259 338.954 127.469 338.954 126.584ZM346.378 126.6C346.378 125.939 346.244 125.363 345.978 124.872C345.711 124.381 345.348 124.008 344.89 123.752C344.442 123.485 343.946 123.352 343.402 123.352C342.858 123.352 342.362 123.48 341.914 123.736C341.466 123.992 341.108 124.365 340.842 124.856C340.575 125.347 340.442 125.923 340.442 126.584C340.442 127.256 340.575 127.843 340.842 128.344C341.108 128.835 341.466 129.213 341.914 129.48C342.362 129.736 342.858 129.864 343.402 129.864C343.946 129.864 344.442 129.736 344.89 129.48C345.348 129.213 345.711 128.835 345.978 128.344C346.244 127.843 346.378 127.261 346.378 126.6ZM351.766 119.16V131H350.31V119.16H351.766ZM362.248 126.28C362.248 126.557 362.232 126.851 362.2 127.16H355.192C355.245 128.024 355.538 128.701 356.072 129.192C356.616 129.672 357.272 129.912 358.04 129.912C358.669 129.912 359.192 129.768 359.608 129.48C360.034 129.181 360.333 128.787 360.504 128.296H362.072C361.837 129.139 361.368 129.827 360.664 130.36C359.96 130.883 359.085 131.144 358.04 131.144C357.208 131.144 356.461 130.957 355.8 130.584C355.149 130.211 354.637 129.683 354.264 129C353.89 128.307 353.704 127.507 353.704 126.6C353.704 125.693 353.885 124.899 354.248 124.216C354.61 123.533 355.117 123.011 355.768 122.648C356.429 122.275 357.186 122.088 358.04 122.088C358.872 122.088 359.608 122.269 360.248 122.632C360.888 122.995 361.378 123.496 361.72 124.136C362.072 124.765 362.248 125.48 362.248 126.28ZM360.744 125.976C360.744 125.421 360.621 124.947 360.376 124.552C360.13 124.147 359.794 123.843 359.368 123.64C358.952 123.427 358.488 123.32 357.976 123.32C357.24 123.32 356.61 123.555 356.088 124.024C355.576 124.493 355.282 125.144 355.208 125.976H360.744ZM367.274 131.144C366.602 131.144 365.999 131.032 365.466 130.808C364.932 130.573 364.511 130.253 364.202 129.848C363.892 129.432 363.722 128.957 363.69 128.424H365.194C365.236 128.861 365.439 129.219 365.802 129.496C366.175 129.773 366.66 129.912 367.258 129.912C367.812 129.912 368.25 129.789 368.57 129.544C368.89 129.299 369.05 128.989 369.05 128.616C369.05 128.232 368.879 127.949 368.538 127.768C368.196 127.576 367.668 127.389 366.954 127.208C366.303 127.037 365.77 126.867 365.354 126.696C364.948 126.515 364.596 126.253 364.298 125.912C364.01 125.56 363.866 125.101 363.866 124.536C363.866 124.088 363.999 123.677 364.266 123.304C364.532 122.931 364.911 122.637 365.402 122.424C365.892 122.2 366.452 122.088 367.082 122.088C368.052 122.088 368.836 122.333 369.434 122.824C370.031 123.315 370.351 123.987 370.394 124.84H368.938C368.906 124.381 368.719 124.013 368.378 123.736C368.047 123.459 367.599 123.32 367.034 123.32C366.511 123.32 366.095 123.432 365.786 123.656C365.476 123.88 365.322 124.173 365.322 124.536C365.322 124.824 365.412 125.064 365.594 125.256C365.786 125.437 366.02 125.587 366.298 125.704C366.586 125.811 366.98 125.933 367.482 126.072C368.111 126.243 368.623 126.413 369.018 126.584C369.412 126.744 369.748 126.989 370.026 127.32C370.314 127.651 370.463 128.083 370.474 128.616C370.474 129.096 370.34 129.528 370.074 129.912C369.807 130.296 369.428 130.6 368.938 130.824C368.458 131.037 367.903 131.144 367.274 131.144Z" fill="#484848"/>
<circle cx="215" cy="159" r="5" fill="#7CE993"/>
<path d="M232.688 163.816H236.592V165H231.232V153.848H232.688V163.816ZM237.594 160.584C237.594 159.688 237.776 158.904 238.138 158.232C238.501 157.549 238.997 157.021 239.626 156.648C240.266 156.275 240.976 156.088 241.754 156.088C242.522 156.088 243.189 156.253 243.754 156.584C244.32 156.915 244.741 157.331 245.018 157.832V156.232H246.49V165H245.018V163.368C244.73 163.88 244.298 164.307 243.722 164.648C243.157 164.979 242.496 165.144 241.738 165.144C240.96 165.144 240.256 164.952 239.626 164.568C238.997 164.184 238.501 163.645 238.138 162.952C237.776 162.259 237.594 161.469 237.594 160.584ZM245.018 160.6C245.018 159.939 244.885 159.363 244.618 158.872C244.352 158.381 243.989 158.008 243.53 157.752C243.082 157.485 242.586 157.352 242.042 157.352C241.498 157.352 241.002 157.48 240.554 157.736C240.106 157.992 239.749 158.365 239.482 158.856C239.216 159.347 239.082 159.923 239.082 160.584C239.082 161.256 239.216 161.843 239.482 162.344C239.749 162.835 240.106 163.213 240.554 163.48C241.002 163.736 241.498 163.864 242.042 163.864C242.586 163.864 243.082 163.736 243.53 163.48C243.989 163.213 244.352 162.835 244.618 162.344C244.885 161.843 245.018 161.261 245.018 160.6ZM252.055 165.144C251.383 165.144 250.78 165.032 250.247 164.808C249.713 164.573 249.292 164.253 248.983 163.848C248.673 163.432 248.503 162.957 248.471 162.424H249.975C250.017 162.861 250.22 163.219 250.583 163.496C250.956 163.773 251.441 163.912 252.039 163.912C252.593 163.912 253.031 163.789 253.351 163.544C253.671 163.299 253.831 162.989 253.831 162.616C253.831 162.232 253.66 161.949 253.319 161.768C252.977 161.576 252.449 161.389 251.735 161.208C251.084 161.037 250.551 160.867 250.135 160.696C249.729 160.515 249.377 160.253 249.079 159.912C248.791 159.56 248.647 159.101 248.647 158.536C248.647 158.088 248.78 157.677 249.047 157.304C249.313 156.931 249.692 156.637 250.183 156.424C250.673 156.2 251.233 156.088 251.863 156.088C252.833 156.088 253.617 156.333 254.215 156.824C254.812 157.315 255.132 157.987 255.175 158.84H253.719C253.687 158.381 253.5 158.013 253.159 157.736C252.828 157.459 252.38 157.32 251.815 157.32C251.292 157.32 250.876 157.432 250.567 157.656C250.257 157.88 250.103 158.173 250.103 158.536C250.103 158.824 250.193 159.064 250.375 159.256C250.567 159.437 250.801 159.587 251.079 159.704C251.367 159.811 251.761 159.933 252.263 160.072C252.892 160.243 253.404 160.413 253.799 160.584C254.193 160.744 254.529 160.989 254.807 161.32C255.095 161.651 255.244 162.083 255.255 162.616C255.255 163.096 255.121 163.528 254.855 163.912C254.588 164.296 254.209 164.6 253.719 164.824C253.239 165.037 252.684 165.144 252.055 165.144ZM259.086 157.432V162.6C259.086 163.027 259.177 163.331 259.358 163.512C259.539 163.683 259.854 163.768 260.302 163.768H261.374V165H260.062C259.251 165 258.643 164.813 258.238 164.44C257.833 164.067 257.63 163.453 257.63 162.6V157.432H256.494V156.232H257.63V154.024H259.086V156.232H261.374V157.432H259.086ZM279.084 156.232L276.348 165H274.844L272.732 158.04L270.62 165H269.116L266.364 156.232H267.852L269.868 163.592L272.044 156.232H273.532L275.66 163.608L277.644 156.232H279.084ZM288.529 160.28C288.529 160.557 288.513 160.851 288.481 161.16H281.473C281.526 162.024 281.82 162.701 282.353 163.192C282.897 163.672 283.553 163.912 284.321 163.912C284.95 163.912 285.473 163.768 285.889 163.48C286.316 163.181 286.614 162.787 286.785 162.296H288.353C288.118 163.139 287.649 163.827 286.945 164.36C286.241 164.883 285.366 165.144 284.321 165.144C283.489 165.144 282.742 164.957 282.081 164.584C281.43 164.211 280.918 163.683 280.545 163C280.172 162.307 279.985 161.507 279.985 160.6C279.985 159.693 280.166 158.899 280.529 158.216C280.892 157.533 281.398 157.011 282.049 156.648C282.71 156.275 283.468 156.088 284.321 156.088C285.153 156.088 285.889 156.269 286.529 156.632C287.169 156.995 287.66 157.496 288.001 158.136C288.353 158.765 288.529 159.48 288.529 160.28ZM287.025 159.976C287.025 159.421 286.902 158.947 286.657 158.552C286.412 158.147 286.076 157.843 285.649 157.64C285.233 157.427 284.769 157.32 284.257 157.32C283.521 157.32 282.892 157.555 282.369 158.024C281.857 158.493 281.564 159.144 281.489 159.976H287.025ZM298.451 160.28C298.451 160.557 298.435 160.851 298.403 161.16H291.395C291.448 162.024 291.741 162.701 292.275 163.192C292.819 163.672 293.475 163.912 294.243 163.912C294.872 163.912 295.395 163.768 295.811 163.48C296.237 163.181 296.536 162.787 296.707 162.296H298.275C298.04 163.139 297.571 163.827 296.867 164.36C296.163 164.883 295.288 165.144 294.243 165.144C293.411 165.144 292.664 164.957 292.003 164.584C291.352 164.211 290.84 163.683 290.467 163C290.093 162.307 289.907 161.507 289.907 160.6C289.907 159.693 290.088 158.899 290.451 158.216C290.813 157.533 291.32 157.011 291.971 156.648C292.632 156.275 293.389 156.088 294.243 156.088C295.075 156.088 295.811 156.269 296.451 156.632C297.091 156.995 297.581 157.496 297.923 158.136C298.275 158.765 298.451 159.48 298.451 160.28ZM296.947 159.976C296.947 159.421 296.824 158.947 296.579 158.552C296.333 158.147 295.997 157.843 295.571 157.64C295.155 157.427 294.691 157.32 294.179 157.32C293.443 157.32 292.813 157.555 292.291 158.024C291.779 158.493 291.485 159.144 291.411 159.976H296.947ZM305.269 165L301.829 161.128V165H300.373V153.16H301.829V160.12L305.205 156.232H307.237L303.109 160.6L307.253 165H305.269ZM316.409 165.112C315.673 165.112 315.011 164.984 314.425 164.728C313.849 164.461 313.395 164.099 313.065 163.64C312.734 163.171 312.563 162.632 312.553 162.024H314.105C314.158 162.547 314.371 162.989 314.745 163.352C315.129 163.704 315.683 163.88 316.409 163.88C317.102 163.88 317.646 163.709 318.041 163.368C318.446 163.016 318.649 162.568 318.649 162.024C318.649 161.597 318.531 161.251 318.297 160.984C318.062 160.717 317.769 160.515 317.417 160.376C317.065 160.237 316.59 160.088 315.993 159.928C315.257 159.736 314.665 159.544 314.217 159.352C313.779 159.16 313.401 158.861 313.081 158.456C312.771 158.04 312.617 157.485 312.617 156.792C312.617 156.184 312.771 155.645 313.081 155.176C313.39 154.707 313.822 154.344 314.377 154.088C314.942 153.832 315.587 153.704 316.313 153.704C317.358 153.704 318.211 153.965 318.873 154.488C319.545 155.011 319.923 155.704 320.009 156.568H318.409C318.355 156.141 318.131 155.768 317.737 155.448C317.342 155.117 316.819 154.952 316.169 154.952C315.561 154.952 315.065 155.112 314.681 155.432C314.297 155.741 314.105 156.179 314.105 156.744C314.105 157.149 314.217 157.48 314.441 157.736C314.675 157.992 314.958 158.189 315.289 158.328C315.63 158.456 316.105 158.605 316.713 158.776C317.449 158.979 318.041 159.181 318.489 159.384C318.937 159.576 319.321 159.88 319.641 160.296C319.961 160.701 320.121 161.256 320.121 161.96C320.121 162.504 319.977 163.016 319.689 163.496C319.401 163.976 318.974 164.365 318.409 164.664C317.843 164.963 317.177 165.112 316.409 165.112ZM321.719 160.584C321.719 159.688 321.901 158.904 322.263 158.232C322.626 157.549 323.122 157.021 323.751 156.648C324.391 156.275 325.101 156.088 325.879 156.088C326.647 156.088 327.314 156.253 327.879 156.584C328.445 156.915 328.866 157.331 329.143 157.832V156.232H330.615V165H329.143V163.368C328.855 163.88 328.423 164.307 327.847 164.648C327.282 164.979 326.621 165.144 325.863 165.144C325.085 165.144 324.381 164.952 323.751 164.568C323.122 164.184 322.626 163.645 322.263 162.952C321.901 162.259 321.719 161.469 321.719 160.584ZM329.143 160.6C329.143 159.939 329.01 159.363 328.743 158.872C328.477 158.381 328.114 158.008 327.655 157.752C327.207 157.485 326.711 157.352 326.167 157.352C325.623 157.352 325.127 157.48 324.679 157.736C324.231 157.992 323.874 158.365 323.607 158.856C323.341 159.347 323.207 159.923 323.207 160.584C323.207 161.256 323.341 161.843 323.607 162.344C323.874 162.835 324.231 163.213 324.679 163.48C325.127 163.736 325.623 163.864 326.167 163.864C326.711 163.864 327.207 163.736 327.655 163.48C328.114 163.213 328.477 162.835 328.743 162.344C329.01 161.843 329.143 161.261 329.143 160.6ZM334.532 153.16V165H333.076V153.16H334.532ZM345.013 160.28C345.013 160.557 344.997 160.851 344.965 161.16H337.957C338.011 162.024 338.304 162.701 338.837 163.192C339.381 163.672 340.037 163.912 340.805 163.912C341.435 163.912 341.957 163.768 342.373 163.48C342.8 163.181 343.099 162.787 343.269 162.296H344.837C344.603 163.139 344.133 163.827 343.429 164.36C342.725 164.883 341.851 165.144 340.805 165.144C339.973 165.144 339.227 164.957 338.565 164.584C337.915 164.211 337.403 163.683 337.029 163C336.656 162.307 336.469 161.507 336.469 160.6C336.469 159.693 336.651 158.899 337.013 158.216C337.376 157.533 337.883 157.011 338.533 156.648C339.195 156.275 339.952 156.088 340.805 156.088C341.637 156.088 342.373 156.269 343.013 156.632C343.653 156.995 344.144 157.496 344.485 158.136C344.837 158.765 345.013 159.48 345.013 160.28ZM343.509 159.976C343.509 159.421 343.387 158.947 343.141 158.552C342.896 158.147 342.56 157.843 342.133 157.64C341.717 157.427 341.253 157.32 340.741 157.32C340.005 157.32 339.376 157.555 338.853 158.024C338.341 158.493 338.048 159.144 337.973 159.976H343.509ZM350.039 165.144C349.367 165.144 348.764 165.032 348.231 164.808C347.698 164.573 347.276 164.253 346.967 163.848C346.658 163.432 346.487 162.957 346.455 162.424H347.959C348.002 162.861 348.204 163.219 348.567 163.496C348.94 163.773 349.426 163.912 350.023 163.912C350.578 163.912 351.015 163.789 351.335 163.544C351.655 163.299 351.815 162.989 351.815 162.616C351.815 162.232 351.644 161.949 351.303 161.768C350.962 161.576 350.434 161.389 349.719 161.208C349.068 161.037 348.535 160.867 348.119 160.696C347.714 160.515 347.362 160.253 347.063 159.912C346.775 159.56 346.631 159.101 346.631 158.536C346.631 158.088 346.764 157.677 347.031 157.304C347.298 156.931 347.676 156.637 348.167 156.424C348.658 156.2 349.218 156.088 349.847 156.088C350.818 156.088 351.602 156.333 352.199 156.824C352.796 157.315 353.116 157.987 353.159 158.84H351.703C351.671 158.381 351.484 158.013 351.143 157.736C350.812 157.459 350.364 157.32 349.799 157.32C349.276 157.32 348.86 157.432 348.551 157.656C348.242 157.88 348.087 158.173 348.087 158.536C348.087 158.824 348.178 159.064 348.359 159.256C348.551 159.437 348.786 159.587 349.063 159.704C349.351 159.811 349.746 159.933 350.247 160.072C350.876 160.243 351.388 160.413 351.783 160.584C352.178 160.744 352.514 160.989 352.791 161.32C353.079 161.651 353.228 162.083 353.239 162.616C353.239 163.096 353.106 163.528 352.839 163.912C352.572 164.296 352.194 164.6 351.703 164.824C351.223 165.037 350.668 165.144 350.039 165.144Z" fill="#484848"/>
</svg>
