<svg width="511" height="500" viewBox="0 0 511 500" fill="none" xmlns="http://www.w3.org/2000/svg">
<g clip-path="url(#clip0_233_2623)">
<rect width="510.972" height="500" fill="white"/>
<path d="M62.99 78.054H54.606L53.262 82.022H47.534L55.662 59.558H61.998L70.126 82.022H64.334L62.99 78.054ZM61.582 73.83L58.798 65.606L56.046 73.83H61.582ZM71.5117 73.094C71.5117 71.238 71.8851 69.6166 72.6317 68.23C73.3997 66.8433 74.4557 65.7766 75.7997 65.03C77.1651 64.2833 78.7224 63.91 80.4717 63.91C82.7117 63.91 84.5784 64.4966 86.0717 65.67C87.5864 66.8433 88.5784 68.4966 89.0477 70.63H83.2237C82.7331 69.2646 81.7837 68.582 80.3757 68.582C79.3731 68.582 78.5731 68.9766 77.9757 69.766C77.3784 70.534 77.0797 71.6433 77.0797 73.094C77.0797 74.5446 77.3784 75.6646 77.9757 76.454C78.5731 77.222 79.3731 77.606 80.3757 77.606C81.7837 77.606 82.7331 76.9233 83.2237 75.558H89.0477C88.5784 77.6486 87.5864 79.2913 86.0717 80.486C84.5571 81.6806 82.6904 82.278 80.4717 82.278C78.7224 82.278 77.1651 81.9046 75.7997 81.158C74.4557 80.4113 73.3997 79.3446 72.6317 77.958C71.8851 76.5713 71.5117 74.95 71.5117 73.094ZM101.927 77.382V82.022H99.1427C97.1587 82.022 95.6121 81.542 94.5027 80.582C93.3934 79.6006 92.8387 78.0113 92.8387 75.814V68.71H90.6627V64.166H92.8387V59.814H98.3107V64.166H101.895V68.71H98.3107V75.878C98.3107 76.4113 98.4387 76.7953 98.6947 77.03C98.9507 77.2646 99.3774 77.382 99.9747 77.382H101.927ZM107.727 62.31C106.767 62.31 105.977 62.0326 105.359 61.478C104.761 60.902 104.463 60.198 104.463 59.366C104.463 58.5126 104.761 57.8086 105.359 57.254C105.977 56.678 106.767 56.39 107.727 56.39C108.665 56.39 109.433 56.678 110.031 57.254C110.649 57.8086 110.959 58.5126 110.959 59.366C110.959 60.198 110.649 60.902 110.031 61.478C109.433 62.0326 108.665 62.31 107.727 62.31ZM110.447 64.166V82.022H104.975V64.166H110.447ZM122.444 76.902L126.316 64.166H132.14L125.804 82.022H119.052L112.716 64.166H118.572L122.444 76.902ZM137.195 62.31C136.235 62.31 135.446 62.0326 134.827 61.478C134.23 60.902 133.931 60.198 133.931 59.366C133.931 58.5126 134.23 57.8086 134.827 57.254C135.446 56.678 136.235 56.39 137.195 56.39C138.134 56.39 138.902 56.678 139.499 57.254C140.118 57.8086 140.427 58.5126 140.427 59.366C140.427 60.198 140.118 60.902 139.499 61.478C138.902 62.0326 138.134 62.31 137.195 62.31ZM139.915 64.166V82.022H134.443V64.166H139.915ZM153.833 77.382V82.022H151.049C149.065 82.022 147.518 81.542 146.409 80.582C145.3 79.6006 144.745 78.0113 144.745 75.814V68.71H142.569V64.166H144.745V59.814H150.217V64.166H153.801V68.71H150.217V75.878C150.217 76.4113 150.345 76.7953 150.601 77.03C150.857 77.2646 151.284 77.382 151.881 77.382H153.833ZM175.121 64.166L163.921 90.502H158.033L162.129 81.414L154.865 64.166H160.977L165.105 75.334L169.201 64.166H175.121Z" fill="#1D1F17"/>
<g filter="url(#filter0_b_233_2623)">
<circle cx="376.765" cy="71.022" r="23.511" fill="#A3E7AC"/>
</g>
<path d="M383.702 79.1855H369.824" stroke="#1D1F17" stroke-width="1.46944" stroke-miterlimit="10" stroke-linecap="round" stroke-linejoin="round"/>
<path d="M382.478 64.0829L371.049 75.5119" stroke="#1D1F17" stroke-width="1.46944" stroke-miterlimit="10" stroke-linecap="round" stroke-linejoin="round"/>
<path d="M382.478 72.4669V64.0829H374.094" stroke="#1D1F17" stroke-width="1.46944" stroke-miterlimit="10" stroke-linecap="round" stroke-linejoin="round"/>
<path d="M417.174 77.27C419.206 75.638 420.798 74.302 421.95 73.262C423.102 72.206 424.07 71.11 424.854 69.974C425.654 68.822 426.054 67.694 426.054 66.59C426.054 65.55 425.798 64.734 425.286 64.142C424.79 63.534 423.982 63.23 422.862 63.23C421.774 63.23 420.926 63.574 420.318 64.262C419.726 64.934 419.406 65.838 419.358 66.974H417.246C417.31 65.182 417.854 63.798 418.878 62.822C419.902 61.846 421.222 61.358 422.838 61.358C424.486 61.358 425.79 61.814 426.75 62.726C427.726 63.638 428.214 64.894 428.214 66.494C428.214 67.822 427.814 69.118 427.014 70.382C426.23 71.63 425.334 72.734 424.326 73.694C423.318 74.638 422.03 75.742 420.462 77.006H428.718V78.83H417.174V77.27ZM430.714 75.158V73.502L439.138 61.838H441.754V73.262H444.154V75.158H441.754V79.022H439.594V75.158H430.714ZM439.69 64.118L433.234 73.262H439.69V64.118ZM445.856 65.582C445.856 64.494 446.184 63.63 446.84 62.99C447.496 62.334 448.336 62.006 449.36 62.006C450.384 62.006 451.224 62.334 451.88 62.99C452.536 63.63 452.864 64.494 452.864 65.582C452.864 66.686 452.536 67.566 451.88 68.222C451.224 68.862 450.384 69.182 449.36 69.182C448.336 69.182 447.496 68.862 446.84 68.222C446.184 67.566 445.856 66.686 445.856 65.582ZM459.872 62.27L450.152 79.022H447.992L457.712 62.27H459.872ZM449.36 63.35C448.816 63.35 448.384 63.542 448.064 63.926C447.76 64.294 447.608 64.846 447.608 65.582C447.608 66.318 447.76 66.878 448.064 67.262C448.384 67.646 448.816 67.838 449.36 67.838C449.904 67.838 450.336 67.646 450.656 67.262C450.976 66.862 451.136 66.302 451.136 65.582C451.136 64.846 450.976 64.294 450.656 63.926C450.336 63.542 449.904 63.35 449.36 63.35ZM455.048 75.71C455.048 74.606 455.376 73.734 456.032 73.094C456.688 72.438 457.528 72.11 458.552 72.11C459.576 72.11 460.408 72.438 461.048 73.094C461.704 73.734 462.032 74.606 462.032 75.71C462.032 76.798 461.704 77.67 461.048 78.326C460.408 78.982 459.576 79.31 458.552 79.31C457.528 79.31 456.688 78.99 456.032 78.35C455.376 77.694 455.048 76.814 455.048 75.71ZM458.528 73.478C457.984 73.478 457.552 73.67 457.232 74.054C456.912 74.422 456.752 74.974 456.752 75.71C456.752 76.43 456.912 76.982 457.232 77.366C457.552 77.734 457.984 77.918 458.528 77.918C459.072 77.918 459.504 77.734 459.824 77.366C460.144 76.982 460.304 76.43 460.304 75.71C460.304 74.974 460.144 74.422 459.824 74.054C459.504 73.67 459.072 73.478 458.528 73.478Z" fill="#1D1F17"/>
<path d="M48.1505 169.044V167.069C50.1818 165.395 51.8746 163.928 53.2289 162.668C54.6019 161.408 55.6928 160.288 56.5016 159.31C57.3292 158.332 57.9123 157.439 58.2508 156.63C58.6082 155.803 58.7869 154.994 58.7869 154.204C58.7869 153.038 58.4389 152.125 57.743 151.467C57.0471 150.809 56.0878 150.48 54.8652 150.48C53.605 150.48 52.5894 150.837 51.8182 151.552C51.0471 152.267 50.5768 153.292 50.4076 154.627H47.9812C48.1693 152.784 48.8746 151.298 50.0972 150.169C51.3386 149.022 52.9844 148.448 55.0345 148.448C56.9342 148.448 58.4483 148.956 59.5768 149.972C60.7054 150.988 61.2696 152.379 61.2696 154.147C61.2696 155.107 61.0815 156.066 60.7054 157.025C60.348 157.984 59.7461 158.991 58.8997 160.044C58.0721 161.097 56.9718 162.263 55.5988 163.542C54.2445 164.803 52.5612 166.232 50.5486 167.831L50.0126 167.013H61.6082V169.044H48.1505ZM72.1767 169.326C70.5779 169.326 69.1767 168.884 67.9729 168C66.7879 167.097 65.8569 165.856 65.1798 164.276C64.5215 162.677 64.1923 160.853 64.1923 158.803C64.1923 156.752 64.5215 154.956 65.1798 153.414C65.8381 151.853 66.7691 150.64 67.9729 149.774C69.1767 148.89 70.5779 148.448 72.1767 148.448C73.7754 148.448 75.1673 148.89 76.3522 149.774C77.556 150.64 78.487 151.853 79.1453 153.414C79.8224 154.956 80.161 156.752 80.161 158.803C80.161 160.872 79.8224 162.696 79.1453 164.276C78.487 165.856 77.556 167.097 76.3522 168C75.1673 168.884 73.7754 169.326 72.1767 169.326ZM72.1767 167.295C73.324 167.295 74.302 166.956 75.1108 166.279C75.9196 165.583 76.5403 164.605 76.9729 163.345C77.4055 162.066 77.6218 160.542 77.6218 158.774C77.6218 157.025 77.4055 155.53 76.9729 154.288C76.5591 153.047 75.9478 152.107 75.139 151.467C74.3303 150.809 73.3428 150.48 72.1767 150.48C71.0105 150.48 70.0231 150.809 69.2143 151.467C68.4055 152.125 67.7848 153.075 67.3522 154.317C66.9384 155.539 66.7315 157.025 66.7315 158.774C66.7315 160.542 66.9478 162.066 67.3804 163.345C67.813 164.624 68.4337 165.602 69.2425 166.279C70.0513 166.956 71.0293 167.295 72.1767 167.295ZM83.8291 169.044V148.73H86.0862V169.044H83.8291ZM94.1269 169.044V159.621C94.1269 158.53 93.8542 157.712 93.3088 157.166C92.7633 156.621 91.9545 156.348 90.8824 156.348C89.942 156.348 89.105 156.555 88.3715 156.969C87.6567 157.383 87.0925 157.956 86.6787 158.69C86.2837 159.423 86.0862 160.279 86.0862 161.257L85.7194 157.843C86.2084 156.771 86.9514 155.925 87.9483 155.304C88.9639 154.683 90.1113 154.373 91.3903 154.373C92.895 154.373 94.0987 154.806 95.0015 155.671C95.9232 156.517 96.384 157.636 96.384 159.028V169.044H94.1269Z" fill="black" fill-opacity="0.5"/>
<path d="M53.3699 266.384V248.384L53.9624 248.525C53.7367 249.032 53.3041 249.54 52.6646 250.048C52.0251 250.556 51.2822 250.998 50.4358 251.374C49.6082 251.75 48.7524 252.004 47.8684 252.136V249.963C48.7524 249.813 49.5988 249.55 50.4076 249.174C51.2163 248.797 51.9311 248.346 52.5518 247.819C53.1913 247.274 53.6615 246.691 53.9624 246.07H55.627V266.384H53.3699ZM65.9779 266.666C63.9654 266.666 62.3572 266.13 61.1535 265.058C59.9497 263.967 59.2162 262.556 58.9528 260.826H61.4356C61.6801 262.048 62.1973 262.989 62.9873 263.647C63.7961 264.305 64.7742 264.634 65.9215 264.634C67.1252 264.634 68.1409 264.258 68.9685 263.506C69.8149 262.753 70.2381 261.559 70.2381 259.923C70.2381 258.286 69.8149 257.064 68.9685 256.255C68.1409 255.427 67.0876 255.014 65.8086 255.014C64.887 255.014 64.0876 255.202 63.4105 255.578C62.7334 255.954 62.282 256.396 62.0563 256.904H59.9685L60.8995 246.07H71.6205V248.101H62.282L63.072 247.255L62.4231 255.437L61.887 255.239C62.2256 254.675 62.771 254.186 63.5234 253.772C64.2757 253.358 65.1973 253.152 66.2883 253.152C67.5484 253.152 68.6582 253.424 69.6174 253.97C70.5955 254.515 71.3572 255.296 71.9027 256.311C72.4669 257.308 72.7491 258.512 72.7491 259.923C72.7491 261.333 72.4669 262.547 71.9027 263.562C71.3572 264.559 70.5767 265.33 69.561 265.876C68.5641 266.402 67.3698 266.666 65.9779 266.666ZM76.1973 266.384V246.07H78.4543V266.384H76.1973ZM86.4951 266.384V256.96C86.4951 255.869 86.2223 255.051 85.6769 254.506C85.1314 253.96 84.3226 253.688 83.2505 253.688C82.3101 253.688 81.4731 253.895 80.7396 254.308C80.0248 254.722 79.4606 255.296 79.0468 256.029C78.6518 256.763 78.4543 257.619 78.4543 258.597L78.0875 255.183C78.5766 254.111 79.3195 253.264 80.3164 252.644C81.332 252.023 82.4794 251.713 83.7584 251.713C85.2631 251.713 86.4668 252.145 87.3697 253.011C88.2913 253.857 88.7521 254.976 88.7521 256.368V266.384H86.4951Z" fill="black" fill-opacity="0.5"/>
<path d="M53.3699 363.723V345.723L53.9624 345.864C53.7367 346.372 53.3041 346.88 52.6646 347.388C52.0251 347.896 51.2822 348.338 50.4358 348.714C49.6082 349.09 48.7524 349.344 47.8684 349.475V347.303C48.7524 347.153 49.5988 346.889 50.4076 346.513C51.2163 346.137 51.9311 345.686 52.5518 345.159C53.1913 344.613 53.6615 344.03 53.9624 343.41H55.627V363.723H53.3699ZM67.4377 364.005C65.839 364.005 64.4377 363.563 63.234 362.679C62.049 361.776 61.118 360.535 60.4409 358.955C59.7826 357.356 59.4534 355.532 59.4534 353.482C59.4534 351.432 59.7826 349.635 60.4409 348.093C61.0992 346.532 62.0302 345.319 63.234 344.454C64.4377 343.57 65.839 343.128 67.4377 343.128C69.0365 343.128 70.4283 343.57 71.6133 344.454C72.817 345.319 73.7481 346.532 74.4064 348.093C75.0835 349.635 75.4221 351.432 75.4221 353.482C75.4221 355.551 75.0835 357.375 74.4064 358.955C73.7481 360.535 72.817 361.776 71.6133 362.679C70.4283 363.563 69.0365 364.005 67.4377 364.005ZM67.4377 361.974C68.5851 361.974 69.5631 361.635 70.3719 360.958C71.1807 360.262 71.8014 359.284 72.234 358.024C72.6666 356.745 72.8829 355.222 72.8829 353.454C72.8829 351.704 72.6666 350.209 72.234 348.968C71.8202 347.726 71.2089 346.786 70.4001 346.146C69.5913 345.488 68.6039 345.159 67.4377 345.159C66.2716 345.159 65.2841 345.488 64.4753 346.146C63.6666 346.805 63.0459 347.754 62.6133 348.996C62.1995 350.218 61.9926 351.704 61.9926 353.454C61.9926 355.222 62.2089 356.745 62.6415 358.024C63.0741 359.303 63.6948 360.281 64.5036 360.958C65.3123 361.635 66.2904 361.974 67.4377 361.974ZM79.0902 363.723V343.41H81.3473V363.723H79.0902ZM89.388 363.723V354.3C89.388 353.209 89.1153 352.391 88.5698 351.845C88.0244 351.3 87.2156 351.027 86.1435 351.027C85.2031 351.027 84.3661 351.234 83.6325 351.648C82.9178 352.062 82.3535 352.635 81.9397 353.369C81.5447 354.102 81.3473 354.958 81.3473 355.936L80.9805 352.523C81.4695 351.45 82.2125 350.604 83.2093 349.983C84.225 349.363 85.3723 349.052 86.6513 349.052C88.156 349.052 89.3598 349.485 90.2626 350.35C91.1842 351.196 91.6451 352.316 91.6451 353.707V363.723H89.388Z" fill="black" fill-opacity="0.5"/>
<path d="M55.2602 461.345C53.2477 461.345 51.6395 460.809 50.4358 459.737C49.232 458.646 48.4985 457.235 48.2351 455.505H50.7179C50.9624 456.727 51.4797 457.668 52.2696 458.326C53.0784 458.984 54.0565 459.314 55.2038 459.314C56.4076 459.314 57.4232 458.937 58.2508 458.185C59.0972 457.433 59.5204 456.238 59.5204 454.602C59.5204 452.966 59.0972 451.743 58.2508 450.934C57.4232 450.107 56.3699 449.693 55.0909 449.693C54.1693 449.693 53.3699 449.881 52.6928 450.257C52.0157 450.633 51.5643 451.075 51.3386 451.583H49.2508L50.1818 440.749H60.9029V442.781H51.5643L52.3543 441.934L51.7054 450.116L51.1693 449.919C51.5079 449.354 52.0533 448.865 52.8057 448.451C53.558 448.038 54.4797 447.831 55.5706 447.831C56.8307 447.831 57.9405 448.103 58.8997 448.649C59.8778 449.194 60.6395 449.975 61.185 450.991C61.7492 451.988 62.0314 453.191 62.0314 454.602C62.0314 456.013 61.7492 457.226 61.185 458.241C60.6395 459.238 59.859 460.009 58.8433 460.555C57.8464 461.082 56.6521 461.345 55.2602 461.345ZM65.4796 461.063V440.749H67.7366V461.063H65.4796ZM75.7774 461.063V451.64C75.7774 450.549 75.5046 449.73 74.9592 449.185C74.4137 448.64 73.6049 448.367 72.5328 448.367C71.5924 448.367 70.7554 448.574 70.0219 448.988C69.3071 449.401 68.7429 449.975 68.3291 450.709C67.9341 451.442 67.7366 452.298 67.7366 453.276L67.3698 449.862C67.8589 448.79 68.6018 447.944 69.5987 447.323C70.6144 446.702 71.7617 446.392 73.0407 446.392C74.5454 446.392 75.7491 446.824 76.652 447.69C77.5736 448.536 78.0344 449.655 78.0344 451.047V461.063H75.7774Z" fill="black" fill-opacity="0.5"/>
<line x1="115.988" y1="141.26" x2="464.718" y2="141.26" stroke="black" stroke-opacity="0.2" stroke-width="1.5674" stroke-dasharray="6.27 6.27"/>
<line x1="115.988" y1="251.267" x2="464.718" y2="251.267" stroke="black" stroke-opacity="0.2" stroke-width="1.5674" stroke-dasharray="6.27 6.27"/>
<line x1="115.988" y1="359.273" x2="464.718" y2="359.273" stroke="black" stroke-opacity="0.2" stroke-width="1.5674" stroke-dasharray="6.27 6.27"/>
<line x1="115.988" y1="467.279" x2="464.718" y2="467.279" stroke="black" stroke-opacity="0.2" stroke-width="1.5674" stroke-dasharray="6.27 6.27"/>
<rect x="115.988" y="211.391" width="27.582" height="180.121" rx="13.791" fill="#E8C1E3"/>
<rect x="180.181" y="182.571" width="27.582" height="237.76" rx="13.791" fill="#E8C1E3"/>
<rect x="243.779" y="142.044" width="27.582" height="326.019" rx="13.791" fill="#FFD500"/>
<rect x="308.574" y="222.198" width="27.582" height="158.506" rx="13.791" fill="#E8C1E3"/>
<rect x="372.77" y="194.279" width="27.582" height="214.344" rx="13.791" fill="#E8C1E3"/>
<rect x="436.368" y="251.918" width="27.582" height="108.073" rx="13.791" fill="#E8C1E3"/>
</g>
<defs>
<filter id="filter0_b_233_2623" x="255.292" y="-50.4514" width="242.947" height="242.947" filterUnits="userSpaceOnUse" color-interpolation-filters="sRGB">
<feFlood flood-opacity="0" result="BackgroundImageFix"/>
<feGaussianBlur in="BackgroundImageFix" stdDeviation="48.9812"/>
<feComposite in2="SourceAlpha" operator="in" result="effect1_backgroundBlur_233_2623"/>
<feBlend mode="normal" in="SourceGraphic" in2="effect1_backgroundBlur_233_2623" result="shape"/>
</filter>
<clipPath id="clip0_233_2623">
<rect width="510.972" height="500" fill="white"/>
</clipPath>
</defs>
</svg>
