<svg width="507" height="332" viewBox="0 0 507 332" fill="none" xmlns="http://www.w3.org/2000/svg">
<g clip-path="url(#clip0_580_762)">
<rect width="507" height="332" rx="16" fill="white"/>
<g clip-path="url(#clip1_580_762)">
<path d="M47.7833 281.386V280.154C46.0193 280.056 44.8293 279.048 44.7173 277.508H45.7533C45.8093 278.488 46.5793 279.146 47.7833 279.244V275.352L47.2373 275.212C45.6693 274.834 44.8433 273.952 44.8433 272.58C44.8433 271.026 46.0053 269.948 47.7833 269.808V268.59H48.5253V269.808C50.1493 269.92 51.2133 270.9 51.3533 272.482H50.3453C50.2473 271.432 49.6033 270.816 48.5253 270.704V274.554L49.1413 274.708C50.7233 275.1 51.5213 275.982 51.5213 277.326C51.5213 278.936 50.3593 280.014 48.5253 280.154V281.386H47.7833ZM47.4193 274.288L47.7833 274.372V270.718C46.5933 270.844 45.8373 271.544 45.8373 272.566C45.8373 273.448 46.3553 274.022 47.4193 274.288ZM48.9313 275.632L48.5253 275.534V279.244C49.7573 279.118 50.5273 278.418 50.5273 277.382C50.5273 276.472 50.0093 275.884 48.9313 275.632ZM52.986 274.988C52.986 271.88 54.512 269.78 57.004 269.78C59.482 269.78 61.008 271.88 61.008 274.988C61.008 278.11 59.51 280.182 57.004 280.182C54.484 280.182 52.986 278.11 52.986 274.988ZM53.98 274.988C53.98 277.592 55.086 279.272 57.004 279.272C58.922 279.272 60.028 277.592 60.028 274.988C60.028 272.37 58.922 270.704 57.004 270.704C55.086 270.704 53.98 272.37 53.98 274.988Z" fill="#484848"/>
<rect x="82" y="275" width="388" height="1" fill="#E0DFE5"/>
</g>
<g clip-path="url(#clip2_580_762)">
<path d="M31.7126 242.386V241.154C29.9486 241.056 28.7586 240.048 28.6466 238.508H29.6826C29.7386 239.488 30.5086 240.146 31.7126 240.244V236.352L31.1666 236.212C29.5986 235.834 28.7726 234.952 28.7726 233.58C28.7726 232.026 29.9346 230.948 31.7126 230.808V229.59H32.4546V230.808C34.0786 230.92 35.1426 231.9 35.2826 233.482H34.2746C34.1766 232.432 33.5326 231.816 32.4546 231.704V235.554L33.0706 235.708C34.6526 236.1 35.4506 236.982 35.4506 238.326C35.4506 239.936 34.2886 241.014 32.4546 241.154V242.386H31.7126ZM31.3486 235.288L31.7126 235.372V231.718C30.5226 231.844 29.7666 232.544 29.7666 233.566C29.7666 234.448 30.2846 235.022 31.3486 235.288ZM32.8606 236.632L32.4546 236.534V240.244C33.6866 240.118 34.4566 239.418 34.4566 238.382C34.4566 237.472 33.9386 236.884 32.8606 236.632ZM43.3833 241H36.7753V240.202L39.9813 237.402C41.8293 235.792 42.3053 235.092 42.3053 233.902C42.3053 232.544 41.4933 231.718 40.1633 231.718C38.7773 231.718 37.8673 232.726 37.8253 234.28H36.8173C36.8733 232.18 38.2033 230.794 40.1773 230.794C42.0673 230.794 43.3273 232.012 43.3273 233.846C43.3273 235.302 42.6693 236.268 40.6673 238.018L38.3293 240.062H43.3833V241ZM48.0846 241.168C46.0686 241.168 44.7806 239.908 44.7806 237.934H45.7886C45.7886 239.376 46.6706 240.244 48.0986 240.244C49.6106 240.244 50.5906 239.236 50.5906 237.752C50.5906 236.352 49.6806 235.246 48.0986 235.246C47.1746 235.246 46.3346 235.666 45.7886 236.268L44.9906 236.016L46.1946 230.976H51.0386V231.9H46.9226L46.1666 235.05C46.7266 234.602 47.4546 234.35 48.2386 234.35C50.3246 234.35 51.6126 235.848 51.6126 237.724C51.6126 239.74 50.1846 241.168 48.0846 241.168ZM53.0567 235.988C53.0567 232.88 54.5827 230.78 57.0747 230.78C59.5527 230.78 61.0787 232.88 61.0787 235.988C61.0787 239.11 59.5807 241.182 57.0747 241.182C54.5547 241.182 53.0567 239.11 53.0567 235.988ZM54.0507 235.988C54.0507 238.592 55.1567 240.272 57.0747 240.272C58.9927 240.272 60.0987 238.592 60.0987 235.988C60.0987 233.37 58.9927 231.704 57.0747 231.704C55.1567 231.704 54.0507 233.37 54.0507 235.988Z" fill="#484848"/>
<rect x="82" y="236" width="388" height="1" fill="#E0DFE5"/>
</g>
<g clip-path="url(#clip3_580_762)">
<path d="M29.824 203.386V202.154C28.06 202.056 26.87 201.048 26.758 199.508H27.794C27.85 200.488 28.62 201.146 29.824 201.244V197.352L29.278 197.212C27.71 196.834 26.884 195.952 26.884 194.58C26.884 193.026 28.046 191.948 29.824 191.808V190.59H30.566V191.808C32.19 191.92 33.254 192.9 33.394 194.482H32.386C32.288 193.432 31.644 192.816 30.566 192.704V196.554L31.182 196.708C32.764 197.1 33.562 197.982 33.562 199.326C33.562 200.936 32.4 202.014 30.566 202.154V203.386H29.824ZM29.46 196.288L29.824 196.372V192.718C28.634 192.844 27.878 193.544 27.878 194.566C27.878 195.448 28.396 196.022 29.46 196.288ZM30.972 197.632L30.566 197.534V201.244C31.798 201.118 32.568 200.418 32.568 199.382C32.568 198.472 32.05 197.884 30.972 197.632ZM38.3166 202.168C36.3006 202.168 35.0126 200.908 35.0126 198.934H36.0206C36.0206 200.376 36.9026 201.244 38.3306 201.244C39.8426 201.244 40.8226 200.236 40.8226 198.752C40.8226 197.352 39.9126 196.246 38.3306 196.246C37.4066 196.246 36.5666 196.666 36.0206 197.268L35.2226 197.016L36.4266 191.976H41.2706V192.9H37.1546L36.3986 196.05C36.9586 195.602 37.6866 195.35 38.4706 195.35C40.5566 195.35 41.8446 196.848 41.8446 198.724C41.8446 200.74 40.4166 202.168 38.3166 202.168ZM43.2888 196.988C43.2888 193.88 44.8148 191.78 47.3068 191.78C49.7848 191.78 51.3108 193.88 51.3108 196.988C51.3108 200.11 49.8128 202.182 47.3068 202.182C44.7868 202.182 43.2888 200.11 43.2888 196.988ZM44.2828 196.988C44.2828 199.592 45.3888 201.272 47.3068 201.272C49.2248 201.272 50.3308 199.592 50.3308 196.988C50.3308 194.37 49.2248 192.704 47.3068 192.704C45.3888 192.704 44.2828 194.37 44.2828 196.988ZM52.9454 196.988C52.9454 193.88 54.4714 191.78 56.9634 191.78C59.4414 191.78 60.9674 193.88 60.9674 196.988C60.9674 200.11 59.4694 202.182 56.9634 202.182C54.4434 202.182 52.9454 200.11 52.9454 196.988ZM53.9394 196.988C53.9394 199.592 55.0454 201.272 56.9634 201.272C58.8814 201.272 59.9874 199.592 59.9874 196.988C59.9874 194.37 58.8814 192.704 56.9634 192.704C55.0454 192.704 53.9394 194.37 53.9394 196.988Z" fill="#484848"/>
<rect x="82" y="197" width="388" height="1" fill="#E0DFE5"/>
</g>
<g clip-path="url(#clip4_580_762)">
<rect x="82" y="158" width="388" height="1" fill="#E0DFE5"/>
<path d="M32.698 164.386V163.154C30.934 163.056 29.744 162.048 29.632 160.508H30.668C30.724 161.488 31.494 162.146 32.698 162.244V158.352L32.152 158.212C30.584 157.834 29.758 156.952 29.758 155.58C29.758 154.026 30.92 152.948 32.698 152.808V151.59H33.44V152.808C35.064 152.92 36.128 153.9 36.268 155.482H35.26C35.162 154.432 34.518 153.816 33.44 153.704V157.554L34.056 157.708C35.638 158.1 36.436 158.982 36.436 160.326C36.436 161.936 35.274 163.014 33.44 163.154V164.386H32.698ZM32.334 157.288L32.698 157.372V153.718C31.508 153.844 30.752 154.544 30.752 155.566C30.752 156.448 31.27 157.022 32.334 157.288ZM33.846 158.632L33.44 158.534V162.244C34.672 162.118 35.442 161.418 35.442 160.382C35.442 159.472 34.924 158.884 33.846 158.632ZM37.2567 152.976H44.0747V153.9L40.1267 163H39.0907L43.0527 153.9H37.2567V152.976ZM48.0993 163.168C46.0833 163.168 44.7953 161.908 44.7953 159.934H45.8033C45.8033 161.376 46.6853 162.244 48.1133 162.244C49.6253 162.244 50.6053 161.236 50.6053 159.752C50.6053 158.352 49.6953 157.246 48.1133 157.246C47.1893 157.246 46.3493 157.666 45.8033 158.268L45.0053 158.016L46.2093 152.976H51.0533V153.9H46.9373L46.1813 157.05C46.7413 156.602 47.4693 156.35 48.2533 156.35C50.3393 156.35 51.6273 157.848 51.6273 159.724C51.6273 161.74 50.1993 163.168 48.0993 163.168ZM53.0714 157.988C53.0714 154.88 54.5974 152.78 57.0894 152.78C59.5674 152.78 61.0934 154.88 61.0934 157.988C61.0934 161.11 59.5954 163.182 57.0894 163.182C54.5694 163.182 53.0714 161.11 53.0714 157.988ZM54.0654 157.988C54.0654 160.592 55.1714 162.272 57.0894 162.272C59.0074 162.272 60.1134 160.592 60.1134 157.988C60.1134 155.37 59.0074 153.704 57.0894 153.704C55.1714 153.704 54.0654 155.37 54.0654 157.988Z" fill="#484848"/>
</g>
<g clip-path="url(#clip5_580_762)">
<rect x="82" y="119" width="388" height="1" fill="#E0DFE5"/>
<path d="M45.7968 125.386V124.154C44.0328 124.056 42.8428 123.048 42.7308 121.508H43.7668C43.8228 122.488 44.5928 123.146 45.7968 123.244V119.352L45.2508 119.212C43.6828 118.834 42.8568 117.952 42.8568 116.58C42.8568 115.026 44.0188 113.948 45.7968 113.808V112.59H46.5388V113.808C48.1628 113.92 49.2268 114.9 49.3668 116.482H48.3588C48.2608 115.432 47.6168 114.816 46.5388 114.704V118.554L47.1548 118.708C48.7368 119.1 49.5348 119.982 49.5348 121.326C49.5348 122.936 48.3728 124.014 46.5388 124.154V125.386H45.7968ZM45.4328 118.288L45.7968 118.372V114.718C44.6068 114.844 43.8508 115.544 43.8508 116.566C43.8508 117.448 44.3688 118.022 45.4328 118.288ZM46.9448 119.632L46.5388 119.534V123.244C47.7708 123.118 48.5408 122.418 48.5408 121.382C48.5408 120.472 48.0228 119.884 46.9448 119.632ZM52.7635 114.886H50.7195V113.976H53.7295V124H52.7635V114.886ZM57.0213 124H56.0553V113.794H57.0213V120.724L60.3813 117.224H61.5993L58.9953 119.926L61.6133 124H60.4933L58.3373 120.612L57.0213 121.97V124Z" fill="#484848"/>
</g>
<g clip-path="url(#clip6_580_762)">
<rect x="260" y="32" width="10" height="12" rx="5" fill="#1D1F17"/>
<path d="M282.716 42.084C281.94 42.084 281.232 41.904 280.592 41.544C279.952 41.176 279.444 40.668 279.068 40.02C278.7 39.364 278.516 38.628 278.516 37.812C278.516 36.996 278.7 36.264 279.068 35.616C279.444 34.96 279.952 34.452 280.592 34.092C281.232 33.724 281.94 33.54 282.716 33.54C283.5 33.54 284.212 33.724 284.852 34.092C285.492 34.452 285.996 34.956 286.364 35.604C286.732 36.252 286.916 36.988 286.916 37.812C286.916 38.636 286.732 39.372 286.364 40.02C285.996 40.668 285.492 41.176 284.852 41.544C284.212 41.904 283.5 42.084 282.716 42.084ZM282.716 41.136C283.3 41.136 283.824 41 284.288 40.728C284.76 40.456 285.128 40.068 285.392 39.564C285.664 39.06 285.8 38.476 285.8 37.812C285.8 37.14 285.664 36.556 285.392 36.06C285.128 35.556 284.764 35.168 284.3 34.896C283.836 34.624 283.308 34.488 282.716 34.488C282.124 34.488 281.596 34.624 281.132 34.896C280.668 35.168 280.3 35.556 280.028 36.06C279.764 36.556 279.632 37.14 279.632 37.812C279.632 38.476 279.764 39.06 280.028 39.564C280.3 40.068 280.668 40.456 281.132 40.728C281.604 41 282.132 41.136 282.716 41.136ZM291.662 35.304C292.462 35.304 293.11 35.548 293.606 36.036C294.102 36.516 294.35 37.212 294.35 38.124V42H293.27V38.28C293.27 37.624 293.106 37.124 292.778 36.78C292.45 36.428 292.002 36.252 291.434 36.252C290.858 36.252 290.398 36.432 290.054 36.792C289.718 37.152 289.55 37.676 289.55 38.364V42H288.458V35.424H289.55V36.36C289.766 36.024 290.058 35.764 290.426 35.58C290.802 35.396 291.214 35.304 291.662 35.304ZM297.325 33.12V42H296.233V33.12H297.325ZM299.85 34.356C299.642 34.356 299.466 34.284 299.322 34.14C299.178 33.996 299.106 33.82 299.106 33.612C299.106 33.404 299.178 33.228 299.322 33.084C299.466 32.94 299.642 32.868 299.85 32.868C300.05 32.868 300.218 32.94 300.354 33.084C300.498 33.228 300.57 33.404 300.57 33.612C300.57 33.82 300.498 33.996 300.354 34.14C300.218 34.284 300.05 34.356 299.85 34.356ZM300.378 35.424V42H299.286V35.424H300.378ZM305.544 35.304C306.344 35.304 306.992 35.548 307.488 36.036C307.984 36.516 308.232 37.212 308.232 38.124V42H307.152V38.28C307.152 37.624 306.988 37.124 306.66 36.78C306.332 36.428 305.884 36.252 305.316 36.252C304.74 36.252 304.28 36.432 303.936 36.792C303.6 37.152 303.432 37.676 303.432 38.364V42H302.34V35.424H303.432V36.36C303.648 36.024 303.94 35.764 304.308 35.58C304.684 35.396 305.096 35.304 305.544 35.304ZM316.115 38.46C316.115 38.668 316.103 38.888 316.079 39.12H310.823C310.863 39.768 311.083 40.276 311.483 40.644C311.891 41.004 312.383 41.184 312.959 41.184C313.431 41.184 313.823 41.076 314.135 40.86C314.455 40.636 314.679 40.34 314.807 39.972H315.983C315.807 40.604 315.455 41.12 314.927 41.52C314.399 41.912 313.743 42.108 312.959 42.108C312.335 42.108 311.775 41.968 311.279 41.688C310.791 41.408 310.407 41.012 310.127 40.5C309.847 39.98 309.707 39.38 309.707 38.7C309.707 38.02 309.843 37.424 310.115 36.912C310.387 36.4 310.767 36.008 311.255 35.736C311.751 35.456 312.319 35.316 312.959 35.316C313.583 35.316 314.135 35.452 314.615 35.724C315.095 35.996 315.463 36.372 315.719 36.852C315.983 37.324 316.115 37.86 316.115 38.46ZM314.987 38.232C314.987 37.816 314.895 37.46 314.711 37.164C314.527 36.86 314.275 36.632 313.955 36.48C313.643 36.32 313.295 36.24 312.911 36.24C312.359 36.24 311.887 36.416 311.495 36.768C311.111 37.12 310.891 37.608 310.835 38.232H314.987ZM323.608 42.084C323.056 42.084 322.56 41.988 322.12 41.796C321.688 41.596 321.348 41.324 321.1 40.98C320.852 40.628 320.724 40.224 320.716 39.768H321.88C321.92 40.16 322.08 40.492 322.36 40.764C322.648 41.028 323.064 41.16 323.608 41.16C324.128 41.16 324.536 41.032 324.832 40.776C325.136 40.512 325.288 40.176 325.288 39.768C325.288 39.448 325.2 39.188 325.024 38.988C324.848 38.788 324.628 38.636 324.364 38.532C324.1 38.428 323.744 38.316 323.296 38.196C322.744 38.052 322.3 37.908 321.964 37.764C321.636 37.62 321.352 37.396 321.112 37.092C320.88 36.78 320.764 36.364 320.764 35.844C320.764 35.388 320.88 34.984 321.112 34.632C321.344 34.28 321.668 34.008 322.084 33.816C322.508 33.624 322.992 33.528 323.536 33.528C324.32 33.528 324.96 33.724 325.456 34.116C325.96 34.508 326.244 35.028 326.308 35.676H325.108C325.068 35.356 324.9 35.076 324.604 34.836C324.308 34.588 323.916 34.464 323.428 34.464C322.972 34.464 322.6 34.584 322.312 34.824C322.024 35.056 321.88 35.384 321.88 35.808C321.88 36.112 321.964 36.36 322.132 36.552C322.308 36.744 322.52 36.892 322.768 36.996C323.024 37.092 323.38 37.204 323.836 37.332C324.388 37.484 324.832 37.636 325.168 37.788C325.504 37.932 325.792 38.16 326.032 38.472C326.272 38.776 326.392 39.192 326.392 39.72C326.392 40.128 326.284 40.512 326.068 40.872C325.852 41.232 325.532 41.524 325.108 41.748C324.684 41.972 324.184 42.084 323.608 42.084ZM327.691 38.688C327.691 38.016 327.827 37.428 328.099 36.924C328.371 36.412 328.743 36.016 329.215 35.736C329.695 35.456 330.227 35.316 330.811 35.316C331.387 35.316 331.887 35.44 332.311 35.688C332.735 35.936 333.051 36.248 333.259 36.624V35.424H334.363V42H333.259V40.776C333.043 41.16 332.719 41.48 332.287 41.736C331.863 41.984 331.367 42.108 330.799 42.108C330.215 42.108 329.687 41.964 329.215 41.676C328.743 41.388 328.371 40.984 328.099 40.464C327.827 39.944 327.691 39.352 327.691 38.688ZM333.259 38.7C333.259 38.204 333.159 37.772 332.959 37.404C332.759 37.036 332.487 36.756 332.143 36.564C331.807 36.364 331.435 36.264 331.027 36.264C330.619 36.264 330.247 36.36 329.911 36.552C329.575 36.744 329.307 37.024 329.107 37.392C328.907 37.76 328.807 38.192 328.807 38.688C328.807 39.192 328.907 39.632 329.107 40.008C329.307 40.376 329.575 40.66 329.911 40.86C330.247 41.052 330.619 41.148 331.027 41.148C331.435 41.148 331.807 41.052 332.143 40.86C332.487 40.66 332.759 40.376 332.959 40.008C333.159 39.632 333.259 39.196 333.259 38.7ZM337.4 33.12V42H336.308V33.12H337.4ZM345.362 38.46C345.362 38.668 345.35 38.888 345.326 39.12H340.07C340.11 39.768 340.33 40.276 340.73 40.644C341.138 41.004 341.63 41.184 342.206 41.184C342.678 41.184 343.07 41.076 343.382 40.86C343.702 40.636 343.926 40.34 344.054 39.972H345.23C345.054 40.604 344.702 41.12 344.174 41.52C343.646 41.912 342.99 42.108 342.206 42.108C341.582 42.108 341.022 41.968 340.526 41.688C340.038 41.408 339.654 41.012 339.374 40.5C339.094 39.98 338.954 39.38 338.954 38.7C338.954 38.02 339.09 37.424 339.362 36.912C339.634 36.4 340.014 36.008 340.502 35.736C340.998 35.456 341.566 35.316 342.206 35.316C342.83 35.316 343.382 35.452 343.862 35.724C344.342 35.996 344.71 36.372 344.966 36.852C345.23 37.324 345.362 37.86 345.362 38.46ZM344.234 38.232C344.234 37.816 344.142 37.46 343.958 37.164C343.774 36.86 343.522 36.632 343.202 36.48C342.89 36.32 342.542 36.24 342.158 36.24C341.606 36.24 341.134 36.416 340.742 36.768C340.358 37.12 340.138 37.608 340.082 38.232H344.234ZM349.231 42.108C348.727 42.108 348.275 42.024 347.875 41.856C347.475 41.68 347.159 41.44 346.927 41.136C346.695 40.824 346.567 40.468 346.543 40.068H347.671C347.703 40.396 347.855 40.664 348.127 40.872C348.407 41.08 348.771 41.184 349.219 41.184C349.635 41.184 349.963 41.092 350.203 40.908C350.443 40.724 350.563 40.492 350.563 40.212C350.563 39.924 350.435 39.712 350.179 39.576C349.923 39.432 349.527 39.292 348.991 39.156C348.503 39.028 348.103 38.9 347.791 38.772C347.487 38.636 347.223 38.44 346.999 38.184C346.783 37.92 346.675 37.576 346.675 37.152C346.675 36.816 346.775 36.508 346.975 36.228C347.175 35.948 347.459 35.728 347.827 35.568C348.195 35.4 348.615 35.316 349.087 35.316C349.815 35.316 350.403 35.5 350.851 35.868C351.299 36.236 351.539 36.74 351.571 37.38H350.479C350.455 37.036 350.315 36.76 350.059 36.552C349.811 36.344 349.475 36.24 349.051 36.24C348.659 36.24 348.347 36.324 348.115 36.492C347.883 36.66 347.767 36.88 347.767 37.152C347.767 37.368 347.835 37.548 347.971 37.692C348.115 37.828 348.291 37.94 348.499 38.028C348.715 38.108 349.011 38.2 349.387 38.304C349.859 38.432 350.243 38.56 350.539 38.688C350.835 38.808 351.087 38.992 351.295 39.24C351.511 39.488 351.623 39.812 351.631 40.212C351.631 40.572 351.531 40.896 351.331 41.184C351.131 41.472 350.847 41.7 350.479 41.868C350.119 42.028 349.703 42.108 349.231 42.108Z" fill="#44444F"/>
</g>
<g clip-path="url(#clip7_580_762)">
<rect x="387" y="32" width="10" height="12" rx="5" fill="#FBD718"/>
<path d="M409.716 42.084C408.94 42.084 408.232 41.904 407.592 41.544C406.952 41.176 406.444 40.668 406.068 40.02C405.7 39.364 405.516 38.628 405.516 37.812C405.516 36.996 405.7 36.264 406.068 35.616C406.444 34.96 406.952 34.452 407.592 34.092C408.232 33.724 408.94 33.54 409.716 33.54C410.5 33.54 411.212 33.724 411.852 34.092C412.492 34.452 412.996 34.956 413.364 35.604C413.732 36.252 413.916 36.988 413.916 37.812C413.916 38.636 413.732 39.372 413.364 40.02C412.996 40.668 412.492 41.176 411.852 41.544C411.212 41.904 410.5 42.084 409.716 42.084ZM409.716 41.136C410.3 41.136 410.824 41 411.288 40.728C411.76 40.456 412.128 40.068 412.392 39.564C412.664 39.06 412.8 38.476 412.8 37.812C412.8 37.14 412.664 36.556 412.392 36.06C412.128 35.556 411.764 35.168 411.3 34.896C410.836 34.624 410.308 34.488 409.716 34.488C409.124 34.488 408.596 34.624 408.132 34.896C407.668 35.168 407.3 35.556 407.028 36.06C406.764 36.556 406.632 37.14 406.632 37.812C406.632 38.476 406.764 39.06 407.028 39.564C407.3 40.068 407.668 40.456 408.132 40.728C408.604 41 409.132 41.136 409.716 41.136ZM418.134 36.324H416.754V42H415.662V36.324H414.81V35.424H415.662V34.956C415.662 34.22 415.85 33.684 416.226 33.348C416.61 33.004 417.222 32.832 418.062 32.832V33.744C417.582 33.744 417.242 33.84 417.042 34.032C416.85 34.216 416.754 34.524 416.754 34.956V35.424H418.134V36.324ZM422.183 36.324H420.803V42H419.711V36.324H418.859V35.424H419.711V34.956C419.711 34.22 419.899 33.684 420.275 33.348C420.659 33.004 421.271 32.832 422.111 32.832V33.744C421.631 33.744 421.291 33.84 421.091 34.032C420.899 34.216 420.803 34.524 420.803 34.956V35.424H422.183V36.324ZM424.648 33.12V42H423.556V33.12H424.648ZM427.173 34.356C426.965 34.356 426.789 34.284 426.645 34.14C426.501 33.996 426.429 33.82 426.429 33.612C426.429 33.404 426.501 33.228 426.645 33.084C426.789 32.94 426.965 32.868 427.173 32.868C427.373 32.868 427.541 32.94 427.677 33.084C427.821 33.228 427.893 33.404 427.893 33.612C427.893 33.82 427.821 33.996 427.677 34.14C427.541 34.284 427.373 34.356 427.173 34.356ZM427.701 35.424V42H426.609V35.424H427.701ZM432.866 35.304C433.666 35.304 434.314 35.548 434.81 36.036C435.306 36.516 435.554 37.212 435.554 38.124V42H434.474V38.28C434.474 37.624 434.31 37.124 433.982 36.78C433.654 36.428 433.206 36.252 432.638 36.252C432.062 36.252 431.602 36.432 431.258 36.792C430.922 37.152 430.754 37.676 430.754 38.364V42H429.662V35.424H430.754V36.36C430.97 36.024 431.262 35.764 431.63 35.58C432.006 35.396 432.418 35.304 432.866 35.304ZM443.438 38.46C443.438 38.668 443.426 38.888 443.402 39.12H438.146C438.186 39.768 438.406 40.276 438.806 40.644C439.214 41.004 439.706 41.184 440.282 41.184C440.754 41.184 441.146 41.076 441.458 40.86C441.778 40.636 442.002 40.34 442.13 39.972H443.306C443.13 40.604 442.778 41.12 442.25 41.52C441.722 41.912 441.066 42.108 440.282 42.108C439.658 42.108 439.098 41.968 438.602 41.688C438.114 41.408 437.73 41.012 437.45 40.5C437.17 39.98 437.03 39.38 437.03 38.7C437.03 38.02 437.166 37.424 437.438 36.912C437.71 36.4 438.09 36.008 438.578 35.736C439.074 35.456 439.642 35.316 440.282 35.316C440.906 35.316 441.458 35.452 441.938 35.724C442.418 35.996 442.786 36.372 443.042 36.852C443.306 37.324 443.438 37.86 443.438 38.46ZM442.31 38.232C442.31 37.816 442.218 37.46 442.034 37.164C441.85 36.86 441.598 36.632 441.278 36.48C440.966 36.32 440.618 36.24 440.234 36.24C439.682 36.24 439.21 36.416 438.818 36.768C438.434 37.12 438.214 37.608 438.158 38.232H442.31ZM450.931 42.084C450.379 42.084 449.883 41.988 449.443 41.796C449.011 41.596 448.671 41.324 448.423 40.98C448.175 40.628 448.047 40.224 448.039 39.768H449.203C449.243 40.16 449.403 40.492 449.683 40.764C449.971 41.028 450.387 41.16 450.931 41.16C451.451 41.16 451.859 41.032 452.155 40.776C452.459 40.512 452.611 40.176 452.611 39.768C452.611 39.448 452.523 39.188 452.347 38.988C452.171 38.788 451.951 38.636 451.687 38.532C451.423 38.428 451.067 38.316 450.619 38.196C450.067 38.052 449.623 37.908 449.287 37.764C448.959 37.62 448.675 37.396 448.435 37.092C448.203 36.78 448.087 36.364 448.087 35.844C448.087 35.388 448.203 34.984 448.435 34.632C448.667 34.28 448.991 34.008 449.407 33.816C449.831 33.624 450.315 33.528 450.859 33.528C451.643 33.528 452.283 33.724 452.779 34.116C453.283 34.508 453.567 35.028 453.631 35.676H452.431C452.391 35.356 452.223 35.076 451.927 34.836C451.631 34.588 451.239 34.464 450.751 34.464C450.295 34.464 449.923 34.584 449.635 34.824C449.347 35.056 449.203 35.384 449.203 35.808C449.203 36.112 449.287 36.36 449.455 36.552C449.631 36.744 449.843 36.892 450.091 36.996C450.347 37.092 450.703 37.204 451.159 37.332C451.711 37.484 452.155 37.636 452.491 37.788C452.827 37.932 453.115 38.16 453.355 38.472C453.595 38.776 453.715 39.192 453.715 39.72C453.715 40.128 453.607 40.512 453.391 40.872C453.175 41.232 452.855 41.524 452.431 41.748C452.007 41.972 451.507 42.084 450.931 42.084ZM455.014 38.688C455.014 38.016 455.15 37.428 455.422 36.924C455.694 36.412 456.066 36.016 456.538 35.736C457.018 35.456 457.55 35.316 458.134 35.316C458.71 35.316 459.21 35.44 459.634 35.688C460.058 35.936 460.374 36.248 460.582 36.624V35.424H461.686V42H460.582V40.776C460.366 41.16 460.042 41.48 459.61 41.736C459.186 41.984 458.69 42.108 458.122 42.108C457.538 42.108 457.01 41.964 456.538 41.676C456.066 41.388 455.694 40.984 455.422 40.464C455.15 39.944 455.014 39.352 455.014 38.688ZM460.582 38.7C460.582 38.204 460.482 37.772 460.282 37.404C460.082 37.036 459.81 36.756 459.466 36.564C459.13 36.364 458.758 36.264 458.35 36.264C457.942 36.264 457.57 36.36 457.234 36.552C456.898 36.744 456.63 37.024 456.43 37.392C456.23 37.76 456.13 38.192 456.13 38.688C456.13 39.192 456.23 39.632 456.43 40.008C456.63 40.376 456.898 40.66 457.234 40.86C457.57 41.052 457.942 41.148 458.35 41.148C458.758 41.148 459.13 41.052 459.466 40.86C459.81 40.66 460.082 40.376 460.282 40.008C460.482 39.632 460.582 39.196 460.582 38.7ZM464.723 33.12V42H463.631V33.12H464.723ZM472.684 38.46C472.684 38.668 472.672 38.888 472.648 39.12H467.392C467.432 39.768 467.652 40.276 468.052 40.644C468.46 41.004 468.952 41.184 469.528 41.184C470 41.184 470.392 41.076 470.704 40.86C471.024 40.636 471.248 40.34 471.376 39.972H472.552C472.376 40.604 472.024 41.12 471.496 41.52C470.968 41.912 470.312 42.108 469.528 42.108C468.904 42.108 468.344 41.968 467.848 41.688C467.36 41.408 466.976 41.012 466.696 40.5C466.416 39.98 466.276 39.38 466.276 38.7C466.276 38.02 466.412 37.424 466.684 36.912C466.956 36.4 467.336 36.008 467.824 35.736C468.32 35.456 468.888 35.316 469.528 35.316C470.152 35.316 470.704 35.452 471.184 35.724C471.664 35.996 472.032 36.372 472.288 36.852C472.552 37.324 472.684 37.86 472.684 38.46ZM471.556 38.232C471.556 37.816 471.464 37.46 471.28 37.164C471.096 36.86 470.844 36.632 470.524 36.48C470.212 36.32 469.864 36.24 469.48 36.24C468.928 36.24 468.456 36.416 468.064 36.768C467.68 37.12 467.46 37.608 467.404 38.232H471.556ZM476.554 42.108C476.05 42.108 475.598 42.024 475.198 41.856C474.798 41.68 474.482 41.44 474.25 41.136C474.018 40.824 473.89 40.468 473.866 40.068H474.994C475.026 40.396 475.178 40.664 475.45 40.872C475.73 41.08 476.094 41.184 476.542 41.184C476.958 41.184 477.286 41.092 477.526 40.908C477.766 40.724 477.886 40.492 477.886 40.212C477.886 39.924 477.758 39.712 477.502 39.576C477.246 39.432 476.85 39.292 476.314 39.156C475.826 39.028 475.426 38.9 475.114 38.772C474.81 38.636 474.546 38.44 474.322 38.184C474.106 37.92 473.998 37.576 473.998 37.152C473.998 36.816 474.098 36.508 474.298 36.228C474.498 35.948 474.782 35.728 475.15 35.568C475.518 35.4 475.938 35.316 476.41 35.316C477.138 35.316 477.726 35.5 478.174 35.868C478.622 36.236 478.862 36.74 478.894 37.38H477.802C477.778 37.036 477.638 36.76 477.382 36.552C477.134 36.344 476.798 36.24 476.374 36.24C475.982 36.24 475.67 36.324 475.438 36.492C475.206 36.66 475.09 36.88 475.09 37.152C475.09 37.368 475.158 37.548 475.294 37.692C475.438 37.828 475.614 37.94 475.822 38.028C476.038 38.108 476.334 38.2 476.71 38.304C477.182 38.432 477.566 38.56 477.862 38.688C478.158 38.808 478.41 38.992 478.618 39.24C478.834 39.488 478.946 39.812 478.954 40.212C478.954 40.572 478.854 40.896 478.654 41.184C478.454 41.472 478.17 41.7 477.802 41.868C477.442 42.028 477.026 42.108 476.554 42.108Z" fill="#44444F"/>
</g>
<g clip-path="url(#clip8_580_762)">
<path d="M445.812 298.242C445.812 299.978 446.848 301.168 448.654 301.168C450.348 301.168 451.524 300.076 451.524 298.256V290.976H450.516V298.228C450.516 299.418 449.928 300.216 448.654 300.216C447.436 300.216 446.792 299.432 446.792 298.242V297.85H445.812V298.242ZM458.537 294.224V297.822C458.537 299.432 457.767 300.3 456.465 300.3C455.387 300.3 454.673 299.726 454.673 298.116V294.21H453.693V298.424C453.693 300.076 454.561 301.168 456.157 301.168C457.221 301.168 458.159 300.636 458.537 299.852L458.663 301H459.503V294.224H458.537ZM462.581 301V297.458C462.581 295.932 463.365 294.924 464.751 294.924C465.871 294.924 466.585 295.484 466.585 297.066V301H467.551V296.856C467.551 295.148 466.781 294.042 464.919 294.042C463.939 294.042 463.043 294.532 462.595 295.4L462.455 294.224H461.615V301H462.581Z" fill="#747474"/>
<path fill-rule="evenodd" clip-rule="evenodd" d="M459.5 276L459.5 120.5C459.5 117.462 461.962 115 465 115V115C468.038 115 470.5 117.462 470.5 120.5V276H459.5Z" fill="#1D1F17"/>
<path fill-rule="evenodd" clip-rule="evenodd" d="M444.5 276L444.5 201.5C444.5 198.462 446.962 196 450 196V196C453.038 196 455.5 198.462 455.5 201.5V276H444.5Z" fill="#FBD718"/>
</g>
<g clip-path="url(#clip9_580_762)">
<path d="M376.863 301V296.086C376.863 294.56 376.835 293.454 376.779 293.076L380.041 301H381.007L384.269 293.034C384.213 293.72 384.185 294.49 384.185 296.24V301H385.179V290.976H384.171L380.517 299.81L376.863 290.976H375.869V301H376.863ZM389.449 301.168C390.597 301.168 391.521 300.664 391.941 299.81L392.067 301H392.879V296.618C392.879 294.826 391.731 294.042 390.163 294.042C388.497 294.042 387.377 294.924 387.377 296.296H388.259C388.259 295.386 388.959 294.854 390.135 294.854C391.129 294.854 391.927 295.274 391.927 296.604V296.828L389.687 297.01C388.105 297.136 387.153 297.92 387.153 299.166C387.153 300.356 388.007 301.168 389.449 301.168ZM389.673 300.384C388.749 300.384 388.133 299.964 388.133 299.138C388.133 298.382 388.651 297.822 389.925 297.71L391.927 297.556V297.92C391.927 299.39 391.101 300.384 389.673 300.384ZM394.081 303.954C394.389 304.024 394.697 304.052 395.103 304.052C396.069 304.052 396.727 303.618 397.119 302.554L400.227 294.224H399.233L397.091 300.132L394.907 294.224H393.885L396.629 301.406L396.335 302.204C395.999 303.114 395.411 303.156 394.823 303.156H394.081V303.954Z" fill="#747474"/>
<path fill-rule="evenodd" clip-rule="evenodd" d="M391.625 276V120.375C391.625 117.406 394.031 115 397 115V115C399.969 115 402.375 117.406 402.375 120.375V276H391.625Z" fill="#1D1F17"/>
<path fill-rule="evenodd" clip-rule="evenodd" d="M376.625 276V171.375C376.625 168.406 379.031 166 382 166V166C384.969 166 387.375 168.406 387.375 171.375V276H376.625Z" fill="#FBD718"/>
</g>
<g clip-path="url(#clip10_580_762)">
<path d="M309.105 301L310.085 298.34H314.705L315.685 301H316.735L313.011 290.976H311.765L308.083 301H309.105ZM312.255 292.39C312.311 292.25 312.367 292.068 312.381 291.984C312.395 292.082 312.465 292.25 312.507 292.39L314.383 297.458H310.393L312.255 292.39ZM318.019 303.954H318.985V299.698C319.461 300.678 320.371 301.168 321.519 301.168C323.521 301.168 324.655 299.628 324.655 297.584C324.655 295.54 323.479 294.042 321.519 294.042C320.385 294.042 319.433 294.546 318.957 295.596L318.859 294.224H318.019V303.954ZM318.999 297.612C318.999 296.044 319.867 294.924 321.351 294.924C322.821 294.924 323.675 296.044 323.675 297.612C323.675 299.166 322.821 300.3 321.351 300.3C319.867 300.3 318.999 299.166 318.999 297.612ZM329.837 294.14C329.599 294.084 329.417 294.07 329.207 294.07C328.255 294.07 327.541 294.546 327.275 295.274L327.205 294.224H326.295V301H327.261V297.136C327.261 295.848 328.059 295.008 329.305 295.008H329.837V294.14Z" fill="#747474"/>
<path fill-rule="evenodd" clip-rule="evenodd" d="M322.125 276V141.375C322.125 138.406 324.531 136 327.5 136V136C330.469 136 332.875 138.406 332.875 141.375V276H322.125Z" fill="#1D1F17"/>
<path fill-rule="evenodd" clip-rule="evenodd" d="M307.125 276V201.375C307.125 198.406 309.531 196 312.5 196V196C315.469 196 317.875 198.406 317.875 201.375V276H307.125Z" fill="#FBD718"/>
</g>
<g clip-path="url(#clip11_580_762)">
<path d="M241.67 301V296.086C241.67 294.56 241.642 293.454 241.586 293.076L244.848 301H245.814L249.076 293.034C249.02 293.72 248.992 294.49 248.992 296.24V301H249.986V290.976H248.978L245.324 299.81L241.67 290.976H240.676V301H241.67ZM254.256 301.168C255.404 301.168 256.328 300.664 256.748 299.81L256.874 301H257.686V296.618C257.686 294.826 256.538 294.042 254.97 294.042C253.304 294.042 252.184 294.924 252.184 296.296H253.066C253.066 295.386 253.766 294.854 254.942 294.854C255.936 294.854 256.734 295.274 256.734 296.604V296.828L254.494 297.01C252.912 297.136 251.96 297.92 251.96 299.166C251.96 300.356 252.814 301.168 254.256 301.168ZM254.48 300.384C253.556 300.384 252.94 299.964 252.94 299.138C252.94 298.382 253.458 297.822 254.732 297.71L256.734 297.556V297.92C256.734 299.39 255.908 300.384 254.48 300.384ZM263.266 294.14C263.028 294.084 262.846 294.07 262.636 294.07C261.684 294.07 260.97 294.546 260.704 295.274L260.634 294.224H259.724V301H260.69V297.136C260.69 295.848 261.488 295.008 262.734 295.008H263.266V294.14Z" fill="#747474"/>
<path fill-rule="evenodd" clip-rule="evenodd" d="M254.125 276V161.375C254.125 158.406 256.531 156 259.5 156V156C262.469 156 264.875 158.406 264.875 161.375V276H254.125Z" fill="#1D1F17"/>
<path fill-rule="evenodd" clip-rule="evenodd" d="M239.125 276V191.375C239.125 188.406 241.531 186 244.5 186V186C247.469 186 249.875 188.406 249.875 191.375V276H239.125Z" fill="#FBD718"/>
</g>
<g clip-path="url(#clip12_580_762)">
<path d="M176.908 296.59V295.68H172.806V291.9H177.706V290.976H171.798V301H172.806V296.59H176.908ZM181.598 301.168C183.194 301.168 184.244 300.398 184.608 298.97H183.684C183.432 299.866 182.718 300.342 181.612 300.342C180.156 300.342 179.288 299.39 179.218 297.738H184.608V297.262C184.608 295.344 183.362 294.042 181.528 294.042C179.596 294.042 178.28 295.498 178.28 297.612C178.28 299.74 179.61 301.168 181.598 301.168ZM181.528 294.868C182.802 294.868 183.642 295.736 183.642 297.038H179.246C179.414 295.708 180.254 294.868 181.528 294.868ZM187.093 301L187.191 299.614C187.667 300.664 188.605 301.168 189.739 301.168C191.713 301.168 192.889 299.656 192.889 297.626C192.889 295.582 191.741 294.042 189.767 294.042C188.619 294.042 187.695 294.546 187.219 295.54V290.794H186.253V301H187.093ZM187.233 297.598C187.233 296.044 188.101 294.91 189.585 294.91C191.055 294.91 191.909 296.044 191.909 297.598C191.909 299.166 191.055 300.286 189.585 300.286C188.101 300.286 187.233 299.166 187.233 297.598Z" fill="#747474"/>
<path fill-rule="evenodd" clip-rule="evenodd" d="M186.125 276V131.375C186.125 128.406 188.531 126 191.5 126V126C194.469 126 196.875 128.406 196.875 131.375V276H186.125Z" fill="#1D1F17"/>
<path fill-rule="evenodd" clip-rule="evenodd" d="M171.125 276V151.375C171.125 148.406 173.531 146 176.5 146V146C179.469 146 181.875 148.406 181.875 151.375V276H171.125Z" fill="#FBD718"/>
</g>
<g clip-path="url(#clip13_580_762)">
<path d="M104.524 298.242C104.524 299.978 105.56 301.168 107.366 301.168C109.06 301.168 110.236 300.076 110.236 298.256V290.976H109.228V298.228C109.228 299.418 108.64 300.216 107.366 300.216C106.148 300.216 105.504 299.432 105.504 298.242V297.85H104.524V298.242ZM114.434 301.168C115.582 301.168 116.506 300.664 116.926 299.81L117.052 301H117.864V296.618C117.864 294.826 116.716 294.042 115.148 294.042C113.482 294.042 112.362 294.924 112.362 296.296H113.244C113.244 295.386 113.944 294.854 115.12 294.854C116.114 294.854 116.912 295.274 116.912 296.604V296.828L114.672 297.01C113.09 297.136 112.138 297.92 112.138 299.166C112.138 300.356 112.992 301.168 114.434 301.168ZM114.658 300.384C113.734 300.384 113.118 299.964 113.118 299.138C113.118 298.382 113.636 297.822 114.91 297.71L116.912 297.556V297.92C116.912 299.39 116.086 300.384 114.658 300.384ZM120.869 301V297.458C120.869 295.932 121.653 294.924 123.039 294.924C124.159 294.924 124.873 295.484 124.873 297.066V301H125.839V296.856C125.839 295.148 125.069 294.042 123.207 294.042C122.227 294.042 121.331 294.532 120.883 295.4L120.743 294.224H119.903V301H120.869Z" fill="#747474"/>
<path fill-rule="evenodd" clip-rule="evenodd" d="M118.125 276V151.375C118.125 148.406 120.531 146 123.5 146V146C126.469 146 128.875 148.406 128.875 151.375V276H118.125Z" fill="#1D1F17"/>
<path fill-rule="evenodd" clip-rule="evenodd" d="M103.125 276V201.375C103.125 198.406 105.531 196 108.5 196V196C111.469 196 113.875 198.406 113.875 201.375V276H103.125Z" fill="#FBD718"/>
</g>
<path d="M31.238 73H24.63V72.202L27.836 69.402C29.684 67.792 30.16 67.092 30.16 65.902C30.16 64.544 29.348 63.718 28.018 63.718C26.632 63.718 25.722 64.726 25.68 66.28H24.672C24.728 64.18 26.058 62.794 28.032 62.794C29.922 62.794 31.182 64.012 31.182 65.846C31.182 67.302 30.524 68.268 28.522 70.018L26.184 72.062H31.238V73ZM32.7313 67.988C32.7313 64.88 34.2573 62.78 36.7493 62.78C39.2273 62.78 40.7533 64.88 40.7533 67.988C40.7533 71.11 39.2553 73.182 36.7493 73.182C34.2293 73.182 32.7313 71.11 32.7313 67.988ZM33.7253 67.988C33.7253 70.592 34.8313 72.272 36.7493 72.272C38.6673 72.272 39.7733 70.592 39.7733 67.988C39.7733 65.37 38.6673 63.704 36.7493 63.704C34.8313 63.704 33.7253 65.37 33.7253 67.988ZM48.856 73H42.248V72.202L45.454 69.402C47.302 67.792 47.778 67.092 47.778 65.902C47.778 64.544 46.966 63.718 45.636 63.718C44.25 63.718 43.34 64.726 43.298 66.28H42.29C42.346 64.18 43.676 62.794 45.65 62.794C47.54 62.794 48.8 64.012 48.8 65.846C48.8 67.302 48.142 68.268 46.14 70.018L43.802 72.062H48.856V73ZM53.1486 67.624H52.3506V66.924L55.4446 63.872H50.6426V62.976H56.7186V63.788L53.7226 66.77C55.5986 66.868 56.9426 68.058 56.9426 69.878C56.9426 71.866 55.4866 73.168 53.4566 73.168C51.4826 73.168 50.1526 71.95 50.1526 69.948H51.1466C51.1466 71.39 52.0426 72.258 53.4566 72.258C54.9546 72.258 55.9206 71.306 55.9206 69.85C55.9206 68.478 54.9406 67.624 53.1486 67.624ZM58.6144 69.752V68.884H62.6744V69.752H58.6144ZM70.156 73H63.548V72.202L66.754 69.402C68.602 67.792 69.078 67.092 69.078 65.902C69.078 64.544 68.266 63.718 66.936 63.718C65.55 63.718 64.64 64.726 64.598 66.28H63.59C63.646 64.18 64.976 62.794 66.95 62.794C68.84 62.794 70.1 64.012 70.1 65.846C70.1 67.302 69.442 68.268 67.44 70.018L65.102 72.062H70.156V73ZM71.6493 67.988C71.6493 64.88 73.1753 62.78 75.6673 62.78C78.1453 62.78 79.6713 64.88 79.6713 67.988C79.6713 71.11 78.1733 73.182 75.6673 73.182C73.1473 73.182 71.6493 71.11 71.6493 67.988ZM72.6433 67.988C72.6433 70.592 73.7493 72.272 75.6673 72.272C77.5853 72.272 78.6913 70.592 78.6913 67.988C78.6913 65.37 77.5853 63.704 75.6673 63.704C73.7493 63.704 72.6433 65.37 72.6433 67.988ZM87.7739 73H81.1659V72.202L84.3719 69.402C86.2199 67.792 86.6959 67.092 86.6959 65.902C86.6959 64.544 85.8839 63.718 84.5539 63.718C83.1679 63.718 82.2579 64.726 82.2159 66.28H81.2079C81.2639 64.18 82.5939 62.794 84.5679 62.794C86.4579 62.794 87.7179 64.012 87.7179 65.846C87.7179 67.302 87.0599 68.268 85.0579 70.018L82.7199 72.062H87.7739V73ZM96.0808 70.872H94.9048V73H93.9248V70.872H88.6608V69.976L93.5608 62.976H94.9048V69.976H96.0808V70.872ZM89.7528 69.976H93.9248V64.012L89.7528 69.976Z" fill="#82808A"/>
<path d="M30.384 47.147C29.404 47.147 28.522 46.979 27.738 46.643C26.954 46.293 26.338 45.803 25.89 45.173C25.442 44.543 25.218 43.808 25.218 42.968H27.78C27.836 43.598 28.081 44.116 28.515 44.522C28.963 44.928 29.586 45.131 30.384 45.131C31.21 45.131 31.854 44.935 32.316 44.543C32.778 44.137 33.009 43.619 33.009 42.989C33.009 42.499 32.862 42.1 32.568 41.792C32.288 41.484 31.931 41.246 31.497 41.078C31.077 40.91 30.489 40.728 29.733 40.532C28.781 40.28 28.004 40.028 27.402 39.776C26.814 39.51 26.31 39.104 25.89 38.558C25.47 38.012 25.26 37.284 25.26 36.374C25.26 35.534 25.47 34.799 25.89 34.169C26.31 33.539 26.898 33.056 27.654 32.72C28.41 32.384 29.285 32.216 30.279 32.216C31.693 32.216 32.848 32.573 33.744 33.287C34.654 33.987 35.158 34.953 35.256 36.185H32.61C32.568 35.653 32.316 35.198 31.854 34.82C31.392 34.442 30.783 34.253 30.027 34.253C29.341 34.253 28.781 34.428 28.347 34.778C27.913 35.128 27.696 35.632 27.696 36.29C27.696 36.738 27.829 37.109 28.095 37.403C28.375 37.683 28.725 37.907 29.145 38.075C29.565 38.243 30.139 38.425 30.867 38.621C31.833 38.887 32.617 39.153 33.219 39.419C33.835 39.685 34.353 40.098 34.773 40.658C35.207 41.204 35.424 41.939 35.424 42.863C35.424 43.605 35.221 44.305 34.815 44.963C34.423 45.621 33.842 46.153 33.072 46.559C32.316 46.951 31.42 47.147 30.384 47.147ZM37.5821 41.162C37.5821 40 37.8201 38.971 38.2961 38.075C38.7861 37.179 39.4441 36.486 40.2701 35.996C41.1101 35.492 42.0341 35.24 43.0421 35.24C43.9521 35.24 44.7431 35.422 45.4151 35.786C46.1011 36.136 46.6471 36.577 47.0531 37.109V35.429H49.4681V47H47.0531V45.278C46.6471 45.824 46.0941 46.279 45.3941 46.643C44.6941 47.007 43.8961 47.189 43.0001 47.189C42.0061 47.189 41.0961 46.937 40.2701 46.433C39.4441 45.915 38.7861 45.201 38.2961 44.291C37.8201 43.367 37.5821 42.324 37.5821 41.162ZM47.0531 41.204C47.0531 40.406 46.8851 39.713 46.5491 39.125C46.2271 38.537 45.8001 38.089 45.2681 37.781C44.7361 37.473 44.1621 37.319 43.5461 37.319C42.9301 37.319 42.3561 37.473 41.8241 37.781C41.2921 38.075 40.8581 38.516 40.5221 39.104C40.2001 39.678 40.0391 40.364 40.0391 41.162C40.0391 41.96 40.2001 42.66 40.5221 43.262C40.8581 43.864 41.2921 44.326 41.8241 44.648C42.3701 44.956 42.9441 45.11 43.5461 45.11C44.1621 45.11 44.7361 44.956 45.2681 44.648C45.8001 44.34 46.2271 43.892 46.5491 43.304C46.8851 42.702 47.0531 42.002 47.0531 41.204ZM55.1378 31.46V47H52.7438V31.46H55.1378ZM69.0171 40.931C69.0171 41.365 68.9891 41.757 68.9331 42.107H60.0921C60.1621 43.031 60.5051 43.773 61.1211 44.333C61.7371 44.893 62.4931 45.173 63.3891 45.173C64.6771 45.173 65.5871 44.634 66.1191 43.556H68.7021C68.3521 44.62 67.7151 45.495 66.7911 46.181C65.8811 46.853 64.7471 47.189 63.3891 47.189C62.2831 47.189 61.2891 46.944 60.4071 46.454C59.5391 45.95 58.8531 45.25 58.3491 44.354C57.8591 43.444 57.6141 42.394 57.6141 41.204C57.6141 40.014 57.8521 38.971 58.3281 38.075C58.8181 37.165 59.4971 36.465 60.3651 35.975C61.2471 35.485 62.2551 35.24 63.3891 35.24C64.4811 35.24 65.4541 35.478 66.3081 35.954C67.1621 36.43 67.8271 37.102 68.3031 37.97C68.7791 38.824 69.0171 39.811 69.0171 40.931ZM66.5181 40.175C66.5041 39.293 66.1891 38.586 65.5731 38.054C64.9571 37.522 64.1941 37.256 63.2841 37.256C62.4581 37.256 61.7511 37.522 61.1631 38.054C60.5751 38.572 60.2251 39.279 60.1131 40.175H66.5181ZM75.7043 47.189C74.7943 47.189 73.9753 47.028 73.2473 46.706C72.5333 46.37 71.9663 45.922 71.5463 45.362C71.1263 44.788 70.9023 44.151 70.8743 43.451H73.3523C73.3943 43.941 73.6253 44.354 74.0453 44.69C74.4793 45.012 75.0183 45.173 75.6623 45.173C76.3343 45.173 76.8523 45.047 77.2163 44.795C77.5943 44.529 77.7833 44.193 77.7833 43.787C77.7833 43.353 77.5733 43.031 77.1533 42.821C76.7473 42.611 76.0963 42.38 75.2003 42.128C74.3323 41.89 73.6253 41.659 73.0793 41.435C72.5333 41.211 72.0573 40.868 71.6513 40.406C71.2593 39.944 71.0633 39.335 71.0633 38.579C71.0633 37.963 71.2453 37.403 71.6093 36.899C71.9733 36.381 72.4913 35.975 73.1633 35.681C73.8493 35.387 74.6333 35.24 75.5153 35.24C76.8313 35.24 77.8883 35.576 78.6863 36.248C79.4983 36.906 79.9323 37.809 79.9883 38.957H77.5943C77.5523 38.439 77.3423 38.026 76.9643 37.718C76.5863 37.41 76.0753 37.256 75.4313 37.256C74.8013 37.256 74.3183 37.375 73.9823 37.613C73.6463 37.851 73.4783 38.166 73.4783 38.558C73.4783 38.866 73.5903 39.125 73.8143 39.335C74.0383 39.545 74.3113 39.713 74.6333 39.839C74.9553 39.951 75.4313 40.098 76.0613 40.28C76.9013 40.504 77.5873 40.735 78.1193 40.973C78.6653 41.197 79.1343 41.533 79.5263 41.981C79.9183 42.429 80.1213 43.024 80.1353 43.766C80.1353 44.424 79.9533 45.012 79.5893 45.53C79.2253 46.048 78.7073 46.454 78.0353 46.748C77.3773 47.042 76.6003 47.189 75.7043 47.189ZM96.0206 47L92.6606 41.162H90.8336V47H88.4396V32.405H93.4796C94.5996 32.405 95.5446 32.601 96.3146 32.993C97.0986 33.385 97.6796 33.91 98.0576 34.568C98.4496 35.226 98.6456 35.961 98.6456 36.773C98.6456 37.725 98.3656 38.593 97.8056 39.377C97.2596 40.147 96.4126 40.672 95.2646 40.952L98.8766 47H96.0206ZM90.8336 39.251H93.4796C94.3756 39.251 95.0476 39.027 95.4956 38.579C95.9576 38.131 96.1886 37.529 96.1886 36.773C96.1886 36.017 95.9646 35.429 95.5166 35.009C95.0686 34.575 94.3896 34.358 93.4796 34.358H90.8336V39.251ZM112.444 40.931C112.444 41.365 112.416 41.757 112.36 42.107H103.519C103.589 43.031 103.932 43.773 104.548 44.333C105.164 44.893 105.92 45.173 106.816 45.173C108.104 45.173 109.014 44.634 109.546 43.556H112.129C111.779 44.62 111.142 45.495 110.218 46.181C109.308 46.853 108.174 47.189 106.816 47.189C105.71 47.189 104.716 46.944 103.834 46.454C102.966 45.95 102.28 45.25 101.776 44.354C101.286 43.444 101.041 42.394 101.041 41.204C101.041 40.014 101.279 38.971 101.755 38.075C102.245 37.165 102.924 36.465 103.792 35.975C104.674 35.485 105.682 35.24 106.816 35.24C107.908 35.24 108.881 35.478 109.735 35.954C110.589 36.43 111.254 37.102 111.73 37.97C112.206 38.824 112.444 39.811 112.444 40.931ZM109.945 40.175C109.931 39.293 109.616 38.586 109 38.054C108.384 37.522 107.621 37.256 106.711 37.256C105.885 37.256 105.178 37.522 104.59 38.054C104.002 38.572 103.652 39.279 103.54 40.175H109.945ZM117.326 37.13C117.732 36.598 118.285 36.15 118.985 35.786C119.685 35.422 120.476 35.24 121.358 35.24C122.366 35.24 123.283 35.492 124.109 35.996C124.949 36.486 125.607 37.179 126.083 38.075C126.559 38.971 126.797 40 126.797 41.162C126.797 42.324 126.559 43.367 126.083 44.291C125.607 45.201 124.949 45.915 124.109 46.433C123.283 46.937 122.366 47.189 121.358 47.189C120.476 47.189 119.692 47.014 119.006 46.664C118.32 46.3 117.76 45.852 117.326 45.32V52.502H114.932V35.429H117.326V37.13ZM124.361 41.162C124.361 40.364 124.193 39.678 123.857 39.104C123.535 38.516 123.101 38.075 122.555 37.781C122.023 37.473 121.449 37.319 120.833 37.319C120.231 37.319 119.657 37.473 119.111 37.781C118.579 38.089 118.145 38.537 117.809 39.125C117.487 39.713 117.326 40.406 117.326 41.204C117.326 42.002 117.487 42.702 117.809 43.304C118.145 43.892 118.579 44.34 119.111 44.648C119.657 44.956 120.231 45.11 120.833 45.11C121.449 45.11 122.023 44.956 122.555 44.648C123.101 44.326 123.535 43.864 123.857 43.262C124.193 42.66 124.361 41.96 124.361 41.162ZM134.314 47.189C133.222 47.189 132.235 46.944 131.353 46.454C130.471 45.95 129.778 45.25 129.274 44.354C128.77 43.444 128.518 42.394 128.518 41.204C128.518 40.028 128.777 38.985 129.295 38.075C129.813 37.165 130.52 36.465 131.416 35.975C132.312 35.485 133.313 35.24 134.419 35.24C135.525 35.24 136.526 35.485 137.422 35.975C138.318 36.465 139.025 37.165 139.543 38.075C140.061 38.985 140.32 40.028 140.32 41.204C140.32 42.38 140.054 43.423 139.522 44.333C138.99 45.243 138.262 45.95 137.338 46.454C136.428 46.944 135.42 47.189 134.314 47.189ZM134.314 45.11C134.93 45.11 135.504 44.963 136.036 44.669C136.582 44.375 137.023 43.934 137.359 43.346C137.695 42.758 137.863 42.044 137.863 41.204C137.863 40.364 137.702 39.657 137.38 39.083C137.058 38.495 136.631 38.054 136.099 37.76C135.567 37.466 134.993 37.319 134.377 37.319C133.761 37.319 133.187 37.466 132.655 37.76C132.137 38.054 131.724 38.495 131.416 39.083C131.108 39.657 130.954 40.364 130.954 41.204C130.954 42.45 131.269 43.416 131.899 44.102C132.543 44.774 133.348 45.11 134.314 45.11ZM145.212 37.109C145.562 36.521 146.024 36.066 146.598 35.744C147.186 35.408 147.879 35.24 148.677 35.24V37.718H148.068C147.13 37.718 146.416 37.956 145.926 38.432C145.45 38.908 145.212 39.734 145.212 40.91V47H142.818V35.429H145.212V37.109ZM153.802 37.382V43.787C153.802 44.221 153.9 44.536 154.096 44.732C154.306 44.914 154.656 45.005 155.146 45.005H156.616V47H154.726C153.648 47 152.822 46.748 152.248 46.244C151.674 45.74 151.387 44.921 151.387 43.787V37.382H150.022V35.429H151.387V32.552H153.802V35.429H156.616V37.382H153.802Z" fill="#171725"/>
</g>
<defs>
<clipPath id="clip0_580_762">
<rect width="507" height="332" fill="white"/>
</clipPath>
<clipPath id="clip1_580_762">
<rect width="426" height="24" fill="white" transform="translate(44 263)"/>
</clipPath>
<clipPath id="clip2_580_762">
<rect width="442" height="24" fill="white" transform="translate(28 224)"/>
</clipPath>
<clipPath id="clip3_580_762">
<rect width="444" height="24" fill="white" transform="translate(26 185)"/>
</clipPath>
<clipPath id="clip4_580_762">
<rect width="441" height="24" fill="white" transform="translate(29 146)"/>
</clipPath>
<clipPath id="clip5_580_762">
<rect width="428" height="24" fill="white" transform="translate(42 107)"/>
</clipPath>
<clipPath id="clip6_580_762">
<rect width="95" height="17" fill="white" transform="translate(260 29)"/>
</clipPath>
<clipPath id="clip7_580_762">
<rect width="96" height="17" fill="white" transform="translate(387 29)"/>
</clipPath>
<clipPath id="clip8_580_762">
<rect width="26" height="193" fill="white" transform="translate(444.5 115)"/>
</clipPath>
<clipPath id="clip9_580_762">
<rect width="27.5" height="193" fill="white" transform="translate(375 115)"/>
</clipPath>
<clipPath id="clip10_580_762">
<rect width="26" height="172" fill="white" transform="translate(307 136)"/>
</clipPath>
<clipPath id="clip11_580_762">
<rect width="26" height="152" fill="white" transform="translate(239 156)"/>
</clipPath>
<clipPath id="clip12_580_762">
<rect width="26" height="182" fill="white" transform="translate(171 126)"/>
</clipPath>
<clipPath id="clip13_580_762">
<rect width="26" height="162" fill="white" transform="translate(103 146)"/>
</clipPath>
</defs>
</svg>
