<svg width="143" height="46" viewBox="0 0 143 46" fill="none" xmlns="http://www.w3.org/2000/svg">
<g clip-path="url(#clip0_22_402)">
<path fill-rule="evenodd" clip-rule="evenodd" d="M33.1115 11.1462C32.8901 11.5366 32.5714 11.8621 32.1868 12.0905L19.6389 19.3863C19.2501 19.611 18.8097 19.7292 18.3614 19.7292C17.9131 19.7292 17.4727 19.611 17.0839 19.3863L4.53602 12.0905C4.15148 11.8621 3.83276 11.5366 3.61133 11.1463C3.38991 10.7559 3.27345 10.3142 3.27344 9.86464C3.27343 9.41512 3.38988 8.97336 3.61129 8.583C3.8327 8.19264 4.15141 7.86718 4.53595 7.63875L17.0839 0.342982C17.4727 0.118254 17.9131 0 18.3614 0C18.8097 0 19.2501 0.118254 19.6389 0.342982L32.1868 7.63875C32.5713 7.86716 32.89 8.19262 33.1115 8.58297C33.3329 8.97332 33.4493 9.41508 33.4493 9.8646C33.4494 10.3141 33.3329 10.7559 33.1115 11.1462Z" fill="#6A65FF"/>
<path fill-rule="evenodd" clip-rule="evenodd" d="M3.82548 13.3266L16.3734 20.6224C16.7613 20.8491 17.0834 21.1743 17.3075 21.5655C17.5317 21.9567 17.6501 22.4002 17.6509 22.8518V37.4432C17.6457 37.8926 17.5243 38.3329 17.2986 38.7207C17.073 39.1085 16.7509 39.4304 16.364 39.6547C15.9772 39.879 15.539 39.9979 15.0927 39.9999C14.6463 40.0018 14.2071 39.8866 13.8184 39.6656L1.27044 32.3699C0.884702 32.143 0.564542 31.8186 0.341705 31.4288C0.118868 31.039 0.00109238 30.5973 5.45381e-05 30.1476V15.556C-0.00288615 15.1045 0.113143 14.6603 0.336314 14.2686C0.559486 13.877 0.881816 13.5519 1.27044 13.3266C1.65922 13.1019 2.09968 12.9836 2.54796 12.9836C2.99625 12.9836 3.43671 13.1019 3.82548 13.3266Z" fill="#484848"/>
<path d="M36.7212 15.5561V30.1476C36.7201 30.5974 36.6024 31.0391 36.3795 31.4289C36.1567 31.8187 35.8365 32.1431 35.4508 32.3699L22.9029 39.6656C22.5142 39.8866 22.075 40.0018 21.6286 39.9999C21.1822 39.998 20.7441 39.879 20.3573 39.6547C19.9704 39.4304 19.6483 39.1085 19.4227 38.7208C19.197 38.333 19.0756 37.8928 19.0703 37.4434V22.8519C19.0711 22.4003 19.1895 21.9568 19.4137 21.5656C19.6378 21.1744 19.9599 20.8492 20.3478 20.6224L32.8957 13.3266C33.2845 13.1019 33.725 12.9836 34.1733 12.9836C34.6215 12.9836 35.062 13.1019 35.4508 13.3266C35.8394 13.552 36.1617 13.8771 36.3849 14.2687C36.6081 14.6604 36.7241 15.1046 36.7212 15.5561Z" fill="#E9996B"/>
<path d="M47.1699 37.415V2.67499H56.9349C60.1749 2.67499 62.7849 5.28499 62.7849 8.52499V31.565C62.7849 34.805 60.1749 37.415 56.9349 37.415H47.1699ZM56.5299 29.63V10.505C56.5299 9.64999 55.8549 8.92999 54.9999 8.92999H53.4249V31.205H54.9999C55.8549 31.205 56.5299 30.485 56.5299 29.63ZM77.1107 2.67499L79.0457 37.415H72.5207L72.3407 31.88H70.0457L69.8657 37.415H63.3407L65.2757 2.67499H77.1107ZM70.2707 25.625H72.0707L71.4857 8.92999H70.9007L70.2707 25.625ZM86.7031 30.62V31.205H95.5681V37.415H79.9531V31.25L88.2331 9.51499V8.92999H80.5381V2.67499H94.9831V8.92999L86.7031 30.62ZM103.27 30.62V31.205H112.135V37.415H96.5205V31.25L104.8 9.51499V8.92999H97.1055V2.67499H111.55V8.92999L103.27 30.62ZM127.173 37.415H113.088V2.67499H119.343V31.205H127.173V37.415ZM134.282 8.92999V16.94H141.077V23.195H134.282V31.205H142.112V37.415H128.027V2.67499H142.112V8.92999H134.282Z" fill="#1D1F17"/>
</g>
<defs>
<clipPath id="clip0_22_402">
<rect width="143" height="46" fill="white"/>
</clipPath>
</defs>
</svg>
