<svg width="82" height="81" viewBox="0 0 82 81" fill="none" xmlns="http://www.w3.org/2000/svg">
<path fill-rule="evenodd" clip-rule="evenodd" d="M49.4383 32.0383C51.2307 34.204 52.3069 36.9771 52.3069 40C52.3069 46.9269 46.6558 52.5423 39.6847 52.5423C32.7137 52.5423 27.0625 46.9269 27.0625 40C27.0625 33.073 32.7137 27.4576 39.6847 27.4576C42.7045 27.4576 45.4765 28.5113 47.6489 30.2689L48.3441 29.5781L48.6746 27.8292C48.8032 27.1484 49.4629 26.7001 50.148 26.8279C50.8331 26.9557 51.2843 27.6112 51.1557 28.292L51.0836 28.6732L51.4673 28.6017C52.1524 28.4739 52.8121 28.9221 52.9407 29.603C53.0693 30.2838 52.6182 30.9393 51.9331 31.0671L50.0651 31.4156L49.4383 32.0383ZM45.8521 32.0544C44.1462 30.745 42.007 29.9661 39.6847 29.9661C34.1079 29.9661 29.5869 34.4584 29.5869 40C29.5869 45.5415 34.1079 50.0339 39.6847 50.0339C45.2616 50.0339 49.7825 45.5415 49.7825 40C49.7825 37.6701 48.9834 35.5257 47.6426 33.8227L45.8397 35.6142C46.7324 36.849 47.2581 38.3635 47.2581 40C47.2581 44.1562 43.8674 47.5254 39.6847 47.5254C35.5021 47.5254 32.1114 44.1562 32.1114 40C32.1114 35.8438 35.5021 32.4746 39.6847 32.4746C41.3091 32.4746 42.814 32.9827 44.0473 33.8478L45.8521 32.0544ZM42.2219 35.6616C41.4764 35.2301 40.6096 34.983 39.6847 34.983C36.8963 34.983 34.6358 37.2292 34.6358 40C34.6358 42.7708 36.8963 45.0169 39.6847 45.0169C42.4731 45.0169 44.7336 42.7708 44.7336 40C44.7336 39.0582 44.4725 38.1771 44.0182 37.4241L42.1142 39.3161C42.1761 39.5335 42.2092 39.7629 42.2092 40C42.2092 41.3854 41.0789 42.5085 39.6847 42.5085C38.2905 42.5085 37.1603 41.3854 37.1603 40C37.1603 38.6146 38.2905 37.4915 39.6847 37.4915C39.8983 37.4915 40.1057 37.5179 40.3038 37.5675L42.2219 35.6616Z" fill="#1D1F17"/>
<path d="M3 40.5C3 61.2107 20.0132 78 41 78V78C61.9868 78 79 61.2107 79 40.5C79 19.7893 61.9868 3 41 3" stroke="#E9996B" stroke-width="5.04" stroke-linecap="round" stroke-linejoin="round"/>
</svg>
