<svg width="351" height="351" viewBox="0 0 351 351" fill="none" xmlns="http://www.w3.org/2000/svg">
<path fill-rule="evenodd" clip-rule="evenodd" d="M83.4813 0.0410156V2.10413H84.7683V0.0410156H83.4813ZM265.18 2.88116L265.23 0.803553L263.943 0.772845L263.893 2.85045L265.18 2.88116ZM83.4813 6.23035V10.3566H84.7683V6.23035H83.4813ZM264.982 11.1913L265.08 7.03673L263.794 7.00585L263.695 11.1612L264.982 11.1913ZM83.4813 14.4828V18.609H84.7683V14.4828H83.4813ZM264.784 19.502L264.882 15.3467L263.596 15.3158L263.497 19.4712L264.784 19.502ZM83.4813 22.7353V24.7984C83.4813 25.537 83.5019 26.2713 83.5422 26.9996L84.8267 26.9284C84.7881 26.2232 84.7683 25.5138 84.7683 24.7984V22.7353H83.4813ZM264.634 25.7351L264.684 23.6574L263.398 23.6266L263.348 25.7043C263.331 26.4077 263.295 27.1068 263.241 27.8L264.524 27.9003C264.58 27.184 264.617 26.4617 264.634 25.7351ZM84.0304 31.3746C84.2767 32.8346 84.6036 34.2672 85.006 35.6672L86.2432 35.3121C85.8537 33.9576 85.5371 32.5721 85.2994 31.161L84.0304 31.3746ZM262.899 36.4041C263.323 35.0333 263.674 33.629 263.948 32.1973L262.683 31.9562C262.419 33.3408 262.08 34.6987 261.67 36.0241L262.899 36.4041ZM86.4603 39.8218C87.0249 41.184 87.6641 42.5068 88.3728 43.7867L89.4994 43.1631C88.8138 41.9252 88.1952 40.6462 87.6487 39.3285L86.4603 39.8218ZM259.442 44.34C260.16 43.091 260.811 41.7991 261.391 40.4677L260.211 39.9539C259.65 41.2406 259.02 42.4905 258.325 43.6984L259.442 44.34ZM90.7186 47.5115C91.5706 48.709 92.4878 49.8577 93.466 50.9506L94.4252 50.0927C93.4788 49.035 92.5916 47.925 91.768 46.766L90.7186 47.5115ZM254.324 51.322C255.301 50.2583 256.22 49.1397 257.075 47.9721L256.037 47.2121C255.21 48.341 254.321 49.4228 253.376 50.4522L254.324 51.322ZM96.578 54.0628C97.6719 55.0399 98.8199 55.957 100.019 56.8088L100.764 55.7596C99.605 54.9361 98.4939 54.0491 97.436 53.1038L96.578 54.0628ZM247.808 57.0198C248.995 56.1929 250.136 55.3007 251.223 54.3502L250.376 53.3817C249.324 54.3013 248.221 55.1634 247.072 55.9638L247.808 57.0198ZM103.744 59.1541C105.023 59.8627 106.347 60.5018 107.709 61.0663L108.202 59.8782C106.885 59.3317 105.605 58.7132 104.367 58.0286L103.744 59.1541ZM240.201 61.1546C241.545 60.6065 242.853 59.9862 244.119 59.2982L243.504 58.1676C242.28 58.8333 241.015 59.4329 239.715 59.9631L240.201 61.1546ZM111.864 62.5203C113.264 62.9226 114.697 63.2495 116.158 63.4965L116.371 62.2269C114.96 61.9893 113.574 61.6728 112.22 61.2833L111.864 62.5203ZM231.87 63.512C233.308 63.2735 234.721 62.9561 236.101 62.5658L235.751 61.327C234.415 61.7054 233.05 62.0116 231.659 62.2432L231.87 63.512ZM120.534 63.9838C121.262 64.0241 121.996 64.0447 122.735 64.0447H124.842V62.7579H122.735C122.02 62.7579 121.31 62.7382 120.605 62.6996L120.534 63.9838ZM225.392 64.0447C226.119 64.0447 226.842 64.025 227.56 63.9855L227.49 62.7013C226.795 62.7391 226.096 62.7579 225.392 62.7579H223.221V64.0447H225.392ZM129.055 64.0447H133.269V62.7579H129.055V64.0447ZM137.483 64.0447H141.695V62.7579H137.483V64.0447ZM145.909 64.0447H150.123V62.7579H145.909V64.0447ZM154.336 64.0447H158.549V62.7579H154.336V64.0447ZM162.763 64.0447H166.977V62.7579H162.763V64.0447ZM171.189 64.0447H172.653V65.5871H173.94V64.0447H175.467V62.7579H173.297H171.189V64.0447ZM179.808 64.0447H184.15V62.7579H179.808V64.0447ZM188.491 64.0447H192.832V62.7579H188.491V64.0447ZM197.173 64.0447H201.515V62.7579H197.173V64.0447ZM205.856 64.0447H210.197V62.7579H205.856V64.0447ZM214.539 64.0447H218.88V62.7579H214.539V64.0447ZM172.653 69.9578V74.3285H173.94V69.9578H172.653ZM172.653 78.6992V83.0699H173.94V78.6992H172.653ZM172.653 87.4406V91.8114H173.94V87.4406H172.653ZM172.653 96.1821V100.553H173.94V96.1821H172.653ZM172.653 104.923V109.294H173.94V104.923H172.653ZM172.653 113.665V115.85H173.94V113.665H172.653ZM86.9133 350.041V347.978H88.2004V350.041H86.9133ZM268.623 347.201L268.673 349.278L267.386 349.309L267.336 347.232L268.623 347.201ZM86.9133 343.852V339.725H88.2004V343.852H86.9133ZM268.424 338.891L268.524 343.045L267.237 343.076L267.138 338.921L268.424 338.891ZM86.9133 335.599V331.473H88.2004V335.599H86.9133ZM268.226 330.58L268.325 334.735L267.038 334.766L266.94 330.611L268.226 330.58ZM86.9133 327.347V325.284C86.9133 324.545 86.9339 323.811 86.9743 323.082L88.2587 323.154C88.2201 323.859 88.2004 324.568 88.2004 325.284V327.347H86.9133ZM268.077 324.347L268.127 326.425L266.84 326.456L266.79 324.378C266.774 323.674 266.738 322.975 266.684 322.282L267.967 322.182C268.023 322.898 268.06 323.62 268.077 324.347ZM87.4625 318.707C87.7087 317.247 88.0356 315.815 88.438 314.415L89.6753 314.77C89.2857 316.124 88.9691 317.51 88.7315 318.921L87.4625 318.707ZM266.343 313.678C266.766 315.049 267.117 316.453 267.39 317.884L266.126 318.126C265.862 316.741 265.522 315.383 265.113 314.058L266.343 313.678ZM89.8923 310.26C90.4569 308.898 91.0961 307.575 91.8049 306.295L92.9314 306.919C92.2459 308.157 91.6272 309.436 91.0807 310.754L89.8923 310.26ZM262.884 305.742C263.602 306.991 264.254 308.283 264.834 309.614L263.654 310.128C263.093 308.841 262.463 307.592 261.768 306.384L262.884 305.742ZM94.1506 302.571C95.0026 301.373 95.9199 300.224 96.898 299.131L97.8572 299.989C96.9109 301.047 96.0237 302.157 95.2 303.316L94.1506 302.571ZM257.768 298.76C258.744 299.824 259.663 300.942 260.518 302.11L259.48 302.87C258.652 301.741 257.764 300.659 256.82 299.63L257.768 298.76ZM100.01 296.019C101.103 295.042 102.252 294.125 103.45 293.273L104.196 294.322C103.037 295.146 101.926 296.033 100.868 296.979L100.01 296.019ZM251.25 293.062C252.439 293.889 253.579 294.781 254.666 295.732L253.818 296.7C252.766 295.781 251.664 294.919 250.515 294.118L251.25 293.062ZM107.176 290.928C108.455 290.219 109.779 289.58 111.141 289.016L111.634 290.204C110.317 290.75 109.037 291.369 107.799 292.053L107.176 290.928ZM243.644 288.927C244.988 289.476 246.296 290.096 247.562 290.784L246.947 291.914C245.723 291.249 244.458 290.649 243.158 290.119L243.644 288.927ZM115.296 287.562C116.697 287.159 118.129 286.833 119.59 286.586L119.803 287.855C118.392 288.093 117.006 288.409 115.652 288.799L115.296 287.562ZM235.314 286.57C236.752 286.809 238.163 287.126 239.544 287.517L239.194 288.755C237.858 288.377 236.493 288.07 235.102 287.839L235.314 286.57ZM123.966 286.098C124.694 286.058 125.428 286.037 126.167 286.037H128.274V287.324H126.167C125.452 287.324 124.742 287.344 124.037 287.382L123.966 286.098ZM228.835 286.037C229.562 286.037 230.285 286.057 231.003 286.097L230.933 287.381C230.238 287.343 229.538 287.324 228.835 287.324H226.664V286.037H228.835ZM132.488 286.037H136.702V287.324H132.488V286.037ZM140.916 286.037H145.13V287.324H140.916V286.037ZM149.344 286.037H153.557V287.324H149.344V286.037ZM157.771 286.037H161.986V287.324H157.771V286.037ZM166.199 286.037H170.413V287.324H166.199V286.037ZM174.627 286.037H176.09V284.495H177.377V286.037H178.905V287.324H176.734H174.627V286.037ZM183.246 286.037H187.589V287.324H183.246V286.037ZM191.93 286.037H196.272V287.324H191.93V286.037ZM200.613 286.037H204.956V287.324H200.613V286.037ZM209.297 286.037H213.639V287.324H209.297V286.037ZM217.98 286.037H222.322V287.324H217.98V286.037ZM176.09 280.124V275.754H177.377V280.124H176.09ZM176.09 271.383V267.012H177.377V271.383H176.09ZM176.09 262.641V258.271H177.377V262.641H176.09ZM176.09 253.9V249.529H177.377V253.9H176.09ZM176.09 245.159V240.788H177.377V245.159H176.09ZM176.09 236.417V234.232H177.377V236.417H176.09ZM348.044 266.049H350.107V264.762H348.044V266.049ZM349.345 84.3241L347.266 84.3739L347.297 85.6606L349.375 85.6109L349.345 84.3241ZM339.79 266.049H343.917V264.762H339.79V266.049ZM343.11 84.4734L338.955 84.572L338.985 85.8588L343.141 85.7593L343.11 84.4734ZM331.536 266.049H335.663V264.762H331.536V266.049ZM334.799 84.6715L330.643 84.771L330.673 86.057L334.83 85.9583L334.799 84.6715ZM325.345 266.049H327.409V264.762H325.345C324.63 264.762 323.92 264.742 323.215 264.703L323.144 265.988C323.872 266.028 324.606 266.049 325.345 266.049ZM326.486 84.8697L324.408 84.9194C323.682 84.9366 322.959 84.9735 322.243 85.0301L322.343 86.3126C323.036 86.2585 323.736 86.2225 324.439 86.2062L326.517 86.1565L326.486 84.8697ZM314.474 264.524C315.874 264.927 317.307 265.254 318.768 265.5L318.981 264.231C317.57 263.993 316.184 263.677 314.829 263.287L314.474 264.524ZM317.944 85.6066C316.513 85.8794 315.108 86.2302 313.737 86.654L314.117 87.8833C315.443 87.4733 316.801 87.1344 318.186 86.8702L317.944 85.6066ZM306.353 261.157C307.633 261.867 308.956 262.506 310.319 263.07L310.812 261.881C309.494 261.336 308.215 260.717 306.977 260.032L306.353 261.157ZM309.673 88.1621C308.341 88.742 307.049 89.3931 305.8 90.112L306.442 91.2272C307.65 90.5323 308.9 89.9027 310.187 89.3416L309.673 88.1621ZM299.188 256.066C300.281 257.044 301.43 257.961 302.628 258.813L303.373 257.764C302.214 256.94 301.104 256.052 300.046 255.107L299.188 256.066ZM302.167 92.477C300.999 93.3323 299.88 94.2511 298.816 95.2273L299.686 96.1752C300.716 95.2307 301.798 94.3429 302.927 93.515L302.167 92.477ZM293.329 249.515C294.181 250.713 295.098 251.861 296.075 252.955L297.035 252.097C296.089 251.039 295.202 249.928 294.378 248.769L293.329 249.515ZM295.788 98.3284C294.837 99.4153 293.945 100.555 293.118 101.743L294.174 102.479C294.974 101.33 295.837 100.227 296.756 99.1751L295.788 98.3284ZM289.07 241.826C289.635 243.187 290.274 244.511 290.983 245.79L292.109 245.166C291.424 243.929 290.805 242.649 290.259 241.333L289.07 241.826ZM290.839 105.431C290.151 106.697 289.53 108.004 288.982 109.348L290.174 109.834C290.704 108.534 291.304 107.27 291.97 106.046L290.839 105.431ZM286.64 233.379C286.887 234.839 287.214 236.27 287.616 237.671L288.853 237.315C288.464 235.962 288.147 234.576 287.909 233.165L286.64 233.379ZM287.571 113.447C287.18 114.828 286.863 116.239 286.624 117.677L287.893 117.888C288.125 116.498 288.431 115.133 288.81 113.797L287.571 113.447ZM286.091 226.802C286.091 227.541 286.112 228.274 286.152 229.004L287.437 228.932C287.398 228.227 287.378 227.517 287.378 226.802V224.696H286.091V226.802ZM286.151 121.987C286.111 122.705 286.091 123.427 286.091 124.155V126.325H287.378V124.155C287.378 123.45 287.397 122.751 287.435 122.057L286.151 121.987ZM286.091 216.27V220.483H287.378V216.27H286.091ZM286.091 207.843V212.057H287.378V207.843H286.091ZM286.091 199.417V203.63H287.378V199.417H286.091ZM286.091 190.991V195.205H287.378V190.991H286.091ZM286.091 182.565V186.778H287.378V182.565H286.091ZM286.091 176.889V178.352H287.378V176.245V174.075H286.091V175.602H284.549V176.889H286.091ZM286.091 165.393V169.734H287.378V165.393H286.091ZM286.091 156.711V161.052H287.378V156.711H286.091ZM286.091 148.029V152.371H287.378V148.029H286.091ZM286.091 139.348V143.689H287.378V139.348H286.091ZM286.091 130.666V135.007H287.378V130.666H286.091ZM275.806 176.889H280.177V175.602H275.806V176.889ZM267.062 176.889H271.434V175.602H267.062V176.889ZM258.319 176.889H262.691V175.602H258.319V176.889ZM249.576 176.889H253.948V175.602H249.576V176.889ZM240.833 176.889H245.205V175.602H240.833V176.889ZM234.276 176.889H236.462V175.602H234.276V176.889ZM0.0400391 266.049H2.10355V264.762H0.0400391V266.049ZM2.88073 84.3739L0.802723 84.3241L0.772009 85.6109L2.85002 85.6606L2.88073 84.3739ZM6.23056 266.049H10.3577V264.762H6.23056V266.049ZM11.1928 84.572L7.03675 84.4734L7.00603 85.7593L11.1621 85.8588L11.1928 84.572ZM14.4847 266.049H18.6117V264.762H14.4847V266.049ZM19.5048 84.771L15.3488 84.6715L15.3181 85.9583L19.4741 86.057L19.5048 84.771ZM22.7388 266.049H24.8021C25.5409 266.049 26.2754 266.028 27.0038 265.988L26.9326 264.703C26.2273 264.742 25.5177 264.762 24.8021 264.762H22.7388V266.049ZM25.7391 84.9194L23.6608 84.8697L23.6301 86.1565L25.7082 86.2062C26.4118 86.2225 27.111 86.2585 27.8043 86.3126L27.9047 85.0301C27.1883 84.9735 26.4658 84.9366 25.7391 84.9194ZM31.3796 265.5C32.84 265.254 34.2728 264.927 35.6731 264.524L35.3179 263.287C33.9631 263.677 32.5774 263.993 31.166 264.231L31.3796 265.5ZM36.4101 86.654C35.039 86.2302 33.6345 85.8794 32.2033 85.6066L31.9614 86.8702C33.3462 87.1344 34.7044 87.4733 36.03 87.8833L36.4101 86.654ZM39.8284 263.07C41.191 262.506 42.514 261.867 43.7942 261.157L43.1704 260.032C41.9323 260.717 40.653 261.336 39.3351 261.881L39.8284 263.07ZM44.3476 90.112C43.0983 89.394 41.8062 88.742 40.4745 88.1621L39.9606 89.3416C41.2476 89.9027 42.4977 90.5323 43.7058 91.2272L44.3476 90.112ZM47.5196 258.813C48.7174 257.961 49.8663 257.044 50.9594 256.066L50.1014 255.107C49.0434 256.052 47.9332 256.94 46.774 257.764L47.5196 258.813ZM51.3309 95.2273C50.267 94.2511 49.1481 93.3323 47.9804 92.477L47.2202 93.515C48.3493 94.3429 49.4313 95.2307 50.4609 96.1752L51.3309 95.2273ZM54.0722 252.955C55.0495 251.861 55.9667 250.713 56.8187 249.515L55.7694 248.769C54.9457 249.928 54.0585 251.039 53.113 252.097L54.0722 252.955ZM57.0298 101.743C56.2027 100.555 55.3103 99.4153 54.3597 98.3284L53.391 99.1751C54.3108 100.227 55.1731 101.33 55.9736 102.479L57.0298 101.743ZM59.1645 245.79C59.8732 244.511 60.5124 243.187 61.077 241.826L59.8887 241.333C59.3421 242.649 58.7235 243.929 58.0388 245.166L59.1645 245.79ZM61.1654 109.348C60.6171 108.004 59.9968 106.697 59.3087 105.431L58.1778 106.046C58.8436 107.27 59.4434 108.534 59.9736 109.834L61.1654 109.348ZM62.5313 237.671C62.9337 236.27 63.2606 234.839 63.5077 233.379L62.2379 233.165C62.0002 234.576 61.6836 235.962 61.2941 237.315L62.5313 237.671ZM63.5232 117.677C63.2847 116.239 62.9672 114.828 62.5768 113.447L61.3378 113.797C61.7162 115.133 62.0225 116.498 62.2542 117.888L63.5232 117.677ZM63.9951 229.004C64.0354 228.274 64.056 227.541 64.056 226.802V224.696H62.769V226.802C62.769 227.517 62.7493 228.227 62.7107 228.932L63.9951 229.004ZM64.056 124.155C64.056 123.427 64.0363 122.705 63.9968 121.987L62.7124 122.057C62.7501 122.751 62.769 123.45 62.769 124.155V126.325H64.056V124.155ZM64.056 220.483V216.27H62.769V220.483H64.056ZM64.056 212.057V207.843H62.769V212.057H64.056ZM64.056 203.63V199.417H62.769V203.63H64.056ZM64.056 195.205V190.991H62.769V195.205H64.056ZM64.056 186.778V182.565H62.769V186.778H64.056ZM64.056 178.352V176.889H65.5987V175.602H64.056V174.075H62.769V176.245V178.352H64.056ZM64.056 169.734V165.393H62.769V169.734H64.056ZM64.056 161.052V156.711H62.769V161.052H64.056ZM64.056 152.371V148.029H62.769V152.371H64.056ZM64.056 143.689V139.348H62.769V143.689H64.056ZM64.056 135.007V130.666H62.769V135.007H64.056ZM69.9703 176.889H74.3418V175.602H69.9703V176.889ZM78.7134 176.889H83.0849V175.602H78.7134V176.889ZM87.4565 176.889H91.828V175.602H87.4565V176.889ZM96.1996 176.889H100.571V175.602H96.1996V176.889ZM104.943 176.889H109.314V175.602H104.943V176.889ZM113.686 176.889H115.871V175.602H113.686V176.889Z" fill="#E9996B"/>
</svg>
