<svg width="226" height="107" viewBox="0 0 226 107" fill="none" xmlns="http://www.w3.org/2000/svg">
<path d="M172.203 61.3946L156.162 69.4087L156.438 66.1647L167.639 54.3247L172.203 61.3946Z" fill="#1D1B61"/>
<path d="M157.223 47.3798L193.924 81.5688C194.32 81.9391 194.805 82.2042 195.33 82.3405C195.855 82.4767 196.407 82.4797 196.933 82.3493C197.46 82.2186 197.947 81.9588 198.349 81.5929C198.751 81.227 199.055 80.7667 199.234 80.2536L225.749 4.35207C225.946 3.791 225.985 3.18706 225.863 2.60515C225.742 2.02323 225.467 1.48531 225.063 1.04914C224.659 0.612973 224.144 0.295044 223.575 0.129486C223.005 -0.0360717 222.401 -0.0430001 221.826 0.109445L137.819 22.4637C137.256 22.6141 136.741 22.9133 136.33 23.33C135.921 23.7467 135.63 24.2659 135.489 24.8333C135.347 25.4009 135.361 25.9959 135.526 26.5566C135.693 27.1173 136.005 27.6231 136.434 28.0215L157.223 47.3798Z" fill="#6A65FF"/>
<path d="M214.492 10.8752L167.544 56.9922L156.393 69.2225C156.213 69.4159 155.974 69.5455 155.714 69.5921C155.452 69.6387 155.184 69.5998 154.946 69.4813C154.711 69.3628 154.518 69.171 154.399 68.9341C154.279 68.6975 154.241 68.4286 154.286 68.1675L157.415 47.5645L214.492 10.8752Z" fill="#4743D0"/>
<path d="M0.304218 106.995C0.267051 106.995 0.23019 106.987 0.195596 106.971C0.120253 106.937 0.0594429 106.868 0.0265158 106.78C-0.00641145 106.693 -0.00876426 106.593 0.0199735 106.503C0.132656 106.156 0.248384 105.804 0.365127 105.461C0.396804 105.374 0.455672 105.306 0.529182 105.27C0.602692 105.234 0.685029 105.234 0.758642 105.27C0.832255 105.305 0.891322 105.373 0.92325 105.46C0.955177 105.546 0.95744 105.644 0.929557 105.733C0.814844 106.072 0.700131 106.419 0.589478 106.763C0.567269 106.832 0.528101 106.891 0.477161 106.932C0.426221 106.973 0.365913 106.995 0.304218 106.995ZM67.4723 106.719H67.453C67.0358 106.687 66.6114 106.636 66.1912 106.566C66.1123 106.551 66.0415 106.5 65.9941 106.424C65.9466 106.347 65.9263 106.252 65.9375 106.158C65.9486 106.064 65.9905 105.979 66.0538 105.921C66.1173 105.863 66.1971 105.837 66.2764 105.849C66.6825 105.916 67.0886 105.97 67.4946 105.995C67.5346 105.996 67.574 106.007 67.6104 106.027C67.647 106.046 67.6799 106.074 67.7073 106.109C67.7347 106.143 67.7561 106.184 67.7703 106.229C67.7846 106.273 67.7913 106.321 67.79 106.368C67.7888 106.416 67.7798 106.463 67.7633 106.506C67.747 106.55 67.7235 106.589 67.6944 106.621C67.6653 106.654 67.6311 106.679 67.5936 106.696C67.5562 106.713 67.5163 106.721 67.4763 106.72L67.4723 106.719ZM70.5766 106.572C70.5366 106.576 70.4965 106.57 70.4585 106.554C70.4205 106.539 70.3853 106.515 70.355 106.484C70.2939 106.421 70.2565 106.331 70.2508 106.235C70.2451 106.139 70.2718 106.044 70.3249 105.972C70.3781 105.899 70.4532 105.854 70.534 105.848C70.932 105.781 71.337 105.695 71.736 105.59C71.815 105.57 71.8977 105.588 71.9657 105.639C72.0337 105.692 72.0816 105.774 72.0989 105.868C72.1161 105.962 72.1012 106.06 72.0576 106.141C72.0139 106.222 71.945 106.279 71.8659 106.299C71.4517 106.407 71.0325 106.496 70.6193 106.566C70.6052 106.57 70.591 106.572 70.5766 106.572ZM63.2086 105.727C63.1765 105.727 63.1447 105.721 63.1142 105.709C62.7203 105.555 62.3204 105.384 61.9265 105.197C61.8554 105.158 61.7995 105.088 61.7703 105.002C61.7412 104.916 61.741 104.82 61.7698 104.733C61.7987 104.647 61.8542 104.577 61.9251 104.538C61.9961 104.499 62.0769 104.494 62.1508 104.524C62.5335 104.704 62.9213 104.872 63.303 105.02C63.3718 105.047 63.4302 105.102 63.4679 105.176C63.5056 105.249 63.5201 105.336 63.5087 105.421C63.4973 105.506 63.4609 105.584 63.406 105.64C63.3509 105.696 63.281 105.727 63.2086 105.727ZM74.7652 105.201C74.6944 105.202 74.6258 105.173 74.571 105.119C74.5163 105.066 74.4788 104.992 74.4651 104.909C74.4515 104.827 74.4624 104.741 74.496 104.667C74.5297 104.593 74.5839 104.535 74.6495 104.503C75.022 104.321 75.3987 104.119 75.7661 103.899C75.8023 103.877 75.8418 103.863 75.8824 103.859C75.923 103.855 75.9638 103.861 76.0026 103.876C76.0413 103.891 76.0771 103.915 76.1078 103.947C76.1385 103.979 76.1635 104.018 76.1813 104.061C76.1992 104.105 76.2096 104.152 76.2118 104.201C76.2139 104.249 76.208 104.297 76.1941 104.343C76.1803 104.389 76.159 104.43 76.1313 104.466C76.1037 104.502 76.0703 104.53 76.0331 104.55C75.6535 104.771 75.2657 104.979 74.8809 105.168C74.8444 105.187 74.8052 105.198 74.7652 105.2V105.201ZM59.2332 103.631C59.1813 103.631 59.1303 103.615 59.085 103.584C58.7247 103.342 58.3602 103.089 58.0008 102.824C57.9664 102.799 57.9364 102.767 57.9126 102.728C57.8889 102.689 57.8717 102.645 57.8623 102.599C57.8528 102.552 57.8513 102.504 57.8577 102.457C57.8641 102.409 57.8783 102.364 57.8995 102.323C57.9207 102.282 57.9486 102.247 57.9812 102.219C58.014 102.191 58.0511 102.172 58.0904 102.161C58.1297 102.15 58.1703 102.149 58.21 102.157C58.2497 102.165 58.2876 102.182 58.3216 102.208C58.6739 102.467 59.0322 102.718 59.3825 102.952C59.4415 102.991 59.4878 103.053 59.5142 103.127C59.5407 103.2 59.5458 103.283 59.5288 103.36C59.5117 103.438 59.4734 103.507 59.4199 103.556C59.3664 103.605 59.3008 103.631 59.2332 103.631ZM93.6979 102.998C93.6172 102.998 93.5397 102.96 93.4826 102.892C93.4255 102.824 93.3934 102.732 93.3934 102.636C93.3934 102.54 93.4255 102.447 93.4826 102.38C93.5397 102.312 93.6172 102.273 93.6979 102.273C94.104 102.273 94.5182 102.261 94.9303 102.24C95.0112 102.235 95.09 102.27 95.1495 102.335C95.2091 102.4 95.2446 102.49 95.2481 102.586C95.2516 102.682 95.2229 102.776 95.1682 102.847C95.1136 102.918 95.0375 102.96 94.9567 102.964C94.5365 102.986 94.1131 102.997 93.699 102.998H93.6979ZM90.5926 102.799C90.5811 102.8 90.5695 102.8 90.558 102.799C90.3114 102.766 90.0606 102.729 89.8139 102.688C89.6454 102.66 89.4769 102.63 89.3064 102.597C89.2669 102.589 89.2291 102.572 89.1952 102.547C89.1613 102.522 89.132 102.489 89.1088 102.45C89.0856 102.411 89.069 102.367 89.0601 102.321C89.0511 102.274 89.0499 102.226 89.0566 102.179C89.0633 102.132 89.0776 102.087 89.099 102.047C89.1202 102.007 89.1479 101.972 89.1806 101.944C89.2132 101.916 89.25 101.897 89.289 101.886C89.3281 101.876 89.3684 101.874 89.4079 101.882C89.5713 101.913 89.7358 101.942 89.8992 101.97C90.1408 102.01 90.3855 102.048 90.6261 102.079C90.7069 102.084 90.7826 102.127 90.8367 102.199C90.8907 102.27 90.9187 102.364 90.9144 102.461C90.9101 102.557 90.8739 102.647 90.8137 102.711C90.7536 102.776 90.6744 102.809 90.5936 102.804L90.5926 102.799ZM78.5863 102.735C78.5212 102.735 78.4577 102.71 78.4053 102.664C78.3529 102.618 78.3142 102.553 78.295 102.479C78.2758 102.405 78.2771 102.326 78.2987 102.253C78.3202 102.179 78.3609 102.117 78.4147 102.073C78.7487 101.801 79.0837 101.512 79.4106 101.216C79.442 101.185 79.4787 101.161 79.5182 101.146C79.5576 101.132 79.5992 101.127 79.6402 101.133C79.6812 101.138 79.721 101.153 79.7569 101.177C79.793 101.201 79.8245 101.234 79.8495 101.273C79.8746 101.312 79.8928 101.356 79.9029 101.404C79.913 101.452 79.9149 101.501 79.9084 101.55C79.9019 101.598 79.8872 101.645 79.8652 101.686C79.843 101.728 79.8141 101.764 79.7801 101.791C79.4451 102.096 79.101 102.395 78.7578 102.671C78.707 102.71 78.647 102.73 78.5863 102.728V102.735ZM98.0398 102.63C97.9998 102.633 97.9597 102.627 97.9217 102.611C97.8838 102.596 97.8486 102.572 97.8185 102.541C97.7883 102.509 97.7637 102.471 97.7459 102.428C97.7281 102.386 97.7176 102.339 97.7149 102.292C97.7123 102.244 97.7175 102.196 97.7304 102.151C97.7431 102.106 97.7634 102.064 97.7897 102.028C97.8161 101.992 97.8482 101.963 97.8842 101.942C97.9201 101.921 97.9592 101.908 97.9992 101.905C98.4052 101.84 98.8113 101.765 99.2174 101.683C99.2952 101.671 99.3737 101.696 99.4366 101.752C99.4995 101.808 99.5419 101.89 99.555 101.982C99.5681 102.074 99.5508 102.168 99.5069 102.246C99.4628 102.323 99.3955 102.377 99.3189 102.397C98.9027 102.481 98.4854 102.557 98.0784 102.622C98.0656 102.624 98.0527 102.624 98.0398 102.622V102.63ZM1.90411 102.583C1.85808 102.582 1.81265 102.57 1.77113 102.546C1.69868 102.504 1.64315 102.43 1.6167 102.339C1.59025 102.249 1.59504 102.15 1.63002 102.063C1.81173 101.616 1.99954 101.167 2.19039 100.735C2.20762 100.69 2.23226 100.65 2.26283 100.617C2.2934 100.584 2.32925 100.559 2.36823 100.543C2.4072 100.527 2.44848 100.521 2.48957 100.525C2.53066 100.528 2.57071 100.542 2.60728 100.564C2.64385 100.587 2.67619 100.618 2.70236 100.656C2.72851 100.694 2.74793 100.738 2.75945 100.785C2.77096 100.832 2.77433 100.881 2.76935 100.93C2.76436 100.979 2.75113 101.026 2.73045 101.068C2.54367 101.498 2.35789 101.94 2.17821 102.382C2.15213 102.441 2.11294 102.49 2.06496 102.524C2.01697 102.558 1.96203 102.576 1.90614 102.575L1.90411 102.583ZM86.3218 101.77C86.2926 101.77 86.2634 101.764 86.2355 101.754C85.8355 101.614 85.4325 101.459 85.0366 101.294C84.9989 101.278 84.9641 101.253 84.9344 101.222C84.9046 101.19 84.8805 101.151 84.8632 101.108C84.8459 101.065 84.836 101.019 84.8339 100.971C84.8317 100.924 84.8375 100.876 84.8508 100.831C84.8641 100.786 84.8848 100.745 84.9115 100.71C84.9383 100.674 84.9707 100.645 85.0067 100.625C85.0429 100.604 85.082 100.592 85.122 100.59C85.162 100.587 85.202 100.594 85.2396 100.61C85.6254 100.771 86.0193 100.922 86.4091 101.059C86.4795 101.084 86.5402 101.138 86.5799 101.211C86.6196 101.285 86.6358 101.373 86.6252 101.459C86.6148 101.546 86.5784 101.625 86.5228 101.682C86.4673 101.739 86.3962 101.77 86.3228 101.77H86.3218ZM102.313 101.649C102.238 101.648 102.167 101.616 102.112 101.557C102.057 101.498 102.021 101.417 102.012 101.33C102.003 101.242 102.021 101.154 102.064 101.081C102.106 101.008 102.168 100.957 102.241 100.935C102.631 100.822 103.034 100.693 103.438 100.573C103.477 100.559 103.518 100.555 103.558 100.561C103.599 100.566 103.637 100.581 103.673 100.605C103.707 100.628 103.739 100.66 103.763 100.698C103.789 100.736 103.807 100.779 103.817 100.826C103.828 100.872 103.83 100.921 103.825 100.969C103.82 101.016 103.807 101.062 103.787 101.104C103.765 101.145 103.739 101.181 103.706 101.21C103.674 101.239 103.637 101.26 103.598 101.272C103.192 101.404 102.786 101.528 102.386 101.644C102.362 101.647 102.34 101.647 102.317 101.643L102.313 101.649ZM55.5959 100.776C55.5295 100.775 55.4651 100.75 55.4122 100.702C55.0863 100.407 54.7544 100.098 54.4244 99.7803C54.3658 99.7185 54.3293 99.632 54.3228 99.5391C54.3163 99.4461 54.3403 99.3537 54.3896 99.2811C54.4389 99.2086 54.5098 99.1615 54.5877 99.1495C54.6654 99.1377 54.7441 99.162 54.8071 99.2174C55.132 99.529 55.4589 99.8346 55.7797 100.125C55.8304 100.17 55.8679 100.234 55.8867 100.307C55.9054 100.379 55.9046 100.457 55.8843 100.529C55.864 100.6 55.8252 100.663 55.7736 100.707C55.7218 100.752 55.6597 100.775 55.5959 100.776ZM106.499 100.215C106.427 100.215 106.357 100.184 106.302 100.128C106.247 100.072 106.211 99.9947 106.199 99.9097C106.187 99.8246 106.202 99.7375 106.24 99.6641C106.278 99.5905 106.336 99.5355 106.405 99.5085C106.786 99.3599 107.181 99.2005 107.579 99.0374C107.655 99.0054 107.74 99.0107 107.813 99.0523C107.886 99.0938 107.942 99.1682 107.969 99.2591C107.995 99.3499 107.991 99.4497 107.956 99.5367C107.921 99.6235 107.858 99.6903 107.782 99.7223C107.376 99.8878 106.982 100.047 106.598 100.197C106.567 100.207 106.535 100.211 106.503 100.209L106.499 100.215ZM82.2713 99.883C82.2245 99.883 82.1783 99.8702 82.1363 99.8455C81.7607 99.6245 81.3861 99.3901 81.0196 99.1474C80.9847 99.1242 80.9539 99.0929 80.9292 99.0556C80.9044 99.0182 80.886 98.9753 80.8751 98.9296C80.8642 98.8837 80.861 98.8358 80.8657 98.7885C80.8704 98.7413 80.8829 98.6955 80.9024 98.6539C80.9219 98.6124 80.9481 98.5758 80.9795 98.5463C81.011 98.5168 81.0469 98.495 81.0854 98.4819C81.124 98.469 81.1643 98.4652 81.204 98.4708C81.2438 98.4764 81.2821 98.4912 81.317 98.5144C81.4571 98.6071 81.5986 98.6989 81.7414 98.7898C82.0246 98.4564 82.3048 98.1098 82.5748 97.7607C82.6303 97.6944 82.7051 97.6562 82.7836 97.654C82.8623 97.6518 82.9386 97.6859 82.9964 97.7491C83.0544 97.8123 83.0896 97.8997 83.0946 97.9931C83.0997 98.0863 83.0742 98.1784 83.0235 98.2499C82.7921 98.5506 82.5525 98.8538 82.3129 99.1389L82.4083 99.1957C82.47 99.2319 82.5195 99.2918 82.5489 99.3659C82.5783 99.4398 82.5857 99.5234 82.5701 99.6031C82.5544 99.6827 82.5166 99.7537 82.4628 99.8046C82.4088 99.8554 82.3421 99.883 82.2733 99.883H82.2713ZM110.6 98.4661C110.529 98.4662 110.46 98.4366 110.405 98.3825C110.351 98.3285 110.314 98.2533 110.301 98.17C110.288 98.0868 110.3 98.0008 110.334 97.9269C110.369 97.853 110.425 97.7959 110.491 97.7655C110.878 97.5876 111.263 97.408 111.647 97.2268C111.685 97.2071 111.725 97.1967 111.766 97.196C111.806 97.1954 111.847 97.2046 111.886 97.2229C111.923 97.2414 111.958 97.2687 111.986 97.3032C112.014 97.3378 112.038 97.379 112.053 97.4242C112.068 97.4694 112.075 97.5178 112.074 97.5664C112.073 97.6151 112.064 97.6631 112.047 97.7075C112.031 97.7519 112.006 97.7917 111.976 97.8247C111.946 97.8578 111.911 97.8832 111.872 97.8996C111.487 98.0816 111.099 98.2623 110.71 98.4419C110.675 98.455 110.64 98.4611 110.604 98.4601L110.6 98.4661ZM3.9923 98.0312C3.93562 98.0312 3.88007 98.0124 3.8319 97.9769C3.79765 97.9521 3.76786 97.9195 3.74421 97.8811C3.72057 97.8426 3.70355 97.7988 3.69412 97.7526C3.68469 97.7062 3.68303 97.6581 3.68925 97.611C3.69548 97.5639 3.70945 97.5187 3.73039 97.478C3.95169 97.0541 4.1801 96.6325 4.40851 96.223C4.43065 96.1834 4.45912 96.1493 4.49232 96.1228C4.52552 96.0962 4.56279 96.0776 4.602 96.0682C4.64122 96.0587 4.68161 96.0586 4.72087 96.0678C4.76013 96.077 4.79749 96.0952 4.83082 96.1215C4.86415 96.1479 4.89279 96.1818 4.91511 96.2213C4.93743 96.2608 4.953 96.3051 4.96091 96.3518C4.96883 96.3984 4.96895 96.4465 4.96126 96.4932C4.95357 96.54 4.93823 96.5844 4.91609 96.624C4.69073 97.0263 4.46638 97.4418 4.24812 97.8597C4.22109 97.9117 4.18345 97.9547 4.13873 97.9846C4.094 98.0146 4.04363 98.0306 3.9923 98.0312ZM52.2642 97.4273C52.1889 97.4264 52.1166 97.3924 52.0611 97.3319C51.7688 97.0142 51.4683 96.6832 51.1475 96.3221C51.0885 96.2562 51.054 96.1653 51.0515 96.069C51.0488 95.9729 51.0785 95.8795 51.1338 95.8093C51.1891 95.7391 51.2657 95.6981 51.3465 95.6949C51.4273 95.6919 51.5057 95.7272 51.5647 95.793C51.8865 96.1554 52.184 96.4815 52.4784 96.7968C52.5237 96.8458 52.5556 96.9101 52.5698 96.9811C52.584 97.052 52.5799 97.1264 52.558 97.1945C52.536 97.2627 52.4973 97.3214 52.4469 97.3629C52.3964 97.4045 52.3367 97.4268 52.2753 97.4273H52.2642ZM78.5507 97.1857C78.4862 97.1856 78.4232 97.1611 78.3711 97.1157C78.033 96.8221 77.697 96.5117 77.3721 96.2025C77.3411 96.1725 77.3152 96.1357 77.296 96.0939C77.2768 96.0521 77.2648 96.0062 77.2606 95.9588C77.2563 95.9115 77.26 95.8637 77.2713 95.818C77.2826 95.7723 77.3014 95.7298 77.3264 95.6927C77.3516 95.6557 77.3826 95.6249 77.4177 95.6021C77.4528 95.5793 77.4914 95.5651 77.5312 95.56C77.571 95.5549 77.6112 95.5593 77.6496 95.5727C77.6879 95.5862 77.7237 95.6084 77.7548 95.6384C78.0716 95.944 78.3995 96.2423 78.7294 96.5298C78.7816 96.5748 78.8204 96.6382 78.8404 96.711C78.8604 96.7837 78.8604 96.8622 78.8406 96.9351C78.8207 97.0079 78.782 97.0714 78.7299 97.1165C78.6778 97.1614 78.6151 97.1857 78.5507 97.1857ZM114.645 96.5165C114.575 96.5168 114.506 96.4879 114.451 96.4349C114.397 96.3817 114.36 96.3078 114.345 96.2255C114.331 96.1434 114.342 96.0579 114.375 95.9838C114.408 95.9098 114.462 95.8518 114.527 95.8196C114.91 95.6299 115.29 95.4379 115.672 95.2446C115.709 95.2252 115.749 95.2147 115.789 95.2137C115.829 95.2127 115.87 95.2213 115.908 95.2389C115.945 95.2566 115.979 95.2829 116.008 95.3164C116.037 95.3498 116.06 95.3899 116.075 95.434C116.091 95.4782 116.099 95.5257 116.099 95.5738C116.101 95.6217 116.092 95.6693 116.077 95.7138C116.062 95.7582 116.039 95.7986 116.01 95.8324C115.982 95.8663 115.948 95.8931 115.911 95.9114C115.529 96.1046 115.146 96.2971 114.763 96.4888C114.725 96.5072 114.685 96.5167 114.645 96.5165ZM84.7686 95.4934C84.7044 95.4934 84.6419 95.4694 84.5899 95.4246C84.5575 95.3967 84.53 95.3614 84.5091 95.3209C84.4882 95.2804 84.4741 95.2353 84.4678 95.1883C84.4615 95.1413 84.463 95.0933 84.4723 95.047C84.4816 95.0007 84.4985 94.957 84.5219 94.9185C84.7605 94.5271 84.995 94.1213 85.2203 93.7106C85.2671 93.6376 85.3354 93.5886 85.4114 93.5732C85.4874 93.5578 85.5655 93.5773 85.6299 93.6277C85.6942 93.6781 85.7402 93.7557 85.7584 93.8449C85.7765 93.934 85.7657 94.028 85.7279 94.108C85.4975 94.5259 85.2569 94.9402 85.0173 95.3412C84.989 95.3886 84.9515 95.4271 84.9081 95.4536C84.8646 95.48 84.8164 95.4938 84.7676 95.4934H84.7686ZM118.644 94.4619C118.574 94.4619 118.507 94.4333 118.453 94.3811C118.399 94.3288 118.361 94.2561 118.347 94.1749C118.332 94.0937 118.342 94.009 118.373 93.9351C118.405 93.8611 118.457 93.8024 118.521 93.7685C118.899 93.568 119.278 93.3667 119.655 93.1646C119.729 93.1249 119.812 93.1216 119.888 93.1554C119.963 93.1894 120.025 93.2576 120.059 93.3452C120.091 93.4327 120.094 93.5326 120.066 93.6226C120.037 93.7127 119.98 93.7856 119.906 93.8253C119.528 94.0282 119.148 94.2296 118.768 94.4293C118.729 94.4509 118.687 94.462 118.643 94.4619H118.644ZM49.106 93.8652C49.0272 93.8651 48.9516 93.8287 48.8949 93.7637L47.9985 92.737C47.9683 92.7045 47.944 92.6651 47.9268 92.6212C47.9096 92.5772 47.9 92.5296 47.8986 92.4812C47.8972 92.4328 47.9039 92.3845 47.9184 92.3392C47.9329 92.2939 47.9549 92.2526 47.983 92.2177C48.0113 92.1827 48.0451 92.1548 48.0824 92.1356C48.1198 92.1165 48.1601 92.1063 48.2008 92.1061C48.2415 92.1057 48.2818 92.115 48.3195 92.1337C48.3571 92.1521 48.3912 92.1794 48.4198 92.214C48.7243 92.5558 49.0187 92.8989 49.3182 93.2419C49.3619 93.2922 49.3921 93.3567 49.4048 93.4274C49.4174 93.4982 49.412 93.5718 49.3891 93.6388C49.3663 93.7059 49.3271 93.7632 49.2767 93.8036C49.2262 93.8439 49.1668 93.8654 49.106 93.8652ZM6.50381 93.7987C6.43475 93.7985 6.36783 93.7705 6.31397 93.719C6.25122 93.6589 6.21108 93.5715 6.20232 93.4762C6.19357 93.3809 6.21693 93.2854 6.26727 93.2105C6.52918 92.8215 6.79922 92.4362 7.07128 92.063C7.09705 92.0254 7.12889 91.9943 7.16494 91.9715C7.201 91.949 7.24051 91.9351 7.28113 91.9308C7.32177 91.9267 7.36269 91.9323 7.40148 91.9473C7.44027 91.9622 7.47613 91.9864 7.50694 92.0182C7.53775 92.0499 7.56287 92.0888 7.58082 92.1324C7.59877 92.1759 7.60918 92.2234 7.61145 92.2718C7.6137 92.3203 7.60776 92.3688 7.59397 92.4145C7.58017 92.4601 7.55881 92.5021 7.53115 92.5377C7.26416 92.9001 6.9992 93.283 6.74237 93.6635C6.71359 93.7061 6.67709 93.7403 6.6356 93.7637C6.59411 93.7872 6.54871 93.7991 6.50279 93.7987H6.50381ZM75.2748 93.7891C75.2337 93.7892 75.193 93.7794 75.1551 93.7603C75.1173 93.7412 75.083 93.7132 75.0545 93.678C74.7642 93.3156 74.4779 92.9448 74.2048 92.5703C74.1519 92.4976 74.1254 92.4029 74.1313 92.3069C74.1371 92.211 74.1747 92.1217 74.2358 92.0588C74.2969 91.9958 74.3766 91.9643 74.4572 91.9712C74.5378 91.9782 74.6128 92.0229 74.6657 92.0956C74.9317 92.458 75.2098 92.8203 75.4941 93.1755C75.5219 93.2099 75.5437 93.2504 75.5583 93.2948C75.5729 93.3393 75.58 93.3867 75.5792 93.4344C75.5782 93.4822 75.5695 93.5291 75.5534 93.5727C75.5372 93.6165 75.514 93.6559 75.485 93.6888C75.4281 93.7535 75.3525 93.7893 75.2738 93.7891H75.2748ZM122.607 92.3046C122.538 92.3049 122.47 92.2771 122.416 92.2256C122.361 92.1741 122.323 92.102 122.308 92.0213C122.293 91.9406 122.301 91.8563 122.332 91.7821C122.363 91.708 122.414 91.6485 122.477 91.6136C122.851 91.4035 123.223 91.1921 123.593 90.9795C123.63 90.959 123.669 90.9471 123.709 90.9446C123.749 90.942 123.788 90.9489 123.827 90.9648C123.864 90.9806 123.899 91.0052 123.928 91.0371C123.959 91.0689 123.983 91.1074 124 91.1504C124.018 91.1934 124.027 91.24 124.029 91.2876C124.032 91.3352 124.026 91.3828 124.013 91.4277C123.999 91.4726 123.978 91.514 123.952 91.5494C123.924 91.5848 123.893 91.6136 123.856 91.6342C123.482 91.8468 123.106 92.0585 122.731 92.2695C122.692 92.292 122.649 92.304 122.606 92.3046H122.607ZM87.0324 91.0725C86.9803 91.0724 86.9292 91.0564 86.8838 91.0261C86.8384 90.9958 86.8003 90.9522 86.7731 90.8994C86.7459 90.8465 86.7306 90.7863 86.7285 90.7244C86.7264 90.6625 86.7378 90.6011 86.7613 90.5459C86.9461 90.1122 87.1248 89.6677 87.2943 89.2244C87.3099 89.1796 87.3331 89.1389 87.3622 89.1048C87.3914 89.0709 87.426 89.0441 87.4639 89.0263C87.5019 89.0086 87.5425 89 87.5833 89.0012C87.6241 89.0024 87.6643 89.0134 87.7015 89.0336C87.7386 89.0536 87.772 89.0824 87.7997 89.1181C87.8274 89.1539 87.8487 89.1959 87.8624 89.2417C87.8761 89.2875 87.882 89.336 87.8795 89.3845C87.8772 89.433 87.8667 89.4804 87.8486 89.524C87.676 89.9769 87.4933 90.4311 87.3045 90.8732C87.2791 90.9331 87.2402 90.9835 87.1922 91.0187C87.1442 91.0539 87.0888 91.0725 87.0324 91.0725ZM45.9367 90.3079C45.8616 90.3074 45.7893 90.2738 45.7336 90.2137C45.4179 89.8731 45.1063 89.5445 44.8078 89.2353C44.7762 89.2046 44.7501 89.1667 44.7311 89.1238C44.712 89.0809 44.7003 89.0339 44.6968 88.9856C44.6933 88.9373 44.698 88.8885 44.7106 88.8423C44.7232 88.7962 44.7435 88.7536 44.7702 88.7168C44.797 88.6802 44.8295 88.6504 44.8662 88.629C44.9028 88.6076 44.9426 88.5952 44.9833 88.5925C45.024 88.5899 45.0649 88.5969 45.1032 88.6133C45.1416 88.6298 45.1768 88.6552 45.2068 88.6881C45.5113 89.0009 45.824 89.3331 46.1428 89.6762C46.1885 89.7252 46.2207 89.7895 46.2351 89.8606C46.2495 89.9319 46.2455 90.0065 46.2236 90.075C46.2015 90.1434 46.1627 90.2022 46.112 90.2438C46.0613 90.2854 46.0012 90.3078 45.9397 90.3079H45.9367ZM126.522 90.0446C126.453 90.0449 126.386 90.0175 126.332 89.9668C126.278 89.9161 126.24 89.845 126.225 89.7653C126.208 89.6856 126.217 89.6018 126.245 89.5277C126.274 89.4537 126.324 89.3935 126.386 89.3573C126.757 89.139 127.126 88.9184 127.497 88.6953C127.532 88.6722 127.572 88.6577 127.612 88.6528C127.653 88.6481 127.694 88.6531 127.733 88.6674C127.772 88.6818 127.808 88.7054 127.839 88.7367C127.87 88.7681 127.896 88.8065 127.914 88.8497C127.932 88.893 127.943 88.9403 127.946 88.9886C127.949 89.0371 127.943 89.0856 127.93 89.1315C127.917 89.1774 127.897 89.2196 127.869 89.2557C127.842 89.2918 127.808 89.321 127.772 89.3416C127.401 89.5647 127.03 89.7864 126.655 90.0071C126.614 90.0314 126.568 90.0442 126.522 90.0446ZM9.44879 89.9926C9.38761 89.9929 9.3278 89.9711 9.27713 89.9304C9.22647 89.8896 9.1873 89.8316 9.16473 89.764C9.14217 89.6963 9.13724 89.6222 9.15061 89.5511C9.16397 89.4801 9.19501 89.4155 9.23966 89.3657C9.54421 89.0239 9.85993 88.6869 10.1736 88.3644C10.235 88.3043 10.3137 88.2754 10.3929 88.2833C10.472 88.2914 10.5454 88.336 10.5974 88.4076C10.6493 88.4791 10.6757 88.572 10.6708 88.6665C10.666 88.7608 10.6304 88.8492 10.5715 88.9128C10.267 89.228 9.95637 89.559 9.65791 89.8936C9.60241 89.956 9.52922 89.9914 9.45285 89.9926H9.44879ZM72.5562 89.7426C72.5055 89.7427 72.4555 89.7279 72.4107 89.6991C72.3661 89.6705 72.3282 89.6289 72.3004 89.5783C72.07 89.1604 71.8476 88.7328 71.6395 88.3004C71.5991 88.217 71.5883 88.1181 71.6092 88.0252C71.6301 87.9323 71.6812 87.8532 71.7512 87.8051C71.8212 87.757 71.9044 87.7441 71.9824 87.769C72.0605 87.7939 72.127 87.8546 72.1674 87.938C72.3704 88.3559 72.5867 88.7751 72.81 89.1821C72.8399 89.2367 72.857 89.2999 72.8592 89.365C72.8616 89.4301 72.8491 89.4947 72.8231 89.5521C72.7971 89.6095 72.7586 89.6574 72.7116 89.691C72.6647 89.7245 72.611 89.7424 72.5562 89.7426ZM130.401 87.6892C130.333 87.6895 130.266 87.6626 130.212 87.6126C130.158 87.5627 130.121 87.4926 130.105 87.4138C130.087 87.335 130.094 87.2518 130.122 87.1777C130.15 87.1037 130.198 87.0431 130.259 87.0055C130.625 86.776 130.992 86.5456 131.357 86.3146C131.393 86.2898 131.432 86.2737 131.473 86.2676C131.514 86.2613 131.555 86.2648 131.594 86.2781C131.633 86.2914 131.671 86.314 131.702 86.3446C131.735 86.3753 131.761 86.4132 131.781 86.4564C131.8 86.4995 131.812 86.5468 131.815 86.5955C131.819 86.6442 131.814 86.6932 131.801 86.7397C131.789 86.7861 131.767 86.829 131.741 86.8659C131.714 86.9026 131.68 86.9324 131.644 86.9535C131.277 87.1863 130.911 87.4174 130.542 87.6469C130.5 87.6722 130.453 87.6851 130.405 87.6843L130.401 87.6892ZM42.5897 86.9958C42.5238 86.9958 42.4596 86.9703 42.407 86.9233C42.073 86.625 41.737 86.3363 41.408 86.0645C41.375 86.0373 41.3466 86.0027 41.3248 85.9625C41.3029 85.9222 41.288 85.8772 41.2806 85.8301C41.2734 85.783 41.274 85.7346 41.2825 85.6879C41.2909 85.641 41.307 85.5966 41.3299 85.5572C41.3527 85.5178 41.382 85.4841 41.4158 85.4582C41.4496 85.4321 41.4873 85.4143 41.5269 85.4056C41.5665 85.397 41.6071 85.3978 41.6465 85.4078C41.6858 85.4178 41.7231 85.437 41.7562 85.4642C42.0912 85.7408 42.4334 86.0355 42.7714 86.3387C42.8226 86.3844 42.8603 86.4479 42.8794 86.5205C42.8984 86.5931 42.8978 86.671 42.8776 86.7432C42.8574 86.8154 42.8186 86.8782 42.7667 86.9226C42.7149 86.9671 42.6526 86.991 42.5887 86.991L42.5897 86.9958ZM12.8384 86.7458C12.7735 86.7454 12.7105 86.7205 12.6584 86.6746C12.6063 86.6286 12.5678 86.5641 12.5487 86.4904C12.5296 86.4166 12.5307 86.3376 12.5519 86.2647C12.5732 86.1918 12.6134 86.1289 12.6668 86.0851C13.012 85.8036 13.3673 85.5282 13.7206 85.2673C13.7892 85.2179 13.8714 85.2028 13.9494 85.2252C14.0273 85.2475 14.0947 85.3055 14.137 85.3865C14.1792 85.4677 14.1929 85.5653 14.1749 85.6583C14.1571 85.7513 14.1091 85.8322 14.0414 85.8833C13.6952 86.1382 13.349 86.4076 13.011 86.683C12.9597 86.7225 12.8995 86.7426 12.8384 86.741V86.7458ZM88.7013 86.294C88.6691 86.294 88.6373 86.2875 88.6069 86.2747C88.5303 86.2449 88.4666 86.18 88.4301 86.0944C88.3935 86.0088 88.387 85.9094 88.412 85.8181C88.5399 85.3567 88.6607 84.8844 88.7714 84.4157C88.7822 84.37 88.8006 84.3271 88.8254 84.2896C88.8501 84.2522 88.8809 84.221 88.9158 84.1977C88.9507 84.1745 88.9892 84.1597 89.0289 84.154C89.0687 84.1484 89.109 84.1522 89.1475 84.1651C89.1861 84.178 89.222 84.1999 89.2535 84.2294C89.2849 84.2588 89.3111 84.2954 89.3307 84.337C89.3503 84.3785 89.3628 84.4242 89.3675 84.4715C89.3721 84.5189 89.369 84.5668 89.3581 84.6126C89.2444 85.0958 89.1216 85.5729 88.9906 86.044C88.97 86.1157 88.931 86.1779 88.8792 86.222C88.8272 86.266 88.7651 86.2894 88.7013 86.2892V86.294ZM134.237 85.2238C134.169 85.2241 134.104 85.1974 134.051 85.1481C133.997 85.0988 133.958 85.0298 133.942 84.9518C133.925 84.8739 133.931 84.7914 133.957 84.7176C133.984 84.6437 134.031 84.5825 134.09 84.5438C134.453 84.3022 134.815 84.0606 135.175 83.819C135.245 83.773 135.329 83.762 135.406 83.7882C135.483 83.8144 135.548 83.8758 135.588 83.959C135.627 84.0424 135.637 84.1407 135.616 84.2327C135.595 84.3248 135.544 84.4032 135.474 84.4508C135.111 84.6923 134.749 84.9339 134.385 85.1755C134.34 85.2065 134.289 85.2232 134.237 85.2238ZM70.5482 85.1526C70.4873 85.1527 70.4278 85.1312 70.3774 85.0907C70.3268 85.0502 70.2877 84.9926 70.265 84.9255C70.1097 84.4616 69.9604 83.9869 69.8295 83.5158C69.8168 83.4707 69.8116 83.4231 69.8144 83.3756C69.8171 83.328 69.8278 83.2816 69.8455 83.2391C69.8634 83.1965 69.8881 83.1584 69.9182 83.1271C69.9484 83.0959 69.9835 83.0719 70.0214 83.0568C70.0593 83.0417 70.0993 83.0356 70.1393 83.0388C70.1792 83.0421 70.2182 83.0548 70.254 83.0759C70.2898 83.0972 70.3217 83.1265 70.348 83.1624C70.3743 83.1983 70.3944 83.24 70.4071 83.2851C70.536 83.7441 70.6792 84.2044 70.8304 84.6561C70.8605 84.7454 70.8595 84.8451 70.8277 84.9334C70.7959 85.0217 70.7359 85.0914 70.6609 85.1272C70.6257 85.1435 70.5881 85.1522 70.5503 85.1526H70.5482ZM38.9138 84.2285C38.8673 84.2284 38.8215 84.2156 38.7798 84.1911C38.4184 83.9785 38.0428 83.7731 37.6631 83.5871C37.5887 83.5497 37.5298 83.4785 37.4995 83.3894C37.4691 83.3002 37.4697 83.2003 37.5012 83.1118C37.5327 83.0233 37.5925 82.9532 37.6674 82.9171C37.7423 82.8809 37.8263 82.8817 37.9007 82.9191C38.2905 83.116 38.6762 83.3274 39.0488 83.546C39.1105 83.5823 39.1602 83.6424 39.1895 83.7165C39.2189 83.7905 39.2263 83.8743 39.2104 83.9541C39.1947 84.0338 39.1566 84.1048 39.1026 84.1556C39.0485 84.2063 38.9816 84.2337 38.9128 84.2333L38.9138 84.2285ZM16.6188 84.1729C16.5495 84.1731 16.4821 84.145 16.428 84.0933C16.3739 84.0418 16.3361 83.9697 16.3211 83.8891C16.3061 83.8085 16.3146 83.7242 16.3453 83.6502C16.376 83.5762 16.4271 83.5168 16.4899 83.482C16.8686 83.2719 17.2564 83.0701 17.6431 82.8781C17.6804 82.8581 17.7207 82.8473 17.7616 82.8462C17.8025 82.8451 17.8431 82.8538 17.8811 82.8719C17.9192 82.8899 17.9537 82.9168 17.9827 82.9511C18.0117 82.9853 18.0347 83.0262 18.0502 83.0712C18.0656 83.1163 18.0734 83.1646 18.0729 83.2133C18.0722 83.2619 18.0635 83.3099 18.0471 83.3545C18.0305 83.399 18.0067 83.4391 17.9769 83.4725C17.9471 83.5058 17.912 83.5317 17.8736 83.5485C17.497 83.7333 17.1173 83.9302 16.7478 84.1355C16.7068 84.1597 16.6616 84.1725 16.6158 84.1729H16.6188ZM138.032 82.6643C137.965 82.6642 137.9 82.6379 137.847 82.5895C137.794 82.5411 137.756 82.4732 137.739 82.3964C137.721 82.3195 137.725 82.2381 137.751 82.1644C137.776 82.0909 137.821 82.0292 137.879 81.989C138.236 81.7402 138.593 81.4906 138.951 81.2402C138.985 81.2113 139.025 81.1912 139.065 81.1813C139.107 81.1714 139.15 81.1719 139.191 81.1827C139.233 81.1934 139.272 81.2143 139.305 81.2439C139.34 81.2736 139.368 81.3113 139.389 81.3548C139.411 81.3981 139.424 81.4465 139.429 81.4963C139.433 81.5462 139.429 81.5968 139.417 81.6448C139.404 81.6928 139.383 81.737 139.356 81.7749C139.327 81.8127 139.294 81.8433 139.255 81.8646C138.897 82.1159 138.539 82.3659 138.18 82.6147C138.134 82.6469 138.082 82.664 138.028 82.6643H138.032ZM34.843 82.3937C34.8152 82.3941 34.7875 82.3896 34.7608 82.3804C34.3699 82.2512 33.9679 82.1304 33.569 82.018C33.529 82.0089 33.4908 81.9901 33.457 81.9631C33.4231 81.936 33.3942 81.9012 33.3718 81.8605C33.3495 81.8199 33.3343 81.7744 33.3271 81.7266C33.3198 81.6789 33.3207 81.6298 33.3296 81.5825C33.3386 81.5351 33.3555 81.4904 33.3792 81.4509C33.4031 81.4116 33.4333 81.3782 33.4681 81.3528C33.5029 81.3276 33.5417 81.3109 33.582 81.3038C33.6224 81.2967 33.6635 81.2992 33.703 81.3114C34.109 81.4213 34.5232 81.5445 34.9212 81.6738C34.992 81.6972 35.0534 81.7505 35.0938 81.8237C35.1344 81.8968 35.1512 81.9849 35.1413 82.0717C35.1313 82.1584 35.0954 82.238 35.04 82.2956C34.9846 82.3532 34.9136 82.3851 34.84 82.3852L34.843 82.3937ZM20.6978 82.384C20.6243 82.3836 20.5534 82.3515 20.4982 82.2938C20.443 82.2361 20.4072 82.1565 20.3975 82.0699C20.3876 81.9831 20.4046 81.8952 20.445 81.8222C20.4855 81.7492 20.5468 81.696 20.6176 81.6726C21.0236 81.5409 21.4297 81.4177 21.8358 81.3102C21.8752 81.298 21.9164 81.2955 21.9568 81.3026C21.9971 81.3097 22.0358 81.3264 22.0707 81.3518C22.1055 81.377 22.1357 81.4103 22.1595 81.4497C22.1832 81.4892 22.2002 81.5339 22.2091 81.5813C22.2181 81.6286 22.219 81.6777 22.2118 81.7254C22.2045 81.7732 22.1892 81.8187 22.1669 81.8593C22.1447 81.9 22.1156 81.9348 22.0818 81.9619C22.0479 81.9889 22.0099 82.0077 21.9698 82.0168C21.5698 82.1243 21.1688 82.2439 20.7759 82.372C20.7505 82.3804 20.7242 82.3845 20.6978 82.384ZM30.5671 81.431H30.5347C30.1286 81.3803 29.7154 81.3404 29.3083 81.3102C29.2685 81.3074 29.2294 81.2954 29.1933 81.2746C29.1574 81.2538 29.1251 81.2248 29.0986 81.1893C29.072 81.1538 29.0515 81.1124 29.0384 81.0674C29.0253 81.0224 29.0197 80.9748 29.0221 80.9273C29.0244 80.8798 29.0346 80.8333 29.052 80.7904C29.0695 80.7477 29.0938 80.7093 29.1237 80.6776C29.1535 80.6461 29.1885 80.6217 29.2262 80.6061C29.264 80.5905 29.304 80.5839 29.3439 80.5867C29.7611 80.6157 30.1834 80.6567 30.5986 80.7075C30.6794 80.7124 30.7553 80.7554 30.8094 80.8268C30.8636 80.8983 30.8916 80.9924 30.8874 81.0886C30.8833 81.1847 30.8472 81.2748 30.7871 81.3393C30.727 81.4038 30.648 81.4372 30.5671 81.4322V81.431ZM24.9746 81.431C24.8939 81.4359 24.8147 81.4025 24.7546 81.3381C24.6946 81.2736 24.6585 81.1835 24.6543 81.0874C24.6502 80.9912 24.6783 80.8971 24.7324 80.8256C24.7866 80.7542 24.8625 80.7112 24.9432 80.7063C25.3594 80.6555 25.7817 80.6145 26.1979 80.5855C26.2787 80.58 26.358 80.613 26.4183 80.677C26.4787 80.7412 26.5151 80.8312 26.5197 80.9273C26.5243 81.0235 26.4966 81.1178 26.4428 81.1895C26.3888 81.2614 26.3132 81.3048 26.2324 81.3102C25.8263 81.338 25.4122 81.3778 25.0061 81.431H24.9746ZM89.748 81.2607C89.7307 81.2625 89.7134 81.2625 89.6962 81.2607C89.6567 81.2528 89.6189 81.2357 89.585 81.2104C89.5511 81.1851 89.5217 81.1521 89.4985 81.1133C89.4753 81.0745 89.4588 81.0306 89.4499 80.9842C89.441 80.9378 89.4397 80.8897 89.4464 80.8427C89.5155 80.3596 89.5754 79.8764 89.6261 79.3933C89.6363 79.2971 89.678 79.2098 89.7423 79.1504C89.774 79.1209 89.8105 79.0991 89.8494 79.0865C89.8881 79.0738 89.9288 79.0703 89.9687 79.0762C90.0087 79.0821 90.0474 79.0974 90.0824 79.1211C90.1175 79.1448 90.1482 79.1764 90.173 79.2144C90.1977 79.2522 90.2159 79.2955 90.2266 79.3417C90.2374 79.3879 90.2402 79.4363 90.2352 79.4839C90.1824 79.9767 90.1215 80.4743 90.0515 80.9635C90.0386 81.0477 90.0009 81.1238 89.9454 81.1782C89.8899 81.2325 89.8199 81.2618 89.748 81.2607ZM69.3331 80.1832C69.2621 80.1834 69.1934 80.1539 69.1387 80.1001C69.0841 80.0463 69.0469 79.9715 69.0336 79.8885C68.9565 79.4053 68.8884 78.9004 68.8306 78.4076C68.8253 78.3604 68.8278 78.3124 68.8381 78.2664C68.8482 78.2204 68.8661 78.1773 68.8904 78.1393C68.9146 78.1015 68.9449 78.0698 68.9795 78.0458C69.0141 78.0219 69.0523 78.0063 69.092 77.9999C69.1317 77.9937 69.172 77.9966 69.2106 78.0088C69.2493 78.021 69.2857 78.0421 69.3174 78.0711C69.3492 78.1 69.376 78.136 69.3961 78.1771C69.4162 78.2183 69.4293 78.2637 69.4346 78.311C69.4884 78.7941 69.5544 79.2773 69.6305 79.7532C69.638 79.8 69.6377 79.8482 69.6296 79.8948C69.6215 79.9414 69.6056 79.9857 69.5831 80.0251C69.5606 80.0645 69.5317 80.0982 69.4982 80.1243C69.4647 80.1504 69.4273 80.1684 69.3879 80.1772C69.3698 80.1808 69.3514 80.1829 69.3331 80.1832ZM141.769 80.0057C141.703 80.0054 141.639 79.9796 141.586 79.932C141.533 79.8844 141.495 79.8177 141.476 79.742C141.459 79.6663 141.462 79.5856 141.486 79.5122C141.51 79.4388 141.554 79.3767 141.609 79.3353C141.963 79.0784 142.315 78.8195 142.667 78.5586C142.702 78.5329 142.739 78.5155 142.779 78.5074C142.819 78.4993 142.859 78.5006 142.899 78.5112C142.937 78.522 142.975 78.5418 143.007 78.5697C143.041 78.5976 143.068 78.6329 143.09 78.6736C143.111 78.7144 143.125 78.7597 143.131 78.8071C143.137 78.8544 143.136 78.9027 143.127 78.9494C143.117 78.9959 143.1 79.0398 143.076 79.0785C143.053 79.1171 143.023 79.1499 142.988 79.1746C142.636 79.4355 142.281 79.6949 141.927 79.9525C141.879 79.9872 141.825 80.0055 141.769 80.0057ZM145.459 77.2516C145.393 77.2521 145.329 77.227 145.275 77.1801C145.222 77.1333 145.184 77.0671 145.165 76.9917C145.146 76.9163 145.148 76.8358 145.172 76.7622C145.195 76.6885 145.238 76.626 145.293 76.5837C145.643 76.3179 145.991 76.0501 146.337 75.7804C146.404 75.7369 146.482 75.7251 146.556 75.7472C146.631 75.7693 146.695 75.8239 146.737 75.8999C146.78 75.976 146.796 76.068 146.783 76.1578C146.771 76.2475 146.73 76.3284 146.67 76.3844C146.322 76.6541 145.973 76.9227 145.623 77.19C145.575 77.2291 145.518 77.2504 145.459 77.2516ZM90.1489 76.1041H90.1439C90.064 76.1026 89.9878 76.0637 89.9318 75.9959C89.8758 75.9281 89.8444 75.8368 89.8444 75.7418C89.8444 75.5509 89.8444 75.3613 89.8444 75.1704C89.8444 74.8745 89.8444 74.5737 89.8342 74.2766C89.8331 74.229 89.84 74.1816 89.8543 74.1372C89.8687 74.0927 89.8902 74.052 89.9177 74.0175C89.9452 73.9829 89.9782 73.9551 90.0147 73.9358C90.0513 73.9164 90.0907 73.9057 90.1307 73.9045C90.1707 73.9032 90.2105 73.9114 90.2478 73.9285C90.2853 73.9455 90.3194 73.9711 90.3484 74.0038C90.3775 74.0366 90.4008 74.0758 90.417 74.1193C90.4334 74.1628 90.4423 74.2097 90.4433 74.2572C90.4504 74.5604 90.4535 74.8612 90.4535 75.1704C90.4535 75.3649 90.4535 75.5594 90.4535 75.7538C90.4509 75.8478 90.4177 75.937 90.3608 76.0023C90.304 76.0677 90.228 76.1041 90.1489 76.1041ZM68.927 75.0291C68.8463 75.0291 68.7688 74.9909 68.7117 74.9229C68.6545 74.855 68.6225 74.7629 68.6225 74.6667C68.6225 74.1691 68.6346 73.6642 68.657 73.1665C68.6591 73.1189 68.6692 73.0723 68.6864 73.0293C68.7037 72.9863 68.7279 72.9478 68.7577 72.916C68.7874 72.8841 68.8222 72.8596 68.86 72.8436C68.8978 72.8278 68.9378 72.8209 68.9778 72.8235C69.0178 72.826 69.057 72.8378 69.0931 72.8585C69.1292 72.879 69.1616 72.9078 69.1884 72.9433C69.2151 72.9787 69.2358 73.0201 69.2491 73.065C69.2624 73.11 69.2682 73.1576 69.2661 73.2052C69.2437 73.6883 69.2326 74.1811 69.2326 74.6667C69.2326 74.7144 69.2247 74.7617 69.2093 74.8056C69.1939 74.8497 69.1715 74.8897 69.143 74.9234C69.1146 74.9571 69.0809 74.9837 69.0439 75.0019C69.0068 75.02 68.9671 75.0292 68.927 75.0291ZM149.097 74.3998C149.032 74.3995 148.969 74.3745 148.917 74.3285C148.865 74.2824 148.826 74.2176 148.807 74.1436C148.788 74.0697 148.79 73.9903 148.811 73.9173C148.832 73.8443 148.873 73.7815 148.927 73.7378C149.27 73.4624 149.613 73.1855 149.955 72.9068C149.988 72.8775 150.025 72.8562 150.066 72.8446C150.105 72.8329 150.147 72.8311 150.188 72.839C150.228 72.847 150.267 72.8647 150.301 72.891C150.337 72.9173 150.366 72.9517 150.39 72.9922C150.413 73.0327 150.429 73.0782 150.436 73.1263C150.444 73.1744 150.444 73.2238 150.436 73.2717C150.427 73.3196 150.411 73.365 150.388 73.4049C150.363 73.4451 150.333 73.479 150.298 73.5047C149.956 73.7841 149.612 74.0619 149.268 74.3382C149.217 74.3785 149.158 74.3999 149.097 74.3998ZM152.682 71.4537C152.617 71.4537 152.554 71.4292 152.502 71.3838C152.45 71.3383 152.411 71.2743 152.391 71.201C152.372 71.1277 152.372 71.0488 152.394 70.976C152.414 70.903 152.453 70.8398 152.506 70.7954C152.844 70.5119 153.183 70.2261 153.521 69.9378C153.587 69.8833 153.669 69.8618 153.747 69.878C153.826 69.8942 153.897 69.9468 153.944 70.0243C153.989 70.1018 154.009 70.1981 153.996 70.2923C153.983 70.3864 153.941 70.4708 153.876 70.5272C153.538 70.8147 153.199 71.1014 152.86 71.3873C152.809 71.4312 152.746 71.4544 152.682 71.4537ZM89.888 70.9343C89.814 70.9351 89.7423 70.9039 89.6862 70.8462C89.6301 70.7886 89.5936 70.7088 89.5835 70.6215C89.5266 70.1383 89.4607 69.6551 89.3866 69.172C89.3725 69.0777 89.3904 68.9809 89.4362 68.9022C89.482 68.8236 89.552 68.7697 89.6311 68.7523C89.7102 68.7351 89.7918 68.7555 89.8582 68.8095C89.9246 68.8633 89.9704 68.9463 89.9855 69.0403C90.0616 69.5235 90.1286 70.0247 90.1885 70.5188C90.1995 70.614 90.1784 70.7104 90.1297 70.7869C90.0809 70.8635 90.0086 70.9139 89.9286 70.9271L89.888 70.9343ZM69.3341 69.875C69.3152 69.8767 69.2962 69.8767 69.2772 69.875C69.238 69.8661 69.2004 69.8482 69.1669 69.8221C69.1334 69.796 69.1046 69.7623 69.082 69.7229C69.0595 69.6835 69.0438 69.6392 69.0356 69.5926C69.0274 69.5459 69.0271 69.4977 69.0346 69.451C69.1128 68.9678 69.2031 68.4678 69.3026 67.9858C69.3122 67.9395 69.3292 67.8961 69.353 67.8576C69.3766 67.8192 69.4064 67.7869 69.4406 67.7621C69.4749 67.7375 69.5129 67.721 69.5524 67.7138C69.5919 67.7067 69.6322 67.7087 69.6711 67.7201C69.71 67.7314 69.7465 67.7517 69.7788 67.78C69.8111 67.8081 69.8384 67.8435 69.8591 67.8842C69.8798 67.9249 69.8936 67.9701 69.8997 68.0172C69.9058 68.0643 69.904 68.1123 69.8945 68.1585C69.7929 68.6284 69.7087 69.1092 69.6325 69.5863C69.6183 69.6679 69.5809 69.7413 69.5265 69.7938C69.4722 69.8463 69.4041 69.8751 69.3341 69.875ZM88.95 65.878C88.8851 65.8778 88.8217 65.8529 88.7695 65.8067C88.7173 65.7607 88.6788 65.6959 88.6597 65.6219C88.5389 65.1545 88.4079 64.6882 88.2699 64.2328C88.2543 64.1874 88.2467 64.1387 88.2474 64.0898C88.2482 64.0408 88.2573 63.9925 88.2741 63.9478C88.291 63.9031 88.3153 63.8629 88.3456 63.8298C88.3759 63.7965 88.4115 63.7709 88.4504 63.7546C88.4892 63.7382 88.5304 63.7314 88.5715 63.7346C88.6126 63.7377 88.6527 63.7508 88.6894 63.7729C88.7262 63.795 88.7588 63.8258 88.7853 63.8632C88.8118 63.9008 88.8316 63.9444 88.8434 63.9913C88.9845 64.4563 89.1175 64.9346 89.2414 65.4118C89.2556 65.466 89.2588 65.5235 89.2508 65.5795C89.2429 65.6356 89.224 65.6886 89.1956 65.7344C89.1673 65.7802 89.1302 65.8172 89.0876 65.8429C89.045 65.8685 88.9978 65.8818 88.95 65.8816V65.878ZM70.5462 64.9044C70.5076 64.9042 70.4694 64.8956 70.4335 64.8791C70.3586 64.8433 70.2986 64.7736 70.2667 64.6853C70.2349 64.597 70.2339 64.4972 70.264 64.408C70.4193 63.9441 70.5868 63.4803 70.7634 63.0298C70.78 62.986 70.8036 62.9467 70.8331 62.9139C70.8625 62.8811 70.8971 62.8556 70.9349 62.8389C70.9728 62.8221 71.013 62.8145 71.0532 62.8164C71.0935 62.8183 71.1331 62.8297 71.1696 62.8499C71.2061 62.8702 71.2389 62.8988 71.2661 62.9342C71.2932 62.9697 71.3143 63.0112 71.3279 63.0563C71.3415 63.1015 71.3474 63.1493 71.3453 63.1973C71.3432 63.2453 71.3331 63.2921 71.3157 63.3354C71.1441 63.7738 70.9807 64.2256 70.8294 64.6761C70.8069 64.7435 70.7678 64.8014 70.7174 64.8421C70.6668 64.8828 70.6072 64.9046 70.5462 64.9044ZM87.3095 61.0887C87.2546 61.0888 87.2008 61.0711 87.1536 61.0378C87.1064 61.0043 87.0677 60.9564 87.0415 60.899C86.8385 60.4654 86.6355 60.0438 86.4192 59.6488C86.3847 59.5691 86.3763 59.477 86.3956 59.3902C86.4148 59.3034 86.4605 59.2282 86.5236 59.1793C86.5868 59.1303 86.663 59.1108 86.7375 59.1248C86.812 59.1389 86.8794 59.1852 86.9268 59.2551C87.1502 59.6657 87.3684 60.1006 87.5735 60.5548C87.6116 60.6393 87.6201 60.7385 87.5968 60.8304C87.5736 60.9225 87.5207 60.9996 87.4496 61.0452C87.4067 61.0733 87.3586 61.0882 87.3095 61.0887ZM72.5643 60.3277C72.5088 60.3279 72.4542 60.3099 72.4066 60.2759C72.359 60.2418 72.3201 60.1929 72.2942 60.1344C72.2682 60.076 72.2562 60.0101 72.2595 59.9442C72.2627 59.8781 72.2811 59.8144 72.3126 59.76C72.5552 59.3432 72.813 58.9374 73.079 58.5521C73.1305 58.4779 73.2045 58.431 73.285 58.422C73.3654 58.4128 73.4456 58.4419 73.5079 58.5031C73.5703 58.5644 73.6096 58.6524 73.6174 58.7482C73.6251 58.8439 73.6005 58.9393 73.549 59.0135C73.2932 59.3819 73.0415 59.7708 72.813 60.1707C72.7847 60.2176 72.7474 60.2558 72.7041 60.282C72.6609 60.3084 72.613 60.3219 72.5643 60.3216V60.3277ZM84.6782 56.9818C84.6034 56.9819 84.5311 56.9493 84.4752 56.89C84.1774 56.5719 83.8605 56.28 83.527 56.0167C83.4913 55.9918 83.4601 55.9586 83.4356 55.9189C83.4109 55.8793 83.3934 55.8342 83.384 55.7862C83.3746 55.7381 83.3735 55.6884 83.3808 55.6399C83.388 55.5914 83.4035 55.5452 83.4263 55.504C83.4492 55.463 83.4787 55.4278 83.5133 55.4008C83.548 55.3737 83.5869 55.3553 83.6277 55.3468C83.6685 55.3382 83.7103 55.3396 83.7506 55.351C83.7909 55.3623 83.8289 55.3834 83.862 55.4127C84.2189 55.6958 84.5581 56.0091 84.8772 56.35C84.9233 56.399 84.9559 56.4633 84.9705 56.5347C84.9851 56.6061 84.9812 56.6811 84.9591 56.7499C84.9371 56.8185 84.8981 56.8775 84.8472 56.9192C84.7963 56.9609 84.736 56.9831 84.6742 56.983L84.6782 56.9818ZM75.5611 56.5904C75.497 56.5901 75.4346 56.5657 75.3828 56.5207C75.331 56.4758 75.2926 56.4125 75.2728 56.34C75.253 56.2674 75.2529 56.1893 75.2726 56.1167C75.2923 56.0442 75.3307 55.9808 75.3824 55.9357C75.7309 55.6347 76.0959 55.3615 76.4747 55.118C76.51 55.0953 76.5485 55.0811 76.5883 55.0762C76.6281 55.0712 76.6684 55.0757 76.7068 55.0892C76.7452 55.1028 76.7809 55.1252 76.812 55.1553C76.843 55.1853 76.8688 55.2222 76.8879 55.2641C76.907 55.3061 76.919 55.352 76.923 55.3993C76.9272 55.4467 76.9234 55.4946 76.9121 55.5403C76.9007 55.5859 76.8818 55.6284 76.8566 55.6654C76.8314 55.7024 76.8003 55.733 76.7651 55.7558C76.4129 55.9843 76.0738 56.2401 75.7499 56.5216C75.6952 56.5688 75.6287 56.5931 75.5611 56.5904ZM80.8095 54.7786H80.7709L80.6836 54.7665C80.3199 54.7186 79.9533 54.7093 79.5882 54.7387C79.5482 54.742 79.5081 54.7358 79.4701 54.7206C79.4321 54.7054 79.397 54.6814 79.3668 54.65C79.3366 54.6188 79.3119 54.5806 79.294 54.5378C79.2762 54.4952 79.2656 54.4487 79.2629 54.4011C79.2601 54.3535 79.2653 54.3058 79.2781 54.2605C79.2909 54.2153 79.311 54.1735 79.3374 54.1376C79.3637 54.1017 79.3958 54.0722 79.4317 54.051C79.4675 54.0298 79.5066 54.0172 79.5466 54.014C79.9482 53.9811 80.3515 53.9912 80.7516 54.0442L80.8531 54.0574C80.8931 54.0605 80.9322 54.0728 80.9682 54.0938C81.0042 54.1148 81.0364 54.144 81.0628 54.1798C81.0893 54.2156 81.1096 54.2572 81.1226 54.3024C81.1355 54.3475 81.1409 54.3952 81.1384 54.4428C81.1358 54.4904 81.1255 54.5369 81.1078 54.5797C81.0902 54.6225 81.0656 54.6608 81.0355 54.6923C81.0055 54.7238 80.9705 54.748 80.9326 54.7633C80.8946 54.7788 80.8545 54.7852 80.8145 54.7822L80.8095 54.7786Z" fill="#1D1F17"/>
</svg>
