<svg width="145" height="135" viewBox="0 0 145 135" fill="none" xmlns="http://www.w3.org/2000/svg">
<path d="M134.428 110.455C141.844 98.2975 145.488 84.2145 144.899 69.9864C144.311 55.7583 139.517 42.0242 131.123 30.5208C122.729 19.0174 111.113 10.2614 97.7425 5.36009C84.3723 0.458756 69.8489 -0.367784 56.009 2.98499C42.1691 6.33776 29.6342 13.7192 19.9894 24.196C10.3446 34.6728 4.02312 47.7743 1.82436 61.8438C-0.374399 75.9133 1.64831 90.3188 7.63669 103.239C13.6251 116.159 23.3102 127.013 35.4673 134.428L62.3076 90.4261C58.8533 88.3191 56.1014 85.235 54.3998 81.564C52.6983 77.893 52.1236 73.7998 52.7483 69.8021C53.3731 65.8045 55.1693 62.0818 57.9097 59.105C60.6501 56.1281 64.2118 54.0308 68.1442 53.0781C72.0767 52.1255 76.2033 52.3603 80.0023 53.753C83.8013 55.1456 87.102 57.6335 89.487 60.9021C91.872 64.1706 93.2342 68.073 93.4014 72.1157C93.5685 76.1585 92.5331 80.16 90.4261 83.6143L134.428 110.455Z" fill="#E8C1E3"/>
</svg>
