<svg width="14" height="14" viewBox="0 0 14 14" fill="none" xmlns="http://www.w3.org/2000/svg">
<path d="M3.77762 10.3053H10.077M4.4075 8.41367V6.52204M6.9273 8.41367V5.26128M9.44711 8.41367V4.00052M6.9273 12.8278C8.68844 12.8278 9.56891 12.8278 10.2635 12.5403C11.1896 12.1563 11.9254 11.4195 12.3091 10.4926C12.5968 9.7974 12.5968 8.9159 12.5968 7.1529C12.5968 5.38991 12.5968 4.50841 12.3091 3.81323C11.9254 2.88634 11.1896 2.14956 10.2635 1.76556C9.56891 1.47803 8.68844 1.47803 6.9273 1.47803C5.16617 1.47803 4.2857 1.47803 3.59109 1.76556C2.66498 2.14956 1.92918 2.88634 1.54554 3.81323C1.25781 4.50841 1.25781 5.38991 1.25781 7.1529C1.25781 8.9159 1.25781 9.7974 1.54554 10.4926C1.92918 11.4195 2.66498 12.1563 3.59109 12.5403C4.2857 12.8278 5.16617 12.8278 6.9273 12.8278Z" stroke="#1D1F17" stroke-width="1.5" stroke-linecap="round" stroke-linejoin="round"/>
</svg>
