<svg width="36" height="35" viewBox="0 0 36 35" fill="none" xmlns="http://www.w3.org/2000/svg">
<path d="M4.11378 11.5435C3.78125 12.8316 3.78125 14.5053 3.78125 17.5002C3.78125 20.8946 3.78125 22.5918 4.26542 23.9541C5.11039 26.3316 6.98104 28.2023 9.35856 29.0472C10.7209 29.5314 12.4181 29.5314 15.8125 29.5314H20.1875C23.5819 29.5314 25.2791 29.5314 26.6414 29.0472C29.019 28.2023 30.8896 26.3316 31.7346 23.9541C32.2188 22.5918 32.2188 20.8946 32.2188 17.5002C32.2188 14.5053 32.2188 12.8317 31.8862 11.5435L26.3913 15.5926C24.767 16.7895 23.4869 17.7328 22.3779 18.4011C21.2416 19.0859 20.2086 19.531 19.0628 19.6773C18.3575 19.7674 17.6437 19.7674 16.9385 19.6774C15.7927 19.5311 14.7596 19.0861 13.6233 18.4013C12.5142 17.733 11.2342 16.7898 9.60979 15.593L4.11378 11.5435Z" fill="#1D1F17" fill-opacity="0.2"/>
<path d="M5.00879 9.4857L10.8634 13.7994C12.5412 15.0356 13.7403 15.9178 14.7522 16.5276C15.7468 17.1269 16.4834 17.4139 17.2154 17.5073C17.7366 17.5739 18.2642 17.5739 18.7855 17.5073C19.5174 17.4138 20.254 17.1268 21.2486 16.5274C22.2605 15.9176 23.4596 15.0354 25.1373 13.7991L30.9909 9.48571C29.998 7.8589 28.4695 6.60267 26.6413 5.95292C25.279 5.46875 23.5818 5.46875 20.1873 5.46875L15.8123 5.46875C12.4179 5.46875 10.7207 5.46875 9.3584 5.95292C7.53019 6.60267 6.00169 7.85889 5.00879 9.4857Z" fill="#1D1F17"/>
</svg>
