<svg width="30" height="30" viewBox="0 0 30 30" fill="none" xmlns="http://www.w3.org/2000/svg">
<path d="M15 15L7.9375 15C7.23443 15 6.88289 15 6.63645 15.179C6.55686 15.2369 6.48687 15.3069 6.42905 15.3865C6.25 15.6329 6.25 15.9844 6.25 16.6875V19.0625M15 15V19.0625M15 15L15 10.9375M15 15L22.0625 15C22.7656 15 23.1171 15 23.3635 15.179C23.4431 15.2369 23.5131 15.3069 23.571 15.3865C23.75 15.6329 23.75 15.9844 23.75 16.6875L23.75 19.0625" stroke="#1D1F17" stroke-width="1.875" stroke-linejoin="round"/>
<path d="M15.0625 10.9375C16.4686 10.9375 17.1717 10.9375 17.6646 10.5794C17.8238 10.4638 17.9638 10.3238 18.0794 10.1646C18.4375 9.67172 18.4375 8.96865 18.4375 7.5625V7.4375C18.4375 6.03135 18.4375 5.32828 18.0794 4.8354C17.9638 4.67623 17.8238 4.53624 17.6646 4.42059C17.1717 4.0625 16.4686 4.0625 15.0625 4.0625H14.9375C13.5314 4.0625 12.8283 4.0625 12.3354 4.42059C12.1762 4.53624 12.0362 4.67623 11.9206 4.8354C11.5625 5.32828 11.5625 6.03135 11.5625 7.4375V7.5625C11.5625 8.96865 11.5625 9.67172 11.9206 10.1646C12.0362 10.3238 12.1762 10.4638 12.3354 10.5794C12.8283 10.9375 13.5314 10.9375 14.9375 10.9375H15.0625Z" fill="#1D1F17" fill-opacity="0.2"/>
<path d="M15.0625 25.9375C16.4686 25.9375 17.1717 25.9375 17.6646 25.5794C17.8238 25.4638 17.9638 25.3238 18.0794 25.1646C18.4375 24.6717 18.4375 23.9686 18.4375 22.5625V22.4375C18.4375 21.0314 18.4375 20.3283 18.0794 19.8354C17.9638 19.6762 17.8238 19.5362 17.6646 19.4206C17.1717 19.0625 16.4686 19.0625 15.0625 19.0625H14.9375C13.5314 19.0625 12.8283 19.0625 12.3354 19.4206C12.1762 19.5362 12.0362 19.6762 11.9206 19.8354C11.5625 20.3283 11.5625 21.0314 11.5625 22.4375V22.5625C11.5625 23.9686 11.5625 24.6717 11.9206 25.1646C12.0362 25.3238 12.1762 25.4638 12.3354 25.5794C12.8283 25.9375 13.5314 25.9375 14.9375 25.9375H15.0625Z" fill="#1D1F17" fill-opacity="0.2"/>
<path d="M23.8125 25.9375C25.2186 25.9375 25.9217 25.9375 26.4146 25.5794C26.5738 25.4638 26.7138 25.3238 26.8294 25.1646C27.1875 24.6717 27.1875 23.9686 27.1875 22.5625V22.4375C27.1875 21.0314 27.1875 20.3283 26.8294 19.8354C26.7138 19.6762 26.5738 19.5362 26.4146 19.4206C25.9217 19.0625 25.2186 19.0625 23.8125 19.0625H23.6875C22.2814 19.0625 21.5783 19.0625 21.0854 19.4206C20.9262 19.5362 20.7862 19.6762 20.6706 19.8354C20.3125 20.3283 20.3125 21.0314 20.3125 22.4375V22.5625C20.3125 23.9686 20.3125 24.6717 20.6706 25.1646C20.7862 25.3238 20.9262 25.4638 21.0854 25.5794C21.5783 25.9375 22.2814 25.9375 23.6875 25.9375H23.8125Z" fill="#1D1F17" fill-opacity="0.2"/>
<path d="M6.3125 25.9375C7.71865 25.9375 8.42172 25.9375 8.9146 25.5794C9.07377 25.4638 9.21376 25.3238 9.32941 25.1646C9.6875 24.6717 9.6875 23.9686 9.6875 22.5625V22.4375C9.6875 21.0314 9.6875 20.3283 9.32941 19.8354C9.21376 19.6762 9.07377 19.5362 8.9146 19.4206C8.42172 19.0625 7.71865 19.0625 6.3125 19.0625H6.1875C4.78135 19.0625 4.07828 19.0625 3.5854 19.4206C3.42623 19.5362 3.28624 19.6762 3.17059 19.8354C2.8125 20.3283 2.8125 21.0314 2.8125 22.4375V22.5625C2.8125 23.9686 2.8125 24.6717 3.17059 25.1646C3.28624 25.3238 3.42623 25.4638 3.5854 25.5794C4.07828 25.9375 4.78135 25.9375 6.1875 25.9375H6.3125Z" fill="#1D1F17" fill-opacity="0.2"/>
</svg>
