<svg width="80" height="80" viewBox="0 0 80 80" fill="none" xmlns="http://www.w3.org/2000/svg">
<path d="M51.2522 1.56067C36.2614 1.56067 24.0653 13.7568 24.0653 28.7477C24.0653 34.62 25.9372 40.0632 29.115 44.5127L20.4998 53.128C19.5252 52.444 18.1687 52.535 17.2984 53.4055L3.48266 67.2213C0.919844 69.784 0.919844 73.9543 3.48266 76.5174C4.76406 77.7986 6.4475 78.4394 8.13062 78.4394C9.81391 78.4394 11.4972 77.7986 12.7786 76.5172L26.5944 62.7015C27.4647 61.8313 27.5556 60.4749 26.8717 59.5L35.487 50.8847C39.9366 54.0627 45.3797 55.9346 51.252 55.9346C66.243 55.9346 78.4391 43.7385 78.4391 28.7477C78.4392 13.7568 66.2431 1.56067 51.2522 1.56067ZM25.2687 61.3758L11.453 75.1916C9.62078 77.0233 6.64031 77.0233 4.80859 75.1916C2.97672 73.3596 2.97656 70.3788 4.80844 68.5471L18.6242 54.7313C18.7461 54.6096 18.9062 54.5486 19.0662 54.5486C19.2262 54.5486 19.3864 54.6096 19.5083 54.7313L25.2686 60.4918C25.5122 60.7355 25.5123 61.1321 25.2687 61.3758ZM25.5745 58.1461L21.8539 54.4254L30.2664 46.0127C31.3842 47.3691 32.6308 48.6157 33.9872 49.7335L25.5745 58.1461ZM51.2522 54.0596C37.2952 54.0596 25.9403 42.7047 25.9403 28.7477C25.9403 14.7907 37.295 3.43567 51.2522 3.43567C65.2094 3.43567 76.5642 14.7907 76.5642 28.7477C76.5642 42.7047 65.2092 54.0596 51.2522 54.0596ZM51.2522 8.09536C39.8644 8.09536 30.5998 17.36 30.5998 28.7479C30.5998 40.1357 39.8644 49.4 51.2522 49.4C62.64 49.4 71.9045 40.1355 71.9045 28.7477C71.9045 17.3599 62.6398 8.09536 51.2522 8.09536ZM51.2522 47.525C40.8983 47.525 32.4748 39.1016 32.4748 28.7477C32.4748 18.3936 40.8983 9.9702 51.2522 9.9702C61.6063 9.9702 70.0297 18.3936 70.0297 28.7477C70.0295 39.1016 61.6061 47.525 51.2522 47.525ZM63.3603 16.3286H58.2592C57.7416 16.3286 57.3217 16.7485 57.3217 17.2661V40.2294C57.3217 40.7471 57.7416 41.1669 58.2592 41.1669H63.3602C63.8778 41.1669 64.2977 40.7471 64.2977 40.2294V17.2661C64.2978 16.7483 63.878 16.3286 63.3603 16.3286ZM62.4228 39.2919H59.1967V18.2036H62.4227L62.4228 39.2919ZM53.8027 22.2604H48.7017C48.1841 22.2604 47.7642 22.6802 47.7642 23.1979V40.2294C47.7642 40.7471 48.1841 41.1669 48.7017 41.1669H53.8027C54.3203 41.1669 54.7402 40.7471 54.7402 40.2294V23.1979C54.7402 22.68 54.3203 22.2604 53.8027 22.2604ZM52.8652 39.2919H49.6392V24.1354H52.8652V39.2919ZM44.245 28.1922H39.1441C38.6264 28.1922 38.2066 28.6121 38.2066 29.1297V40.2294C38.2066 40.7471 38.6264 41.1669 39.1441 41.1669H44.245C44.7627 41.1669 45.1825 40.7471 45.1825 40.2294V29.1297C45.1825 28.6119 44.7627 28.1922 44.245 28.1922ZM43.3075 39.2919H40.0816V30.0672H43.3075V39.2919Z" fill="#1D1F17"/>
</svg>
