<svg width="80" height="80" viewBox="0 0 80 80" fill="none" xmlns="http://www.w3.org/2000/svg">
<g clip-path="url(#clip0_23_259)">
<path d="M79.2132 39.4753L66.4663 8.96605L54.1669 14.1049C54.3212 12.6543 54.3212 10.6019 53.5342 9.12037C51.775 5.83333 47.67 4.58333 44.383 6.34259C41.0959 8.10185 39.8459 12.2068 41.6052 15.4938C42.2225 16.6512 43.1484 17.5926 44.2904 18.2253L31.1422 23.7037C30.849 22.7778 30.4015 21.8981 29.8305 21.1111C30.0003 21.0185 30.1391 20.9105 30.278 20.7716C30.6021 20.4475 30.8027 20.0154 30.8027 19.5525L30.741 14.4599H31.7904C32.0373 14.4599 32.2688 14.3519 32.4385 14.1821C32.6237 14.0123 32.7163 13.7654 32.7163 13.5185L32.5311 0L30.6793 0.0308642L30.849 12.608L6.11137 12.7932L5.94162 0L4.08977 0.0308642L4.25952 13.75C4.27495 14.2593 4.67619 14.6451 5.18545 14.6605H6.26569C6.26569 14.7068 6.32742 19.7531 6.32742 19.7531C6.34285 20.3086 6.62063 20.8179 7.06816 21.142L6.38915 22.2222C6.1268 22.6389 5.77187 23.6728 5.77187 23.6728H5.75643L3.05582 33.75L3.76569 35.9414L2.76261 36.3889C1.83668 36.8056 1.09594 37.5617 0.741001 38.5185C0.386063 39.4753 0.416927 40.5247 0.833594 41.4506L14.5527 72.0988L27.4077 66.3426C27.8706 66.142 28.1947 65.7099 28.241 65.2006C28.2873 64.6914 28.0558 64.1975 27.6391 63.9198C25.9879 62.7623 24.8459 61.5123 24.5064 60.4938C23.6422 57.9321 25.0157 55.1389 27.5929 54.2747C30.1546 53.4105 32.9478 54.784 33.812 57.3611C34.2287 58.5802 34.1361 59.9228 33.5651 61.0802C33.3182 61.5741 33.4108 62.1605 33.7966 62.5463C34.1669 62.9475 34.7533 63.071 35.2472 62.8395L45.9262 58.0556C46.4354 57.8395 46.8675 57.4691 47.1762 57.0062L48.7966 56.3426C48.9817 57.8704 49.5527 59.321 50.4632 60.571C50.2935 60.6636 50.1546 60.787 50.0157 60.9259C49.6762 61.25 49.491 61.6975 49.491 62.1605L49.5682 67.2377H48.5188C48.2719 67.2377 48.0404 67.3457 47.8706 67.5154C47.6854 67.6852 47.5928 67.9321 47.6083 68.179L47.778 79.8302H49.6299L49.4601 69.1049L74.1978 68.9043L74.3675 79.8457H76.2194L76.0496 67.9784C76.0342 67.4691 75.633 67.0679 75.1237 67.0525H74.0435C74.0435 67.0216 74.0589 66.9753 74.0589 66.9444L73.9817 61.9753C73.9817 61.4198 73.704 60.8951 73.241 60.5864C73.5959 60.0154 73.8737 59.5833 73.92 59.4907C74.1824 59.0895 74.383 58.642 74.5064 58.1636L74.5373 58.0556H74.5527L77.2533 47.963L76.2657 44.8457L77.1608 44.4753C79.1052 43.6728 80.0311 41.466 79.2287 39.5216C79.2287 39.5062 79.2132 39.4907 79.2132 39.4753ZM14.5682 31.1111L14.4138 31.3735C13.3645 33.2253 11.4663 34.0432 11.4509 34.0432L10.7719 34.321C10.7719 34.321 11.8367 40.7562 12.1299 42.6235C12.2996 43.7346 12.099 44.8765 11.5435 45.8488C11.1422 46.4198 10.4941 46.7593 9.79964 46.7593C9.32125 46.7438 9.12063 46.4969 9.04347 46.358L6.03421 36.9599L5.46322 35.1852L4.98483 33.7037L7.59285 23.9969C7.67001 23.7191 7.79347 23.4568 7.94779 23.2099C7.94779 23.2099 8.42619 22.4383 8.96631 21.6049L27.7317 21.4506C28.5342 22.2994 29.1206 23.3333 29.4447 24.4599L14.5682 31.1111ZM28.6114 19.6142H28.5805V19.5833L8.56507 19.7377C8.42619 19.7531 8.30273 19.7068 8.19471 19.6296V19.4444L8.13298 14.784C8.241 14.7222 8.36446 14.6759 8.48791 14.6759L28.5342 14.5216C28.6731 14.5062 28.7966 14.5525 28.9046 14.6296L28.9817 19.5062C28.8737 19.5679 28.7348 19.6142 28.6114 19.6142ZM45.17 56.358L35.7101 60.6019C36.6206 56.9753 34.4293 53.3025 30.8027 52.392C27.1762 51.4815 23.5033 53.6728 22.5929 57.2994C22.2688 58.5494 22.3305 59.8765 22.7317 61.0957C23.2564 62.6235 24.6608 63.9815 25.9416 64.9691L15.4632 69.6605L2.50026 40.6944C2.28421 40.216 2.26878 39.6759 2.4694 39.1821C2.65458 38.6883 3.02495 38.3025 3.50335 38.0864L4.32125 37.716L7.34594 47.1451C7.8089 48.0247 8.70396 48.5957 9.70705 48.6111C9.70705 48.6111 12.1145 48.6574 13.1021 46.821V46.7901C13.8737 45.4321 14.1669 43.858 13.92 42.3148C13.6885 40.8333 13.0558 36.9599 12.7935 35.4012C14.028 34.7222 15.0774 33.7346 15.849 32.5617L31.5126 25.5401C31.5126 25.5401 31.9447 25.2932 32.2842 25.3704C32.4848 25.4475 32.67 25.679 32.7626 25.8796L37.6083 36.9599C37.8089 37.4691 38.3182 37.7778 38.8583 37.7469C39.3984 37.716 39.8614 37.3457 40.0311 36.8364C40.4478 35.4321 41.4663 34.3056 42.8243 33.75C45.2317 32.6698 48.0712 33.7346 49.1515 36.142C50.1546 38.3642 49.3367 40.9722 47.2379 42.2222C45.8953 42.9784 43.5496 42.7932 42.6083 42.6852C42.1145 42.6235 41.6206 42.8395 41.312 43.2407C41.312 43.2562 40.8645 43.7654 41.1577 44.6451L45.741 54.8611C45.9108 55.2469 45.849 55.7099 45.5867 56.034C45.4941 56.1728 45.3398 56.2963 45.17 56.358ZM72.1299 62.2377L72.2071 66.8981C72.099 66.9753 71.9756 67.0216 71.8367 67.0062L51.7904 67.1605C51.6515 67.1759 51.528 67.1296 51.42 67.0525L51.3429 62.2531L72.1299 62.2377ZM72.7163 57.6852C72.6391 57.963 72.5157 58.2253 72.3614 58.4722V58.5031C72.3614 58.5031 71.8984 59.2593 71.3583 60.0926L71.1731 60.3858H52.7317L52.5774 60.2315C51.3891 58.966 50.6793 57.3148 50.5867 55.571L63.9509 50C63.6577 50.5247 63.3799 51.0802 63.1175 51.6358L64.7996 52.4228C65.1392 51.6975 65.5095 50.9877 65.8953 50.3086C66.2811 49.6296 66.8058 49.0432 67.4077 48.5494C67.8552 48.179 68.3336 47.8858 68.8583 47.6389L69.5373 47.3611L69.4293 46.6358C69.4138 46.6204 69.3675 46.2809 69.275 45.7716C68.9972 44.1049 68.4108 40.4938 68.1793 39.0741C68.0095 37.963 68.2101 36.821 68.7657 35.8488C69.1669 35.2778 69.8151 34.9228 70.5095 34.9228C70.9879 34.9383 71.1885 35.1852 71.2657 35.3395L73.9817 43.7963L74.5527 45.571L75.3243 47.9938L72.7163 57.6852ZM77.5157 41.6975C77.3151 42.1759 76.9293 42.5617 76.4509 42.7623L75.6947 43.0864L72.9478 34.537C72.4848 33.6574 71.5898 33.1019 70.6021 33.071C68.2256 33.1327 67.1916 34.8765 67.1916 34.8765C66.42 36.2346 66.1268 37.8086 66.3737 39.3519C66.6052 40.8488 67.2379 44.7068 67.5003 46.2654C67.1453 46.466 66.8058 46.6975 66.4817 46.9444L47.6546 54.8148C47.6083 54.5679 43.3182 44.9074 43.3182 44.9074C44.8459 45.0154 46.6052 44.9383 47.9169 44.2438L48.5033 43.8889C49.2132 43.4105 49.8305 42.8086 50.3089 42.0988L50.5095 41.7901C50.8645 41.2037 51.1268 40.571 51.2966 39.9074C51.312 39.8765 51.312 39.8457 51.312 39.8148H51.3274C51.4972 39.213 51.5743 38.5957 51.5743 37.963C51.5743 37.284 51.4663 36.5895 51.2657 35.9414C50.1546 32.3765 46.3583 30.4012 42.7935 31.5123C41.0805 32.0525 39.6453 33.2562 38.812 34.8611L37.7163 32.4074C37.3614 31.5278 35.0003 26.3426 34.4756 25.1389C34.3521 24.9074 34.2132 24.6759 34.0435 24.4753L46.2503 19.4444C46.7595 19.2284 47.0682 18.7191 47.0373 18.179C47.0219 17.6389 46.6515 17.1759 46.1422 17.0216C43.5496 16.2346 42.0836 13.5031 42.8706 10.8951C42.9478 10.6481 43.0404 10.4167 43.1484 10.1852C43.7503 8.91975 44.8614 7.96296 46.2194 7.59259C48.4416 6.95988 50.8027 7.94753 51.8984 9.98457C52.6237 11.3426 52.3768 13.6728 52.2379 14.6142C52.1762 15.1235 52.3768 15.6173 52.778 15.9259C53.1793 16.2346 53.704 16.3117 54.1669 16.1111L65.4632 11.3889L77.5003 40.1852C77.7163 40.6636 77.7163 41.2191 77.5157 41.6975Z" fill="#1D1F17"/>
<path d="M21.2159 72.5162L19.5703 73.3655L21.7076 77.5068L23.3532 76.6575L21.2159 72.5162Z" fill="#1D1F17"/>
<path d="M8.35019 72.5907L6.21289 76.7321L7.85845 77.5813L9.99575 73.44L8.35019 72.5907Z" fill="#1D1F17"/>
<path d="M13.8775 75.2431L13.7637 79.9022L15.615 79.9475L15.7288 75.2884L13.8775 75.2431Z" fill="#1D1F17"/>
<path d="M60.3702 2.61375L58.7246 3.46301L60.8619 7.60433L62.5075 6.75507L60.3702 2.61375Z" fill="#1D1F17"/>
<path d="M74.2232 2.67595L72.0859 6.81726L73.7315 7.66652L75.8688 3.52521L74.2232 2.67595Z" fill="#1D1F17"/>
<path d="M66.36 0.200277L66.2461 4.85938L68.0974 4.90462L68.2113 0.245522L66.36 0.200277Z" fill="#1D1F17"/>
</g>
<defs>
<clipPath id="clip0_23_259">
<rect width="80" height="80" fill="white"/>
</clipPath>
</defs>
</svg>
