<svg width="30" height="30" viewBox="0 0 30 30" fill="none" xmlns="http://www.w3.org/2000/svg">
<path d="M2.8125 15C2.8125 21.731 8.26903 27.1875 15 27.1875C20.7088 27.1875 25.5008 23.2624 26.8246 17.9637C27.0321 17.1334 27.1358 16.7183 26.9159 16.2973C26.8532 16.1773 26.7393 16.0314 26.638 15.9415C26.2829 15.6261 25.7903 15.6261 24.805 15.6261H16.625C15.6876 15.6261 15.2189 15.6261 14.8903 15.3874C14.7842 15.3103 14.6908 15.2169 14.6137 15.1108C14.375 14.7822 14.375 14.3135 14.375 13.3761V5.19477C14.375 4.20955 14.375 3.71694 14.0596 3.36183C13.9697 3.26059 13.8239 3.1467 13.7039 3.08399C13.2829 2.86405 12.8678 2.96772 12.0375 3.17506C6.7382 4.49842 2.8125 9.29076 2.8125 15Z" fill="#1D1F17" fill-opacity="0.2"/>
<path d="M16.25 11.5V5.40579C16.25 4.35028 16.25 3.82253 16.5954 3.46034C16.6934 3.35753 16.8516 3.24491 16.9809 3.18591C17.4361 2.97805 17.871 3.12866 18.7408 3.42986C22.4024 4.69792 25.3021 7.59761 26.5702 11.2592C26.8714 12.129 27.022 12.5639 26.8141 13.0191C26.7551 13.1484 26.6425 13.3066 26.5397 13.4046C26.1775 13.75 25.6498 13.75 24.5943 13.75H18.5C17.5626 13.75 17.0939 13.75 16.7653 13.5113C16.6592 13.4342 16.5658 13.3409 16.4887 13.2347C16.25 12.9062 16.25 12.4374 16.25 11.5Z" fill="#1D1F17"/>
</svg>
