<svg width="30" height="30" viewBox="0 0 30 30" fill="none" xmlns="http://www.w3.org/2000/svg">
<path fill-rule="evenodd" clip-rule="evenodd" d="M15.2212 22.1875H18.125C21.0383 22.1875 22.495 22.1875 23.6351 21.6874C24.9994 21.0889 26.0889 19.9994 26.6874 18.6351C27.1875 17.495 27.1875 16.0383 27.1875 13.125C27.1875 10.2117 27.1875 8.75504 26.6874 7.61493C26.0889 6.25057 24.9994 5.16106 23.6351 4.5626C22.495 4.0625 21.0383 4.0625 18.125 4.0625H11.875C8.96169 4.0625 7.50504 4.0625 6.36493 4.5626C5.00057 5.16106 3.91106 6.25057 3.3126 7.61493C2.8125 8.75504 2.8125 10.2117 2.8125 13.125C2.8125 16.0383 2.8125 17.495 3.3126 18.6351C3.91106 19.9994 5.00057 21.0889 6.36493 21.6874C6.70673 21.8373 7.07698 21.9423 7.50641 22.0158L7.18308 22.9858C6.70066 24.4331 6.45945 25.1567 6.73728 25.5453C6.82333 25.6656 6.93664 25.7639 7.06795 25.8321C7.4919 26.0522 8.17416 25.711 9.53866 25.0288L15.2212 22.1875Z" fill="#1D1F17" fill-opacity="0.2"/>
<path d="M16.25 11.25H10M20 15H10" stroke="#1D1F17" stroke-width="1.875" stroke-linecap="round" stroke-linejoin="round"/>
</svg>
