<svg width="80" height="80" viewBox="0 0 80 80" fill="none" xmlns="http://www.w3.org/2000/svg">
<path d="M78.9706 40C78.9706 35.4303 76.5828 31.2121 72.704 28.8363C72.9949 27.806 73.1525 26.7394 73.1525 25.6606C73.1525 19.5515 68.4252 14.5333 62.3888 14.0606C62.3888 13.9879 62.3888 13.903 62.3888 13.8303C62.3888 13.7818 62.3888 13.7333 62.3888 13.6848C62.3888 13.6727 62.3888 13.6727 62.3888 13.6606C62.3646 7.26058 57.1646 2.04846 50.7646 2.04846C45.9161 2.04846 41.7585 5.03028 40.0009 9.24846C38.2555 5.03028 34.0979 2.04846 29.2494 2.04846C22.8494 2.04846 17.6373 7.24846 17.6252 13.6606V13.6848V13.8303V14.0485C11.6131 14.4969 6.86155 19.5272 6.86155 25.6606C6.86155 26.7272 7.00701 27.7939 7.29792 28.8363C3.41913 31.2121 1.03125 35.4303 1.03125 40C1.03125 44.5818 3.41913 48.7879 7.29792 51.1636C7.00701 52.206 6.86155 53.2727 6.86155 54.3394C6.86155 60.4485 11.5888 65.4666 17.6252 65.9394V66.3151C17.6252 72.7272 22.8373 77.9515 29.2494 77.9515C34.0858 77.9515 38.2555 74.9697 40.0009 70.7515C41.7464 74.9697 45.9161 77.9515 50.7646 77.9515C57.1767 77.9515 62.3888 72.7272 62.3888 66.3151C62.3888 66.1939 62.3888 66.0727 62.3888 65.9394C68.401 65.4909 73.1525 60.4606 73.1525 54.3272C73.1525 53.2606 73.007 52.1939 72.704 51.1515C76.5828 48.7879 78.9706 44.5818 78.9706 40ZM72.0373 49.4666C71.2979 47.8666 70.207 46.4485 68.8252 45.3212C68.7282 44.1697 68.2555 43.0303 67.3707 42.1454C67.0313 41.806 66.4737 41.806 66.1222 42.1454C65.7706 42.4848 65.7828 43.0424 66.1222 43.3939C67.4191 44.6909 67.4191 46.8121 66.1222 48.1212C65.7828 48.4606 65.7828 49.0182 66.1222 49.3697C66.2919 49.5394 66.5222 49.6242 66.7403 49.6242C66.9585 49.6242 67.1888 49.5394 67.3585 49.3697C67.9161 48.8121 68.304 48.1454 68.5464 47.4424C69.5403 48.4606 70.3161 49.6848 70.7888 51.0424V51.0545C71.1646 52.1212 71.3585 53.2363 71.3585 54.3515C71.3585 59.5515 67.3222 63.8182 62.1585 64.1939C61.8555 62.5333 61.1888 60.9939 60.2191 59.6121C61.0797 59.3576 61.904 58.9212 62.6191 58.2909C62.9828 57.9636 63.007 57.406 62.6797 57.0545C62.3525 56.6909 61.7949 56.6666 61.4434 56.9939C59.5767 58.6788 56.6797 58.5212 55.007 56.6545C54.6797 56.2909 54.1222 56.2666 53.7706 56.5939C53.407 56.9212 53.3828 57.4788 53.71 57.8303C54.91 59.1636 56.5464 59.8424 58.207 59.8909C59.504 61.3939 60.3161 63.2242 60.5464 65.2121V65.2242C60.5828 65.5879 60.5949 65.9636 60.5949 66.3272C60.5949 71.7818 56.1706 76.206 50.7282 76.206C45.2858 76.206 40.8616 71.7818 40.8494 66.3515C40.8494 66.3394 40.8494 66.3394 40.8494 66.3272V61.6485C40.8494 61.1636 40.4616 60.7636 39.9646 60.7636C39.4676 60.7636 39.0797 61.1515 39.0797 61.6485V66.303V66.3272C39.0797 71.7818 34.6555 76.206 29.2131 76.206C23.7706 76.206 19.3464 71.7697 19.3464 66.3272C19.3464 65.9515 19.3706 65.5757 19.3949 65.2242V65.2121C19.6131 63.2363 20.4373 61.406 21.7343 59.903C23.3949 59.8545 25.0434 59.1636 26.2312 57.8424C26.5585 57.4788 26.5222 56.9212 26.1706 56.606C25.807 56.2788 25.2494 56.3151 24.9343 56.6666C23.2494 58.5333 20.3646 58.6909 18.4979 57.006C18.1343 56.6788 17.5767 56.7151 17.2616 57.0666C16.9343 57.4303 16.9706 57.9879 17.3222 58.303C18.0373 58.9454 18.8616 59.3697 19.7222 59.6242C18.7525 60.9939 18.0858 62.5454 17.7828 64.206C12.6555 63.8545 8.58277 59.5757 8.58277 54.3636C8.58277 53.2727 8.76458 52.1697 9.14034 51.0909C9.14034 51.0788 9.15246 51.0788 9.15246 51.0666C9.63731 49.7091 10.4009 48.4727 11.407 47.4545C11.6494 48.1576 12.0373 48.8242 12.5949 49.3818C12.7646 49.5515 12.9949 49.6363 13.2131 49.6363C13.4434 49.6363 13.6616 49.5515 13.8313 49.3818C14.1706 49.0424 14.1706 48.4848 13.8313 48.1333C12.5343 46.8363 12.5343 44.7151 13.8313 43.406C14.1706 43.0666 14.1706 42.5091 13.8313 42.1576C13.4919 41.8182 12.9343 41.8182 12.5828 42.1576C11.6979 43.0424 11.2373 44.1697 11.1282 45.3333C9.7464 46.4606 8.65549 47.8666 7.90398 49.4788C4.76458 47.3939 2.78883 43.8545 2.78883 40C2.78883 35.8545 5.05549 32.0606 8.69186 30.0606H8.70398C10.2555 29.2242 11.9888 28.7636 13.7585 28.7151C13.9525 29.6969 14.4252 30.606 15.1525 31.3333C15.3222 31.503 15.5525 31.5879 15.7706 31.5879C16.0009 31.5879 16.2191 31.503 16.3888 31.3333C16.7282 30.9939 16.7282 30.4363 16.3888 30.0848C15.7585 29.4545 15.4191 28.6182 15.4191 27.7212C15.4191 26.8242 15.7706 25.9879 16.3888 25.3576C16.7282 25.0182 16.7282 24.4606 16.3888 24.1091C16.0494 23.7697 15.4919 23.7697 15.1403 24.1091C14.3646 24.8848 13.8919 25.8666 13.7222 26.9454C12.0494 26.9939 10.4131 27.3576 8.8858 28.0242C8.69186 27.2485 8.59489 26.4485 8.59489 25.6485C8.59489 20.4485 12.6313 16.1818 17.7949 15.806C18.0858 17.3818 18.704 18.8727 19.6131 20.2182C19.0919 20.9818 18.7888 21.903 18.7888 22.8969C18.7888 23.3818 19.1767 23.7818 19.6737 23.7818C20.1585 23.7818 20.5585 23.3939 20.5585 22.8969C20.5585 21.2363 21.904 19.8909 23.5646 19.8909C24.0494 19.8909 24.4494 19.503 24.4494 19.006C24.4494 18.5212 24.0616 18.1212 23.5646 18.1212C22.5828 18.1212 21.6737 18.4242 20.91 18.9333C19.9282 17.3939 19.3828 15.6242 19.3706 13.7818C19.3706 13.7454 19.3706 13.7212 19.3706 13.6848C19.3706 8.23028 23.7949 3.80604 29.2373 3.80604C34.6797 3.80604 39.104 8.2424 39.104 13.6848V13.7091V18.3515C39.104 18.8363 39.4919 19.2363 39.9888 19.2363C40.4858 19.2363 40.8737 18.8485 40.8737 18.3515V13.6727C40.8737 13.6606 40.8737 13.6606 40.8737 13.6485C40.8858 8.21816 45.31 3.79392 50.7525 3.79392C56.1949 3.79392 60.6191 8.23028 60.6191 13.6727V13.7697C60.5949 15.5879 60.0737 17.3091 59.1282 18.8363C58.4009 18.4 57.5646 18.1333 56.6676 18.1333C56.1828 18.1333 55.7828 18.5212 55.7828 19.0182C55.7828 19.5151 56.1706 19.903 56.6676 19.903C58.3282 19.903 59.6737 21.2485 59.6737 22.9091C59.6737 23.3939 60.0616 23.7939 60.5585 23.7939C61.0434 23.7939 61.4434 23.406 61.4434 22.9091C61.4434 21.8424 61.0797 20.8606 60.4737 20.0606C61.3343 18.7636 61.9161 17.3212 62.1949 15.7939C67.3222 16.1454 71.3949 20.4242 71.3949 25.6363C71.3949 26.4363 71.2979 27.2363 71.104 28.0121C69.5767 27.3454 67.9403 26.9818 66.2676 26.9333C66.11 25.8666 65.6252 24.8727 64.8494 24.0969C64.51 23.7575 63.9525 23.7575 63.601 24.0969C63.2616 24.4363 63.2616 24.9939 63.601 25.3454C64.2313 25.9757 64.5706 26.8121 64.5706 27.7091C64.5706 28.606 64.2191 29.4424 63.601 30.0727C63.2616 30.4121 63.2616 30.9697 63.601 31.3212C63.7706 31.4909 64.0009 31.5757 64.2191 31.5757C64.4494 31.5757 64.6676 31.4909 64.8373 31.3212C65.5646 30.5939 66.0373 29.6848 66.2313 28.703C68.001 28.7515 69.7343 29.2121 71.2858 30.0485C74.9343 32.0485 77.2131 35.8424 77.2131 40C77.2131 43.8545 75.2373 47.3818 72.0373 49.4666Z" fill="#1D1F17"/>
<path d="M39.6366 22.012C33.6487 22.1939 28.7032 27.4181 28.8244 33.4181C28.8851 36.2787 30.0244 38.9817 32.0366 41.0181C33.3578 42.3514 34.2669 44.1454 34.6669 46.1454H33.7335C33.2487 46.1454 32.8487 46.5333 32.8487 47.0302V50.1575C32.8487 54.0848 36.0487 57.2848 39.976 57.2848C43.9032 57.2848 47.1032 54.0848 47.1032 50.1575V47.0302C47.1032 46.5454 46.7154 46.1454 46.2184 46.1454H45.2972C45.7214 44.206 46.7032 42.3514 48.182 40.7393C50.0851 38.6666 51.1396 35.9757 51.1396 33.1636C51.1396 30.1211 49.9396 27.2727 47.7457 25.1514C45.5881 23.0423 42.7154 21.9393 39.6366 22.012ZM45.3699 50.1575C45.3699 53.1151 42.9578 55.5272 40.0002 55.5272C37.0426 55.5272 34.6305 53.1151 34.6305 50.1575V47.903H35.7093H44.279H45.3699V50.1575ZM46.9214 39.5514C45.1275 41.4908 43.9638 43.7575 43.5275 46.1454H40.8851V39.1151C43.0184 38.703 44.6426 36.8242 44.6426 34.5696C44.6426 34.0848 44.2547 33.6848 43.7578 33.6848C43.2729 33.6848 42.8729 34.0727 42.8729 34.5696C42.8729 36.1575 41.576 37.4423 39.9881 37.4423C38.4002 37.4423 37.1154 36.1575 37.1154 34.5696C37.1154 34.0848 36.7275 33.6848 36.2305 33.6848C35.7457 33.6848 35.3457 34.0727 35.3457 34.5696C35.3457 36.8242 36.9699 38.703 39.1032 39.1151V46.1454H36.4608C36.0366 43.6848 34.9214 41.4423 33.2851 39.7817C31.5881 38.0605 30.6305 35.7939 30.5699 33.3817C30.4608 28.3272 34.6305 23.9272 39.6729 23.7696C42.2426 23.6727 44.679 24.6302 46.5335 26.4242C48.376 28.2181 49.3941 30.606 49.3941 33.1757C49.4063 35.5514 48.5214 37.806 46.9214 39.5514Z" fill="#1D1F17"/>
</svg>
