<svg width="35" height="35" viewBox="0 0 35 35" fill="none" xmlns="http://www.w3.org/2000/svg">
<path d="M17.8649 3.28125V4.375C17.8649 8.47627 17.8649 10.5269 18.9093 11.9645C19.2467 12.4287 19.6549 12.837 20.1192 13.1743C21.5568 14.2188 23.6074 14.2188 27.7087 14.2188H28.8024V21.875C28.8024 25.9763 28.8024 28.0269 27.758 29.4645C27.4207 29.9287 27.0124 30.337 26.5481 30.6743C25.1106 31.7188 23.0599 31.7188 18.9587 31.7188H16.042C11.9407 31.7188 9.89009 31.7188 8.45254 30.6743C7.98827 30.337 7.57999 29.9287 7.24268 29.4645C6.19824 28.0269 6.19824 25.9763 6.19824 21.875V13.125C6.19824 9.02373 6.19824 6.9731 7.24268 5.53555C7.57999 5.07128 7.98827 4.663 8.45254 4.32569C9.89009 3.28125 11.9407 3.28125 16.042 3.28125H17.8649Z" fill="#1D1F17" fill-opacity="0.2"/>
<path d="M20.0518 3.28125V6.125C20.0518 8.58576 20.0518 9.81614 20.6784 10.6787C20.8808 10.9572 21.1258 11.2022 21.4043 11.4046C22.2669 12.0313 23.4972 12.0313 25.958 12.0313L28.8018 12.0312L20.0518 3.28125Z" fill="#1D1F17"/>
<path d="M18.9587 18.229H11.667M23.3337 22.604H11.667" stroke="#1D1F17" stroke-width="2.1875" stroke-linecap="round" stroke-linejoin="round"/>
</svg>
