<svg width="22" height="22" viewBox="0 0 22 22" fill="none" xmlns="http://www.w3.org/2000/svg">
<path d="M11 19.9375C15.936 19.9375 19.9375 15.936 19.9375 11C19.9375 6.06395 15.936 2.0625 11 2.0625C6.06395 2.0625 2.0625 6.06395 2.0625 11C2.0625 15.936 6.06395 19.9375 11 19.9375Z" fill="#1D1F17" fill-opacity="0.2"/>
<path fill-rule="evenodd" clip-rule="evenodd" d="M10.3125 2.08855V3.66667C10.3125 4.04636 10.6203 4.35417 11 4.35417C11.3797 4.35417 11.6875 4.04636 11.6875 3.66667V2.08855C11.4606 2.07129 11.2313 2.0625 11 2.0625C10.7687 2.0625 10.5394 2.07129 10.3125 2.08855ZM16.815 4.21273L15.6995 5.32881C15.4311 5.59736 15.4312 6.03266 15.6997 6.30109C15.9683 6.56951 16.4036 6.56941 16.672 6.30086L17.7873 5.18501C17.4886 4.83662 17.1634 4.51149 16.815 4.21273ZM19.9115 10.3125H18.3333C17.9536 10.3125 17.6458 10.6203 17.6458 11C17.6458 11.3797 17.9536 11.6875 18.3333 11.6875H19.9115C19.9287 11.4606 19.9375 11.2313 19.9375 11C19.9375 10.7687 19.9287 10.5394 19.9115 10.3125ZM17.7873 16.815L16.6706 15.6983C16.4021 15.4298 15.9668 15.4298 15.6983 15.6983C15.4298 15.9668 15.4298 16.4021 15.6983 16.6706L16.815 17.7873C17.1634 17.4885 17.4885 17.1634 17.7873 16.815ZM11.6875 19.9115L11.6871 18.3332C11.6871 17.9535 11.3792 17.6458 10.9995 17.6458C10.6198 17.6459 10.3121 17.9538 10.3121 18.3335L10.3125 19.9114C10.5394 19.9287 10.7687 19.9375 11 19.9375C11.2313 19.9375 11.4606 19.9287 11.6875 19.9115ZM5.18501 17.7873L6.30086 16.672C6.56941 16.4036 6.56951 15.9683 6.30109 15.6997C6.03266 15.4312 5.59736 15.4311 5.32881 15.6995L4.21273 16.8151C4.5115 17.1634 4.83662 17.4886 5.18501 17.7873ZM2.08855 11.6875H3.66667C4.04636 11.6875 4.35417 11.3797 4.35417 11C4.35417 10.6203 4.04636 10.3125 3.66667 10.3125H2.08855C2.07129 10.5394 2.0625 10.7687 2.0625 11C2.0625 11.2313 2.07129 11.4606 2.08855 11.6875ZM4.21271 5.18498L5.32744 6.29971C5.59592 6.56819 6.03122 6.56819 6.29971 6.29971C6.56819 6.03122 6.56819 5.59592 6.29971 5.32744L5.18498 4.21271C4.83659 4.51147 4.51147 4.83659 4.21271 5.18498ZM11.6871 7.10417C11.6871 6.72447 11.3793 6.41667 10.9996 6.41667C10.62 6.41667 10.3121 6.72447 10.3121 7.10417V9.625C10.3121 10.0047 10.62 10.3125 10.9996 10.3125C11.3793 10.3125 11.6871 10.0047 11.6871 9.625V7.10417Z" fill="#1D1F17"/>
<path d="M10.9995 8.9375C9.86068 8.9375 8.9375 9.86094 8.9375 10.9997C8.9375 12.1388 9.86091 13.0625 11 13.0625C12.1391 13.0625 13.0625 12.1391 13.0625 11C13.0625 9.86091 12.1386 8.9375 10.9995 8.9375Z" fill="#1D1F17"/>
</svg>
