<svg width="70" height="70" viewBox="0 0 70 70" fill="none" xmlns="http://www.w3.org/2000/svg">
<path d="M6.5625 34.9973C6.5625 32.7902 6.80394 30.6418 7.26114 28.5778C10.2923 33.4439 14.53 37.4621 19.5505 40.1923C20.1146 44.5495 21.3398 49.1428 23.0928 53.3803C24.5837 56.984 26.5022 60.4401 28.8096 63.3013C16.1031 60.4242 6.5625 48.8715 6.5625 34.9973Z" fill="#FFEDE1"/>
<path d="M19.1996 34.8565C14.8641 31.8979 11.368 27.7537 9.1602 22.8706C12.8308 14.753 20.0716 8.6718 28.8096 6.69324C26.5022 9.55448 24.5837 13.0106 23.0928 16.6143C20.6419 22.5388 19.2227 29.1588 19.1996 34.8565Z" fill="#FFEDE1"/>
<path d="M27.1355 18.2868C29.1681 13.3738 31.8984 9.16797 34.9963 6.56171C38.0943 9.16797 40.8246 13.3738 42.8571 18.2868C45.1391 23.8027 46.4183 29.9159 46.4183 34.9973C46.4183 35.7577 46.3897 36.5412 46.3333 37.3423C42.8578 38.8846 39.0231 39.7388 34.9964 39.7388C30.9696 39.7388 27.1349 38.8846 23.6594 37.3423C23.603 36.5412 23.5744 35.7577 23.5744 34.9973C23.5744 29.9159 24.8536 23.8027 27.1355 18.2868Z" fill="#FFEDE1"/>
<path d="M34.9964 44.1138C38.7357 44.1138 42.3266 43.478 45.6717 42.308C45.0695 45.4407 44.1159 48.6651 42.8571 51.7078C40.8246 56.6208 38.0943 60.8266 34.9963 63.4329C31.8984 60.8266 29.1681 56.6208 27.1355 51.7078C25.8768 48.6651 24.9231 45.4407 24.321 42.3079C27.666 43.478 31.2571 44.1138 34.9964 44.1138Z" fill="#FFEDE1"/>
<path d="M46.8998 53.3803C45.409 56.984 43.4905 60.4401 41.183 63.3013C53.8896 60.4242 63.4302 48.8715 63.4302 34.9973C63.4302 32.7902 63.1887 30.6419 62.7315 28.5779C59.7004 33.444 55.4627 37.4622 50.4421 40.1923C49.8781 44.5495 48.6529 49.1428 46.8998 53.3803Z" fill="#FFEDE1"/>
<path d="M50.793 34.8566C55.1286 31.8979 58.6248 27.7537 60.8325 22.8706C57.1619 14.7531 49.9211 8.6718 41.183 6.69324C43.4905 9.55448 45.409 13.0106 46.8998 16.6143C49.3508 22.5388 50.77 29.1588 50.793 34.8566Z" fill="#FFEDE1"/>
</svg>
