<svg width="36" height="36" viewBox="0 0 36 36" fill="none" xmlns="http://www.w3.org/2000/svg">
<path d="M3.78125 17.9987C3.78125 16.8952 3.90197 15.821 4.13057 14.789C5.64613 17.222 7.76498 19.2311 10.2753 20.5962C10.5573 22.7748 11.1699 25.0714 12.0464 27.1902C12.7919 28.992 13.7511 30.7201 14.9048 32.1507C8.55154 30.7122 3.78125 24.9358 3.78125 17.9987Z" fill="#1D1F17" fill-opacity="0.2"/>
<path d="M10.0998 17.9283C7.93203 16.449 6.18398 14.3769 5.0801 11.9353C6.91539 7.87657 10.5358 4.83596 14.9048 3.84668C13.7511 5.2773 12.7919 7.00537 12.0464 8.80722C10.8209 11.7694 10.1113 15.0794 10.0998 17.9283Z" fill="#1D1F17" fill-opacity="0.2"/>
<path d="M23.9499 27.1902C23.2045 28.992 22.2452 30.7201 21.0915 32.1507C27.4448 30.7122 32.2151 24.9358 32.2151 17.9987C32.2151 16.8952 32.0944 15.821 31.8658 14.789C30.3502 17.2221 28.2313 19.2312 25.7211 20.5962C25.439 22.7748 24.8264 25.0715 23.9499 27.1902Z" fill="#1D1F17" fill-opacity="0.2"/>
<path d="M25.8965 17.9283C28.0643 16.449 29.8124 14.3769 30.9163 11.9354C29.081 7.87659 25.4605 4.83596 21.0915 3.84668C22.2452 5.2773 23.2045 7.00537 23.9499 8.80722C25.1754 11.7694 25.885 15.0795 25.8965 17.9283Z" fill="#1D1F17" fill-opacity="0.2"/>
<path d="M14.0687 9.6438C15.0849 7.18728 16.4501 5.08438 17.9991 3.78125C19.548 5.08438 20.9132 7.18728 21.9295 9.6438C23.0705 12.4018 23.7101 15.4583 23.7101 17.999C23.7101 18.3792 23.6957 18.771 23.6676 19.1715C21.9298 19.9427 20.0125 20.3698 17.9991 20.3698C15.9857 20.3698 14.0684 19.9427 12.3306 19.1715C12.3024 18.771 12.2881 18.3792 12.2881 17.999C12.2881 15.4583 12.9277 12.4018 14.0687 9.6438Z" fill="#1D1F17"/>
<path d="M17.9991 22.5573C19.8687 22.5573 21.6642 22.2394 23.3368 21.6544C23.0357 23.2207 22.5589 24.8329 21.9295 26.3543C20.9132 28.8108 19.548 30.9137 17.9991 32.2168C16.4501 30.9137 15.0849 28.8108 14.0687 26.3543C13.4393 24.8329 12.9625 23.2207 12.6614 21.6544C14.3339 22.2394 16.1294 22.5573 17.9991 22.5573Z" fill="#1D1F17"/>
</svg>
