<svg width="60" height="60" viewBox="0 0 60 60" fill="none" xmlns="http://www.w3.org/2000/svg">
<g clip-path="url(#clip0_95_492)">
<mask id="mask0_95_492" style="mask-type:luminance" maskUnits="userSpaceOnUse" x="0" y="0" width="60" height="60">
<path d="M60 0H0V60H60V0Z" fill="white"/>
</mask>
<g mask="url(#mask0_95_492)">
<path d="M13.2973 36.2585L11.2087 44.0553L3.57527 44.2167C1.29398 39.9854 0 35.1443 0 29.9997C0 25.0251 1.20984 20.3339 3.35438 16.2031H3.35602L10.1519 17.449L13.129 24.2041C12.5059 26.0207 12.1663 27.9707 12.1663 29.9997C12.1665 32.202 12.5654 34.3119 13.2973 36.2585Z" fill="#FBBB00"/>
<path d="M59.4745 24.3953C59.819 26.21 59.9987 28.0842 59.9987 29.9997C59.9987 32.1475 59.7728 34.2426 59.3426 36.2635C57.8823 43.1404 54.0663 49.1453 48.78 53.3947L48.7785 53.3931L40.2185 52.9563L39.0071 45.3937C42.5147 43.3365 45.2561 40.1173 46.7 36.2635H30.6582V24.3953H46.934H59.4745Z" fill="#518EF8"/>
<path d="M48.7806 53.3931L48.7821 53.3948C43.6411 57.5272 37.1102 59.9998 30.0008 59.9998C18.5762 59.9998 8.64324 53.6141 3.57617 44.2168L13.2981 36.2585C15.8316 43.02 22.3542 47.8333 30.0008 47.8333C33.2877 47.8333 36.3668 46.9448 39.0091 45.3937L48.7806 53.3931Z" fill="#28B446"/>
<path d="M49.1481 6.90656L39.4293 14.8632C36.6947 13.1538 33.4623 12.1664 29.9991 12.1664C22.1793 12.1664 15.5348 17.2004 13.1283 24.2044L3.35516 16.2033H3.35352C8.34642 6.57691 18.4046 0 29.9991 0C37.2783 0 43.9524 2.59289 49.1481 6.90656Z" fill="#F14336"/>
</g>
</g>
<defs>
<clipPath id="clip0_95_492">
<rect width="60" height="60" fill="white"/>
</clipPath>
</defs>
</svg>
