<svg width="30" height="30" viewBox="0 0 30 30" fill="none" xmlns="http://www.w3.org/2000/svg">
<g clip-path="url(#clip0_127_338)">
<path d="M7.63486 4.43756C5.99458 4.22861 4.69881 2.97211 4.48471 1.38137C4.4534 1.14952 4.25566 0.976562 4.02147 0.976562C3.78775 0.976562 3.58955 1.14952 3.55823 1.38184C3.34414 2.97211 2.04883 4.22861 0.408551 4.43756C0.175294 4.46748 0 4.66614 0 4.90127C0 5.1364 0.174826 5.33507 0.408551 5.36498C2.04883 5.5744 3.34414 6.8309 3.55823 8.42117C3.58955 8.65349 3.78775 8.82645 4.02147 8.82645C4.2552 8.82645 4.4534 8.65349 4.48471 8.42117C4.69881 6.8309 5.99411 5.5744 7.63486 5.36498C7.86858 5.33507 8.04341 5.1364 8.04341 4.90127C8.04341 4.66614 7.86812 4.46748 7.63486 4.43756Z" fill="white"/>
<path d="M10.4407 8.49371C9.69469 8.39602 9.10523 7.80703 9.00754 7.06098C8.97715 6.82819 8.77849 6.6543 8.54383 6.6543C8.30917 6.6543 8.11097 6.82819 8.08012 7.06098C7.98242 7.80703 7.39297 8.39602 6.64692 8.49371C6.41413 8.5241 6.24023 8.72276 6.24023 8.95742C6.24023 9.19208 6.41413 9.39028 6.64692 9.42113C7.39297 9.51883 7.98242 10.1083 8.08012 10.8543C8.11097 11.0871 8.30917 11.261 8.54383 11.261C8.77849 11.261 8.97669 11.0871 9.00754 10.8543C9.10523 10.1083 9.69469 9.51883 10.4407 9.42113C10.6735 9.39028 10.8474 9.19208 10.8474 8.95742C10.8479 8.7223 10.6735 8.5241 10.4407 8.49371Z" fill="white"/>
<path d="M22.0759 2.85895C19.339 2.70844 16.7568 3.84714 15.0552 5.92215C13.3542 3.84714 10.7683 2.71031 8.03461 2.85895C7.07073 2.91131 6.12742 3.13802 5.23085 3.53302C5.08313 3.59799 4.97936 3.73496 4.95646 3.89482C4.93402 4.05469 4.99525 4.21503 5.11913 4.3188C5.39165 4.54738 5.68755 4.74231 6.00167 4.90124C5.15185 5.3313 4.45722 6.01284 4.02156 6.84537C3.77661 6.37838 3.44753 5.95301 3.04692 5.59167C2.9539 5.50753 2.83143 5.46265 2.70662 5.47247C2.58181 5.47995 2.46495 5.53697 2.38268 5.63093C0.920493 7.29879 0.113675 9.48459 0.111338 11.7863C0.0977815 24.1681 14.7673 28.9548 14.9155 29.0016C14.9613 29.016 15.009 29.0231 15.0566 29.0231C15.1043 29.0231 15.152 29.0156 15.1978 29.0016C15.346 28.9543 30.0155 24.1681 30.0015 11.7863C29.9954 6.94166 26.5886 3.1039 22.0759 2.85895Z" fill="#FF3F62"/>
<path d="M8.04341 4.90127C8.04341 4.66614 7.86812 4.46748 7.63486 4.43756C5.99458 4.22861 4.69881 2.97211 4.48471 1.38137C4.4534 1.14952 4.25566 0.976562 4.02147 0.976562C3.78775 0.976562 3.58955 1.14952 3.55823 1.38184C3.34414 2.97211 2.04883 4.22861 0.408551 4.43756C0.175294 4.46748 0 4.66614 0 4.90127C0 5.1364 0.174826 5.33507 0.408551 5.36498C2.04883 5.5744 3.34414 6.8309 3.55823 8.42117C3.58955 8.65349 3.78775 8.82645 4.02147 8.82645C4.2552 8.82645 4.4534 8.65349 4.48471 8.42117C4.69881 6.8309 5.99411 5.5744 7.63486 5.36498C7.86858 5.33553 8.04341 5.13687 8.04341 4.90127Z" fill="#FFB655"/>
<path d="M4.2591 13.0894C3.51305 12.9917 2.92359 12.4027 2.8259 11.6567C2.79551 11.4239 2.59685 11.25 2.36219 11.25C2.12753 11.25 1.92933 11.4239 1.89848 11.6567C1.80078 12.4027 1.21133 12.9917 0.465275 13.0894C0.232485 13.1198 0.0585938 13.3185 0.0585938 13.5531C0.0585938 13.7878 0.232485 13.986 0.465275 14.0168C1.21133 14.1145 1.80078 14.704 1.89848 15.45C1.92933 15.6828 2.12753 15.8567 2.36219 15.8567C2.59685 15.8567 2.79505 15.6828 2.8259 15.45C2.92359 14.704 3.51305 14.1145 4.2591 14.0168C4.49189 13.986 4.66578 13.7878 4.66578 13.5531C4.66625 13.318 4.49189 13.1198 4.2591 13.0894Z" fill="#FFB655"/>
</g>
<defs>
<clipPath id="clip0_127_338">
<rect width="30" height="30" fill="white"/>
</clipPath>
</defs>
</svg>
