<svg width="101" height="100" viewBox="0 0 101 100" fill="none" xmlns="http://www.w3.org/2000/svg">
<path fill-rule="evenodd" clip-rule="evenodd" d="M62.0118 23.8588L31.4229 8.76758L0.833984 23.8588V37.4557L31.4229 22.3644L62.0118 37.4557V23.8588Z" fill="#63528E"/>
<path fill-rule="evenodd" clip-rule="evenodd" d="M31.4444 27.7285L0.855768 42.8205L0.855469 73.0039L31.4438 88.0954L31.4456 88.0945L14.6348 79.8005L14.6351 49.617L45.2218 34.526L31.4444 27.7285Z" fill="#63528E"/>
<path fill-rule="evenodd" clip-rule="evenodd" d="M19.9473 54.7246L19.9474 84.9081L50.536 100L64.3125 93.2029L33.7245 78.1114L33.7244 47.9279L50.5366 39.6332L19.9473 54.7246Z" fill="#63528E"/>
<path fill-rule="evenodd" clip-rule="evenodd" d="M39.6562 75.6656L70.245 90.7575L100.834 75.6656V62.0684L70.245 77.1601L39.6562 62.0684V75.6656Z" fill="#63528E"/>
<path fill-rule="evenodd" clip-rule="evenodd" d="M69.9826 70.6325L100.571 55.5405L100.571 25.3571L69.9832 10.2656L69.9813 10.2665L86.792 18.5606L86.7917 48.744L56.2051 63.8351L69.9826 70.6325Z" fill="#63528E"/>
<path fill-rule="evenodd" clip-rule="evenodd" d="M81.4748 45.2754L81.4746 15.0919L50.8859 0L37.1094 6.79704L67.6974 21.8885L67.6975 52.0721L50.8854 60.3668L81.4748 45.2754Z" fill="#63528E"/>
</svg>
