<svg width="101" height="98" viewBox="0 0 101 98" fill="none" xmlns="http://www.w3.org/2000/svg">
<g clip-path="url(#clip0_105_249)">
<path fill-rule="evenodd" clip-rule="evenodd" d="M59.9202 10.6146C63.3051 7.23001 68.7929 7.23001 72.1778 10.6146C75.5626 13.9995 75.5626 19.4874 72.1778 22.8723L51.5414 43.5087C45.6165 35.5682 46.2602 24.275 53.4724 17.0628L59.9202 10.6146Z" fill="#4F9E91"/>
<path fill-rule="evenodd" clip-rule="evenodd" d="M89.4242 57.1723C92.8095 60.5569 92.8095 66.0449 89.4242 69.4296C86.0412 72.8145 80.5525 72.8145 77.1676 69.4296L56.5312 48.7935C64.4717 42.8686 75.7649 43.512 82.9771 50.7242L89.4242 57.1723Z" fill="#EBE1C5"/>
<path fill-rule="evenodd" clip-rule="evenodd" d="M42.8643 86.671C39.4797 90.0559 33.9917 90.0559 30.607 86.671C27.2221 83.2861 27.2221 77.7983 30.607 74.4134L51.2431 53.7773C57.168 61.7178 56.5246 73.011 49.3124 80.223L42.8643 86.671Z" fill="#EBCC6E"/>
<path fill-rule="evenodd" clip-rule="evenodd" d="M13.3609 40.1126C9.97605 36.7277 9.97605 31.2399 13.3609 27.8551C16.7458 24.4702 22.2336 24.4702 25.6186 27.8551L46.2549 48.4914C38.3145 54.4163 27.021 53.7726 19.809 46.5607L13.3609 40.1126Z" fill="#ED834E"/>
<path fill-rule="evenodd" clip-rule="evenodd" d="M55.3125 84.1471C60.3035 78.5978 62.6232 71.4971 62.2713 64.5059L72.182 74.4166C72.2066 74.4412 72.2315 74.4659 72.2564 74.4905V81.5661C72.2564 86.3529 68.3759 90.2334 63.5891 90.2334C59.701 90.2334 56.411 87.6734 55.3125 84.1471Z" fill="#ED834E"/>
<path fill-rule="evenodd" clip-rule="evenodd" d="M15.891 52.5586C21.4401 57.5498 28.5409 59.8696 35.5321 59.5176L25.6216 69.4284C25.5967 69.453 25.5721 69.4779 25.5477 69.5025H18.472C13.6852 69.5027 9.80469 65.622 9.80469 60.8352C9.80469 56.9474 12.3647 53.6571 15.891 52.5586Z" fill="#4F9E91"/>
<path fill-rule="evenodd" clip-rule="evenodd" d="M86.8963 44.7273C81.3478 39.7361 74.2471 37.4164 67.2559 37.7681L77.1663 27.8576C77.1912 27.833 77.2156 27.8081 77.2402 27.7832H84.3161C89.1037 27.7832 92.9841 31.6639 92.9841 36.4508C92.9841 40.3388 90.4232 43.6288 86.8963 44.7273Z" fill="#EBCC6E"/>
<path fill-rule="evenodd" clip-rule="evenodd" d="M47.4752 13.1393C42.4839 18.6884 40.1644 25.7891 40.5161 32.7805L30.6056 22.8699C30.5808 22.8452 30.5561 22.8206 30.5312 22.796V15.7203C30.5312 10.9335 34.4117 7.05273 39.1986 7.05273C43.0866 7.05273 46.3766 9.61298 47.4752 13.1393Z" fill="#EBE1C5"/>
<path fill-rule="evenodd" clip-rule="evenodd" d="M39.2019 0.00195312C30.5204 0.00195312 23.4827 7.03976 23.4827 15.7212V18.7785C18.2598 17.4139 12.4715 18.7778 8.37853 22.8707C2.23976 29.0095 2.23976 38.9624 8.37853 45.1012L10.5402 47.2629C5.88219 49.9912 2.75391 55.0485 2.75391 60.8366C2.75391 69.5181 9.7917 76.5559 18.4732 76.5559H21.5302C20.1656 81.7788 21.5295 87.5671 25.6224 91.6598C31.7611 97.7985 41.7141 97.7985 47.8528 91.6598L54.3007 85.212C59.9887 79.5239 62.6453 71.9522 62.2704 64.5049L72.1814 74.4156C78.3202 80.5544 88.2733 80.5544 94.4124 74.4156C100.551 68.2768 100.551 58.3239 94.4124 52.1854L92.2514 50.0239C96.9075 47.2956 100.037 42.2383 100.037 36.4502C100.037 27.7688 92.9977 20.731 84.3172 20.731H81.2599C82.6248 15.5078 81.2607 9.71951 77.1677 5.62659C71.0292 -0.512194 61.0763 -0.512194 54.9375 5.62659L48.4894 12.0746C42.8014 17.7627 40.1448 25.3341 40.5197 32.7815L30.6089 22.8707C30.5841 22.8461 30.5594 22.8214 30.5346 22.7968V15.7212C30.5346 10.9344 34.415 7.0539 39.2019 7.0539C43.0899 7.0539 46.3799 9.61391 47.4785 13.1402C47.8041 12.7783 48.1411 12.4229 48.4894 12.0746L52.7755 7.78829C50.0472 3.13025 44.9899 0.00195312 39.2019 0.00195312ZM77.2416 27.7829C77.217 27.8076 77.1926 27.8324 77.1677 27.8571L67.2572 37.7676C74.2487 37.4159 81.3492 39.7354 86.8977 44.7268C90.4246 43.6283 92.9855 40.3381 92.9855 36.4502C92.9855 31.6634 89.105 27.7829 84.3172 27.7829H77.2416ZM25.5482 69.5039C25.5729 69.479 25.5975 69.4541 25.6224 69.4295L35.5329 59.5188C28.5416 59.8707 21.4412 57.551 15.8922 52.56C12.3659 53.6585 9.80561 56.9485 9.80561 60.8366C9.80561 65.6234 13.6863 69.5039 18.4732 69.5039H25.5482ZM63.5885 97.2849C57.8002 97.2849 52.7429 94.1563 50.0146 89.4983L54.3007 85.212C54.6492 84.8637 54.986 84.5083 55.3116 84.1463C56.4102 87.6727 59.7002 90.2329 63.5885 90.2329C68.3753 90.2329 72.2558 86.3524 72.2558 81.5656V74.49C74.287 76.4946 76.7285 77.8342 79.3077 78.5081V81.5656C79.3077 90.2471 72.2699 97.2849 63.5885 97.2849ZM72.1814 10.6129C68.7965 7.2283 63.3087 7.2283 59.9238 10.6129L53.4758 17.061C46.2638 24.2731 45.6202 35.5663 51.545 43.5068L72.1814 22.8705C75.5663 19.4856 75.5663 13.9978 72.1814 10.6129ZM89.4246 69.4293C92.8099 66.0444 92.8099 60.5566 89.4246 57.1717L82.9772 50.7237C75.7653 43.5117 64.4719 42.868 56.5314 48.7929L77.1677 69.4293C80.5526 72.8142 86.0416 72.8142 89.4246 69.4293ZM42.8663 86.6734C39.4814 90.0583 33.9936 90.0583 30.6087 86.6734C27.2241 83.2885 27.2241 77.8007 30.6087 74.4159L51.245 53.7795C57.1699 61.72 56.5263 73.0134 49.3143 80.2254L42.8663 86.6734ZM13.3649 27.8571C9.98024 31.242 9.98024 36.7298 13.3649 40.1146L19.8129 46.5627C27.025 53.7746 38.3182 54.4183 46.2587 48.4934L25.6224 27.8571C22.2376 24.4724 16.7498 24.4724 13.3649 27.8571Z" fill="#3D3A2C"/>
</g>
<defs>
<clipPath id="clip0_105_249">
<rect width="100" height="97.561" fill="white" transform="translate(0.833984)"/>
</clipPath>
</defs>
</svg>
