<svg width="104" height="100" viewBox="0 0 104 100" fill="none" xmlns="http://www.w3.org/2000/svg">
<mask id="mask0_105_194" style="mask-type:luminance" maskUnits="userSpaceOnUse" x="1" y="0" width="101" height="100">
<path d="M101.727 0H1.72656V100H101.727V0Z" fill="white"/>
</mask>
<g mask="url(#mask0_105_194)">
<path d="M49.1073 27.6815C48.123 19.2468 47.0838 10.3411 47.0838 0H56.3693C56.3693 10.225 55.335 19.1194 54.352 27.5635C53.5513 34.445 52.7853 41.0275 52.643 47.7875C57.3055 42.9242 61.384 37.7675 65.6565 32.3657C70.9243 25.7057 76.4873 18.6736 83.799 11.3616L90.365 17.9276C83.1348 25.1578 76.1133 30.7152 69.4475 35.9915L69.4413 35.9963C64.0118 40.2945 58.8178 44.406 53.939 49.0835C60.674 48.9412 67.2043 48.1793 74.0445 47.381C82.4793 46.3965 91.3855 45.3573 101.727 45.3573V54.6427C91.502 54.6427 82.6075 53.608 74.1638 52.6255L74.1575 52.625C67.2775 51.8245 60.697 51.059 53.939 50.9165C58.799 55.5755 63.953 59.6523 69.3513 63.9218L69.3598 63.929C76.02 69.1973 83.0525 74.7597 90.365 82.0725L83.799 88.6385C76.5688 81.4085 71.0115 74.3875 65.736 67.7222L65.7235 67.705L65.713 67.6912C61.4203 62.2702 57.3138 57.0845 52.643 52.2125C52.7853 58.9725 53.5513 65.555 54.352 72.4365C55.335 80.8807 56.3693 89.775 56.3693 100H47.0838C47.0838 89.659 48.123 80.7533 49.1073 72.3185L49.1093 72.3047C49.9065 65.4692 50.6678 58.943 50.81 52.2125C46.1393 57.0845 42.0328 62.2702 37.74 67.6912L37.7295 67.705L37.717 67.7222C32.4415 74.3875 26.8843 81.4085 19.6542 88.6385L13.0882 82.0725C20.4005 74.7597 27.433 69.1973 34.0933 63.929L34.1018 63.9218C39.5 59.6523 44.654 55.5755 49.514 50.9165C42.754 51.0593 36.1713 51.825 29.2893 52.6255C20.8456 53.608 11.9512 54.6427 1.72656 54.6427V45.3573C12.0677 45.3573 20.9739 46.3965 29.4085 47.381C36.2488 48.1793 42.779 48.9412 49.514 49.0835C44.6333 44.4042 39.4373 40.2915 34.0055 35.9915C27.3398 30.7152 20.3182 25.1578 13.0882 17.9276L19.6542 11.3616C26.9658 18.6736 32.5288 25.7057 37.7965 32.3657C42.069 37.7672 46.1475 42.924 50.81 47.787C50.6678 41.0567 49.9065 34.5308 49.1093 27.6953L49.1073 27.6815Z" fill="#FFA589"/>
</g>
</svg>
