<svg width="103" height="101" viewBox="0 0 103 101" fill="none" xmlns="http://www.w3.org/2000/svg">
<g clip-path="url(#clip0_105_241)">
<mask id="mask0_105_241" style="mask-type:luminance" maskUnits="userSpaceOnUse" x="0" y="0" width="101" height="101">
<path d="M100.516 0.632812H0.515625V100.633H100.516V0.632812Z" fill="white"/>
</mask>
<g mask="url(#mask0_105_241)">
<path fill-rule="evenodd" clip-rule="evenodd" d="M25.5157 0.632812C39.3227 0.632812 50.5157 11.8257 50.5157 25.6328V0.632812H75.5157C89.3227 0.632812 100.516 11.8257 100.516 25.6328C100.516 39.4398 89.3227 50.6328 75.5157 50.6328C89.3227 50.6328 100.516 61.8258 100.516 75.6328C100.516 82.4886 97.7559 88.6998 93.2869 93.2163L93.1934 93.3106L93.1104 93.3931C88.5929 97.8686 82.3772 100.633 75.5157 100.633C68.7009 100.633 62.5229 97.9061 58.0132 93.4841C57.9547 93.4266 57.8962 93.3686 57.8379 93.3106C57.7832 93.2558 57.7287 93.2008 57.6744 93.1456C53.2467 88.6351 50.5157 82.4528 50.5157 75.6328C50.5157 89.4398 39.3227 100.633 25.5157 100.633C11.7085 100.633 0.515625 89.4398 0.515625 75.6328V50.6328H25.5157C11.7085 50.6328 0.515625 39.4398 0.515625 25.6328C0.515625 11.8257 11.7085 0.632812 25.5157 0.632812ZM45.5157 25.6328C45.5157 36.6786 36.5614 45.6328 25.5157 45.6328V5.63281C36.5614 5.63281 45.5157 14.5871 45.5157 25.6328ZM95.5157 75.6328C95.5157 64.5871 86.5614 55.6328 75.5157 55.6328C64.4699 55.6328 55.5157 64.5871 55.5157 75.6328H95.5157ZM5.51563 55.6328V75.6328C5.51563 86.6786 14.4699 95.6328 25.5157 95.6328C36.5614 95.6328 45.5157 86.6786 45.5157 75.6328V55.6328H5.51563ZM55.5157 45.6328V5.63281H75.5157C86.5614 5.63281 95.5157 14.5871 95.5157 25.6328C95.5157 36.6786 86.5614 45.6328 75.5157 45.6328H55.5157Z" fill="#5417D7"/>
</g>
</g>
<defs>
<clipPath id="clip0_105_241">
<rect width="102.5" height="100" fill="white" transform="translate(0.333984 0.632812)"/>
</clipPath>
</defs>
</svg>
