<svg width="28" height="28" viewBox="0 0 28 28" fill="none" xmlns="http://www.w3.org/2000/svg">
<path d="M4.69598 4.7502L4.07738 4.13136L4.07738 4.13136L4.69598 4.7502ZM10.4707 4.7502L11.0893 4.13136L10.4707 4.7502ZM10.4707 10.5227L9.85209 9.90381L9.85209 9.90381L10.4707 10.5227ZM17.4828 17.5321L16.8642 16.9132L16.8642 16.9132L17.4828 17.5321ZM23.2575 23.3045L22.6389 22.6857L22.6389 22.6857L23.2575 23.3045ZM8.82077 19.1813L8.20217 19.8002L8.82077 19.1813ZM3.52162 8.05718L4.39661 8.05222C4.39645 8.02391 4.39491 7.99563 4.39201 7.96747L3.52162 8.05718ZM19.9493 24.4784L20.0389 23.608C20.0108 23.6051 19.9825 23.6036 19.9542 23.6034L19.9493 24.4784ZM8.23153 11.6667L8.0934 10.8027C7.8135 10.8474 7.57261 11.025 7.44705 11.2791C7.32149 11.5333 7.32682 11.8325 7.46134 12.082L8.23153 11.6667ZM16.3383 19.7703L15.9233 20.5407C16.1728 20.6751 16.4719 20.6803 16.726 20.5548C16.98 20.4292 17.1576 20.1884 17.2023 19.9086L16.3383 19.7703ZM5.31458 5.36904C6.56754 4.11657 8.59913 4.11657 9.85209 5.36904L11.0893 4.13136C9.15296 2.1958 6.0137 2.1958 4.07738 4.13136L5.31458 5.36904ZM9.85209 5.36904C11.1049 6.62132 11.1049 8.65153 9.85209 9.90381L11.0893 11.1415C13.0258 9.20574 13.0258 6.06712 11.0893 4.13136L9.85209 5.36904ZM18.1014 18.1509C19.3544 16.8984 21.386 16.8984 22.6389 18.1509L23.8761 16.9132C21.9398 14.9777 18.8006 14.9777 16.8642 16.9132L18.1014 18.1509ZM22.6389 18.1509C23.8917 19.4032 23.8917 21.4334 22.6389 22.6857L23.8761 23.9234C25.8126 21.9876 25.8126 18.849 23.8761 16.9132L22.6389 18.1509ZM9.43937 18.5625C6.14255 15.267 4.41508 11.3067 4.39661 8.05222L2.64663 8.06215C2.66829 11.8782 4.6584 16.2578 8.20217 19.8002L9.43937 18.5625ZM4.39201 7.96747C4.29625 7.03834 4.60418 6.07916 5.31458 5.36904L4.07738 4.13136C2.97873 5.22959 2.50376 6.71606 2.65123 8.14689L4.39201 7.96747ZM22.6389 22.6857C21.9285 23.3958 20.9688 23.7038 20.0389 23.608L19.8596 25.3488C21.2907 25.4962 22.7775 25.0215 23.8761 23.9234L22.6389 22.6857ZM19.9542 23.6034C16.6981 23.585 12.7362 21.858 9.43937 18.5625L8.20217 19.8002C11.746 23.3426 16.1271 25.3317 19.9443 25.3534L19.9542 23.6034ZM9.85209 9.90381C9.35484 10.4009 8.73732 10.6997 8.0934 10.8027L8.36965 12.5307C9.36527 12.3716 10.3227 11.9078 11.0893 11.1415L9.85209 9.90381ZM12.3267 15.6763C10.9408 14.2909 9.82665 12.7814 9.00171 11.2514L7.46134 12.082C8.36947 13.7663 9.58699 15.412 11.0895 16.9139L12.3267 15.6763ZM17.2023 19.9086C17.3053 19.2651 17.6042 18.6479 18.1014 18.1509L16.8642 16.9132C16.0977 17.6795 15.6336 18.6367 15.4743 19.6321L17.2023 19.9086ZM16.7533 19C15.2227 18.1754 13.7127 17.0617 12.3267 15.6763L11.0895 16.9139C12.5921 18.4159 14.2384 19.6329 15.9233 20.5407L16.7533 19Z" fill="white"/>
</svg>
