<svg width="21" height="21" viewBox="0 0 21 21" fill="none" xmlns="http://www.w3.org/2000/svg">
<path d="M12.1644 10.3497L19.952 2.56184C20.4588 2.05527 20.4588 1.23622 19.952 0.729656C19.4454 0.22309 18.6264 0.22309 18.1198 0.729656L10.3319 8.5175L2.54432 0.729656C2.03752 0.22309 1.2187 0.22309 0.712135 0.729656C0.20533 1.23622 0.20533 2.05527 0.712135 2.56184L8.49976 10.3497L0.712135 18.1375C0.20533 18.6441 0.20533 19.4631 0.712135 19.9697C0.964589 20.2224 1.29653 20.3493 1.62823 20.3493C1.95993 20.3493 2.29163 20.2224 2.54432 19.9697L10.3319 12.1819L18.1198 19.9697C18.3725 20.2224 18.7042 20.3493 19.0359 20.3493C19.3676 20.3493 19.6993 20.2224 19.952 19.9697C20.4588 19.4631 20.4588 18.6441 19.952 18.1375L12.1644 10.3497Z" fill="white"/>
</svg>
