<svg width="24" height="24" viewBox="0 0 24 24" fill="none" xmlns="http://www.w3.org/2000/svg">
<path d="M12.0011 3C7.03054 3 3.00094 7 4.0011 12C4.66638 15.3259 7.9863 18.4306 10.1349 20.1367C10.8371 20.6944 11.1882 20.9732 11.7335 21.0468C11.8846 21.0672 12.1176 21.0672 12.2687 21.0468C12.814 20.9732 13.1651 20.6944 13.8673 20.1368C16.016 18.4306 19.336 15.3259 20.0011 12C21.001 7 16.9717 3 12.0011 3Z" stroke="#E9996B" stroke-width="1.5" stroke-linejoin="round"/>
<path d="M15.001 11.15C15.001 12.8069 13.6578 14.15 12.001 14.15C10.3441 14.15 9.00098 12.8069 9.00098 11.15C9.00098 9.49315 10.3441 8.15 12.001 8.15C13.6578 8.15 15.001 9.49315 15.001 11.15Z" stroke="#E9996B" stroke-width="1.5" stroke-linejoin="round"/>
</svg>
