<svg width="30" height="30" viewBox="0 0 30 30" fill="none" xmlns="http://www.w3.org/2000/svg">
<path d="M16.9454 26.6505C17.8052 26.0107 18.9663 25.09 20.1699 23.9666C22.5366 21.7577 25.2318 18.6163 25.9182 15.1838C27.3067 8.24079 21.6828 2.8125 14.9989 2.8125C8.31517 2.8125 2.6908 8.24075 4.07964 15.1839C4.76624 18.6164 7.46142 21.7577 9.82808 23.9666C11.0317 25.09 12.1927 26.0107 13.0525 26.6505C13.1096 26.693 12.9669 26.5868 12.9872 26.6015C14.0925 27.3992 15.9054 27.3992 17.0106 26.6015C17.0276 26.5893 16.9318 26.6606 16.9318 26.6606L16.9454 26.6505Z" fill="#1D1F17" fill-opacity="0.18"/>
<path d="M19.375 13.9375C19.375 16.3537 17.4162 18.3125 15 18.3125C12.5838 18.3125 10.625 16.3537 10.625 13.9375C10.625 11.5213 12.5838 9.5625 15 9.5625C17.4162 9.5625 19.375 11.5213 19.375 13.9375Z" fill="#1D1F17"/>
</svg>
