<svg width="92" height="100" viewBox="0 0 92 100" fill="none" xmlns="http://www.w3.org/2000/svg">
<path fill-rule="evenodd" clip-rule="evenodd" d="M82.7798 27.8655C82.2263 28.8415 81.4295 29.6553 80.4681 30.2263L49.0987 48.4658C48.1267 49.0276 47.0257 49.3231 45.905 49.3231C44.7842 49.3231 43.6833 49.0276 42.7113 48.4658L11.342 30.2263C10.3806 29.6553 9.58383 28.8415 9.03026 27.8658C8.47672 26.8898 8.18557 25.7855 8.18555 24.6616C8.18552 23.5378 8.47664 22.4334 9.03016 21.4575C9.58368 20.4816 10.3804 19.668 11.3418 19.0969L42.7113 0.857456C43.6833 0.295635 44.7842 0 45.905 0C47.0257 0 48.1267 0.295635 49.0987 0.857456L80.4681 19.0969C81.4293 19.6679 82.226 20.4816 82.7798 21.4575C83.3333 22.4333 83.6243 23.5377 83.6243 24.6615C83.6245 25.7853 83.3333 26.8898 82.7798 27.8655Z" fill="#6A65FF"/>
<path fill-rule="evenodd" clip-rule="evenodd" d="M9.56358 33.3166L40.933 51.5561C41.9027 52.1229 42.708 52.9359 43.2682 53.9139C43.8287 54.8919 44.1247 56.0006 44.1267 57.1296V93.6082C44.1137 94.7317 43.8102 95.8324 43.246 96.8019C42.682 97.7714 41.8767 98.5762 40.9095 99.1369C39.9425 99.6977 38.847 99.9949 37.7313 99.9999C36.6153 100.005 35.5173 99.7167 34.5456 99.1642L3.17606 80.9249C2.21173 80.3576 1.41134 79.5466 0.854252 78.5721C0.297166 77.5976 0.00273092 76.4934 0.000136344 75.3691V38.8901C-0.00721529 37.7613 0.282854 36.6508 0.840775 35.6716C1.3987 34.6926 2.20451 33.8798 3.17606 33.3166C4.148 32.7548 5.24914 32.4591 6.36982 32.4591C7.49053 32.4591 8.59167 32.7548 9.56358 33.3166Z" fill="#484848"/>
<path d="M91.8025 38.8904V75.3692C91.7997 76.4937 91.5055 77.5979 90.9483 78.5724C90.3913 79.5469 89.5908 80.3579 88.6265 80.9249L57.2572 99.1642C56.2854 99.7167 55.1874 100.005 54.0715 100C52.9555 99.9952 51.8602 99.6977 50.8932 99.137C49.926 98.5762 49.1208 97.7714 48.5568 96.8022C47.9925 95.8327 47.689 94.7322 47.6758 93.6087V57.1299C47.6778 56.0009 47.9738 54.8921 48.5343 53.9141C49.0945 52.9361 49.8998 52.1231 50.8695 51.5561L82.2389 33.3166C83.2108 32.7549 84.3121 32.4591 85.4328 32.4591C86.5533 32.4591 87.6545 32.7549 88.6265 33.3166C89.598 33.8801 90.4038 34.6929 90.9618 35.6719C91.5197 36.6511 91.8097 37.7616 91.8025 38.8904Z" fill="#E9996B"/>
</svg>
