<svg width="1171" height="256" viewBox="0 0 1171 256" fill="none" xmlns="http://www.w3.org/2000/svg">
<rect width="256" height="256" rx="50" fill="#F69A66"/>
<path d="M99.5385 65.2983C88.9543 65.2983 77.7921 69.0545 68.9423 77.3962C60.0926 85.7378 54 98.9576 54 115.251C54 136.422 63.9393 153.544 77.3029 165.008C75.0349 167.008 68.7644 173.398 68.7644 173.398C66.0294 175.276 64.4952 178.715 64.8065 182.252C65.1178 185.789 67.2302 188.813 70.2542 190.082C73.2782 191.35 76.7025 190.643 79.0817 188.228C79.0817 188.228 88.1094 179.35 93.3125 174.569C104.275 180.081 115.837 183.789 127.288 183.935C127.355 183.935 127.4 183.935 127.466 183.935C127.644 183.935 127.822 183.935 128 183.935C128.289 183.935 128.6 183.935 128.889 183.935C128.956 183.935 129.001 183.935 129.067 183.935C140.385 183.716 151.837 180.008 162.687 174.569C167.891 179.35 176.918 188.228 176.918 188.228C179.297 190.643 182.722 191.35 185.746 190.082C188.77 188.813 190.882 185.789 191.194 182.252C191.505 178.715 189.971 175.276 187.236 173.398C187.236 173.398 180.965 167.008 178.697 165.008C192.061 153.544 202 136.422 202 115.251C202 98.9576 195.907 85.7378 187.058 77.3962C178.208 69.0545 167.046 65.2983 156.462 65.2983C146.834 65.2983 137.25 68.0789 129.601 74.2741C129.023 74.7376 128.556 75.323 128 75.8352C127.444 75.323 126.977 74.7376 126.399 74.2741C118.75 68.0789 109.166 65.2983 99.5385 65.2983ZM99.5385 84.0305C106.098 84.0305 112.302 86.0793 116.26 89.2989C117.038 89.933 117.772 90.5672 118.394 91.2501C117.282 94.8356 116.615 98.6649 116.615 102.763C116.615 107.104 117.327 111.373 118.572 115.446C117.505 117.763 116.349 120.178 114.837 122.665C109.989 130.641 103.207 139.08 96.3365 146.666C93.4682 149.837 93.4014 149.544 90.6442 152.325C90.2218 152.008 89.6436 151.886 89.2212 151.544C78.2368 142.763 71.0769 130.934 71.0769 115.251C71.0769 103.811 74.8347 96.6649 80.149 91.6404C85.4633 86.6159 92.8011 84.0305 99.5385 84.0305ZM156.462 84.0305C163.199 84.0305 170.537 86.6159 175.851 91.6404C181.165 96.6649 184.923 103.811 184.923 115.251C184.923 130.934 177.763 142.763 166.779 151.544C166.356 151.886 165.778 152.008 165.356 152.325C162.599 149.544 162.532 149.837 159.663 146.666C152.793 139.08 146.011 130.641 141.163 122.665C139.651 120.178 138.495 117.763 137.428 115.446C138.673 111.373 139.385 107.104 139.385 102.763C139.385 98.6649 138.718 94.8356 137.606 91.2501C138.228 90.5672 138.962 89.933 139.74 89.2989C143.698 86.0793 149.902 84.0305 156.462 84.0305ZM128 134.568C133.648 143.544 140.63 152.276 147.567 159.935C148.279 160.715 148.279 160.544 148.99 161.3C142.164 163.764 135.138 165.13 128.534 165.203C128.356 165.203 128.178 165.203 128 165.203C127.711 165.203 127.4 165.203 127.111 165.203C120.596 165.081 113.703 163.715 107.01 161.3C107.721 160.544 107.721 160.715 108.433 159.935C115.37 152.276 122.352 143.544 128 134.568Z" fill="white"/>
<path d="M473.701 171.418C473.701 179.32 471.958 185.789 468.472 190.825C464.985 195.861 460.376 199.773 454.643 202.562C448.987 205.352 442.828 207.288 436.165 208.373C429.502 209.458 422.956 210 416.525 210H325.416C321.232 210 317.862 208.993 315.306 206.979C312.826 204.964 311.587 201.749 311.587 197.333C311.587 193.459 312.362 190.554 313.911 188.617C315.538 186.603 317.397 184.976 319.489 183.736C321.581 182.497 323.402 181.063 324.951 179.437C326.578 177.732 327.392 175.253 327.392 171.999V87.165C327.392 83.7562 326.578 81.2383 324.951 79.6113C323.402 77.9844 321.581 76.5898 319.489 75.4277C317.397 74.1882 315.538 72.5999 313.911 70.6631C312.362 68.7262 311.587 65.7822 311.587 61.8311C311.587 57.415 312.826 54.1999 315.306 52.1855C317.862 50.1712 321.232 49.1641 325.416 49.1641H396.421C404.013 49.1641 411.799 49.9775 419.779 51.6045C427.837 53.2314 435.274 55.9043 442.092 59.623C448.91 63.3418 454.41 68.3001 458.594 74.498C462.855 80.696 464.985 88.3659 464.985 97.5078C464.985 107.502 461.925 115.366 455.805 121.099C449.762 126.754 442.557 130.822 434.189 133.301C440.93 134.773 447.283 137.097 453.248 140.273C459.291 143.372 464.211 147.479 468.007 152.592C471.803 157.705 473.701 163.98 473.701 171.418ZM385.265 72.5225H384.567V127.955H388.751C397.506 127.955 403.51 125.437 406.764 120.401C410.095 115.366 411.761 108.858 411.761 100.878C411.761 92.2008 409.591 85.3057 405.253 80.1924C400.914 75.0791 394.252 72.5225 385.265 72.5225ZM417.688 168.978C417.688 162.78 415.867 157.666 412.226 153.638C408.662 149.532 403.665 147.479 397.234 147.479H384.567V167.351C384.567 173.239 386.001 177.965 388.867 181.528C391.734 185.015 396.227 186.758 402.348 186.758C408.003 186.758 411.954 185.092 414.201 181.761C416.525 178.429 417.688 174.168 417.688 168.978ZM544.241 141.087V175.021C544.241 179.514 544.745 182.535 545.752 184.085C546.837 185.634 549.626 186.874 554.119 187.804C558.07 188.578 561.208 189.508 563.532 190.593C565.934 191.6 567.135 194.544 567.135 199.425C567.135 202.911 566.089 205.545 563.997 207.327C561.905 209.109 559.155 210 555.746 210H494.387C491.055 210 488.305 209.109 486.136 207.327C483.966 205.545 482.882 202.911 482.882 199.425C482.882 196.636 483.385 194.544 484.393 193.149C485.477 191.755 486.678 190.515 487.995 189.431C489.39 188.269 490.59 186.797 491.598 185.015C492.682 183.155 493.225 180.366 493.225 176.647V134.463C493.225 130.977 492.605 128.381 491.365 126.677C490.203 124.895 488.847 123.5 487.298 122.493C485.826 121.486 484.47 120.363 483.23 119.123C482.068 117.806 481.487 115.869 481.487 113.312C481.487 110.291 482.456 107.928 484.393 106.224C486.407 104.442 488.692 103.047 491.249 102.04L520.302 90.5352C522.161 89.7604 524.059 89.0244 525.996 88.3271C527.933 87.6299 529.947 87.2812 532.039 87.2812C534.751 87.2812 536.765 88.3271 538.082 90.4189C539.399 92.4333 540.29 94.7962 540.755 97.5078C541.297 100.142 541.685 102.466 541.917 104.48C542.149 105.875 542.382 107.27 542.614 108.664C542.847 110.059 543.04 111.453 543.195 112.848C545.597 105.72 549.277 99.6771 554.235 94.7188C559.271 89.7604 566.205 87.2812 575.037 87.2812C581.312 87.2812 586.232 88.8307 589.796 91.9297C593.437 95.0286 596.033 99.0186 597.582 103.899C599.132 108.703 599.906 113.816 599.906 119.239C599.906 124.275 599.248 129.156 597.931 133.882C596.614 138.53 594.289 142.365 590.958 145.387C587.704 148.408 583.094 149.919 577.129 149.919C570.621 149.919 565.856 148.912 562.835 146.897C559.891 144.883 557.993 142.404 557.141 139.46C556.288 136.516 555.824 133.572 555.746 130.628C555.746 127.684 555.514 125.205 555.049 123.19C554.584 121.176 553.189 120.169 550.865 120.169C548.773 120.169 547.263 121.641 546.333 124.585C545.403 127.451 544.822 130.55 544.59 133.882C544.357 137.213 544.241 139.615 544.241 141.087ZM721.812 133.185C721.812 140.08 719.758 145.309 715.652 148.873C711.624 152.437 706.278 154.219 699.615 154.219H652.782C654.564 160.882 657.741 166.498 662.312 171.069C666.882 175.563 673.468 177.81 682.067 177.81C685.476 177.81 688.846 177.112 692.178 175.718C695.587 174.246 698.763 172.541 701.707 170.604C704.729 168.668 707.363 167.002 709.609 165.607C711.856 164.135 713.561 163.399 714.723 163.399C716.969 163.399 718.596 164.213 719.604 165.84C720.611 167.389 721.114 169.171 721.114 171.186C721.114 178.236 719.449 184.434 716.117 189.779C712.863 195.048 708.525 199.425 703.102 202.911C697.756 206.397 691.868 208.993 685.438 210.697C679.085 212.479 672.809 213.37 666.611 213.37C654.448 213.37 643.718 210.852 634.421 205.816C625.124 200.781 617.841 193.73 612.573 184.666C607.382 175.524 604.787 164.794 604.787 152.476C604.787 139.305 607.305 127.839 612.341 118.077C617.454 108.315 624.775 100.762 634.305 95.416C643.834 89.9928 655.261 87.2812 668.587 87.2812C677.806 87.2812 686.445 89.0244 694.502 92.5107C702.637 95.9971 709.222 101.149 714.258 107.967C719.294 114.785 721.812 123.19 721.812 133.185ZM650.69 136.322C650.69 137.174 650.69 138.027 650.69 138.879H662.776C665.72 138.879 667.735 138.22 668.819 136.903C669.904 135.509 670.446 133.417 670.446 130.628C670.446 128.769 670.214 126.328 669.749 123.307C669.284 120.285 668.354 117.574 666.96 115.172C665.643 112.77 663.706 111.569 661.149 111.569C658.825 111.569 656.966 112.538 655.571 114.475C654.177 116.334 653.131 118.697 652.434 121.563C651.736 124.353 651.271 127.103 651.039 129.814C650.807 132.526 650.69 134.695 650.69 136.322ZM784.217 213.37C770.969 213.37 760.51 210.31 752.84 204.189C745.247 197.992 741.451 187.92 741.451 173.975V123.423C741.451 120.091 740.715 117.612 739.243 115.985C737.771 114.358 736.067 113.041 734.13 112.034C732.193 110.95 730.489 109.671 729.017 108.199C727.545 106.65 726.809 104.326 726.809 101.227C726.809 98.0501 727.932 95.571 730.179 93.7891C732.425 91.9297 735.06 91 738.081 91H743.311C745.557 91 747.765 89.8766 749.935 87.6299C752.181 85.3057 754.428 82.4391 756.675 79.0303C758.999 75.6214 761.401 72.2513 763.88 68.9199C766.437 65.5111 769.148 62.6833 772.015 60.4365C774.881 58.1123 778.019 56.9502 781.428 56.9502C785.301 56.9502 788.323 58.0348 790.492 60.2041C792.661 62.3734 793.746 65.3949 793.746 69.2686V91H820.126C823.07 91 825.588 91.6973 827.68 93.0918C829.771 94.4863 830.817 96.8105 830.817 100.064C830.817 104.403 829.423 107.696 826.634 109.942C823.922 112.189 820.63 113.7 816.756 114.475C812.882 115.172 809.241 115.521 805.832 115.521H793.746V161.54C793.746 165.336 794.482 168.939 795.954 172.348C797.426 175.679 800.448 177.345 805.019 177.345C808.04 177.345 810.597 176.493 812.688 174.788C814.858 173.006 816.872 171.263 818.731 169.559C820.668 167.854 822.721 167.002 824.891 167.002C826.905 167.002 828.299 167.97 829.074 169.907C829.926 171.844 830.353 173.587 830.353 175.137C830.353 182.962 827.99 189.741 823.264 195.474C818.538 201.207 812.611 205.623 805.483 208.722C798.433 211.821 791.344 213.37 784.217 213.37ZM954.233 103.202C954.233 106.456 953.42 109.516 951.793 112.383C950.166 115.249 948.462 117.961 946.68 120.518L898.452 189.547C903.565 189.237 908.02 188.462 911.816 187.223C915.69 185.983 919.293 183.814 922.624 180.715C926.033 177.538 929.558 172.967 933.199 167.002C934.749 164.368 936.259 162.082 937.731 160.146C939.281 158.209 941.799 157.24 945.285 157.24C947.764 157.24 950.205 158.17 952.606 160.029C955.008 161.889 956.209 164.174 956.209 166.886C956.209 167.428 956.17 167.854 956.093 168.164L949.236 204.422C948.074 210.542 944.549 213.603 938.661 213.603C935.33 213.603 932.076 212.983 928.899 211.743C925.723 210.581 922.43 210 919.021 210H858.708C855.687 210 852.626 209.613 849.527 208.838C846.506 208.063 843.949 206.707 841.857 204.771C839.843 202.756 838.836 199.89 838.836 196.171C838.836 193.382 839.301 190.632 840.23 187.92C841.238 185.208 842.516 182.729 844.065 180.482L893.106 110.988C886.909 111.143 881.447 112.383 876.721 114.707C872.072 117.031 867.385 121.912 862.659 129.35C861.032 131.906 859.367 134.192 857.662 136.206C856.035 138.22 853.517 139.228 850.108 139.228C847.552 139.228 845.073 138.298 842.671 136.438C840.347 134.502 839.185 132.177 839.185 129.466C839.185 128.846 839.223 128.381 839.301 128.071L845.692 96.4619C846.932 90.3415 850.457 87.2812 856.268 87.2812C859.676 87.2812 862.969 87.901 866.146 89.1406C869.322 90.3802 872.576 91 875.907 91H937.499C941.605 91 945.401 91.8135 948.888 93.4404C952.451 94.9899 954.233 98.2438 954.233 103.202ZM1079.04 133.185C1079.04 140.08 1076.99 145.309 1072.88 148.873C1068.86 152.437 1063.51 154.219 1056.85 154.219H1010.01C1011.8 160.882 1014.97 166.498 1019.54 171.069C1024.11 175.563 1030.7 177.81 1039.3 177.81C1042.71 177.81 1046.08 177.112 1049.41 175.718C1052.82 174.246 1056 172.541 1058.94 170.604C1061.96 168.668 1064.6 167.002 1066.84 165.607C1069.09 164.135 1070.79 163.399 1071.96 163.399C1074.2 163.399 1075.83 164.213 1076.84 165.84C1077.84 167.389 1078.35 169.171 1078.35 171.186C1078.35 178.236 1076.68 184.434 1073.35 189.779C1070.1 195.048 1065.76 199.425 1060.33 202.911C1054.99 206.397 1049.1 208.993 1042.67 210.697C1036.32 212.479 1030.04 213.37 1023.84 213.37C1011.68 213.37 1000.95 210.852 991.653 205.816C982.356 200.781 975.074 193.73 969.806 184.666C964.615 175.524 962.02 164.794 962.02 152.476C962.02 139.305 964.537 127.839 969.573 118.077C974.687 108.315 982.008 100.762 991.537 95.416C1001.07 89.9928 1012.49 87.2812 1025.82 87.2812C1035.04 87.2812 1043.68 89.0244 1051.73 92.5107C1059.87 95.9971 1066.45 101.149 1071.49 107.967C1076.53 114.785 1079.04 123.19 1079.04 133.185ZM1007.92 136.322C1007.92 137.174 1007.92 138.027 1007.92 138.879H1020.01C1022.95 138.879 1024.97 138.22 1026.05 136.903C1027.14 135.509 1027.68 133.417 1027.68 130.628C1027.68 128.769 1027.45 126.328 1026.98 123.307C1026.52 120.285 1025.59 117.574 1024.19 115.172C1022.88 112.77 1020.94 111.569 1018.38 111.569C1016.06 111.569 1014.2 112.538 1012.8 114.475C1011.41 116.334 1010.36 118.697 1009.67 121.563C1008.97 124.353 1008.5 127.103 1008.27 129.814C1008.04 132.526 1007.92 134.695 1007.92 136.322ZM1144.47 35.2188C1147.65 35.2188 1150.09 36.3034 1151.79 38.4727C1153.57 40.6419 1154.46 43.2373 1154.46 46.2588V175.021C1154.46 177.267 1154.58 179.475 1154.81 181.645C1155.05 183.736 1156.01 185.634 1157.72 187.339C1159.81 189.431 1161.59 191.135 1163.06 192.452C1164.61 193.692 1165.39 196.016 1165.39 199.425C1165.39 202.911 1164.3 205.545 1162.13 207.327C1159.97 209.109 1157.22 210 1153.88 210H1102.75C1099.42 210 1096.67 209.109 1094.5 207.327C1092.33 205.545 1091.25 202.911 1091.25 199.425C1091.25 196.481 1091.79 194.35 1092.87 193.033C1093.96 191.639 1095.24 190.438 1096.71 189.431C1098.18 188.424 1099.46 187.029 1100.54 185.247C1101.63 183.388 1102.17 180.482 1102.17 176.531V82.2842C1102.17 78.5654 1101.55 75.8538 1100.31 74.1494C1099.07 72.445 1097.6 71.1667 1095.89 70.3145C1094.27 69.3848 1092.83 68.3389 1091.59 67.1768C1090.36 65.9372 1089.74 63.9616 1089.74 61.25C1089.74 58.151 1090.74 55.7493 1092.76 54.0449C1094.77 52.3405 1097.06 50.9847 1099.61 49.9775L1125.53 39.8672C1128.63 38.6276 1131.73 37.543 1134.83 36.6133C1137.92 35.6836 1141.14 35.2188 1144.47 35.2188Z" fill="black"/>
</svg>
