<svg width="35" height="30" viewBox="0 0 35 30" fill="none" xmlns="http://www.w3.org/2000/svg">
<path d="M19.3301 8.3827C19.3301 5.70252 21.5028 3.52979 24.183 3.52979C26.8632 3.52979 29.0359 5.70252 29.0359 8.3827C29.0359 11.0629 26.8632 13.2356 24.183 13.2356C21.5028 13.2356 19.3301 11.0629 19.3301 8.3827Z" fill="#1D1F17" fill-opacity="0.2"/>
<path d="M34.3204 22.446C34.0904 21.3589 33.9755 20.8152 33.8144 20.3488C32.826 17.4868 30.2961 15.4361 27.2917 15.0611C26.8019 15 26.2463 15 25.1351 15H23.0988C21.9514 15 21.3777 15 20.8617 15.0679C18.2069 15.4174 15.907 17.0813 14.7444 19.4934C14.5185 19.9623 14.339 20.5071 13.9801 21.597C13.5517 22.8972 13.3376 23.5473 13.2744 24.0677C12.9409 26.8143 14.7786 29.3546 17.4917 29.897C18.0057 29.9999 18.6903 29.9999 20.0591 29.9999H28.1969C29.277 29.9999 29.8172 29.9999 30.2416 29.9306C32.8934 29.4968 34.7998 27.1452 34.6754 24.4611C34.6557 24.0314 34.5438 23.5028 34.3204 22.446Z" fill="#1D1F17" fill-opacity="0.2"/>
<path d="M6.09473 4.85292C6.09473 2.17273 8.26746 0 10.9476 0C13.6278 0 15.8006 2.17273 15.8006 4.85292C15.8006 7.53311 13.6278 9.70584 10.9476 9.70584C8.26746 9.70584 6.09473 7.53311 6.09473 4.85292Z" fill="#1D1F17"/>
<path d="M21.085 18.9167C20.8551 17.8296 20.7402 17.2859 20.5791 16.8195C19.5907 13.9575 17.0608 11.9068 14.0564 11.5318C13.5665 11.4707 13.0109 11.4707 11.8997 11.4707H9.86342C8.71605 11.4707 8.14236 11.4707 7.62638 11.5386C4.97157 11.8881 2.67166 13.552 1.50911 15.9642C1.28318 16.433 1.10367 16.9778 0.744697 18.0677C0.316369 19.3679 0.102206 20.018 0.0390297 20.5384C-0.294481 23.285 1.54324 25.8253 4.2563 26.3678C4.77033 26.4706 5.45482 26.4706 6.82383 26.4706H14.9615C16.0417 26.4706 16.5819 26.4706 17.0063 26.4013C19.6581 25.9675 21.5645 23.6159 21.4401 20.9318C21.4203 20.5021 21.3084 19.9735 21.085 18.9167Z" fill="#1D1F17"/>
</svg>
