<svg width="35" height="35" viewBox="0 0 35 35" fill="none" xmlns="http://www.w3.org/2000/svg">
<path d="M14.583 11.127C15.1871 11.127 15.6768 10.6373 15.6768 10.0332C15.6768 9.42914 15.1871 8.93945 14.583 8.93945V11.127ZM6.78322 22.7796C6.95664 23.3583 7.5663 23.6867 8.14493 23.5133C8.72356 23.3399 9.05205 22.7302 8.87863 22.1516L6.78322 22.7796ZM27.2705 11.1271C27.8746 11.1271 28.3643 10.6374 28.3643 10.0334C28.3643 9.42931 27.8746 8.93962 27.2705 8.93962V11.1271ZM19.4707 22.7798C19.6441 23.3584 20.2538 23.6869 20.8324 23.5135C21.4111 23.3401 21.7396 22.7304 21.5661 22.1518L19.4707 22.7798ZM6.56217 21.3615C6.56217 23.9749 8.70894 26.0749 11.3018 26.0749V23.8874C9.89647 23.8874 8.74967 22.7463 8.74967 21.3615H6.56217ZM13.8538 21.3615C13.8538 22.7463 12.707 23.8874 11.3018 23.8874V26.0749C13.8946 26.0749 16.0413 23.9749 16.0413 21.3615H13.8538ZM11.3018 18.8356C12.707 18.8356 13.8538 19.9768 13.8538 21.3615H16.0413C16.0413 18.7481 13.8946 16.6481 11.3018 16.6481V18.8356ZM11.3018 16.6481C8.70894 16.6481 6.56217 18.7481 6.56217 21.3615H8.74967C8.74967 19.9768 9.89647 18.8356 11.3018 18.8356V16.6481ZM14.583 8.93945C12.1702 8.93945 10.0677 10.2231 8.60384 12.1474C7.14108 14.0703 6.27051 16.678 6.27051 19.5124H8.45801C8.45801 17.1116 9.19775 14.9797 10.3448 13.4718C11.4909 11.9653 12.9977 11.127 14.583 11.127V8.93945ZM6.27051 19.5124C6.27051 20.6759 6.48262 21.7767 6.78322 22.7796L8.87863 22.1516C8.62213 21.2958 8.45801 20.4112 8.45801 19.5124H6.27051ZM19.2497 21.3617C19.2497 23.975 21.3964 26.075 23.9893 26.075V23.8875C22.584 23.8875 21.4372 22.7464 21.4372 21.3617H19.2497ZM26.5413 21.3617C26.5413 22.7464 25.3945 23.8875 23.9893 23.8875V26.075C26.5821 26.075 28.7288 23.975 28.7288 21.3617H26.5413ZM23.9893 18.8358C25.3945 18.8358 26.5413 19.9769 26.5413 21.3617H28.7288C28.7288 18.7483 26.5821 16.6483 23.9893 16.6483V18.8358ZM23.9893 16.6483C21.3964 16.6483 19.2497 18.7483 19.2497 21.3617H21.4372C21.4372 19.9769 22.584 18.8358 23.9893 18.8358V16.6483ZM27.2705 8.93962C24.8577 8.93962 22.7552 10.2233 21.2913 12.1476C19.8286 14.0704 18.958 16.6781 18.958 19.5125H21.1455C21.1455 17.1117 21.8853 14.9799 23.0323 13.472C24.1784 11.9655 25.6852 11.1271 27.2705 11.1271V8.93962ZM18.958 19.5125C18.958 20.676 19.1701 21.7768 19.4707 22.7798L21.5661 22.1518C21.3096 21.296 21.1455 20.4114 21.1455 19.5125H18.958Z" fill="white"/>
</svg>
