<svg width="45" height="45" viewBox="0 0 45 45" fill="none" xmlns="http://www.w3.org/2000/svg">
<path d="M9.4493 28.3254C9.14795 28.5385 8.88054 28.7545 8.66982 28.9652C6.96823 30.6668 6.37936 32.8974 6.18467 34.5648C6.08547 35.4144 6.08297 36.164 6.10505 36.7031C6.11614 36.9737 6.31392 38.5087 6.32915 38.6657C6.48621 38.681 8.02117 38.8787 8.29179 38.8898C8.83084 38.9119 9.5805 38.9094 10.4301 38.8102C12.0975 38.6155 14.3281 38.0267 16.0297 36.3251C16.2404 36.1143 16.4564 35.8469 16.6695 35.5456C16.8098 35.3472 16.8799 35.2479 17.0822 34.7541C17.5393 33.6382 17.3585 31.5151 16.7194 30.4927C16.4365 30.0401 16.1895 29.7932 15.6956 29.2993C15.2017 28.8054 14.9548 28.5584 14.5022 28.2755C13.4797 27.6364 11.3566 27.4556 10.2408 27.9127C9.74694 28.115 9.64773 28.1851 9.4493 28.3254Z" fill="#1D1F17"/>
<path d="M35.8236 6.10314C34.7637 6.13861 33.2849 6.25173 31.5934 6.56259C28.3524 7.15823 24.2259 8.49946 20.7999 11.5151L13.2077 11.9103C9.84215 12.0855 7.20312 14.8654 7.20312 18.2355C7.20312 21.6285 9.8769 24.4189 13.2668 24.5636L15.0155 24.6382L20.3562 29.9789L20.4309 31.7276C20.5755 35.1175 23.3659 37.7913 26.7589 37.7913C30.129 37.7913 32.909 35.1523 33.0841 31.7867L33.4793 24.1945C36.495 20.7685 37.8362 16.642 38.4318 13.401C38.7427 11.7095 38.8558 10.2307 38.8913 9.1708C38.9146 8.47377 38.9263 8.12525 38.8204 7.76392C38.6179 7.07335 37.9211 6.37649 37.2305 6.17407C36.8692 6.06815 36.5206 6.07981 35.8236 6.10314Z" fill="#1D1F17" fill-opacity="0.2"/>
<path d="M24.375 24.375C26.4461 24.375 28.125 22.6961 28.125 20.625C28.125 18.5539 26.4461 16.875 24.375 16.875C22.3039 16.875 20.625 18.5539 20.625 20.625C20.625 22.6961 22.3039 24.375 24.375 24.375Z" fill="#1D1F17"/>
</svg>
