<svg width="50" height="50" viewBox="0 0 50 50" fill="none" xmlns="http://www.w3.org/2000/svg">
<path d="M10.4999 31.4727C10.165 31.7095 9.86792 31.9494 9.63378 32.1836C7.74313 34.0742 7.08883 36.5527 6.87251 38.4053C6.76229 39.3493 6.7595 40.1823 6.78404 40.7812C6.79636 41.0819 7.01612 42.7874 7.03304 42.9619C7.20755 42.9789 8.91306 43.1986 9.21376 43.2109C9.81269 43.2355 10.6457 43.2327 11.5896 43.1225C13.4423 42.9061 15.9207 42.2518 17.8114 40.3612C18.0455 40.1271 18.2855 39.8299 18.5223 39.4951C18.9191 38.9339 19.1176 38.6532 19.3374 37.9049C19.6021 37.0039 19.4625 35.3642 19.0493 34.521C18.7061 33.8206 18.2841 33.3986 17.4402 32.5547C16.5963 31.7109 16.1744 31.2889 15.474 30.9457C14.6307 30.5325 12.9911 30.3928 12.0901 30.6576C11.3417 30.8774 11.0611 31.0758 10.4999 31.4727Z" fill="#E9996B"/>
<path d="M39.8064 6.78135C38.6288 6.82076 36.9856 6.94645 35.1062 7.29185C31.5051 7.95367 26.92 9.44393 23.1134 12.7947L14.6776 13.2337L14.6669 13.2343C10.9345 13.4311 8.0084 16.5135 8.00586 20.251V20.2618V20.2726C8.00844 24.0355 10.9731 27.1294 14.7325 27.2925L14.7433 27.2929L16.6863 27.3759L22.6204 33.31L22.7033 35.2529L22.7038 35.2638C22.8668 39.0232 25.9607 41.9878 29.7236 41.9904L29.7345 41.9904L29.7453 41.9904C33.4828 41.9879 36.5652 39.0617 36.762 35.3294L36.7625 35.3186L37.2016 26.8828C40.5524 23.0762 42.0426 18.4912 42.7044 14.8901C43.0498 13.0106 43.1755 11.3675 43.2149 10.1899C43.2495 9.15532 43.2668 8.63805 43.0548 8.15209C42.8413 7.66294 42.3333 7.15499 41.8442 6.94151C41.3582 6.72942 40.8409 6.74673 39.8064 6.78135Z" fill="#E9996B" fill-opacity="0.2"/>
<path d="M27.0846 27.0833C29.3858 27.0833 31.2513 25.2179 31.2513 22.9167V22.9167C31.2513 20.6155 29.3858 18.75 27.0846 18.75V18.75C24.7834 18.75 22.918 20.6155 22.918 22.9167V22.9167C22.918 25.2179 24.7834 27.0833 27.0846 27.0833V27.0833Z" fill="#E9996B"/>
</svg>
