<svg width="50" height="50" viewBox="0 0 50 50" fill="none" xmlns="http://www.w3.org/2000/svg">
<path d="M5.27488 33.1835C7.71896 27.284 13.476 23.4375 19.8617 23.4375H25.9508C32.3365 23.4375 38.0935 27.284 40.5376 33.1835V33.1835C42.9304 38.9591 38.6855 45.3125 32.4338 45.3125H13.3787C7.12701 45.3125 2.88211 38.9591 5.27488 33.1835V33.1835Z" fill="#1D1F17" fill-opacity="0.18"/>
<path d="M15.104 12.5C15.104 8.18528 18.6018 4.6875 22.9165 4.6875C27.2312 4.6875 30.729 8.18528 30.729 12.5C30.729 16.8147 27.2312 20.3125 22.9165 20.3125C18.6018 20.3125 15.104 16.8147 15.104 12.5Z" fill="#1D1F17"/>
<path d="M35.4165 9.38234C36.3967 10.2493 36.9791 11.3323 36.9793 12.507C36.9795 13.6818 36.3976 14.7646 35.4177 15.6311M41.0593 6.25C42.4474 8.13304 43.229 10.2589 43.2294 12.5088C43.2298 14.752 42.4538 16.8716 41.0741 18.75" stroke="#1D1F17" stroke-width="3.125" stroke-linecap="round" stroke-linejoin="round"/>
</svg>
