<svg width="50" height="50" viewBox="0 0 50 50" fill="none" xmlns="http://www.w3.org/2000/svg">
<path d="M25 46.3574C35.0806 46.3574 41.7035 35.7072 44.2271 23.7132C44.8608 20.7014 45.1777 19.1954 44.6067 17.2903C44.4439 16.747 44.1139 15.9997 43.8221 15.5134C42.7988 13.808 41.1933 12.8634 37.9824 10.9744L32.1307 7.53175C29.0484 5.71833 27.5072 4.81163 25.8293 4.6325C25.278 4.57364 24.722 4.57364 24.1706 4.6325C22.4928 4.81163 20.9516 5.71834 17.8693 7.53175L12.0176 10.9744C8.80668 12.8634 7.20122 13.808 6.17791 15.5134C5.8861 15.9997 5.5561 16.747 5.39328 17.2903C4.82233 19.1954 5.13918 20.7014 5.77289 23.7132C8.29647 35.7073 14.9194 46.3574 25 46.3574Z" fill="#1D1F17" fill-opacity="0.18"/>
<path d="M19.7915 26.0417L21.5286 28.3578C22.0947 29.1126 22.3778 29.49 22.756 29.5728C22.877 29.5993 23.0018 29.604 23.1244 29.5867C23.5078 29.5326 23.8184 29.1776 24.4397 28.4675L30.2082 21.875" stroke="#1D1F17" stroke-width="3.125" stroke-linecap="round" stroke-linejoin="round"/>
</svg>
