<svg width="50" height="50" viewBox="0 0 50 50" fill="none" xmlns="http://www.w3.org/2000/svg">
<path d="M25.5207 4.6875V6.25C25.5207 12.109 25.5207 15.0384 27.0127 17.0921C27.4946 17.7553 28.0779 18.3386 28.7411 18.8204C30.7947 20.3125 33.7242 20.3125 39.5832 20.3125L41.1457 20.3125V31.25C41.1457 37.109 41.1457 40.0384 39.6536 42.0921C39.1717 42.7553 38.5885 43.3386 37.9252 43.8204C35.8716 45.3125 32.9421 45.3125 27.0832 45.3125H22.9165C17.0575 45.3125 14.1281 45.3125 12.0744 43.8204C11.4112 43.3386 10.8279 42.7553 10.3461 42.0921C8.854 40.0384 8.854 37.109 8.854 31.25V18.75C8.854 12.891 8.854 9.96156 10.3461 7.90793C10.8279 7.24469 11.4112 6.66143 12.0744 6.17955C14.1281 4.6875 17.0575 4.6875 22.9165 4.6875H25.5207Z" fill="#1D1F17" fill-opacity="0.18"/>
<path d="M28.646 4.6875V8.75C28.646 12.2654 28.646 14.0231 29.5412 15.2552C29.8304 15.6532 30.1803 16.0031 30.5783 16.2923C31.8104 17.1875 33.5681 17.1875 37.0835 17.1875L41.146 17.1875L28.646 4.6875Z" fill="#1D1F17"/>
<path d="M27.0832 26.0417H16.6665M33.3332 32.2917H16.6665" stroke="#1D1F17" stroke-width="3.125" stroke-linecap="round" stroke-linejoin="round"/>
</svg>
