<svg width="50" height="50" viewBox="0 0 50 50" fill="none" xmlns="http://www.w3.org/2000/svg">
<path d="M4.6875 19.5312C4.6875 14.9099 4.6875 12.5992 5.63424 10.8555C6.35491 9.52819 7.44488 8.43823 8.7722 7.71755C10.5159 6.77081 12.8266 6.77081 17.4479 6.77081H32.5521C37.1734 6.77081 39.4841 6.77081 41.2278 7.71755C42.5551 8.43823 43.6451 9.52819 44.3658 10.8555C45.3125 12.5992 45.3125 14.9099 45.3125 19.5312V19.5312C45.3125 24.1526 45.3125 26.4633 44.3658 28.2069C43.6451 29.5343 42.5551 30.6242 41.2278 31.3449C39.4841 32.2916 37.1734 32.2916 32.5521 32.2916H17.4479C12.8266 32.2916 10.5159 32.2916 8.7722 31.3449C7.44488 30.6242 6.35491 29.5343 5.63424 28.2069C4.6875 26.4633 4.6875 24.1526 4.6875 19.5312V19.5312Z" fill="#1D1F17" fill-opacity="0.18"/>
<path d="M23.5261 35.8029C24.1619 35.4117 24.4798 35.2161 24.8281 35.1775C24.9425 35.1648 25.0579 35.1648 25.1722 35.1775C25.5206 35.2161 25.8384 35.4117 26.4742 35.8029L30.0792 38.0214C33.0922 39.8755 34.5987 40.8026 34.5837 41.6929C34.5792 41.9642 34.504 42.2296 34.3658 42.463C33.9119 43.2291 32.143 43.2291 28.6051 43.2291H21.3952C17.8573 43.2291 16.0884 43.2291 15.6346 42.463C15.4963 42.2296 15.4212 41.9642 15.4166 41.6929C15.4016 40.8026 16.9081 39.8755 19.9212 38.0214L23.5261 35.8029Z" fill="#1D1F17"/>
</svg>
