<svg width="22" height="22" viewBox="0 0 22 22" fill="none" xmlns="http://www.w3.org/2000/svg">
<path d="M19.9375 11C19.9375 15.936 15.936 19.9375 11 19.9375C6.06395 19.9375 2.0625 15.936 2.0625 11C2.0625 6.06395 6.06395 2.0625 11 2.0625C15.936 2.0625 19.9375 6.06395 19.9375 11Z" fill="#1D1F17" fill-opacity="0.2"/>
<path d="M10.083 8.25C10.083 9.00939 9.4674 9.625 8.70801 9.625C7.94862 9.625 7.33301 9.00939 7.33301 8.25C7.33301 7.49061 7.94862 6.875 8.70801 6.875C9.4674 6.875 10.083 7.49061 10.083 8.25Z" fill="#1D1F17"/>
<path d="M14.6663 8.25C14.6663 9.00939 14.0507 9.625 13.2913 9.625C12.5319 9.625 11.9163 9.00939 11.9163 8.25C11.9163 7.49061 12.5319 6.875 13.2913 6.875C14.0507 6.875 14.6663 7.49061 14.6663 8.25Z" fill="#1D1F17"/>
<path d="M6.79785 12.375C7.50511 13.9937 9.12035 15.125 10.9998 15.125C12.8793 15.125 14.4945 13.9937 15.2018 12.375" stroke="#1D1F17" stroke-width="1.375" stroke-linecap="round" stroke-linejoin="round"/>
</svg>
