<svg width="141" height="24" viewBox="0 0 141 24" fill="none" xmlns="http://www.w3.org/2000/svg">
<path d="M9.17302 6.00345C9.6349 4.73955 9.86585 4.1076 10.0672 3.798C11.349 1.82739 14.2343 1.82739 15.516 3.798C15.7174 4.1076 15.9483 4.73955 16.4102 6.00346L16.4574 6.13263C16.4975 6.24218 16.5175 6.29696 16.5384 6.34585C16.8378 7.04718 17.51 7.51721 18.2715 7.55772C18.3246 7.56054 18.3829 7.56054 18.4995 7.56054H18.9976C19.3314 7.56054 19.4983 7.56054 19.5803 7.56469C22.6073 7.71786 23.7955 11.5651 21.382 13.3985C21.3166 13.4482 21.1788 13.5423 20.9031 13.7305C20.8546 13.7637 20.8303 13.7803 20.809 13.7956C20.0988 14.3084 19.805 15.2237 20.0839 16.054C20.0923 16.0789 20.1034 16.1094 20.1257 16.1704C20.3659 16.8276 20.486 17.1562 20.5275 17.3223C21.203 20.023 18.392 22.2676 15.9078 21.011C15.755 20.9338 15.478 20.7548 14.9239 20.3969L14.0808 19.8523C13.8844 19.7254 13.7862 19.662 13.6898 19.6136C13.1247 19.3295 12.4585 19.3295 11.8934 19.6136C11.797 19.662 11.6988 19.7254 11.5025 19.8523L10.6763 20.3859C10.1086 20.7527 9.82471 20.9361 9.66794 21.0148C7.18757 22.2613 4.38711 20.0252 5.05371 17.3305C5.09584 17.1602 5.21849 16.8246 5.46378 16.1533C5.48725 16.0891 5.49899 16.057 5.50788 16.0304C5.78137 15.2115 5.4985 14.3095 4.80633 13.7934C4.78385 13.7767 4.75828 13.7587 4.70712 13.7227C4.41887 13.5202 4.27474 13.4189 4.20553 13.3644C1.85015 11.5105 3.04653 7.72767 6.03957 7.56531C6.12753 7.56054 6.30369 7.56054 6.65602 7.56054H7.08693C7.20049 7.56054 7.25726 7.56054 7.30894 7.55787C8.07253 7.51832 8.74675 7.04688 9.04599 6.34326C9.06624 6.29564 9.08573 6.24231 9.1247 6.13566L9.17302 6.00345Z" fill="#FBD718"/>
<path d="M38.173 6.00345C38.6349 4.73955 38.8658 4.1076 39.0672 3.798C40.349 1.82739 43.2343 1.82739 44.516 3.798C44.7174 4.1076 44.9483 4.73955 45.4102 6.00346L45.4574 6.13263C45.4975 6.24218 45.5175 6.29696 45.5384 6.34585C45.8378 7.04718 46.51 7.51721 47.2715 7.55772C47.3246 7.56054 47.3829 7.56054 47.4995 7.56054H47.9976C48.3314 7.56054 48.4983 7.56054 48.5803 7.56469C51.6073 7.71786 52.7955 11.5651 50.382 13.3985C50.3166 13.4482 50.1788 13.5423 49.9031 13.7305C49.8546 13.7637 49.8303 13.7803 49.809 13.7956C49.0988 14.3084 48.805 15.2237 49.0839 16.054C49.0923 16.0789 49.1034 16.1094 49.1257 16.1704C49.3659 16.8276 49.486 17.1562 49.5275 17.3223C50.203 20.023 47.392 22.2676 44.9078 21.011C44.755 20.9338 44.478 20.7548 43.9239 20.3969L43.0808 19.8523C42.8844 19.7254 42.7862 19.662 42.6898 19.6136C42.1247 19.3295 41.4585 19.3295 40.8934 19.6136C40.797 19.662 40.6988 19.7254 40.5025 19.8523L39.6763 20.3859C39.1086 20.7527 38.8247 20.9361 38.6679 21.0148C36.1876 22.2613 33.3871 20.0252 34.0537 17.3305C34.0958 17.1602 34.2185 16.8246 34.4638 16.1533C34.4873 16.0891 34.499 16.057 34.5079 16.0304C34.7814 15.2115 34.4985 14.3095 33.8063 13.7934C33.7839 13.7767 33.7583 13.7587 33.7071 13.7227C33.4189 13.5202 33.2747 13.4189 33.2055 13.3644C30.8501 11.5105 32.0465 7.72767 35.0396 7.56531C35.1275 7.56054 35.3037 7.56054 35.656 7.56054H36.0869C36.2005 7.56054 36.2573 7.56054 36.3089 7.55787C37.0725 7.51832 37.7467 7.04688 38.046 6.34326C38.0662 6.29564 38.0857 6.24231 38.1247 6.13566L38.173 6.00345Z" fill="#FBD718"/>
<path d="M67.173 6.00345C67.6349 4.73955 67.8658 4.1076 68.0672 3.798C69.349 1.82739 72.2343 1.82739 73.516 3.798C73.7174 4.1076 73.9483 4.73955 74.4102 6.00346L74.4574 6.13263C74.4975 6.24218 74.5175 6.29696 74.5384 6.34585C74.8378 7.04718 75.51 7.51721 76.2715 7.55772C76.3246 7.56054 76.3829 7.56054 76.4995 7.56054H76.9976C77.3314 7.56054 77.4983 7.56054 77.5803 7.56469C80.6073 7.71786 81.7955 11.5651 79.382 13.3985C79.3166 13.4482 79.1788 13.5423 78.9031 13.7305C78.8546 13.7637 78.8303 13.7803 78.809 13.7956C78.0988 14.3084 77.805 15.2237 78.0839 16.054C78.0923 16.0789 78.1034 16.1094 78.1257 16.1704C78.3659 16.8276 78.486 17.1562 78.5275 17.3223C79.203 20.023 76.392 22.2676 73.9078 21.011C73.755 20.9338 73.478 20.7548 72.9239 20.3969L72.0808 19.8523C71.8844 19.7254 71.7862 19.662 71.6898 19.6136C71.1247 19.3295 70.4585 19.3295 69.8934 19.6136C69.797 19.662 69.6988 19.7254 69.5025 19.8523L68.6763 20.3859C68.1086 20.7527 67.8247 20.9361 67.6679 21.0148C65.1876 22.2613 62.3871 20.0252 63.0537 17.3305C63.0958 17.1602 63.2185 16.8246 63.4638 16.1533C63.4873 16.0891 63.499 16.057 63.5079 16.0304C63.7814 15.2115 63.4985 14.3095 62.8063 13.7934C62.7839 13.7767 62.7583 13.7587 62.7071 13.7227C62.4189 13.5202 62.2747 13.4189 62.2055 13.3644C59.8501 11.5105 61.0465 7.72767 64.0396 7.56531C64.1275 7.56054 64.3037 7.56054 64.656 7.56054H65.0869C65.2005 7.56054 65.2573 7.56054 65.3089 7.55787C66.0725 7.51832 66.7467 7.04688 67.046 6.34326C67.0662 6.29564 67.0857 6.24231 67.1247 6.13566L67.173 6.00345Z" fill="#FBD718"/>
<path d="M96.173 6.00345C96.6349 4.73955 96.8658 4.1076 97.0672 3.798C98.349 1.82739 101.234 1.82739 102.516 3.798C102.717 4.1076 102.948 4.73955 103.41 6.00346L103.457 6.13263C103.497 6.24218 103.517 6.29696 103.538 6.34585C103.838 7.04718 104.51 7.51721 105.271 7.55772C105.325 7.56054 105.383 7.56054 105.5 7.56054H105.998C106.331 7.56054 106.498 7.56054 106.58 7.56469C109.607 7.71786 110.796 11.5651 108.382 13.3985C108.317 13.4482 108.179 13.5423 107.903 13.7305C107.855 13.7637 107.83 13.7803 107.809 13.7956C107.099 14.3084 106.805 15.2237 107.084 16.054C107.092 16.0789 107.103 16.1094 107.126 16.1704C107.366 16.8276 107.486 17.1562 107.528 17.3223C108.203 20.023 105.392 22.2676 102.908 21.011C102.755 20.9338 102.478 20.7548 101.924 20.3969L101.081 19.8523C100.884 19.7254 100.786 19.662 100.69 19.6136C100.125 19.3295 99.4585 19.3295 98.8934 19.6136C98.797 19.662 98.6988 19.7254 98.5025 19.8523L97.6763 20.3859C97.1086 20.7527 96.8247 20.9361 96.6679 21.0148C94.1876 22.2613 91.3871 20.0252 92.0537 17.3305C92.0958 17.1602 92.2185 16.8246 92.4638 16.1533C92.4873 16.0891 92.499 16.057 92.5079 16.0304C92.7814 15.2115 92.4985 14.3095 91.8063 13.7934C91.7839 13.7767 91.7583 13.7587 91.7071 13.7227C91.4189 13.5202 91.2747 13.4189 91.2055 13.3644C88.8501 11.5105 90.0465 7.72767 93.0396 7.56531C93.1275 7.56054 93.3037 7.56054 93.656 7.56054H94.0869C94.2005 7.56054 94.2573 7.56054 94.3089 7.55787C95.0725 7.51832 95.7467 7.04688 96.046 6.34326C96.0662 6.29564 96.0857 6.24231 96.1247 6.13566L96.173 6.00345Z" fill="#FBD718"/>
<path d="M125.173 6.00345C125.635 4.73955 125.866 4.1076 126.067 3.798C127.349 1.82739 130.234 1.82739 131.516 3.798C131.717 4.1076 131.948 4.73955 132.41 6.00346L132.457 6.13263C132.497 6.24218 132.517 6.29696 132.538 6.34585C132.838 7.04718 133.51 7.51721 134.271 7.55772C134.325 7.56054 134.383 7.56054 134.5 7.56054H134.998C135.331 7.56054 135.498 7.56054 135.58 7.56469C138.607 7.71786 139.796 11.5651 137.382 13.3985C137.317 13.4482 137.179 13.5423 136.903 13.7305C136.855 13.7637 136.83 13.7803 136.809 13.7956C136.099 14.3084 135.805 15.2237 136.084 16.054C136.092 16.0789 136.103 16.1094 136.126 16.1704C136.366 16.8276 136.486 17.1562 136.528 17.3223C137.203 20.023 134.392 22.2676 131.908 21.011C131.755 20.9338 131.478 20.7548 130.924 20.3969L130.081 19.8523C129.884 19.7254 129.786 19.662 129.69 19.6136C129.125 19.3295 128.459 19.3295 127.893 19.6136C127.797 19.662 127.699 19.7254 127.502 19.8523L126.676 20.3859C126.109 20.7527 125.825 20.9361 125.668 21.0148C123.188 22.2613 120.387 20.0252 121.054 17.3305C121.096 17.1602 121.218 16.8246 121.464 16.1533C121.487 16.0891 121.499 16.057 121.508 16.0304C121.781 15.2115 121.498 14.3095 120.806 13.7934C120.784 13.7767 120.758 13.7587 120.707 13.7227C120.419 13.5202 120.275 13.4189 120.206 13.3644C117.85 11.5105 119.047 7.72767 122.04 7.56531C122.128 7.56054 122.304 7.56054 122.656 7.56054H123.087C123.2 7.56054 123.257 7.56054 123.309 7.55787C124.073 7.51832 124.747 7.04688 125.046 6.34326C125.066 6.29564 125.086 6.24231 125.125 6.13566L125.173 6.00345Z" fill="#FBD718"/>
</svg>
