<svg width="120" height="24" viewBox="0 0 120 24" fill="none" xmlns="http://www.w3.org/2000/svg">
<path d="M8.38395 6.00345C8.84584 4.73955 9.07679 4.1076 9.27817 3.798C10.5599 1.82739 13.4452 1.82739 14.727 3.798C14.9283 4.1076 15.1593 4.73955 15.6212 6.00346L15.6684 6.13263C15.7084 6.24218 15.7284 6.29696 15.7493 6.34585C16.0487 7.04718 16.7209 7.51721 17.4824 7.55772C17.5355 7.56054 17.5938 7.56054 17.7105 7.56054H18.2085C18.5423 7.56054 18.7092 7.56054 18.7913 7.56469C21.8183 7.71786 23.0065 11.5651 20.593 13.3985C20.5275 13.4482 20.3897 13.5423 20.114 13.7305C20.0655 13.7637 20.0412 13.7803 20.0199 13.7956C19.3098 14.3084 19.0159 15.2237 19.2948 16.054C19.3032 16.0789 19.3144 16.1094 19.3367 16.1704C19.5768 16.8276 19.6969 17.1562 19.7384 17.3223C20.414 20.023 17.6029 22.2676 15.1187 21.011C14.9659 20.9338 14.6889 20.7548 14.1349 20.3969L13.2917 19.8523C13.0953 19.7254 12.9972 19.662 12.9008 19.6136C12.3357 19.3295 11.6695 19.3295 11.1044 19.6136C11.008 19.662 10.9098 19.7254 10.7134 19.8523L9.88727 20.3859C9.31952 20.7527 9.03565 20.9361 8.87888 21.0148C6.39851 22.2613 3.59805 20.0252 4.26465 17.3305C4.30678 17.1602 4.42942 16.8246 4.67471 16.1533C4.69819 16.0891 4.70993 16.057 4.71881 16.0304C4.99231 15.2115 4.70944 14.3095 4.01727 13.7934C3.99479 13.7767 3.96921 13.7587 3.91806 13.7227C3.62981 13.5202 3.48568 13.4189 3.41646 13.3644C1.06109 11.5105 2.25746 7.72767 5.25051 7.56531C5.33846 7.56054 5.51463 7.56054 5.86695 7.56054H6.29787C6.41142 7.56054 6.4682 7.56054 6.51988 7.55787C7.28347 7.51832 7.95769 7.04688 8.25692 6.34326C8.27718 6.29564 8.29667 6.24231 8.33564 6.13566L8.38395 6.00345Z" fill="#1D1F17"/>
<path d="M32.384 6.00345C32.8458 4.73955 33.0768 4.1076 33.2782 3.798C34.5599 1.82739 37.4452 1.82739 38.727 3.798C38.9283 4.1076 39.1593 4.73955 39.6212 6.00346L39.6684 6.13263C39.7084 6.24218 39.7284 6.29696 39.7493 6.34585C40.0487 7.04718 40.7209 7.51721 41.4824 7.55772C41.5355 7.56054 41.5938 7.56054 41.7105 7.56054H42.2085C42.5423 7.56054 42.7092 7.56054 42.7913 7.56469C45.8183 7.71786 47.0065 11.5651 44.593 13.3985C44.5275 13.4482 44.3897 13.5423 44.114 13.7305C44.0655 13.7637 44.0412 13.7803 44.0199 13.7956C43.3098 14.3084 43.0159 15.2237 43.2948 16.054C43.3032 16.0789 43.3144 16.1094 43.3367 16.1704C43.5768 16.8276 43.6969 17.1562 43.7384 17.3223C44.414 20.023 41.6029 22.2676 39.1187 21.011C38.9659 20.9338 38.6889 20.7548 38.1349 20.3969L37.2917 19.8523C37.0953 19.7254 36.9972 19.662 36.9008 19.6136C36.3357 19.3295 35.6695 19.3295 35.1044 19.6136C35.008 19.662 34.9098 19.7254 34.7134 19.8523L33.8873 20.3859C33.3195 20.7527 33.0357 20.9361 32.8789 21.0148C30.3985 22.2613 27.598 20.0252 28.2646 17.3305C28.3068 17.1602 28.4294 16.8246 28.6747 16.1533C28.6982 16.0891 28.7099 16.057 28.7188 16.0304C28.9923 15.2115 28.7094 14.3095 28.0173 13.7934C27.9948 13.7767 27.9692 13.7587 27.9181 13.7227C27.6298 13.5202 27.4857 13.4189 27.4165 13.3644C25.0611 11.5105 26.2575 7.72767 29.2505 7.56531C29.3385 7.56054 29.5146 7.56054 29.867 7.56054H30.2979C30.4114 7.56054 30.4682 7.56054 30.5199 7.55787C31.2835 7.51832 31.9577 7.04688 32.2569 6.34326C32.2772 6.29564 32.2967 6.24231 32.3356 6.13566L32.384 6.00345Z" fill="#1D1F17"/>
<path d="M56.384 6.00345C56.8458 4.73955 57.0768 4.1076 57.2782 3.798C58.5599 1.82739 61.4452 1.82739 62.727 3.798C62.9283 4.1076 63.1593 4.73955 63.6212 6.00346L63.6684 6.13263C63.7084 6.24218 63.7284 6.29696 63.7493 6.34585C64.0487 7.04718 64.7209 7.51721 65.4824 7.55772C65.5355 7.56054 65.5938 7.56054 65.7105 7.56054H66.2085C66.5423 7.56054 66.7092 7.56054 66.7913 7.56469C69.8183 7.71786 71.0065 11.5651 68.593 13.3985C68.5275 13.4482 68.3897 13.5423 68.114 13.7305C68.0655 13.7637 68.0412 13.7803 68.0199 13.7956C67.3098 14.3084 67.0159 15.2237 67.2948 16.054C67.3032 16.0789 67.3144 16.1094 67.3367 16.1704C67.5768 16.8276 67.6969 17.1562 67.7384 17.3223C68.414 20.023 65.6029 22.2676 63.1187 21.011C62.9659 20.9338 62.6889 20.7548 62.1349 20.3969L61.2917 19.8523C61.0953 19.7254 60.9972 19.662 60.9008 19.6136C60.3357 19.3295 59.6695 19.3295 59.1044 19.6136C59.008 19.662 58.9098 19.7254 58.7134 19.8523L57.8873 20.3859C57.3195 20.7527 57.0357 20.9361 56.8789 21.0148C54.3985 22.2613 51.598 20.0252 52.2646 17.3305C52.3068 17.1602 52.4294 16.8246 52.6747 16.1533C52.6982 16.0891 52.7099 16.057 52.7188 16.0304C52.9923 15.2115 52.7094 14.3095 52.0173 13.7934C51.9948 13.7767 51.9692 13.7587 51.9181 13.7227C51.6298 13.5202 51.4857 13.4189 51.4165 13.3644C49.0611 11.5105 50.2575 7.72767 53.2505 7.56531C53.3385 7.56054 53.5146 7.56054 53.867 7.56054H54.2979C54.4114 7.56054 54.4682 7.56054 54.5199 7.55787C55.2835 7.51832 55.9577 7.04688 56.2569 6.34326C56.2772 6.29564 56.2967 6.24231 56.3356 6.13566L56.384 6.00345Z" fill="#1D1F17"/>
<path d="M80.384 6.00345C80.8458 4.73955 81.0768 4.1076 81.2782 3.798C82.5599 1.82739 85.4452 1.82739 86.727 3.798C86.9283 4.1076 87.1593 4.73955 87.6212 6.00346L87.6684 6.13263C87.7084 6.24218 87.7284 6.29696 87.7493 6.34585C88.0487 7.04718 88.7209 7.51721 89.4824 7.55772C89.5355 7.56054 89.5938 7.56054 89.7105 7.56054H90.2085C90.5423 7.56054 90.7092 7.56054 90.7913 7.56469C93.8183 7.71786 95.0065 11.5651 92.593 13.3985C92.5275 13.4482 92.3897 13.5423 92.114 13.7305C92.0655 13.7637 92.0412 13.7803 92.0199 13.7956C91.3098 14.3084 91.0159 15.2237 91.2948 16.054C91.3032 16.0789 91.3144 16.1094 91.3367 16.1704C91.5768 16.8276 91.6969 17.1562 91.7384 17.3223C92.414 20.023 89.6029 22.2676 87.1187 21.011C86.9659 20.9338 86.6889 20.7548 86.1349 20.3969L85.2917 19.8523C85.0953 19.7254 84.9972 19.662 84.9008 19.6136C84.3357 19.3295 83.6695 19.3295 83.1044 19.6136C83.008 19.662 82.9098 19.7254 82.7134 19.8523L81.8873 20.3859C81.3195 20.7527 81.0357 20.9361 80.8789 21.0148C78.3985 22.2613 75.598 20.0252 76.2646 17.3305C76.3068 17.1602 76.4294 16.8246 76.6747 16.1533C76.6982 16.0891 76.7099 16.057 76.7188 16.0304C76.9923 15.2115 76.7094 14.3095 76.0173 13.7934C75.9948 13.7767 75.9692 13.7587 75.9181 13.7227C75.6298 13.5202 75.4857 13.4189 75.4165 13.3644C73.0611 11.5105 74.2575 7.72767 77.2505 7.56531C77.3385 7.56054 77.5146 7.56054 77.867 7.56054H78.2979C78.4114 7.56054 78.4682 7.56054 78.5199 7.55787C79.2835 7.51832 79.9577 7.04688 80.2569 6.34326C80.2772 6.29564 80.2967 6.24231 80.3356 6.13566L80.384 6.00345Z" fill="#1D1F17"/>
<path d="M104.384 6.00345C104.846 4.73955 105.077 4.1076 105.278 3.798C106.56 1.82739 109.445 1.82739 110.727 3.798C110.928 4.1076 111.159 4.73955 111.621 6.00346L111.668 6.13263C111.708 6.24218 111.728 6.29696 111.749 6.34585C112.049 7.04718 112.721 7.51721 113.482 7.55772C113.536 7.56054 113.594 7.56054 113.71 7.56054H114.209C114.542 7.56054 114.709 7.56054 114.791 7.56469C117.818 7.71786 119.006 11.5651 116.593 13.3985C116.528 13.4482 116.39 13.5423 116.114 13.7305C116.066 13.7637 116.041 13.7803 116.02 13.7956C115.31 14.3084 115.016 15.2237 115.295 16.054C115.303 16.0789 115.314 16.1094 115.337 16.1704C115.577 16.8276 115.697 17.1562 115.738 17.3223C116.414 20.023 113.603 22.2676 111.119 21.011C110.966 20.9338 110.689 20.7548 110.135 20.3969L109.292 19.8523C109.095 19.7254 108.997 19.662 108.901 19.6136C108.336 19.3295 107.669 19.3295 107.104 19.6136C107.008 19.662 106.91 19.7254 106.713 19.8523L105.887 20.3859C105.32 20.7527 105.036 20.9361 104.879 21.0148C102.399 22.2613 99.598 20.0252 100.265 17.3305C100.307 17.1602 100.429 16.8246 100.675 16.1533C100.698 16.0891 100.71 16.057 100.719 16.0304C100.992 15.2115 100.709 14.3095 100.017 13.7934C99.9948 13.7767 99.9692 13.7587 99.9181 13.7227C99.6298 13.5202 99.4857 13.4189 99.4165 13.3644C97.0611 11.5105 98.2575 7.72767 101.251 7.56531C101.338 7.56054 101.515 7.56054 101.867 7.56054H102.298C102.411 7.56054 102.468 7.56054 102.52 7.55787C103.283 7.51832 103.958 7.04688 104.257 6.34326C104.277 6.29564 104.297 6.24231 104.336 6.13566L104.384 6.00345Z" fill="#1D1F17"/>
</svg>
