<svg width="50" height="50" viewBox="0 0 50 50" fill="none" xmlns="http://www.w3.org/2000/svg">
<path d="M10.6932 22.4408C9.95757 22.0675 9.08799 22.0675 8.35239 22.4408V22.4408C6.46479 23.3988 6.46479 26.095 8.35239 27.053L22.8776 34.4249C23.8005 34.8933 24.2619 35.1275 24.7548 35.1739C24.9173 35.1892 25.0808 35.1892 25.2433 35.1739C25.7362 35.1275 26.1976 34.8933 27.1205 34.4249L41.6457 27.053C43.5333 26.095 43.5333 23.3988 41.6457 22.4408V22.4408C40.9101 22.0675 40.0405 22.0675 39.3049 22.4408L27.1205 28.6247C26.1976 29.0931 25.7362 29.3273 25.2433 29.3737C25.0808 29.389 24.9173 29.389 24.7548 29.3737C24.2619 29.3273 23.8005 29.0931 22.8776 28.6247L10.6932 22.4408Z" fill="#1D1F17"/>
<path d="M41.6457 31.7454C40.9101 31.3721 40.0405 31.3721 39.3049 31.7454L27.1205 37.9293C26.1976 38.3977 25.7362 38.6319 25.2433 38.6783C25.0808 38.6936 24.9173 38.6936 24.7548 38.6783C24.2619 38.6319 23.8005 38.3977 22.8776 37.9293L10.6932 31.7454C9.95757 31.3721 9.08799 31.3721 8.35239 31.7454V31.7454C6.46479 32.7034 6.46479 35.3996 8.35239 36.3576L22.8776 43.7295C23.8005 44.1979 24.2619 44.4321 24.7548 44.4785C24.9173 44.4938 25.0808 44.4938 25.2433 44.4785C25.7362 44.4321 26.1976 44.1979 27.1205 43.7295L41.6457 36.3576C43.5333 35.3996 43.5333 32.7034 41.6457 31.7454V31.7454Z" fill="#1D1F17"/>
<path d="M12.0446 19.6222C8.87459 18.0133 7.28959 17.2089 7.02145 16.0111C6.93759 15.6364 6.93759 15.2479 7.02145 14.8733C7.28959 13.6755 8.87459 12.8711 12.0446 11.2622L22.8776 5.76418C23.8005 5.2958 24.2619 5.06161 24.7548 5.01518C24.9173 4.99987 25.0808 4.99987 25.2433 5.01518C25.7362 5.06161 26.1976 5.2958 27.1205 5.76418L37.9535 11.2622C41.1235 12.8711 42.7085 13.6755 42.9767 14.8733C43.0605 15.2479 43.0605 15.6364 42.9767 16.0111C42.7085 17.2089 41.1235 18.0133 37.9535 19.6222L27.1205 25.1202C26.1976 25.5886 25.7362 25.8228 25.2433 25.8692C25.0808 25.8845 24.9173 25.8845 24.7548 25.8692C24.2619 25.8228 23.8005 25.5886 22.8776 25.1202L12.0446 19.6222Z" fill="#1D1F17" fill-opacity="0.18"/>
</svg>
