<svg width="50" height="50" viewBox="0 0 50 50" fill="none" xmlns="http://www.w3.org/2000/svg">
<path d="M25.5202 4.6875V6.25C25.5202 12.109 25.5202 15.0384 27.0122 17.0921C27.4941 17.7553 28.0774 18.3386 28.7406 18.8204C30.7942 20.3125 33.7237 20.3125 39.5827 20.3125L41.1452 20.3125V31.25C41.1452 37.109 41.1452 40.0384 39.6531 42.0921C39.1713 42.7553 38.588 43.3386 37.9248 43.8204C35.8711 45.3125 32.9416 45.3125 27.0827 45.3125H22.916C17.0571 45.3125 14.1276 45.3125 12.0739 43.8204C11.4107 43.3386 10.8274 42.7553 10.3456 42.0921C8.85352 40.0384 8.85352 37.109 8.85352 31.25V18.75C8.85352 12.891 8.85352 9.96156 10.3456 7.90793C10.8274 7.24469 11.4107 6.66143 12.0739 6.17955C14.1276 4.6875 17.0571 4.6875 22.916 4.6875H25.5202Z" fill="#1D1F17" fill-opacity="0.18"/>
<path d="M28.6465 4.6875V8.75C28.6465 12.2654 28.6465 14.0231 29.5417 15.2552C29.8308 15.6532 30.1808 16.0031 30.5787 16.2923C31.8109 17.1875 33.5686 17.1875 37.084 17.1875L41.1465 17.1875L28.6465 4.6875Z" fill="#1D1F17"/>
</svg>
